<?xml version="1.0" encoding="UTF-8"?>
<svg id="Layer_2" data-name="Layer 2" xmlns="http://www.w3.org/2000/svg" viewBox="0 0 872.35 187.79">
  <defs>
    <style>
      .cls-1 {
        fill: #fff;
      }

      .cls-2 {
        fill: #3a787e;
      }
    </style>
  </defs>
  <g id="Layer_1-2" data-name="Layer 1">
    <rect class="cls-1" width="872.35" height="187.79"/>
    <g>
      <g>
        <path class="cls-2" d="m242.03,126.67h-70.3l-12.89,31.46h-8.77L202.66,29.9h8.59l52.6,128.23h-9.11l-12.72-31.46Zm-2.92-7.22l-32.14-79.59-32.31,79.59h64.46Z"/>
        <path class="cls-2" d="m302.7,161.22c-20.28,0-34.03-15.3-34.03-33.52s13.41-33.35,32.49-33.35c17.53,0,32.32,14.44,32.32,31.97v1.55h-56.55c.17,15.3,11.17,26.47,25.78,26.47,9.63,0,18.05-4.3,24.41-10.49l4.64,5.5c-6.36,6.53-16.85,11.86-29.05,11.86Zm-25.1-39.88h47.1c-2.23-11.52-11.86-20.11-23.55-20.11s-21.14,8.25-23.55,20.11Z"/>
        <path class="cls-2" d="m353.75,158.13h-7.73v-60.68h7.39v12.38c2.41-4.81,8.59-12.38,17.02-12.38h2.06v8.94c-.34-.34-1.38-.52-2.06-.52-10.14,0-16.67,10.66-16.67,18.05v34.21Z"/>
        <path class="cls-2" d="m447.6,127.7c0,18.05-14.78,33.52-33.69,33.52s-33.69-15.47-33.69-33.52,14.78-33.35,33.69-33.35,33.69,15.3,33.69,33.35Zm-59.13,0c0,14.61,11.17,26.64,25.44,26.64s25.44-12.03,25.44-26.64-11.17-26.47-25.44-26.47-25.44,12.03-25.44,26.47Z"/>
        <path class="cls-2" d="m469.09,158.13h-7.74V24.05h7.74v134.07Z"/>
        <path class="cls-2" d="m495.56,86.1h-8.94v-12.55h8.94v12.55Zm-.69,72.02h-7.74v-60.68h7.74v60.68Z"/>
        <path class="cls-2" d="m523.92,104.15v53.97h-7.74v-53.97h-8.59v-6.7h8.59v-35.24l7.74-6.88v42.11h8.42v6.7h-8.42Z"/>
        <path class="cls-2" d="m551.94,158.13h-7.73V24.05h7.73v80.96c3.95-4.98,11.17-9.11,19.77-9.11,13.58,0,21.83,8.6,21.83,22.69v39.54h-7.73v-37.3c0-13.75-8.08-18.05-16.67-18.05-7.22,0-17.19,5.5-17.19,17.02v38.33Z"/>
        <path class="cls-2" d="m673.81,127.7c0,18.05-14.78,33.52-33.69,33.52s-33.69-15.47-33.69-33.52,14.78-33.35,33.69-33.35,33.69,15.3,33.69,33.35Zm-59.13,0c0,14.61,11.17,26.64,25.44,26.64s25.44-12.03,25.44-26.64-11.17-26.47-25.44-26.47-25.44,12.03-25.44,26.47Z"/>
        <path class="cls-2" d="m717.64,100.2l-3.44,6.19c-3.61-2.41-7.56-3.78-11.52-3.78-6.36,0-10.66,3.09-10.66,7.74,0,3.78,3.27,6.53,12.38,12.03,14.1,8.94,17.88,13.75,17.88,20.8,0,10.49-8.42,16.33-20.63,16.5-6.7,0-13.75-2.23-19.77-6.02l3.27-6.36c6.36,3.61,11.69,5.5,15.47,5.67,9.28-.17,13.41-4.47,13.41-9.45,0-2.75-1.03-6.7-13.92-14.61-12.38-7.73-16.33-11-16.33-18.91,0-6.02,5.67-14.27,18.56-14.27,6.02,0,11.52,2.41,15.3,4.47Z"/>
      </g>
      <rect class="cls-2" x="279.19" y="80.69" width="43.97" height="7.48"/>
    </g>
  </g>
</svg>