<?xml version="1.0" encoding="UTF-8"?>
<svg id="Layer_2" data-name="Layer 2" xmlns="http://www.w3.org/2000/svg" viewBox="0 0 3393.76 1636.73">
  <defs>
    <style>
      .cls-1 {
        fill: none;
      }

      .cls-2 {
        fill: #fff;
      }
    </style>
  </defs>
  <g id="Layer_2-2" data-name="Layer 2">
    <g id="Layer_1-2" data-name="Layer 1-2">
      <g>
        <polygon points="1702.39 812.02 1536.76 919.07 850.77 1362.43 426.37 1636.73 0 1636.73 0 705.25 .01 705.25 .01 812.02 1702.39 812.02"/>
        <polygon class="cls-2" points="1969.87 0 1741.99 691.81 1702.46 811.82 1702.39 812.01 1702.34 811.85 1667.18 685 1477.31 0 1969.87 0"/>
        <polygon class="cls-2" points="3393.76 0 3393.76 846.04 2716.2 832.41 1962.32 817.25 1713.64 812.24 1702.61 812.02 1702.4 812.02 1702.61 811.86 1812.88 733.75 2105.39 526.56 2529.85 225.9 2848.76 0 3393.76 0"/>
        <polygon class="cls-2" points="1702.39 812.02 0 812.02 0 0 664.67 0 903.81 187.13 1582.66 718.33 1702.39 812.02"/>
        <polygon class="cls-2" points="1702.39 812.02 1639.7 978.26 1391.4 1636.73 426.37 1636.73 850.77 1362.43 1536.76 919.07 1702.39 812.02"/>
        <polygon points="2848.89 0 2529.88 225.94 1812.89 733.76 1709.78 806.78 1702.61 811.86 1702.4 812.02 1702.39 812.02 1702.39 812.01 1702.46 811.82 1702.46 811.81 1741.98 691.81 1969.81 0 2848.89 0"/>
        <polygon points="1702.39 812.01 1702.39 812.02 1582.66 718.33 903.81 187.13 664.67 0 1477.31 0 1667.18 685 1702.34 811.85 1702.39 812.01"/>
        <polygon points="3393.76 845.39 3393.76 1636.73 2773.52 1636.73 2773.33 1636.58 2505.84 1430.63 1841.02 918.76 1713.47 820.56 1702.53 812.13 1702.4 812.02 1702.61 812.02 1713.64 812.24 1962.34 817.15 2109.43 820.05 2716.2 832.02 3393.76 845.39"/>
      </g>
    </g>
  </g>
  <g id="Layer_1-2" data-name="Layer 1">
    <polygon class="cls-1" points="2773.33 1636.58 2773.22 1636.73 1937.87 1636.73 1748.12 972.18 1702.39 812.02 1702.4 812.02 1702.53 812.13 1713.47 820.56 1841.02 918.76 2505.84 1430.63 2773.33 1636.58"/>
    <polygon points="1937.87 1636.73 1391.4 1636.73 1639.7 978.26 1702.39 812.02 1748.12 972.18 1937.87 1636.73"/>
  </g>
</svg>