<?xml version="1.0" encoding="UTF-8"?>
<svg id="Layer_2" data-name="Layer 2" xmlns="http://www.w3.org/2000/svg" viewBox="0 0 3394.78 5009.59">
  <defs>
    <style>
      .cls-1 {
        fill: none;
      }

      .cls-2 {
        fill: #ea7344;
      }

      .cls-3 {
        fill: #e3d1a1;
      }

      .cls-4 {
        fill: #fff;
      }

      .cls-5 {
        fill: #f2d785;
      }

      .cls-6 {
        fill: #ff9971;
      }

      .cls-7 {
        fill: #e5c880;
      }

      .cls-8 {
        fill: #ff884f;
      }

      .cls-9 {
        fill: #cebb93;
      }

      .cls-10 {
        fill: #d7ddd1;
      }

      .cls-11 {
        fill: #0b1b28;
      }

      .cls-12 {
        fill: #598c9c;
      }
    </style>
  </defs>
  <g id="Layer_1-2" data-name="Layer 1">
    <g id="Front">
      <path class="cls-10" d="m490.46,2370.21l-3.44,2611.63h56.54c.74-650.17,1.09-2294.9,1.09-2300.82,0-104.43,51.5-196.82,130.5-253.18,45.84-32.71,100.92-53.28,160.59-57.01v-.61h-345.29Zm74.56,143.4h0c-17.28,26.97-30.5,56.8-38.82,88.61v-107.99c0-10.71,8.68-19.41,19.42-19.41s19.41,8.7,19.41,19.41v19.38Zm59.31-68.3c-1.93,1.65-3.85,3.35-5.75,5.06-12.03,10.88-23.21,22.68-33.42,35.3v-50.34h.34c0-10.73,8.68-19.41,19.41-19.41s19.42,8.68,19.42,19.41v9.97Zm29.19-22.26h0c-2.94,1.97-5.83,3.99-8.68,6.07v-22.25c0-10.73,8.69-19.41,19.41-19.41,10.14,0,18.47,7.78,19.33,17.71-10.37,5.4-20.4,11.38-30.05,17.88Z"/>
    </g>
    <polygon points="1935.99 0 1679.74 1168.21 1679.7 1168.21 1392.55 0 1935.99 0"/>
    <polygon class="cls-4" points="1392.55 0 1679.7 1168.21 1679.63 1168.21 427.29 0 1392.55 0"/>
    <path d="m2501.57,2915.69c.13-2.13.23-4.25.3-6.36v56.49c0-15.51,0-32.33-.3-50.13h0Z"/>
    <path d="m2501.87,2909.33v-14.41c.16,4.76.16,9.57,0,14.41Z"/>
    <polygon class="cls-4" points="2774.32 0 1679.8 1168.21 1679.74 1168.21 1935.99 0 2774.32 0"/>
    <line class="cls-1" x1="1901.59" y1="2401.29" x2="1900.65" y2="2401.85"/>
    <g id="Layer_1-2" data-name="Layer 1-2">
      <g>
        <path class="cls-11" d="m78.52,1047.94h147.78v18.47s18.47,0,18.47,0v18.47c-12.21,0-22.57,7.91-26.27,18.83-.92,2.77-1.43,5.75-1.43,8.88l-1.18,323.25h-63.47v-258.6c0-40.79-33.09-73.88-73.89-73.88v-55.42s0,0,0,0Z"/>
        <path class="cls-12" d="m4.63,1047.94h73.89v55.42c-40.79,0-73.89,33.09-73.89,73.88v-129.3h0Z"/>
      </g>
    </g>
    <g id="Layer_1-2-2" data-name="Layer 1-2">
      <g>
        <path class="cls-12" d="m524.84,1660.02v21.6c-14.28,0-26.41,9.24-30.73,22.03-1.07,3.24-1.67,6.72-1.67,10.38l-.24,656.17-.96,2611.63h-74.41V1789.64c0-47.7-38.7-86.4-86.42-86.4v-64.81h172.83v21.6h21.6Z"/>
        <path class="cls-11" d="m330.41,1638.43v64.81c-47.71,0-86.41,38.7-86.41,86.4v3192.2h-74.41l-1.2-3267.8c0-3.67-.6-7.15-1.67-10.38-4.33-12.78-16.45-22.03-30.73-22.03v-21.6h21.6v-21.6h172.82Z"/>
        <path class="cls-12" d="m330.41,1400.8v60.38c-41.1,0-75.51,27.79-84.25,65.04-1.42,6.06-2.03,12.29-2.03,18.51v93.69l-.13-53.06v3396.47H97.79V1465.6c0-11.94-9.67-21.6-21.61-21.6v-21.6h21.55v-21.6h232.68Z"/>
        <path class="cls-10" d="m416.7,1638.43v-93.69c0-6.23-.6-12.45-2.03-18.51-8.75-37.25-43.15-65.04-84.26-65.04v-60.39h129.68v21.6s21.55,0,21.55,0v21.6c-11.94,0-21.61,9.66-21.61,21.6v172.83h-43.2v-53.06s-.13,53.06-.13,53.06Z"/>
      </g>
    </g>
    <g>
      <g id="Front-2" data-name="Front">
        <path class="cls-7" d="m2801.38,1911.23h-455.89v.81c78.78,4.93,151.51,32.08,212.02,75.27,104.3,74.41,172.3,196.39,172.3,334.28,0,8.18.51,2027.2,1.58,2688h74.67l-4.68-3098.36Zm-203.82,77.78c-3.77-2.74-7.59-5.41-11.47-8.01h-.01c-12.73-8.59-25.98-16.47-39.67-23.6,1.13-13.11,12.13-23.38,25.52-23.38,14.15,0,25.63,11.46,25.63,25.63v29.37Zm78.78,74.67c-13.48-16.66-28.23-32.24-44.12-46.6-2.5-2.26-5.04-4.5-7.59-6.69v-13.16c0-14.16,11.47-25.63,25.63-25.63s25.63,11.47,25.63,25.63h.45v66.46Zm77.85,153.88c-10.97-42-28.43-81.38-51.25-116.99h-.01v-25.59c0-14.15,11.47-25.63,25.63-25.63s25.63,11.47,25.63,25.63v142.58Z"/>
      </g>
      <g>
        <g id="Side">
          <path class="cls-5" d="m3055.4,1717.49v112.65c-.5,0-1.01,0-1.51.01-82.2.81-148.61,67.73-148.61,150.11v3029.32h-129.26l-2.29-3098.36-.04-62.28c0-6.4-1.04-12.4-2.87-18.02-7.57-22.19-28.59-38.25-53.39-38.25v-37.6h37.6v-37.59h300.38Z"/>
          <rect class="cls-5" x="3055.01" y="1304.33" width=".39" height=".13"/>
        </g>
        <path class="cls-3" d="m2792.61,1341.92v37.6c20.76,0,37.6,16.84,37.6,37.6v300.25s75.06,0,75.06,0v-262.78c0-82.76,67.02-149.91,149.74-150.12v-24.72s-224.93,0-224.93,0v62.18h-37.47Z"/>
      </g>
      <g>
        <g id="Side-2" data-name="Side">
          <path class="cls-5" d="m3390.34,1755.08v37.6c-24.8,0-45.82,16.05-53.39,38.25-1.83,5.62-2.87,11.62-2.87,18.02l-2.33,3160.64h-129.26V1980.27c0-82.38-66.41-149.3-148.61-150.11-.5-.01-1.01-.01-1.52-.01v-112.65h300.38v37.59h37.6Z"/>
          <rect class="cls-5" x="3052.36" y="1304.33" width=".39" height=".13"/>
        </g>
        <path class="cls-9" d="m3315.15,1341.92v37.6c-20.76,0-37.6,16.84-37.6,37.6v300.25h-75.06v-262.78c0-82.76-67.02-149.91-149.74-150.12v-24.72h224.93v62.18h37.47Z"/>
      </g>
    </g>
    <g>
      <polygon class="cls-2" points="822.24 1737.39 849.29 1595.92 753.82 1538.33 659.52 1199.25 787.59 1451.36 993.06 1658.24 822.24 1737.39"/>
      <polygon class="cls-8" points="993.06 1658.24 787.59 1451.36 659.52 1199.25 993.06 1658.24"/>
      <polygon class="cls-6" points="1058.77 1407.59 993.06 1658.24 787.59 1451.36 659.52 1199.25 1058.77 1407.59"/>
    </g>
    <g>
      <polygon class="cls-6" points="2427.66 1515.84 2405.49 1418.28 2449.92 1320.67 2427.66 1515.84"/>
      <polygon class="cls-8" points="2405.49 1418.28 2190.3 1385.19 2449.92 1320.67 2405.49 1418.28"/>
      <polygon class="cls-2" points="2405.49 1418.28 2188.89 1626.76 2190.3 1385.19 2405.49 1418.28"/>
      <polygon class="cls-8" points="2427.66 1515.84 2188.89 1626.76 2405.49 1418.28 2427.66 1515.84"/>
    </g>
    <g>
      <polygon class="cls-8" points="1355.88 2054.38 1308.81 2129.35 1177.47 2053.68 1355.88 2054.38"/>
      <polygon class="cls-2" points="1355.88 2054.38 1453.35 2219.59 1308.81 2129.35 1355.88 2054.38"/>
      <polygon class="cls-8" points="1453.35 2219.59 1313.02 2339.95 1308.85 2131.37 1308.81 2129.35 1453.35 2219.59"/>
      <polygon class="cls-2" points="1308.85 2131.37 1313.02 2339.95 1129.91 2238.05 1308.85 2131.37"/>
      <polygon class="cls-6" points="1308.81 2129.35 1308.85 2131.37 1129.91 2238.05 1177.47 2053.68 1308.81 2129.35"/>
      <polygon class="cls-8" points="1177.47 2053.68 1129.91 2238.05 1093.32 2216.01 1177.47 2053.68"/>
      <polygon class="cls-2" points="1185.49 2378.25 1093.32 2216.01 1129.91 2238.05 1185.49 2378.25"/>
      <polygon class="cls-8" points="1313.02 2339.95 1185.49 2378.25 1129.91 2238.05 1313.02 2339.95"/>
      <polygon class="cls-2" points="1185.49 2378.25 1367.91 2370.45 1313.02 2339.95 1185.49 2378.25"/>
      <polygon class="cls-6" points="1313.02 2339.95 1453.35 2219.59 1367.91 2370.45 1313.02 2339.95"/>
    </g>
    <g>
      <path d="m1679.84,1168.21c.66-.73,1.35-1.46,2.02-2.19l-2.06,2.19h.04Z"/>
      <path d="m1694.7,1152.31c-4.41,4.61-8.69,9.18-12.84,13.7l12.84-13.7Z"/>
      <path d="m3253.37,96.33l5.69-3.88L3394.78,0h-620.46l-1079.62,1152.31c55.86-58.32,329.1-321.52,775.38-257.61,94.48,13.53,186.45,41.36,280.86,55.33,94.42,13.98,194.62,13.13,280.66-28.17,86.05-41.31,153.92-130.63,147.22-225.84-6.88-97.73-91.95-178.51-187.48-200.25-17.3-3.94-34.8-6.22-52.36-7.01l.03-.75c32.54-53.62,87.15-93.37,148.18-107.87,31.34-7.45,65.54-8.16,94.58,5.77,29.05,13.94,51.24,44.96,47.87,76.99-3.03,28.94-31.34,53.98-59.39,51.33,121.16,21.81,208.34-80.5,211.27-176.19,2.98-97.67-42.44-199.19-128.15-241.71Z"/>
    </g>
    <path d="m1679.63,1168.21L427.29,0H0l149.94,104.29C61.46,144.64,13.46,246.98,15.23,345.99c1.72,95.72,87.59,199.13,209.02,178.85-28.08,2.29-56.07-23.1-58.73-52.08-2.96-32.07,19.62-62.81,48.84-76.38,29.21-13.56,63.4-12.42,94.65-4.57,60.84,15.27,114.94,55.71,146.8,109.74l.02.75c-17.57.57-35.1,2.63-52.44,6.35-95.8,20.53-181.88,100.22-190,197.86-7.91,95.12,58.83,185.29,144.35,227.69,85.51,42.39,185.69,44.51,280.28,31.72,94.58-12.77,186.89-39.43,281.54-51.77,448.25-58.4,760.06,254.06,760.06,254.05h.03Z"/>
    <path d="m3246.17,87.34c1.02-2.94,4.89-4.26,8.57-2.8,3.68,1.46,5.58,5.07,4.32,7.91-1.26,2.85-5.04,3.93-8.48,2.57-3.44-1.37-5.43-4.74-4.41-7.68Z"/>
    <polygon class="cls-4" points="2740.74 770.82 2776.09 722.73 2731.55 758.09 2776.09 793.44 2740.74 745.36 2705.38 793.44 2749.93 758.09 2705.38 722.73 2740.74 770.82"/>
    <polygon class="cls-4" points="486.3 749.21 524.14 697.75 476.46 735.59 524.14 773.43 486.3 721.97 448.46 773.43 496.14 735.59 448.46 697.75 486.3 749.21"/>
    <polygon class="cls-4" points="2405.28 625.37 2432.61 601.24 2401.44 616.59 2423.46 643.46 2408.57 610.18 2381.25 634.31 2412.42 618.97 2390.4 592.1 2405.28 625.37"/>
    <polygon class="cls-4" points="720.48 556.35 780.98 502.94 711.98 536.9 760.72 596.38 727.77 522.71 667.28 576.13 736.28 542.17 687.53 482.68 720.48 556.35"/>
    <polygon class="cls-4" points="2714.83 502.77 2809.83 484.66 2717.95 477.52 2731.87 568.62 2742.9 472.55 2647.9 490.66 2739.78 497.8 2725.87 406.69 2714.83 502.77"/>
    <polygon class="cls-4" points="345.19 275.04 381.33 290.18 351.89 267.21 336.21 301.09 361.44 271.11 325.29 255.97 354.73 278.94 370.42 245.06 345.19 275.04"/>
    <polygon class="cls-4" points="2963.56 239.33 2998.01 246.87 2968.22 231.31 2959.84 263.85 2977.3 233.22 2942.85 225.68 2972.64 241.24 2981.03 208.69 2963.56 239.33"/>
    <polygon class="cls-4" points="886.6 793.8 921.05 801.34 891.27 785.78 882.88 818.32 900.35 787.68 865.9 780.15 895.68 795.7 904.07 763.16 886.6 793.8"/>
  </g>
</svg>