<?xml version="1.0" encoding="utf-8"?>
<!-- Generator: Adobe Illustrator 27.7.0, SVG Export Plug-In . SVG Version: 6.00 Build 0)  -->
<svg version="1.1" id="Layer_2_00000002382394346986596390000000455724787464411324_"
	 xmlns="http://www.w3.org/2000/svg" xmlns:xlink="http://www.w3.org/1999/xlink" x="0px" y="0px" viewBox="0 0 572.2 137.2"
	 style="enable-background:new 0 0 572.2 137.2;" xml:space="preserve">
<style type="text/css">
	.st0{fill:#477A7C;}
</style>
<g id="Layer_1-2">
	<g>
		<path class="st0" d="M92,102.6H21.7L8.8,134.1H0L52.6,5.8h8.6l52.6,128.2h-9.1L92,102.6L92,102.6z M89,95.4L56.9,15.8L24.6,95.4
			H89z"/>
		<path class="st0" d="M152.6,137.2c-20.3,0-34-15.3-34-33.5s13.4-33.3,32.5-33.3c17.5,0,32.3,14.4,32.3,32v1.6h-56.6
			c0.2,15.3,11.2,26.5,25.8,26.5c9.6,0,18.1-4.3,24.4-10.5l4.6,5.5C175.3,131.8,164.9,137.2,152.6,137.2L152.6,137.2z M127.5,97.3
			h47.1c-2.2-11.5-11.9-20.1-23.6-20.1S129.9,85.4,127.5,97.3z"/>
		<path class="st0" d="M203.7,134.1H196V73.4h7.4v12.4c2.4-4.8,8.6-12.4,17-12.4h2.1v8.9c-0.3-0.3-1.4-0.5-2.1-0.5
			c-10.1,0-16.7,10.7-16.7,18.1L203.7,134.1L203.7,134.1z"/>
		<path class="st0" d="M297.5,103.7c0,18-14.8,33.5-33.7,33.5s-33.7-15.5-33.7-33.5s14.8-33.3,33.7-33.3S297.5,85.6,297.5,103.7z
			 M238.4,103.7c0,14.6,11.2,26.6,25.4,26.6c14.3,0,25.4-12,25.4-26.6s-11.2-26.5-25.4-26.5S238.4,89.2,238.4,103.7z"/>
		<path class="st0" d="M319,134.1h-7.7V0h7.7V134.1z"/>
		<path class="st0" d="M345.5,62h-8.9V49.5h8.9V62z M344.8,134.1h-7.7V73.4h7.7V134.1z"/>
		<path class="st0" d="M373.9,80.1v54h-7.7v-54h-8.6v-6.7h8.6V38.2l7.7-6.9v42.1h8.4v6.7L373.9,80.1L373.9,80.1z"/>
		<path class="st0" d="M401.9,134.1h-7.7V0h7.7v81c4-5,11.2-9.1,19.8-9.1c13.6,0,21.8,8.6,21.8,22.7v39.5h-7.7V96.8
			c0-13.8-8.1-18.1-16.7-18.1c-7.2,0-17.2,5.5-17.2,17L401.9,134.1L401.9,134.1z"/>
		<path class="st0" d="M523.7,103.7c0,18-14.8,33.5-33.7,33.5s-33.7-15.5-33.7-33.5s14.8-33.3,33.7-33.3S523.7,85.6,523.7,103.7z
			 M464.6,103.7c0,14.6,11.2,26.6,25.4,26.6s25.4-12,25.4-26.6S504.3,77.2,490,77.2S464.6,89.2,464.6,103.7z"/>
		<path class="st0" d="M567.6,76.2l-3.4,6.2c-3.6-2.4-7.6-3.8-11.5-3.8c-6.4,0-10.7,3.1-10.7,7.7c0,3.8,3.3,6.5,12.4,12
			c14.1,8.9,17.9,13.8,17.9,20.8c0,10.5-8.4,16.3-20.6,16.5c-6.7,0-13.8-2.2-19.8-6l3.3-6.4c6.4,3.6,11.7,5.5,15.5,5.7
			c9.3-0.2,13.4-4.5,13.4-9.4c0-2.8-1-6.7-13.9-14.6c-12.4-7.7-16.3-11-16.3-18.9c0-6,5.7-14.3,18.6-14.3
			C558.3,71.7,563.8,74.1,567.6,76.2L567.6,76.2z"/>
	</g>
	<rect x="129.1" y="56.6" class="st0" width="44" height="7.5"/>
</g>
</svg>
