<?xml version="1.0" encoding="UTF-8"?>
<svg id="Layer_2" data-name="Layer 2" xmlns="http://www.w3.org/2000/svg" viewBox="0 0 3195.89 10687.79">
  <defs>
    <style>
      .cls-1 {
        fill: none;
      }

      .cls-2 {
        fill: #ea7344;
      }

      .cls-3 {
        fill: #e3d1a1;
      }

      .cls-4, .cls-5 {
        fill: #fff;
      }

      .cls-6 {
        fill: #f2d785;
      }

      .cls-7 {
        fill: #ff9971;
      }

      .cls-8 {
        fill: #e5c880;
      }

      .cls-9 {
        fill: #ff884f;
      }

      .cls-10 {
        fill: #cebb93;
      }

      .cls-11 {
        fill: #0b1b28;
      }

      .cls-12 {
        fill: #598c9c;
      }

      .cls-5 {
        opacity: .5;
      }
    </style>
  </defs>
  <g id="Layer_2-2" data-name="Layer 2">
    <path d="m2299.5,2907.2c.13-2.13.23-4.25.3-6.36v56.49c0-15.51,0-32.33-.3-50.13h0Z"/>
    <path d="m2299.8,2900.84v-14.41c.16,4.76.16,9.57,0,14.41Z"/>
    <line class="cls-1" x1="1699.52" y1="2392.8" x2="1698.58" y2="2393.36"/>
    <g>
      <g id="Front-2">
        <path class="cls-8" d="m2460.11,1316.67h-701.23v1.25c121.17,7.58,233.04,49.35,326.12,115.78,160.43,114.45,265.03,302.08,265.03,514.18,0,12.58.78,7704.03,2.43,8720.45h114.85v-.02l-7.2-9351.64Zm-313.51,119.64c-5.8-4.21-11.67-8.32-17.64-12.32h-.01c-19.59-13.21-39.97-25.33-61.02-36.3,1.73-20.16,18.65-35.96,39.25-35.96,21.77,0,39.42,17.63,39.42,39.42v45.16Zm121.18,114.86c-20.73-25.63-43.42-49.59-67.86-71.68-3.85-3.48-7.76-6.92-11.68-10.29v-20.24c0-21.78,17.64-39.43,39.42-39.43s39.43,17.65,39.43,39.43h.69v102.21Zm119.75,236.69c-16.88-64.6-43.73-125.17-78.83-179.95h-.02v-39.36c0-21.76,17.64-39.42,39.42-39.42s39.43,17.64,39.43,39.42v219.31Z"/>
      </g>
      <g>
        <g id="Side">
          <path class="cls-6" d="m2850.84,1018.67v173.28c-.77,0-1.55,0-2.32.02-126.44,1.25-228.59,104.18-228.59,230.9v9245.46h-198.82l-3.52-9351.66-.06-95.8c0-9.84-1.6-19.07-4.41-27.72-11.64-34.13-43.98-58.84-82.12-58.84v-57.84h57.84v-57.82h462.04l-.02.02Z"/>
          <rect class="cls-6" x="2850.24" y="383.16" width=".6" height=".2"/>
        </g>
        <path class="cls-3" d="m2446.62,440.98v57.84c31.93,0,57.84,25.9,57.84,57.84v461.84h115.46v-404.2c0-127.3,103.09-230.59,230.33-230.91v-38.02h-345.98v95.64h-57.64v-.02Z"/>
      </g>
      <g>
        <g id="Side-2">
          <path class="cls-6" d="m3192.55,1018.68v9649.65h-115.46V1422.87c0-126.71-102.15-229.65-228.59-230.89-.26-.01-.51-.01-.77-.01-.52-.01-1.04-.01-1.57-.01v-173.28h346.39Z"/>
          <rect class="cls-6" x="2846.16" y="383.16" width=".6" height=".2"/>
        </g>
        <path class="cls-10" d="m3192.54,556.65v461.84h-115.46v-404.2c0-127.3-103.09-230.59-230.33-230.91v-38.02h345.98v95.64s-.2,83.72-.2,115.66Z"/>
      </g>
    </g>
    <g>
      <polygon class="cls-9" points="962.81 901.68 901.63 896.58 936.43 785.93 962.81 901.68"/>
      <polygon class="cls-7" points="1137.78 873.21 962.81 901.68 936.43 785.93 802.73 705.28 670.66 230.4 850.02 583.48 1137.78 873.21"/>
      <polygon class="cls-7" points="1137.78 873.22 850.02 583.48 670.66 230.4 1137.78 873.22"/>
      <polygon class="cls-9" points="1057.24 534.99 1137.78 873.22 850.02 583.48 670.66 230.4 1057.24 534.99"/>
    </g>
    <g>
      <polygon class="cls-7" points="567.93 1074.43 479.85 981.76 464.88 845.53 567.93 1074.43"/>
      <polygon class="cls-9" points="479.85 981.76 221.89 1086 464.88 845.53 479.85 981.76"/>
      <polygon class="cls-2" points="479.85 981.76 378.15 1352.23 221.89 1086 479.85 981.76"/>
      <polygon class="cls-9" points="567.93 1074.43 378.15 1352.23 479.85 981.76 567.93 1074.43"/>
    </g>
    <g>
      <polygon class="cls-9" points="1044.52 1336.59 1017.75 1379.24 943.04 1336.2 1044.52 1336.59"/>
      <polygon class="cls-2" points="1044.52 1336.59 1099.96 1430.56 1017.75 1379.24 1044.52 1336.59"/>
      <polygon class="cls-9" points="1099.96 1430.56 1020.14 1499.02 1017.77 1380.38 1017.75 1379.24 1099.96 1430.56"/>
      <polygon class="cls-2" points="1017.77 1380.38 1020.14 1499.02 915.99 1441.06 1017.77 1380.38"/>
      <polygon class="cls-7" points="1017.75 1379.24 1017.77 1380.38 915.99 1441.06 943.04 1336.2 1017.75 1379.24"/>
      <polygon class="cls-9" points="943.04 1336.2 915.99 1441.06 895.18 1428.53 943.04 1336.2"/>
      <polygon class="cls-2" points="947.61 1520.8 895.18 1428.53 915.99 1441.06 947.61 1520.8"/>
      <polygon class="cls-9" points="1020.14 1499.02 947.61 1520.8 915.99 1441.06 1020.14 1499.02"/>
      <polygon class="cls-2" points="947.61 1520.8 1051.36 1516.37 1020.14 1499.02 947.61 1520.8"/>
      <polygon class="cls-7" points="1020.14 1499.02 1099.96 1430.56 1051.36 1516.37 1020.14 1499.02"/>
    </g>
    <g>
      <path d="m1477.77,1426.41c.66-.73,1.35-1.46,2.02-2.19l-2.06,2.19h.04Z"/>
      <path d="m1492.63,1410.51c-4.41,4.61-8.69,9.18-12.84,13.7l12.84-13.7Z"/>
    </g>
    <line class="cls-1" x1="776.24" y1="1948.47" x2="773.57" y2="1936.76"/>
    <g>
      <g id="Front">
        <path class="cls-11" d="m2622,3454.26h-478.33s0,.85,0,.85c82.66,5.17,158.96,33.66,222.47,78.98,109.44,78.08,180.78,206.06,180.78,350.73,0,8.2.48,5891.48,1.51,6792.16h78.33s-4.77-7222.73-4.77-7222.73h.01Zm-103.32,198.64v-26.85c0-14.84,12.01-26.89,26.89-26.89,14.88,0,26.9,12.05,26.9,26.89v149.6c-11.53-44.07-29.84-85.39-53.78-122.75h-.01Zm-82.15-94.63v-13.81c0-14.86,12.04-26.89,26.9-26.89,14.86,0,26.89,12.02,26.89,26.89h.47v69.74c-14.14-17.48-29.63-33.83-46.3-48.9-2.63-2.37-5.29-4.72-7.97-7.01h0Zm-40.45-30.82c-13.37-9-27.26-17.29-41.63-24.77,1.19-13.76,12.73-24.53,26.78-24.53,14.85,0,26.89,12.02,26.89,26.89v30.82c-3.95-2.88-7.95-5.68-12.02-8.41h-.01Z"/>
      </g>
      <g>
        <g id="Layer_1-2" data-name="Layer 1-2">
          <path class="cls-11" d="m3192.63,1622.5h0v76.77c-56.52,0-102.36,45.84-102.36,102.35v358.24h-87.93s-1.63-447.8-1.63-447.8c0-4.34-.71-8.46-1.98-12.3-5.13-15.13-19.48-26.09-36.39-26.09v-25.59h25.59s0-25.59,0-25.59h204.72s-.01,0-.01,0Z"/>
        </g>
        <g id="Layer_1-2-2" data-name="Layer 1-2-2">
          <g>
            <path class="cls-12" d="m2574.36,2470.43h29.92s0-29.92,0-29.92h239.42v89.78c-66.11,0-119.72,53.61-119.72,119.69v8026.98h-103.08s-1.33-7222.73-1.33-7222.73l-.33-909c0-5.07-.83-9.89-2.31-14.38-5.98-17.72-22.79-30.52-42.57-30.52v-29.92s0,.01,0,.01Z"/>
            <path class="cls-11" d="m2843.7,2440.51h239.41v29.92s29.92,0,29.92,0v29.92c-19.78,0-36.57,12.81-42.57,30.52-1.48,4.47-2.31,9.3-2.31,14.38l-1.66,8131.73h-103.08V2649.98c0-66.08-53.61-119.69-119.7-119.69v-89.78s0,0,0,0Z"/>
            <path class="cls-12" d="m2843.7,2111.32h322.33v29.92s29.85,0,29.85,0v29.92c-16.54,0-29.94,13.38-29.94,29.92v8475.88h-202.55V2366.99s-.18,73.5-.18,73.5v-129.79c0-8.62-.85-17.25-2.81-25.64-12.11-51.6-59.78-90.1-116.71-90.1v-83.64h0Z"/>
            <path class="cls-11" d="m2724.16,2440.51l-.18-73.5v73.5h-59.85v-239.42c0-16.54-13.4-29.92-29.94-29.92v-29.92h29.85s0-29.92,0-29.92h179.65v83.66c-56.95,0-104.6,38.5-116.73,90.1-1.98,8.4-2.81,17.01-2.81,25.64v129.79s0,0,0,0Z"/>
          </g>
        </g>
      </g>
    </g>
    <rect class="cls-4" y="1981.76" width="2001.61" height="2557.61"/>
    <rect class="cls-5" x="33.4" width="3158.27" height="10680.04"/>
  </g>
</svg>