<?xml version="1.0" encoding="utf-8"?>
<!-- Generator: Adobe Illustrator 27.7.0, SVG Export Plug-In . SVG Version: 6.00 Build 0)  -->
<svg version="1.1" id="Layer_2_00000057851723248277766160000011420887540002599346_"
	 xmlns="http://www.w3.org/2000/svg" xmlns:xlink="http://www.w3.org/1999/xlink" x="0px" y="0px" viewBox="0 0 379.7 222.6"
	 style="enable-background:new 0 0 379.7 222.6;" xml:space="preserve">
<style type="text/css">
	.st0{fill:#FFFFFF;}
	.st1{enable-background:new    ;}
</style>
<g id="Layer_1-2">
	<g>
		<g>
			<path d="M189.8,222.6l-172.2-99c-23.5-23.5-23.5-61.6,0-85.1l84.7-2.2c48.3-48.3,126.7-48.3,175,0l84.7,2.2
				c23.5,23.5,23.5,61.6,0,85.1L189.8,222.6z"/>
		</g>
		<g>
			<path d="M20.5,119.8C10.3,109.4,4.7,95.6,4.7,81s5.3-27.6,15-37.9l84.7-2.2l1.3-1.3C128.1,17.1,158,4.7,189.8,4.7
				S251.5,17,274,39.5l1.3,1.3l84.7,2.2c20.2,21.6,19.9,55.5-0.9,76.7l-169.4,97.4L20.5,119.8z"/>
			<path class="st0" d="M189.8,218.9L19.6,121l-0.1-0.1C8.9,110.2,3.2,96,3.2,81c0-14.7,5.3-28.2,15.4-38.9l0.4-0.5l84.7-2.3
				l0.9-0.9c22.8-22.8,53.1-35.3,85.3-35.3s62.5,12.5,85.3,35.3l0.9,0.9l84.7,2.3l0.4,0.5c20.9,22.3,20.5,56.9-0.9,78.8l-0.1,0.1
				l-0.2,0.1L189.8,218.9z M21.4,118.6l168.4,96.8l168.4-96.8c20-20.6,20.4-52.9,1.1-74l-84.6-2.2l-1.7-1.7
				c-22.2-22.2-51.7-34.4-83.1-34.4c-31.4,0-60.9,12.2-83.1,34.4l-1.7,1.7l-84.6,2.2C11.1,54.7,6.2,67.3,6.2,81
				C6.2,95.2,11.6,108.5,21.4,118.6z"/>
		</g>
		<g class="st1">
			<path class="st0" d="M199.5,15.8c-0.7,1-3,3.2-5.1,4.2c-1.3,0.7-2.8,1.2-4.8,1.4c-1,0.4-1.6,0.8-2.6,1.8c-1.7,1.8-4,6.4-5.9,11
				l-3.3,7.7c-2,4.6-6.2,6.6-9.3,6.6c-0.9,0-1.8-0.2-2.5-0.5c-1.7-0.8-2.1-2.3-2.1-3.6c0-0.7,0.1-1.4,0.2-1.6
				c0.1-0.4,0.4-0.6,0.7-0.6c0.2,0,0.4,0.1,0.4,0.4c0,0.7,0.6,1.8,1.7,2c1.7,0.3,4.5-1.1,6.7-5.8l2.4-5.4c2.6-5.9,4.7-8.6,6.5-10.2
				c1.1-1,1.8-1.3,2.4-1.6c0.1,0,0.2-0.1,0.2-0.2s-0.1-0.2-0.4-0.2c-0.8-0.1-0.7-0.1-1.7-0.3l-5.9-1.2c-0.8-0.2-1.6-0.3-2.2-0.3
				c-2.2,0-3.3,0.9-3.9,2.1c-0.2,0.5-0.3,1-0.3,1.5c0,0.6,0.1,1.1,0.3,1.3c0.2,0.2,0.1,0.5,0,0.7c-0.2,0.2-0.4,0.3-0.6,0.2
				c-0.3-0.2-1.6-1.3-1.6-3.4c0-0.5,0.1-1,0.2-1.6c0.7-3,3.7-5.9,8.1-5.9c0.7,0,1.5,0.1,2.2,0.3l6.4,1.5c1.5,0.4,3.1,0.5,4.5,0.5
				c2.3,0,4.4-0.4,6.2-1c1.2-0.4,2.2-0.7,2.7-1.1c0.4-0.3,0.9-0.4,0.9,0.3C200.1,15.1,199.9,15.4,199.5,15.8z"/>
		</g>
		<g class="st1">
			<path class="st0" d="M193.6,48.4c-0.5,0-0.9,0-1.3-0.1c-1.5-0.4-2.7-1.6-2.7-3.5c0-0.8,0.2-1.8,0.7-2.8l1.8-3.9
				c0.7-1.5,1.3-3.8,0.4-4.1c-0.9-0.3-1.9,0.7-3,2.2c-0.8,1.1-1.6,2.5-2.1,3.7l-3.7,7.9c-0.1,0.3-0.2,0.4-0.6,0.4h-3.7
				c-0.4,0-0.3-0.2-0.2-0.4l12.8-27.9c0.6-1.1,2.7-2.5,4.1-2.6c1-0.1,1.5,0.4,0.8,1.9l-6.2,13.4c0,0,1.6-2.1,3.9-1.9
				c1.9,0.1,3.1,1.8,2.8,4.1c-0.3,2.3-3.2,6.8-3.2,8.9c0,0.5,0.2,0.9,0.7,1.1c2.2,0.7,4.4-2.6,6.1-5.9c0.2-0.3,0.8-0.1,1.3,0.3
				c0.4,0.4,0.7,1.1,0.4,1.8C200.4,46.5,196.5,48.4,193.6,48.4z"/>
			<path class="st0" d="M214.4,45.1c-2.1,2.5-5.3,3.6-8.5,3.6c-3.4,0-6.3-1.6-6.3-5.5c0-5.5,6.4-12.7,12.1-12.7
				c1.5,0,2.9,0.5,2.9,2.2c0,4.4-6.2,8.9-10,10l0,0.5c-0.1,1.8,1,2.6,2.8,2.6c2,0,3.8-1.1,5.2-2.6c1-1,1.5-2.1,2.3-3.3
				c0.1-0.2,0.3-0.4,0.6-0.4c0.7,0,1.4,0.8,1.4,1.5C216.6,42.3,215.2,44.2,214.4,45.1z M211.8,32.5c-2.3,0-6,6.1-6.7,8
				c2.4-1.1,7.5-4.4,7.5-7.3C212.5,32.8,212.3,32.5,211.8,32.5z"/>
		</g>
		<g class="st1">
			<path class="st0" d="M187.9,125.4c-0.7,1.7-2.9,5.8-5.5,8.2c-1.6,1.5-3.5,2.9-6.2,4c-1.2,1-2,1.9-3,3.8
				c-1.5,2.8-2.7,9.2-3.6,15.8c0.1,0,0.2-0.1,0.3,0c4.2-0.8,6.7-4,7.3-4.8c0.3-0.4,0.8-0.6,1.1-0.5c0.3,0.1,0.5,0.5,0.5,1.1
				c0,1.4,0.1,4.2-1.8,8.7s-4,6.5-6.2,7.8c-0.3,0.2-0.5,0.1-0.7-0.1s0-0.7,0.6-1.4c1.2-1.2,2.2-3,2.3-4.9c0-0.1,0-0.3,0-0.3
				c-0.1-0.1-0.2-0.1-0.4,0c-0.6,0.7-1.4,1.2-3,1.4c-0.3,0.1-0.7,0.1-1,0.1l-1,7.9c-0.9,7.5-6,12-10.5,13.3
				c-1.3,0.4-2.7,0.5-3.7,0.3c-2.7-0.5-3.9-2.5-4.5-4.2c-0.3-1.1-0.4-2.1-0.4-2.4c0-0.5,0.3-1,0.6-1.1c0.4-0.2,0.7-0.1,0.9,0.4
				c0.3,1.1,1.7,2.4,3.3,2.1c2.5-0.3,5.8-3.5,7-11.2l1.1-7.2c-0.7-0.2-1.2-0.3-1.6-0.3c-2.6,0.1-4.6,1.8-5.1,2.9
				c-0.3,0.5-0.6,0.7-0.9,0.5c-0.2-0.1-0.4-0.6-0.3-1.2c0.3-1.3,0.8-5.8,5.4-7.1c1.4-0.5,2.6-0.6,3.5-0.6c1-6.3,2.7-10.7,4.1-12.9
				c1.2-1.9,2-2.6,2.9-3.3c0.1-0.1,0.2-0.3,0.2-0.4c-0.1-0.1-0.3-0.2-0.7-0.1c-1.3,0.2-1,0.2-2.6,0.3l-8.9,0.7
				c-1.3,0.1-2.4,0.3-3.3,0.6c-3.1,0.9-4.4,2.7-4.7,4.7c-0.1,0.8,0,1.6,0.2,2.3c0.2,0.8,0.6,1.5,1,1.8c0.3,0.2,0.4,0.6,0.2,1
				c-0.1,0.4-0.4,0.6-0.8,0.5c-0.5-0.2-2.8-1.2-3.7-4.2c-0.2-0.7-0.3-1.5-0.4-2.4c-0.2-4.6,2.8-10.1,9-11.9c1-0.3,2.1-0.5,3.3-0.6
				l9.8-0.6c2.4-0.1,4.6-0.5,6.7-1.2c3.3-1,6.3-2.5,8.5-4c1.6-1,2.7-1.8,3.5-2.7c0.5-0.6,1.1-0.9,1.4,0.1
				C188.4,124.2,188.2,124.7,187.9,125.4z"/>
			<path class="st0" d="M198.2,173c-4.5,1.3-7.1-0.7-8-3.7c-0.4-1.3-0.4-2.6-0.2-4l1.4-9.8c0.1-0.8,0.2-2-0.5-2.3
				c-0.8-0.4-1.1-0.4-2,0.2c-1,0.6-1.8,1.6-2,2.9c0,0-0.3,2.8-0.7,4.9c-0.5,3.5-1.5,8-2.1,9c-0.1,0.2-0.2,0.3-0.3,0.3
				c-0.5,0-1.2-0.5-1.6-0.9c-0.5-0.6-1-1.4-1.1-2.3c0-0.2,0-0.4,0-0.6c0-0.6,0.7-3.1,1.4-7.4c0.3-1.6,0.5-3.7,0.7-5.2
				c-0.3-0.2-0.7-0.7-0.9-1.3c-0.8-2.3,0.2-4.9,2.3-5.9c2.5-1.2,4.3,0.5,4.7,1.7c0,0.4,0.1,0.5,0.2,0.8c0.2,0.2,0.7,0.4,1.4-0.1
				c0.4-0.4,0.8-1.1,0.8-1.1c0.7-0.7,1.4-1.1,2.3-0.9l3.4,0.6c0.7,0.1,1,0.5,0.9,1.2l-1.6,11.2c-0.3,1.9-0.4,4.1,0,5.5
				c0.3,0.9,0.7,1.4,1.6,1.3c4.5-0.3,5.6-9.3,6.1-11.3c0.1-0.5,1.2-0.4,2,0.1c0.8,0.5,1.5,1.3,1.3,2.5
				C207,163.2,204,171.3,198.2,173z"/>
			<path class="st0" d="M210.9,169.4c-3.6,1.2-6.5-0.3-7.5-3.5c-0.4-1.2-0.5-2.6-0.2-4.2l2.8-17.7c0-0.2,0.2-0.5,0.5-0.6l5.2-1.5
				c0.4-0.1,0.4,0.2,0.4,0.6l-2.3,16.4c-0.4,3,0.3,4.3,1.3,4.4c4,0.7,5.9-7.8,6.3-10.8c0.1-0.8,1.3-0.8,2-0.4
				c0.7,0.3,1.5,1.3,1.4,2.4C220.3,159.4,217.8,167,210.9,169.4z M209.3,139.1c-1,0.3-1.8-0.3-2.1-1.4c-0.2-0.8-0.2-1.8,0-3
				c0.6-2.9,2.4-5.7,4.1-6.2c1-0.3,1.8,0.2,2.1,1.4c0.2,0.8,0.3,1.8,0,3C212.9,135.8,211,138.6,209.3,139.1z"/>
			<path class="st0" d="M234,151.6c-0.4,3,0.2,4.3,1.2,4.4c4,0.7,5.9-7.8,6.4-10.8c0-0.8,1.2-0.8,2-0.4c0.6,0.3,1.5,1.3,1.3,2.4
				c-0.6,5-3,12.7-10,15c-4.1,1.4-6.1-1.7-6.5-3.3c-0.9,2.4-3.8,6.3-7,7.2c-0.8,0.2-1.6,0.3-2.5,0c-1.4-0.4-2.2-1.7-2.7-3.4
				c-0.9-3-0.7-7.1-0.1-9.8c1.4-7,5.9-14.7,11.2-16.3c2.5-0.7,3.3,0.5,3.3,0.5l3.5-26.1c0-0.1,0.2-0.5,0.5-0.6l4.5-1.3
				c0.4-0.1,0.5,0.1,0.4,0.5L234,151.6z M229.8,141.8c0.2-1.6-0.6-2.4-1.6-2.1c-2.2,0.7-5.4,4.1-6.4,10.5c-0.5,2.9-0.4,5.1,0,6.5
				c0.4,1.3,1.1,1.9,1.9,2c1.6,0,3.9-1.5,4.3-4.4L229.8,141.8z"/>
			<path class="st0" d="M267.9,145.7c-1.7,4.8-6,8.6-11.4,11.8l-1.4,9.2c-0.9,5.4-6.1,8.7-9.6,9.1c-2.8,0.4-4.9-0.8-5.6-3.1
				c-0.3-0.9-0.3-2.1-0.1-3.5c1-5.1,9.1-10.5,11.3-12.5l0.6-3.5c-1,2.1-3.7,5-6.4,5.8c-0.8,0.2-1.6,0.3-2.2,0
				c-1.4-0.4-2.2-1.7-2.7-3.4c-0.9-3-0.7-7.1-0.1-9.8c1.4-7,5.9-14.7,11.2-16.3c2.5-0.7,3.3,0.5,3.3,0.5l0.1-0.7
				c0-0.2,0.2-0.5,0.5-0.6l4.5-1.3c0.4-0.1,0.4,0.2,0.4,0.6l-3,24.1c1.6-1.4,5.2-3.4,6.9-8.1c0.8-2.2,1.2-4.7,1.5-6
				c0.1-0.8,1.3-0.8,2.1-0.4c0.6,0.3,1.5,1.3,1.4,2.5C269,141.9,268.6,143.8,267.9,145.7z M250.5,161.8c-3.1,2.1-7.2,5.4-7.3,7.6
				c-0.2,2.7,2.2,2.6,3.9,1.5c1.3-0.8,2.3-2.1,2.6-4.3L250.5,161.8z M254,134.6c0.2-1.6-0.6-2.4-1.6-2.1c-2.2,0.7-5.4,4.1-6.4,10.5
				c-0.5,2.8-0.5,5-0.1,6.5c0.4,1.3,1.1,2,2,2c1.6,0,3.8-1.5,4.3-4.4L254,134.6z"/>
			<path class="st0" d="M287.5,141.5c-2,4.4-6.1,7.4-10.7,8.8c-4.9,1.5-9.7,0.3-11.4-5.3c-2.3-7.9,3.8-20.9,11.9-23.2
				c2.1-0.6,4.3-0.5,5,1.9c1.9,6.3-5.1,15.3-10.1,18.5l0.1,0.7c0.7,2.7,2.5,3.4,5.1,2.6c2.9-0.9,5-3.3,6.3-5.8
				c1-1.9,1.3-3.7,1.9-5.7c0.1-0.4,0.2-0.7,0.7-0.8c1.1-0.3,2.3,0.6,2.6,1.6C289.5,136.6,288.2,139.9,287.5,141.5z M278.4,124.6
				c-3.3,1-6.1,11.2-6.3,14.3c2.9-2.6,8.9-9.5,7.6-13.6C279.6,124.7,279.1,124.4,278.4,124.6z"/>
		</g>
		<g class="st1">
			<path class="st0" d="M38.4,54.4c1.3,0,1.9,0.6,1.6,1.9l-7.3,41.4c-0.2,1.2-1,1.9-2.3,1.9h-7.1c-1.2,0-1.8-0.7-1.6-1.9l7.3-41.4
				c0.3-1.3,1-1.9,2.3-1.9H38.4z"/>
			<path class="st0" d="M58.3,54.4c1.1,0,1.7,0.5,2,1.5l5,21.5c0.1,0.6,0.6,0.5,0.8-0.2l3.7-20.9c0.3-1.3,1-1.9,2.3-1.9h7.2
				c1.3,0,1.9,0.6,1.6,1.9l-7.3,41.4c-0.2,1.2-1,1.9-2.3,1.9h-9.5c-1.1,0-1.7-0.5-2-1.5l-5-21.5c-0.2-0.6-0.7-0.5-0.8,0.2l-3.7,20.9
				c-0.2,1.2-1,1.9-2.3,1.9h-7.2c-1.2,0-1.8-0.7-1.6-1.9l7.3-41.4c0.3-1.3,1-1.9,2.3-1.9H58.3z"/>
			<path class="st0" d="M95.8,67.5c0.2-1.3-0.3-1.9-1.6-1.9h-9c-1.2,0-1.8-0.7-1.6-1.9l1.3-7.2c0.3-1.3,1-1.9,2.3-1.9h33.1
				c1.3,0,1.9,0.6,1.6,1.9l-1.3,7.2c-0.2,1.2-1,1.9-2.3,1.9h-9c-1.2,0-2.1,0.6-2.3,1.9l-5.4,30.2c-0.2,1.2-1,1.9-2.3,1.9H92
				c-1.2,0-1.8-0.7-1.6-1.9L95.8,67.5z"/>
			<path class="st0" d="M155,54.4c1.3,0,1.9,0.6,1.6,1.9l-1.3,7.2c-0.2,1.2-1,1.9-2.3,1.9h-15.6c-1.2,0-2.1,0.6-2.3,1.9l-0.4,2.1
				c-0.2,1.2,0.4,1.9,1.6,1.9h10c1.3,0,1.8,0.6,1.6,1.9l-1.3,7.2c-0.3,1.2-1,1.9-2.3,1.9h-10c-1.2,0-2.1,0.6-2.3,1.9l-0.3,2.1
				c-0.3,1.2,0.3,1.9,1.6,1.9H149c1.3,0,1.9,0.6,1.6,1.9l-1.3,7.2c-0.2,1.3-1,1.9-2.3,1.9h-27.1c-1.2,0-1.8-0.7-1.6-1.9l7.3-41.4
				c0.3-1.3,1-1.9,2.3-1.9H155z"/>
			<path class="st0" d="M188.7,96.2c0.6,1.7-0.8,3.5-2.8,3.5h-7.4c-0.6,0-1.2-0.3-1.4-0.9l-4.4-13c-0.1-0.2-0.3-0.3-0.5-0.3h-2.6
				c-1.2,0-2.2,0.8-2.4,2l-1.8,10.2c-0.2,1.2-1.2,2-2.3,2H156c-1.2,0-1.9-0.8-1.7-2l7.3-41.2c0.2-1.2,1.2-2,2.3-2h14.2
				c11.5,0,15.3,4.9,13.4,15.5c-1,6-3.3,10.2-7.1,12.7c-0.3,0.2-0.5,0.5-0.4,0.8L188.7,96.2z M173.2,65.6c-1.2,0-2.1,0.8-2.3,2
				l-0.8,4.8c-0.3,1.2,0.5,2,1.6,2h3.3c3.1,0,4.7-0.4,5.4-4.4c0.7-4-0.8-4.4-3.9-4.4H173.2z"/>
			<path class="st0" d="M211.7,54.4c1.1,0,1.7,0.5,2,1.5l5,21.5c0.1,0.6,0.6,0.5,0.8-0.2l3.7-20.9c0.3-1.3,1-1.9,2.3-1.9h7.2
				c1.3,0,1.9,0.6,1.6,1.9L227,97.7c-0.2,1.2-1,1.9-2.3,1.9h-9.5c-1.1,0-1.7-0.5-2-1.5l-5-21.5c-0.2-0.6-0.7-0.5-0.8,0.2l-3.7,20.9
				c-0.2,1.2-1,1.9-2.3,1.9h-7.2c-1.2,0-1.8-0.7-1.6-1.9l7.3-41.4c0.3-1.3,1-1.9,2.3-1.9H211.7z"/>
			<path class="st0" d="M21.5,107.8v-3.2h211.7v3.2H21.5z"/>
		</g>
		<g class="st1">
			<path class="st0" d="M270.2,54.4c1.3,0,1.9,0.6,1.6,1.9l-1.3,7.2c-0.2,1.2-1,1.9-2.3,1.9h-15.6c-1.2,0-2.1,0.6-2.3,1.9l-0.4,2.1
				c-0.2,1.2,0.4,1.9,1.6,1.9h10c1.3,0,1.8,0.6,1.6,1.9l-1.3,7.2c-0.3,1.2-1,1.9-2.3,1.9h-10c-1.2,0-2.1,0.6-2.3,1.9l-0.3,2.1
				c-0.3,1.2,0.3,1.9,1.6,1.9h15.6c1.3,0,1.9,0.6,1.6,1.9l-1.3,7.2c-0.2,1.3-1,1.9-2.3,1.9h-27.1c-1.2,0-1.8-0.7-1.6-1.9l7.3-41.4
				c0.3-1.3,1-1.9,2.3-1.9H270.2z"/>
			<path class="st0" d="M233.1,107.8v-3.2h36v3.2H233.1z"/>
		</g>
		<g class="st1">
			<path class="st0" d="M285.8,67.5c0.2-1.3-0.3-1.9-1.6-1.9h-9c-1.2,0-1.8-0.7-1.6-1.9l1.3-7.2c0.3-1.3,1-1.9,2.3-1.9h33.1
				c1.3,0,1.9,0.6,1.6,1.9l-1.3,7.2c-0.2,1.2-1,1.9-2.3,1.9h-9c-1.2,0-2.1,0.6-2.3,1.9l-5.4,30.2c-0.2,1.2-1,1.9-2.3,1.9H282
				c-1.2,0-1.8-0.7-1.6-1.9L285.8,67.5z"/>
			<path class="st0" d="M323.9,54.4c1.3,0,1.9,0.6,1.6,1.9l-1.3,7.2c-0.8,4.7-3.6,8.5-8.6,9c-0.8,0.1-1-0.7-0.3-1.4
				c2.1-2.1,2.7-3.7,2.9-5c0.1-0.4-0.1-0.6-0.5-0.6h-3c-1.2,0-1.8-0.7-1.6-1.9l1.3-7.2c0.3-1.3,1-1.9,2.3-1.9H323.9z"/>
			<path class="st0" d="M350.7,70.5c-1.4,0.3-1.9-0.3-1.9-1.6c0-2.6-1.8-4.3-4.8-4.3c-2.5,0-4.3,1.5-4.3,3c0,5,20.4,4.9,17.8,19.8
				c-0.3,1.9-4.6,13.4-19.9,13.4c-13.6,0-14.9-8.9-14.3-14c0.2-1.2,0.9-1.9,2.1-2.1l7.6-1.6c1.3-0.3,1.9,0.3,1.8,1.7
				c-0.3,3.1,1.8,4.9,4.8,4.9c3.2,0,5.8-1.9,5.8-3.6c-0.3-5.5-20-4.3-17.3-19.1c0.3-1.9,3.4-13.4,17.9-13.4
				c13.3,0,14.9,8.7,14.5,13.3c-0.1,1.2-0.8,1.9-2.1,2.1L350.7,70.5z"/>
			<path class="st0" d="M266.7,107.8v-3.2H360v3.2H266.7z"/>
		</g>
		<g>
			<path d="M233.8,108.6l6.1-1.9c0.2-0.2,0.6,0,0.5,0.3l-0.2,1.6c0,0.2-0.4,0.3-0.6,0.3l-5.8,0.4
				C233.6,109.2,233.5,108.8,233.8,108.6L233.8,108.6z"/>
		</g>
		<g>
			<rect x="105.1" y="39.3" class="st0" width="53.8" height="3"/>
		</g>
		<g>
			<rect x="221.6" y="39.3" class="st0" width="53.8" height="3"/>
		</g>
	</g>
</g>
</svg>
