<?xml version="1.0" encoding="UTF-8"?>
<svg id="Layer_2" data-name="Layer 2" xmlns="http://www.w3.org/2000/svg" viewBox="0 0 2375.62 4881.06">
  <defs>
    <style>
      .cls-1 {
        fill: none;
        isolation: isolate;
      }

      .cls-2 {
        fill: #fff;
      }
    </style>
  </defs>
  <g id="Layer_2-2" data-name="Layer 2">
    <g id="Layer_1-2" data-name="Layer 1-2">
      <polygon class="cls-2" points="1171.78 4865.88 974.41 4063.65 974.41 4063.51 974.56 4063.51 974.59 4063.65 1171.78 4865.88"/>
      <polygon points="1171.78 4865.88 974.41 4063.65 974.59 4063.65 1171.78 4865.88"/>
      <polygon class="cls-2" points="1941.57 4063.51 1941.43 4063.65 1222.26 4831.25 1941.34 4063.65 1941.34 4063.51 1941.57 4063.51"/>
      <polygon points="1702.43 4484.28 1688.36 4496.7 1696.02 4513.83 1684.66 4499.96 1683.3 4501.17 1682.56 4499.51 1666.48 4507.42 1680.54 4495 1672.89 4477.88 1684.24 4491.74 1685.6 4490.54 1686.34 4492.2 1702.43 4484.28"/>
      <polygon points="1919.02 4399.01 1966.42 4402.69 1917.53 4412.01 1911.86 4461.45 1904.68 4414.46 1899.93 4415.37 1900.49 4410.57 1853.09 4406.89 1901.98 4397.57 1907.66 4348.13 1914.83 4395.12 1919.58 4394.22 1919.02 4399.01"/>
      <polygon points="1941.43 4063.65 1222.26 4831.25 1941.34 4063.65 1941.43 4063.65"/>
      <polygon points="1942.81 4569.3 1924.62 4594.05 1942.81 4618.79 1919.83 4600.56 1918.07 4602.96 1916.3 4600.56 1893.32 4618.79 1911.52 4594.05 1893.32 4569.3 1916.3 4587.54 1918.07 4585.14 1919.83 4587.54 1942.81 4569.3"/>
      <polygon points="2082.75 4228.25 2098.11 4236.28 2080.39 4232.4 2071.4 4248.16 2075.72 4231.38 2074 4231 2074.87 4229.48 2059.51 4221.45 2077.24 4225.33 2086.23 4209.56 2081.9 4226.35 2083.62 4226.73 2082.75 4228.25"/>
      <path d="m2280.8,4128.21l-3.18,2.16h0c-.87.11-1.83,0-2.75-.36-2.41-.96-3.8-3.32-3.09-5.37.71-2.06,3.42-2.98,6-1.96,2.58,1.02,3.91,3.55,3.02,5.54h0Z"/>
      <polygon points="251.69 4254.74 266.87 4266.59 248.28 4258.8 235.29 4274.22 243.38 4256.75 241.58 4255.99 242.84 4254.5 227.65 4242.65 246.25 4250.44 259.24 4235.01 251.14 4252.49 252.95 4253.24 251.69 4254.74"/>
      <polygon points="366.81 4551.82 347.34 4578.3 366.81 4604.78 342.22 4585.26 340.33 4587.83 338.44 4585.26 313.85 4604.78 333.32 4578.3 313.85 4551.82 338.44 4571.34 340.33 4568.77 342.22 4571.34 366.81 4551.82"/>
      <polygon points="546.56 4415.49 515.42 4442.97 532.38 4480.88 507.24 4450.2 504.22 4452.86 502.57 4449.19 466.99 4466.71 498.12 4439.22 481.16 4401.31 506.3 4431.99 509.32 4429.32 510.97 4433 546.56 4415.49"/>
      <polygon points="644.58 4624.32 626.86 4620.44 617.87 4636.2 622.2 4619.42 620.48 4619.04 621.35 4617.51 605.99 4609.49 623.72 4613.36 632.7 4597.6 628.38 4614.38 630.1 4614.76 629.22 4616.29 644.58 4624.32"/>
      <path d="m2280.8,4128.21c-.54,1.23-1.76,1.99-3.18,2.16h0c-.87.11-1.83,0-2.75-.36-2.41-.96-3.8-3.32-3.09-5.37.71-2.06,3.42-2.98,6-1.96,2.58,1.02,3.91,3.55,3.02,5.54h0Z"/>
      <polygon class="cls-2" points="1924.62 4594.05 1942.81 4618.79 1919.83 4600.56 1918.07 4602.96 1916.3 4600.56 1893.32 4618.79 1911.52 4594.05 1893.32 4569.3 1916.3 4587.54 1918.07 4585.14 1919.83 4587.54 1942.81 4569.3 1924.62 4594.05"/>
      <polygon class="cls-2" points="347.34 4578.3 366.81 4604.78 342.22 4585.26 340.33 4587.83 338.44 4585.26 313.85 4604.78 333.32 4578.3 313.85 4551.82 338.44 4571.34 340.33 4568.77 342.22 4571.34 366.81 4551.82 347.34 4578.3"/>
      <polygon class="cls-2" points="1688.36 4496.7 1696.02 4513.83 1684.66 4499.96 1683.3 4501.17 1682.56 4499.51 1666.48 4507.42 1680.54 4495 1672.89 4477.88 1684.24 4491.74 1685.6 4490.54 1686.34 4492.2 1702.43 4484.28 1688.36 4496.7"/>
      <polygon class="cls-2" points="515.42 4442.97 532.38 4480.88 507.24 4450.2 504.22 4452.86 502.57 4449.19 466.99 4466.71 498.12 4439.22 481.16 4401.31 506.3 4431.99 509.32 4429.32 510.97 4433 546.56 4415.49 515.42 4442.97"/>
      <polygon class="cls-2" points="1966.42 4402.69 1917.53 4412.01 1911.86 4461.45 1904.68 4414.46 1899.93 4415.37 1900.49 4410.57 1853.09 4406.89 1901.98 4397.57 1907.66 4348.13 1914.83 4395.12 1919.58 4394.22 1919.02 4399.01 1966.42 4402.69"/>
      <polygon class="cls-2" points="266.87 4266.59 248.28 4258.8 235.29 4274.22 243.38 4256.75 241.58 4255.99 242.84 4254.5 227.65 4242.65 246.25 4250.44 259.24 4235.01 251.14 4252.49 252.95 4253.24 251.69 4254.74 266.87 4266.59"/>
      <polygon class="cls-2" points="2098.11 4236.28 2080.39 4232.4 2071.4 4248.16 2075.72 4231.38 2074 4231 2074.87 4229.48 2059.51 4221.45 2077.24 4225.33 2086.23 4209.56 2081.9 4226.35 2083.62 4226.73 2082.75 4228.25 2098.11 4236.28"/>
      <polygon class="cls-2" points="644.58 4624.32 626.86 4620.44 617.87 4636.2 622.2 4619.42 620.48 4619.04 621.35 4617.51 605.99 4609.49 623.72 4613.36 632.7 4597.6 628.38 4614.38 630.1 4614.76 629.22 4616.29 644.58 4624.32"/>
      <g id="Layer_1-2-2" data-name="Layer 1-2">
        <g>
          <path d="m298.94,1145.44l297.01-191.96,480.08-310.28,115.91-74.92H.56v3495.37h-.56l104.94,72.99c-61.93,28.24-95.52,99.86-94.28,169.15,1.2,66.99,61.3,139.36,146.28,125.17-19.65,1.6-39.24-16.17-41.1-36.45-2.07-22.45,13.73-43.96,34.18-53.46,20.44-9.49,44.37-8.69,66.24-3.19,42.58,10.68,80.44,38.98,102.73,76.8l.02.52c-12.3.4-24.57,1.84-36.7,4.44-67.05,14.37-127.29,70.14-132.97,138.47-5.54,66.57,41.17,129.68,101.02,159.35,59.84,29.67,129.95,31.15,196.15,22.2,66.19-8.94,130.79-27.6,197.03-36.23,274.44-35.76,475.79,127.12,521.9,168.45l-866.5-808.21V1145.44Zm-50.66,3113.36l-12.99,15.42,8.09-17.47-1.8-.76,1.26-1.5-15.19-11.85,18.6,7.79,12.99-15.42-8.09,17.47,1.8.76-1.26,1.5,15.18,11.84-18.59-7.78Zm375.44,354.56l8.98-15.77-4.32,16.78,1.72.38-.88,1.54,15.36,8.02-17.72-3.87-8.99,15.76,4.33-16.79-1.71-.38h-.01l.87-1.53-15.36-8.02,17.73,3.88Zm-142.56-212.06l25.14,30.68,3.02-2.66,1.65,3.68,35.59-17.52-31.14,27.48,16.96,37.91-25.14-30.68-3.02,2.67-1.65-3.67h0s-35.58,17.51-35.58,17.51l31.13-27.49-16.96-37.91Zm-140.83,167.47l1.89,2.56,24.59-19.51-19.47,26.48,19.47,26.48-24.59-19.52-1.89,2.57-1.89-2.57-24.59,19.52,19.47-26.48-19.47-26.48,24.59,19.51,1.89-2.56Z"/>
          <polygon class="cls-2" points="1379.13 0 1219.65 484.16 1191.99 568.14 1191.94 568.28 1191.9 568.17 1167.3 479.39 1034.42 0 1379.13 0"/>
          <polygon class="cls-2" points="2375.62 0 2375.62 592.09 1901.44 582.55 1373.85 571.94 1199.81 568.44 1192.09 568.28 1191.95 568.28 1192.09 568.17 1197.11 564.62 1201.53 561.49 1269.26 513.51 1473.97 368.51 1771.02 158.1 1994.21 0 2375.62 0"/>
          <polygon class="cls-2" points="1191.94 568.28 .56 568.28 .56 0 465.71 0 633.07 130.96 1108.15 502.72 1191.94 568.28"/>
          <polygon points="1994.3 0 1771.04 158.13 1269.27 513.52 1197.11 564.62 1192.09 568.17 1191.95 568.28 1191.94 568.28 1191.94 568.28 1191.99 568.14 1191.99 568.14 1219.65 484.16 1379.09 0 1994.3 0"/>
          <polygon points="1191.94 568.28 1191.94 568.28 1108.15 502.72 633.07 130.97 465.71 0 1034.42 0 1167.3 479.39 1191.9 568.17 1191.94 568.28"/>
          <path d="m1901.44,582.55l-527.59-10.61-172.46-3.47-1.58-.03-7.72-.16h-.14l.09.08,7.65,5.9,741.73,571.08-.08.1v2918.07h.23l-.14.14-719.17,767.6-18.26,19.48-28.46,30.33c39.09-40.81,240.79-236.14,553.11-191.41,66.12,9.47,130.48,28.95,196.55,38.72,66.08,9.79,136.21,9.19,196.42-19.71,60.22-28.91,107.72-91.42,103.03-158.05-4.82-68.4-64.35-124.93-131.21-140.14-12.1-2.76-24.35-4.36-36.64-4.91l.02-.53c22.77-37.52,60.99-65.34,103.7-75.49,21.94-5.21,45.87-5.71,66.19,4.04,20.33,9.76,35.86,31.47,33.5,53.88-2.12,20.25-21.93,37.78-41.56,35.92,84.79,15.27,145.81-56.33,147.86-123.3,2.08-68.35-29.71-139.4-89.69-169.16l.8-.55c-.87.11-1.83,0-2.75-.36-2.41-.96-3.8-3.32-3.09-5.38.72-2.06,3.43-2.98,6-1.96,2.58,1.02,3.91,3.55,3.02,5.54l94.82-64.55V592.09l-474.18-9.54Zm-205.42,3931.27l-11.36-13.86-1.36,1.2-.74-1.66-16.08,7.92,14.06-12.42-7.65-17.12,11.35,13.86,1.36-1.21.74,1.67,16.09-7.92-14.07,12.42,7.66,17.12Zm230.02,82.16l16.77,22.8-22.98-18.23-1.76,2.4-1.77-2.4-22.98,18.23,18.2-24.73h0s-18.2-24.75-18.2-24.75l22.98,18.24,1.77-2.4,1.76,2.4,22.98-18.24-18.19,24.75,1.42,1.93Zm-8.51-183.97l-5.67,49.44-7.18-46.99-4.75.9.56-4.79-47.4-3.68,48.89-9.32,5.68-49.45,7.17,47,4.75-.91-.56,4.8,47.4,3.68-48.89,9.32Zm162.86-179.61l-8.99,15.76,4.32-16.78-1.72-.38.87-1.53-15.36-8.02,17.73,3.87,8.99-15.76-4.33,16.78,1.72.38-.87,1.53,15.33,8.01-16.3-3.56-1.39-.3Z"/>
          <polygon points="2375.62 591.64 2375.62 592.09 1901.44 582.55 1373.85 571.94 1199.81 568.44 1373.86 571.87 1476.8 573.9 1901.44 582.28 2375.62 591.64"/>
        </g>
      </g>
      <polygon class="cls-2" points="1356.74 1145.44 1223.94 680.37 1192 568.47 1191.94 568.28 1191.95 568.28 1192.04 568.36 1356.74 1145.44"/>
      <polygon points="1356.74 1145.44 1356.74 4063.65 1175.54 4881.06 1175.51 4881.06 1175.51 4881.05 1171.78 4865.88 974.59 4063.65 974.56 4063.51 974.41 4063.51 974.41 1145.44 1192 568.47 1192.04 568.36 1356.74 1145.44"/>
      <polygon points="974.59 4063.65 974.41 4063.65 974.41 4063.51 974.56 4063.51 974.59 4063.65"/>
      <polygon class="cls-2" points="1941.42 1145.34 1941.34 1145.44 1941.34 4063.65 1222.26 4831.25 1204 4850.73 1175.54 4881.06 1356.74 4063.65 1356.74 1145.44 1192.04 568.36 1199.69 574.26 1941.42 1145.34"/>
      <polygon points="1941.57 4063.51 1941.43 4063.65 1941.34 4063.65 1941.34 4063.51 1941.57 4063.51"/>
      <polygon class="cls-2" points="1171.78 4865.88 1175.51 4881.05 1165.44 4871.86 298.94 4063.65 298.94 1145.44 595.95 953.48 1076.03 643.2 1191.94 568.28 1192 568.47 974.41 1145.44 974.41 4063.65 1171.78 4865.88"/>
    </g>
    <g id="Layer_1-2-3" data-name="Layer 1-2">
      <g>
        <path d="m1187.81,781.88l-336.41-193.44c-45.89-45.89-45.89-120.29,0-166.17l165.49-4.4c94.39-94.39,247.44-94.39,341.84,0l165.49,4.4c45.89,45.89,45.89,120.29,0,166.17l-336.41,193.44Z"/>
        <g>
          <path d="m857,581.15c-19.94-20.37-30.92-47.25-30.92-75.79s10.37-53.91,29.26-74.07l165.41-4.4,2.58-2.58c43.93-43.93,102.34-68.13,164.48-68.13s120.54,24.2,164.48,68.13l2.58,2.58,165.41,4.4c39.5,42.15,38.95,108.39-1.66,149.86l-330.81,190.22-330.81-190.22Z"/>
          <path class="cls-2" d="m1187.81,774.75l-332.62-191.26-.28-.29c-20.48-20.92-31.76-48.56-31.76-77.84s10.39-55.09,30.05-76.08l.84-.89,165.47-4.4,1.75-1.75c44.49-44.49,103.64-68.99,166.55-68.99s122.06,24.5,166.55,68.99l1.75,1.75,165.47,4.4.84.89c40.86,43.61,40.11,111.22-1.71,153.92l-.28.29-.35.2-332.27,191.06Zm-328.99-195.94l328.99,189.18,328.99-189.18c39.05-40.18,39.94-103.39,2.16-144.63l-165.35-4.39-3.41-3.4c-43.38-43.38-101.06-67.28-162.4-67.28s-119.02,23.89-162.4,67.28l-3.41,3.4-165.35,4.39c-18.09,19.73-27.64,44.31-27.64,71.18s10.58,53.67,29.81,73.46Z"/>
        </g>
        <g class="cls-1">
          <g class="cls-1">
            <path class="cls-2" d="m1206.77,377.95c-1.46,1.89-5.76,6.19-9.89,8.26-2.58,1.29-5.42,2.32-9.29,2.67-1.89.77-3.18,1.63-5.16,3.61-3.27,3.44-7.83,12.47-11.61,21.42l-6.45,15.05c-3.87,9.03-12.04,12.82-18.24,12.82-1.81,0-3.53-.35-4.82-.95-3.27-1.63-4.04-4.56-4.04-6.97,0-1.46.26-2.75.43-3.18.17-.69.77-1.12,1.29-1.21.43-.09.86.17.86.86-.09,1.46,1.2,3.61,3.35,3.87,3.35.6,8.86-2.06,13.07-11.35l4.65-10.49c5.08-11.53,9.12-16.86,12.64-19.96,2.15-1.89,3.44-2.5,4.73-3.1.17-.09.34-.26.34-.43s-.26-.34-.77-.43c-1.63-.17-1.29-.17-3.35-.6l-11.44-2.41c-1.63-.34-3.1-.52-4.39-.52-4.22,0-6.54,1.72-7.66,4.13-.43.95-.6,1.98-.6,2.92,0,1.12.26,2.07.6,2.58.34.43.26.95,0,1.29-.34.43-.86.6-1.2.34-.6-.43-3.18-2.5-3.18-6.71,0-.95.17-1.98.43-3.1,1.46-5.85,7.31-11.61,15.74-11.61,1.38,0,2.84.17,4.39.52l12.56,2.92c3.01.69,6.02,1.03,8.86,1.03,4.56,0,8.69-.77,12.13-1.89,2.32-.69,4.22-1.29,5.33-2.07.86-.6,1.72-.69,1.72.6,0,.77-.43,1.29-1.03,2.06Z"/>
          </g>
          <g class="cls-1">
            <path class="cls-2" d="m1195.25,441.61c-.95,0-1.81-.09-2.58-.26-2.93-.69-5.25-3.1-5.25-6.79,0-1.55.43-3.44,1.38-5.42l3.61-7.66c1.38-2.93,2.5-7.49.86-8-1.72-.6-3.78,1.38-5.76,4.21-1.55,2.24-3.1,4.9-4.13,7.14l-7.23,15.48c-.26.6-.43.77-1.12.77h-7.14c-.69,0-.6-.43-.43-.77l25.03-54.45c1.12-2.24,5.25-4.82,7.91-5.16,1.89-.26,2.92.69,1.55,3.7l-12.04,26.15s3.18-4.04,7.66-3.78c3.7.17,6.02,3.44,5.42,8-.52,4.56-6.19,13.25-6.19,17.29,0,1.03.34,1.81,1.29,2.06,4.39,1.38,8.69-4.99,11.87-11.61.35-.6,1.63-.26,2.58.6.86.77,1.46,2.07.86,3.61-4.99,11.27-12.65,14.88-18.15,14.88Z"/>
            <path class="cls-2" d="m1235.84,435.15c-4.13,4.82-10.41,7.05-16.69,7.05-6.71,0-12.3-3.18-12.3-10.84,0-10.84,12.56-24.77,23.57-24.77,2.93,0,5.59.95,5.59,4.3,0,8.6-12.13,17.29-19.53,19.53l-.09.95c-.17,3.61,1.89,5.16,5.42,5.16,3.96,0,7.48-2.24,10.06-4.99,1.98-1.98,3.01-4.13,4.47-6.45.26-.43.52-.77,1.12-.77,1.46,0,2.67,1.55,2.67,3.01,0,2.41-2.84,6.02-4.3,7.83Zm-5.16-24.6c-4.56,0-11.79,11.87-13.16,15.66,4.65-2.15,14.62-8.6,14.62-14.28,0-.86-.52-1.38-1.46-1.38Z"/>
          </g>
        </g>
        <g class="cls-1">
          <g class="cls-1">
            <path class="cls-2" d="m1184.1,591.99c-1.29,3.32-5.63,11.3-10.67,16-3.15,2.94-6.77,5.61-12.17,7.74-2.38,1.91-3.86,3.69-5.86,7.35-2.91,5.55-5.25,18.01-6.96,30.83.12-.04.37-.11.65-.06,8.22-1.62,13.07-7.87,14.25-9.29.68-.87,1.54-1.12,2.14-.9.6.22,1.06.89,1.02,2.11-.01,2.68.12,8.12-3.43,16.94s-7.87,12.76-12.1,15.22c-.58.31-1.02.17-1.29-.29s-.03-1.46,1.19-2.76c2.27-2.28,4.27-5.94,4.52-9.63.05-.28-.02-.53-.06-.65-.19-.21-.44-.14-.77.09-1.22,1.3-2.8,2.3-5.9,2.68-.62.18-1.3.12-1.96.18l-1.88,15.41c-1.72,14.56-11.82,23.43-20.56,26.01-2.58.76-5.19,1-7.29.68-5.37-.96-7.71-4.82-8.73-8.26-.62-2.09-.79-4.05-.73-4.73-.05-1.06.64-1.93,1.21-2.23.7-.34,1.43-.15,1.72.83.49,2.13,3.25,4.66,6.44,4.12,4.93-.52,11.36-6.84,13.59-21.95l2.11-14.14c-1.33-.41-2.33-.65-3.14-.68-5.04.15-8.89,3.43-9.98,5.62-.52.96-1.22,1.3-1.82,1.07-.48-.26-.86-1.09-.57-2.38.58-2.58,1.61-11.31,10.47-13.93,2.8-.96,5-1.21,6.9-1.1,1.97-12.36,5.35-20.85,8.1-25.14,2.4-3.65,3.87-5.02,5.58-6.47.21-.2.38-.52.31-.76-.2-.21-.52-.38-1.29-.29-2.54.48-2.04.33-5.06.56l-17.39,1.39c-2.49.2-4.65.57-6.5,1.11-6.03,1.78-8.63,5.22-9.21,9.15-.22,1.54-.03,3.08.37,4.44.47,1.6,1.24,2.84,1.95,3.44.67.47.77,1.25.42,1.88-.19.72-.85,1.19-1.58,1-1.04-.36-5.48-2.26-7.27-8.29-.4-1.35-.59-2.9-.69-4.61-.38-8.99,5.56-19.71,17.5-23.23,1.97-.58,4.14-.95,6.5-1.11l19.21-1.12c4.6-.28,9.05-1.06,13.12-2.26,6.52-1.93,12.23-4.82,16.68-7.87,3.03-1.97,5.36-3.59,6.76-5.21.97-1.22,2.17-1.71,2.72.13.33,1.11-.19,2.07-.6,3.39Z"/>
            <path class="cls-2" d="m1204.06,685c-8.74,2.58-13.8-1.41-15.54-7.32-.73-2.46-.84-5.11-.42-7.77l2.77-19.15c.18-1.66.34-3.85-1.06-4.5-1.56-.74-2.09-.72-3.87.47-1.91,1.23-3.48,3.17-3.81,5.67,0,0-.68,5.42-1.43,9.66-1.05,6.87-3.02,15.61-4.02,17.65-.17.32-.38.52-.63.59-.93,0-2.28-.93-3.07-1.77-1.01-1.17-1.89-2.79-2.16-4.58.01-.41-.1-.78.04-1.22.08-1.09,1.3-6.01,2.69-14.45.55-3.11,1.06-7.27,1.29-10.15-.68-.47-1.34-1.35-1.66-2.45-1.59-4.48.41-9.49,4.5-11.5,4.92-2.39,8.45.98,9.15,3.32.1.77.17,1.02.43,1.48.39.42,1.44.78,2.64-.11.84-.78,1.53-2.06,1.53-2.06,1.31-1.46,2.71-2.14,4.41-1.84l6.66,1.25c1.29.29,1.91,1.04,1.75,2.29l-3.19,21.82c-.53,3.64-.85,8.01-.05,10.72.51,1.72,1.33,2.69,3.04,2.58,8.79-.59,10.98-18.1,11.93-22.13.24-1.01,2.34-.69,3.81.21,1.47.9,2.91,2.62,2.63,4.84-1.01,9.27-6.92,25.06-18.37,28.44Z"/>
            <path class="cls-2" d="m1228.87,677.94c-6.94,2.32-12.73-.52-14.62-6.92-.69-2.34-.96-5.07-.41-8.18l5.42-34.66c.02-.4.36-1.04.98-1.22l10.22-3.02c.74-.22.76.31.73,1.12l-4.44,32.09c-.81,5.86.6,8.39,2.54,8.62,7.87,1.29,11.45-15.16,12.38-21.05.22-1.54,2.49-1.54,3.92-.76,1.36.53,3,2.46,2.72,4.68-1.11,9.83-5.81,24.74-19.45,29.3Zm-3.03-59.19c-1.97.58-3.51-.57-4.13-2.66-.44-1.48-.49-3.47.04-5.77,1.13-5.69,4.73-11.17,8.06-12.15,1.97-.58,3.48.44,4.13,2.66.44,1.48.52,3.59,0,5.89-1.13,5.69-4.77,11.04-8.09,12.03Z"/>
            <path class="cls-2" d="m1274.02,643.2c-.81,5.86.48,8.42,2.42,8.65,7.87,1.29,11.45-15.16,12.51-21.09.09-1.5,2.37-1.5,3.92-.76,1.24.57,2.88,2.5,2.6,4.72-1.11,9.83-5.81,24.73-19.45,29.3-8.05,2.65-11.83-3.33-12.77-6.53-1.7,4.65-7.49,12.25-13.65,14.06-1.6.47-3.19.54-4.8.08-2.65-.82-4.35-3.4-5.33-6.72-1.71-5.78-1.39-13.77-.27-19.06,2.79-13.67,11.44-28.8,21.94-31.77,4.92-1.45,6.46,1.04,6.46,1.04l6.92-50.89c.05-.28.4-.92,1.01-1.1l8.74-2.58c.74-.22.88.27.7,1l-10.95,81.65Zm-8.07-19.16c.39-3.2-1.1-4.63-3.19-4.01-4.31,1.27-10.47,8.04-12.57,20.44-.89,5.62-.83,9.88,0,12.71.73,2.46,2.06,3.81,3.81,3.83,3.09.03,7.57-2.91,8.42-8.64l3.52-24.32Z"/>
            <path class="cls-2" d="m1340.36,631.77c-3.37,9.43-11.63,16.82-22.24,23.03l-2.73,17.94c-1.71,10.54-12,16.92-18.69,17.83-5.39.79-9.57-1.59-10.92-6.15-.54-1.85-.55-4.12-.13-6.79,2.01-9.96,17.77-20.5,22.09-24.46l1.17-6.9c-2.01,4.07-7.28,9.78-12.45,11.3-1.48.44-3.06.5-4.39.09-2.65-.82-4.35-3.4-5.33-6.72-1.71-5.79-1.39-13.77-.27-19.06,2.79-13.67,11.44-28.8,21.93-31.77,4.93-1.45,6.46,1.04,6.46,1.04l.29-1.29c.02-.4.36-1.05.98-1.23l8.74-2.58c.74-.22.76.31.73,1.12l-5.77,47.07c3.06-2.78,10.22-6.63,13.42-15.74,1.53-4.33,2.39-9.14,2.84-11.68.22-1.54,2.49-1.54,4.05-.79,1.24.57,3,2.46,2.76,4.81-.48,3.35-1.22,7.18-2.53,10.92Zm-33.98,31.31c-6.15,4.09-14.01,10.56-14.24,14.78-.47,5.22,4.29,5.02,7.57,2.98,2.61-1.58,4.4-4.11,5.13-8.47l1.54-9.29Zm6.83-53c.39-3.2-1.1-4.63-3.19-4.01-4.31,1.27-10.47,8.04-12.57,20.44-1.04,5.53-.99,9.79-.15,12.62.73,2.46,2.1,3.93,3.97,3.92,3.09.02,7.45-2.87,8.42-8.64l3.52-24.33Z"/>
            <path class="cls-2" d="m1378.61,623.56c-3.87,8.64-11.91,14.49-20.9,17.14-9.6,2.83-18.95.64-22.18-10.31-4.58-15.51,7.5-40.76,23.26-45.41,4.19-1.23,8.4-1.01,9.82,3.79,3.63,12.31-10.05,29.87-19.69,36.19l.28,1.39c1.28,5.24,4.89,6.59,9.93,5.1,5.66-1.67,9.77-6.36,12.29-11.39,2-3.67,2.56-7.18,3.67-11.12.19-.73.41-1.33,1.27-1.58,2.09-.62,4.47,1.09,5.09,3.18,1.02,3.45-1.52,9.82-2.85,13.02Zm-17.78-33.02c-6.52,1.93-11.85,21.97-12.22,27.96,5.74-5.04,17.29-18.49,14.89-26.61-.36-1.23-1.32-1.75-2.67-1.35Z"/>
          </g>
        </g>
        <g class="cls-1">
          <g class="cls-1">
            <path class="cls-2" d="m892.08,453.43c2.52,0,3.66,1.26,3.16,3.79l-14.26,80.79c-.38,2.4-1.89,3.79-4.42,3.79h-13.89c-2.4,0-3.53-1.39-3.16-3.79l14.26-80.79c.5-2.53,2.02-3.79,4.42-3.79h13.88Z"/>
            <path class="cls-2" d="m930.83,453.43c2.15,0,3.41.88,3.91,2.9l9.85,42.03c.25,1.14,1.26.88,1.51-.38l7.19-40.77c.51-2.53,2.02-3.79,4.42-3.79h14.14c2.52,0,3.66,1.26,3.16,3.79l-14.26,80.79c-.38,2.4-1.89,3.79-4.42,3.79h-18.56c-2.15,0-3.41-.88-3.91-2.9l-9.72-42.03c-.38-1.14-1.39-.88-1.64.38l-7.19,40.77c-.38,2.4-1.89,3.79-4.42,3.79h-14.14c-2.4,0-3.53-1.39-3.16-3.79l14.26-80.79c.5-2.53,2.02-3.79,4.42-3.79h18.56Z"/>
            <path class="cls-2" d="m1004.04,478.92c.38-2.52-.63-3.79-3.16-3.79h-17.67c-2.4,0-3.53-1.39-3.16-3.79l2.52-14.14c.5-2.53,2.02-3.79,4.42-3.79h64.63c2.52,0,3.66,1.26,3.16,3.79l-2.52,14.14c-.38,2.4-1.89,3.79-4.42,3.79h-17.67c-2.4,0-4.04,1.26-4.42,3.79l-10.48,59.08c-.38,2.4-1.89,3.79-4.42,3.79h-14.14c-2.4,0-3.53-1.39-3.16-3.79l10.48-59.08Z"/>
            <path class="cls-2" d="m1119.79,453.43c2.52,0,3.66,1.26,3.16,3.79l-2.52,14.14c-.38,2.4-1.89,3.79-4.42,3.79h-30.55c-2.4,0-4.04,1.26-4.42,3.79l-.76,4.04c-.38,2.4.76,3.79,3.16,3.79h19.57c2.52,0,3.53,1.26,3.16,3.79l-2.52,14.14c-.5,2.4-1.89,3.79-4.42,3.79h-19.57c-2.4,0-4.04,1.26-4.54,3.79l-.63,4.04c-.51,2.4.63,3.79,3.03,3.79h30.55c2.52,0,3.66,1.26,3.16,3.79l-2.52,14.14c-.38,2.52-1.89,3.79-4.42,3.79h-53.02c-2.4,0-3.53-1.39-3.16-3.79l14.26-80.79c.5-2.53,2.02-3.79,4.42-3.79h53.02Z"/>
            <path class="cls-2" d="m1185.55,534.97c1.14,3.28-1.52,6.82-5.43,6.82h-14.39c-1.26,0-2.27-.63-2.65-1.77l-8.58-25.37c-.25-.38-.5-.63-.88-.63h-5.05c-2.27,0-4.29,1.64-4.67,3.91l-3.53,19.94c-.38,2.27-2.27,3.91-4.54,3.91h-14.14c-2.27,0-3.66-1.64-3.28-3.91l14.26-80.54c.38-2.27,2.27-3.91,4.54-3.91h27.64c22.47,0,29.92,9.59,26.26,30.29-2.02,11.74-6.44,19.94-13.89,24.74-.63.38-.88,1.01-.76,1.64l9.09,24.87Zm-30.17-59.83c-2.27,0-4.17,1.64-4.54,3.91l-1.64,9.34c-.51,2.27.88,3.91,3.16,3.91h6.44c6.06,0,9.21-.76,10.6-8.58,1.39-7.83-1.52-8.58-7.57-8.58h-6.44Z"/>
            <path class="cls-2" d="m1230.49,453.43c2.15,0,3.41.88,3.91,2.9l9.85,42.03c.25,1.14,1.26.88,1.51-.38l7.19-40.77c.51-2.53,2.02-3.79,4.42-3.79h14.14c2.52,0,3.66,1.26,3.16,3.79l-14.26,80.79c-.38,2.4-1.89,3.79-4.42,3.79h-18.56c-2.15,0-3.41-.88-3.91-2.9l-9.72-42.03c-.38-1.14-1.39-.88-1.64.38l-7.19,40.77c-.38,2.4-1.89,3.79-4.42,3.79h-14.14c-2.4,0-3.53-1.39-3.16-3.79l14.27-80.79c.5-2.53,2.02-3.79,4.42-3.79h18.56Z"/>
            <path class="cls-2" d="m858.88,557.56v-6.31h413.52v6.31h-413.52Z"/>
          </g>
          <g class="cls-1">
            <path class="cls-2" d="m1344.7,453.43c2.52,0,3.66,1.26,3.16,3.79l-2.52,14.14c-.38,2.4-1.89,3.79-4.42,3.79h-30.55c-2.4,0-4.04,1.26-4.42,3.79l-.76,4.04c-.38,2.4.76,3.79,3.16,3.79h19.57c2.52,0,3.53,1.26,3.16,3.79l-2.52,14.14c-.51,2.4-1.89,3.79-4.42,3.79h-19.57c-2.4,0-4.04,1.26-4.54,3.79l-.63,4.04c-.51,2.4.63,3.79,3.03,3.79h30.55c2.52,0,3.66,1.26,3.16,3.79l-2.52,14.14c-.38,2.52-1.89,3.79-4.42,3.79h-53.02c-2.4,0-3.53-1.39-3.16-3.79l14.27-80.79c.5-2.53,2.02-3.79,4.42-3.79h53.02Z"/>
            <path class="cls-2" d="m1272.37,557.56v-6.31h70.31v6.31h-70.31Z"/>
          </g>
          <g class="cls-1">
            <path class="cls-2" d="m1375.25,478.92c.38-2.52-.63-3.79-3.16-3.79h-17.67c-2.4,0-3.53-1.39-3.16-3.79l2.53-14.14c.5-2.53,2.02-3.79,4.42-3.79h64.63c2.53,0,3.66,1.26,3.16,3.79l-2.52,14.14c-.38,2.4-1.89,3.79-4.42,3.79h-17.67c-2.4,0-4.04,1.26-4.42,3.79l-10.48,59.08c-.38,2.4-1.89,3.79-4.42,3.79h-14.14c-2.4,0-3.53-1.39-3.16-3.79l10.48-59.08Z"/>
            <path class="cls-2" d="m1449.6,453.43c2.52,0,3.66,1.26,3.16,3.79l-2.53,14.14c-1.51,9.22-6.94,16.54-16.79,17.55-1.64.13-2.02-1.39-.63-2.78,4.04-4.04,5.18-7.2,5.68-9.72.13-.76-.25-1.26-1.01-1.26h-5.81c-2.4,0-3.53-1.39-3.16-3.79l2.52-14.14c.51-2.53,2.02-3.79,4.42-3.79h14.14Z"/>
            <path class="cls-2" d="m1502.11,484.73c-2.65.51-3.66-.63-3.66-3.16,0-5.18-3.54-8.46-9.47-8.46-4.92,0-8.46,2.9-8.46,5.81,0,9.85,39.89,9.59,34.84,38.63-.63,3.79-8.96,26.13-38.88,26.13-26.51,0-29.03-17.42-28.02-27.27.38-2.27,1.77-3.66,4.04-4.16l14.9-3.16c2.52-.5,3.79.63,3.53,3.28-.51,6.06,3.53,9.59,9.47,9.59s11.36-3.66,11.24-7.07c-.5-10.73-39-8.33-33.83-37.36.5-3.79,6.69-26.13,34.97-26.13,26,0,29.16,16.91,28.27,26-.25,2.27-1.64,3.66-4.04,4.17l-14.89,3.16Z"/>
            <path class="cls-2" d="m1337.91,557.56v-6.31h182.25v6.31h-182.25Z"/>
          </g>
        </g>
        <path d="m1273.72,559.27l11.97-3.63c.49-.29,1.09.08,1.05.64l-.33,3.07c-.02.41-.68.59-1.09.51l-11.37.72c-.64-.12-.8-.96-.23-1.29v-.02Z"/>
        <rect class="cls-2" x="1022.2" y="423.94" width="105.15" height="5.94"/>
        <rect class="cls-2" x="1249.79" y="423.94" width="105.17" height="5.94"/>
      </g>
    </g>
  </g>
</svg>