<?xml version="1.0" encoding="UTF-8"?>
<svg id="Layer_1" data-name="Layer 1" xmlns="http://www.w3.org/2000/svg" viewBox="0 0 3394.93 7986.56">
  <defs>
    <style>
      .cls-1 {
        fill: #fff;
      }
    </style>
  </defs>
  <g>
    <path d="m74.99,5766.15v.27c-12.83-88.94,54.1-185.71,118-247.27,2.3-2.22,4.61-4.41,6.94-6.57-72.08,68.56-124.94,150.97-124.94,253.57Z"/>
    <path d="m74.99,5766.42c3.47,24,12.74,47.43,29.44,69.44-17.73-17.03-29.37-39.03-29.44-69.44Z"/>
    <path d="m152.99,7168.15c13.75-20.63,28.64-39.69,44.56-57.3-4.61,5.27-9.13,10.7-13.56,16.3-50,62-92,133-84,213,.68,10.03,2.82,19.96,6.25,29.39-3.73-9.41-6.19-19.33-7.25-29.39-6-62,19-119,54-172Z"/>
    <path d="m106.99,5839.15c-.87-1.09-1.72-2.19-2.56-3.29,21.1,20.27,50.82,33.49,79.93,45.45-29.22-9.31-58.45-17.63-77.37-42.16Z"/>
    <path d="m163.99,7428.15c3.83,1.56,7.71,3.02,11.61,4.39-33.03-6.52-58.08-32.05-69.32-62.91,10.38,26.09,30.54,48.24,57.71,58.52Z"/>
    <path d="m178.99,7433.15c33.35,4.73,65.33,13.94,94.55,27.29-31.86-10.84-65.92-16.6-97.94-27.9,1.12.23,2.25.43,3.39.61Z"/>
    <path d="m219.99,5896.15c-11.31-5.01-23.42-9.81-35.63-14.84,12.48,3.99,24.96,8.15,36.63,13.84,12.15,6.03,23.7,12.67,34.67,19.89-11.39-7.09-23.28-13.41-35.67-18.89Z"/>
    <path d="m289.9,7031.27c-33.56,22.46-64.53,48.79-92.35,79.58,27.94-31.95,59.02-57.91,92.35-79.58Z"/>
    <path d="m299.53,5432.28c-32.94,26.29-67.52,50.5-99.6,80.3,30.59-29.1,64.65-55.71,99.6-80.3Z"/>
    <path d="m255.66,5915.04c75.98,47.19,129.63,127.76,158.33,212.11,4.3,13.37,7.68,26.85,10.63,40.38-30.51-102.24-81.73-195.2-168.96-252.49Z"/>
    <path d="m381.64,7547.11c-26.77-37.4-64.35-66.68-108.1-86.67,24.01,8.17,46.76,19.23,66.45,37.71,16.73,15.3,30.44,31.69,41.65,48.96Z"/>
    <path d="m446.99,6957.15c14.26-4.47,28.76-8.55,43.38-12.45-70.72,21.48-139.37,46.83-200.47,86.57,47.68-31.94,100.58-56.08,157.09-74.12Z"/>
    <path d="m303.99,5429.15c-1.49,1.04-2.97,2.08-4.46,3.13,21.54-17.19,42.37-35.27,61.34-56.39-15.79,19.52-34.24,37.5-56.88,53.26Z"/>
    <path d="m374.99,5359.15c-4.57,5.8-9.28,11.37-14.12,16.74,24.89-30.74,43.17-65.29,60.84-100.99-12.78,29.06-25.91,57.66-46.72,84.25Z"/>
    <path d="m423.99,7663.15c.15,1.84.3,3.68.44,5.52-6.16-43.18-18.68-84.37-42.73-121.47,23.38,32.7,38.51,71.61,42.29,115.95Z"/>
    <path d="m452.99,5212.15c-10.98,20.92-21.01,41.98-31.23,62.65,9.3-21.17,18.44-42.59,30.23-63.65,11.91-21.24,25.19-40.77,39.61-58.96-14.3,18.45-27.27,38.3-38.61,59.96Z"/>
    <path d="m427.8,7839.98c-.44,35.69-.98,71.44-.47,107.35-1.91-34.6-.81-70.75.47-107.35Z"/>
    <path d="m424.43,7668.67c7.9,55.28,5.4,113.83,3.37,171.31.7-57.08,1.14-114.02-3.37-171.31Z"/>
    <path d="m454.99,6296.15c-15.99-41.87-20.96-85.48-30.37-128.62,7.69,25.76,14.07,52.1,19.37,78.62,5.51,27.69,13.2,53.9,22.72,78.88-4.14-9.46-8.05-19.08-11.72-28.88Z"/>
    <path d="m427.91,4330.27c5.3,83.95,46.83,148.85,103.74,204.28-56.99-54.98-98.51-119.49-103.74-204.28Z"/>
    <path d="m770.99,6712.15c-113.82-122.44-244.73-230.75-304.28-387.12,66.75,152.81,191.28,263.76,304.28,387.12Z"/>
    <path d="m617.99,6908.15c27.35-8.2,54.49-17.45,80-29.73-63.93,32.95-137.19,47.5-207.62,66.28,42.19-12.82,85.12-24.25,127.62-36.55Z"/>
    <path d="m768.99,4711.15c-76.56-55.96-167.33-108.86-236.06-175.36,69.14,66.28,160.64,118.8,237.77,176.56-.57-.4-1.14-.8-1.71-1.2Z"/>
    <path d="m663.81,5002.11c1.62-1.12,3.25-2.23,4.88-3.35.54-.37,1.09-.74,1.63-1.11-1.2.82-2.39,1.64-3.58,2.45-64.83,44.55-125.9,90.3-174.3,151.02,1.02-1.31,2.05-2.61,3.08-3.91,6.71-8.41,13.7-16.52,20.94-24.39.6-.66,1.2-1.31,1.82-1.96.5-.55,1.01-1.09,1.52-1.63.4-.43.81-.87,1.23-1.3.71-.76,1.43-1.52,2.16-2.28.94-.98,1.88-1.96,2.83-2.93.56-.58,1.12-1.16,1.69-1.73,1.86-1.9,3.74-3.78,5.63-5.65.81-.81,1.63-1.61,2.46-2.41.9-.89,1.81-1.77,2.73-2.65,5.58-5.37,11.27-10.63,17.07-15.8.85-.76,1.71-1.52,2.57-2.27,1.91-1.69,3.83-3.36,5.76-5.02.97-.83,1.94-1.66,2.91-2.49,3.88-3.31,7.81-6.58,11.77-9.81,1.98-1.62,3.97-3.23,5.98-4.83,2-1.6,4.01-3.2,6.03-4.79,2.02-1.58,4.04-3.16,6.08-4.74.25-.2.5-.4.76-.59,1.78-1.37,3.57-2.74,5.37-4.11,2.05-1.56,4.11-3.11,6.18-4.66,12.41-9.3,25.09-18.39,37.96-27.39,5.58-3.91,11.19-7.79,16.84-11.67Z"/>
    <path d="m684.55,4987.95s.05-.04.07-.06c1.03-.7,2.06-1.4,3.09-2.09-1.06.72-2.11,1.43-3.16,2.15Z"/>
    <path d="m756.99,4938.15c8.44-5.83,17-11.61,25.35-17.57-2.12,1.54-4.24,3.06-6.35,4.57-28.29,20.24-56.8,39.32-84.82,58.3,14.49-9.84,29.08-19.72,43.68-29.82,1.34-.92,2.68-1.85,4.02-2.78.53-.36,1.05-.72,1.57-1.09,2.31-1.6,4.62-3.22,6.94-4.84.18-.12.37-.26.56-.39,3.02-2.11,6.03-4.24,9.05-6.38Z"/>
    <path d="m779.99,6818.15c-23.4,26.67-51.54,45.63-82,60.27,29.77-15.34,57.51-34.67,82-60.27Z"/>
    <path d="m794.99,4731.15c-7.87-6.31-15.94-12.55-24.18-18.72,25.58,18.11,53.52,38.22,69.18,63.95-11.44-17.56-28.8-32.27-45-45.23Z"/>
    <path d="m782.62,4920.38c13.65-9.92,27.14-20.42,38.59-32.28-11.28,11.9-24.65,22.33-38.59,32.28Z"/>
    <path d="m781.42,6725.09c18.88,28.05,23.46,66.45-1.43,93.06,24.02-27.45,20.07-65.2,1.43-93.06Z"/>
    <path d="m822.12,4887.14c15.06-16.15,26.25-35.01,29.87-58.99-2.68,23.6-14.28,42.59-29.87,58.99Z"/>
    <path d="m840.03,4776.43c9.73,14.94,15.18,31.96,11.96,51.72,2.18-19.65-2.78-36.65-11.96-51.72Z"/>
    <path d="m992.51,5796.9c-10.43-46.42,27.05-85.48,66.45-113.69-24.85,18.34-46.4,38.96-59.97,67.94-7.45,15.25-8.98,30.75-6.48,45.75Z"/>
    <path d="m999.99,5817.15c8.62,16.44,18.57,31.96,29.62,46.59-17.74-18.58-32.93-41.98-37.08-66.76,1.47,6.58,3.92,13.31,7.46,20.17Z"/>
    <path d="m994.99,7322.15c1.59,16.09,4.94,31.26,9.79,45.67-5.33-14.39-9.35-29.56-11.79-45.67-2.55-15.28,2.65-28.58,11.85-40.28-7.49,11.68-11.38,24.93-9.85,40.28Z"/>
    <path d="m1255.99,7641.15c4.97,5.53,9.95,11.06,14.91,16.61-5.94-6.55-11.92-13.08-17.91-19.61-81.58-91.33-210.33-157.5-248.21-270.33,42.61,115.11,169.43,180,251.21,273.33Z"/>
    <path d="m1115.99,7207.15c74.95-40.94,158.23-74.34,223.86-124.7-81.73,64.85-191.04,101.49-284.86,159.7-17.84,10.93-37.66,23.85-50.14,39.71,21.78-33.97,73.93-54.62,111.14-74.71Z"/>
    <path d="m1133.51,5960.2c-39.4-26.7-75.32-58.62-103.89-96.45,1.77,1.85,3.56,3.65,5.37,5.4,30.63,31.06,62.93,64.17,98.52,91.05Z"/>
    <path d="m1079.99,5669.15c-6.9,4.33-13.99,9.02-21.03,14.06,15.45-11.42,32.16-21.94,49.03-33.06,49.56-32.5,99.12-65.66,143.32-102.97-52.61,45.41-112.99,85.05-171.32,121.97Z"/>
    <path d="m1133.57,5960.24c21.33,14.47,43.68,27.4,66.42,38.91,1.75.86,3.5,1.68,5.26,2.46-25.47-9.92-49.23-24.4-71.68-41.37Z"/>
    <path d="m1218.37,6006.26c13.07,4.17,26.6,7.11,40.63,8.55-18.14-1.35-36.07-5.31-53.69-13.17,4.3,1.67,8.66,3.21,13.06,4.62Z"/>
    <path d="m1251.98,5546.61c66.19-57.24,119.98-123.6,141.77-205.15.07,1.56.15,3.12.24,4.69-24.85,82.84-77.71,146.07-142.01,200.46Z"/>
    <path d="m1306.41,6013.27c.74-.06,1.47-.13,2.21-.21-4.52.86-9.06,1.57-13.63,2.09-12.34,1.02-24.32.86-35.94-.34,15.65,1.18,31.47.39,47.36-1.54Z"/>
    <path d="m1270.99,7657.86c47.87,52.78,92.97,107.06,113.07,174.78-20.43-67.97-65.92-122.04-113.07-174.78Z"/>
    <path d="m1372.74,5995.53c20.11-5.57,40.38-9.69,61.58-8.28-12.96.09-26.13,2.05-39.4,6.17-28.59,6.59-57.71,16.76-86.29,19.64,21.67-4.12,42.81-11.64,64.11-17.53Z"/>
    <path d="m1430.99,6970.15c20.09-43.52,38.13-87.95,54.09-133.09-15.72,45.37-33.44,90.12-53.09,134.09-21.1,46.27-53.57,81.71-92.14,111.3,37.62-29.84,69.39-65.66,91.14-112.3Z"/>
    <path d="m1392.24,4323.71c-1.83,156.87,126.18,249.36,242.15,341.36-119.03-89.28-244.29-185.09-242.15-341.36Z"/>
    <path d="m1407.51,5236.39c-1.26,4.2-2.43,8.45-3.52,12.76,1.15,32.84-2.55,63.51-10.24,92.3-1.71-37.99,3.39-72.81,13.76-105.06Z"/>
    <path d="m1619.3,4986.23c-91.6,70.25-178.65,147.08-211.79,250.15,32.92-110.69,119.63-182.79,211.79-250.15Z"/>
    <path d="m1434.34,5987.25c26.67-.21,52.47,7.43,76.37,20.11-18.25-8.49-37.79-14.51-58.32-17.54-6.1-1.35-12.11-2.18-18.05-2.57Z"/>
    <path d="m1603.49,6443.75c-29.98,83.35-57.67,166.45-76.2,253.61-7.9,31.21-16.71,62.17-26.47,92.84-4.97,15.61-10.18,31.13-15.64,46.58,5.25-15.16,10.27-30.39,15.08-45.68,9.6-30.58,18.3-61.43,26.13-92.5,19.44-93.29,48.8-183.28,83.37-272.18-2.1,5.78-4.19,11.55-6.27,17.33Z"/>
    <path d="m1646.73,6187.1c-8.59-37.84-25.21-74.04-50.74-105.95-23.06-29.31-52.37-56.31-85.24-73.77,70.45,32.8,121.65,102.48,135.98,179.72Z"/>
    <path d="m1609.84,6426.19c7.97-21.95,16.06-43.94,24.15-66.04,3.58-9.68,6.69-19.52,9.32-29.48-3.85,17.83-9.27,35.41-16.32,52.48-5.84,14.32-11.57,28.67-17.15,43.04Z"/>
    <path d="m1762.79,4861.63c-6.2,16.39-17.99,32.17-36.8,46.52-34.48,26.61-70.96,51.96-106.61,78.02,30.65-23.5,61.8-46.26,91.61-69.02,20.45-15.91,40.91-32.97,51.8-55.52Z"/>
    <path d="m1702.99,4722.15c-21.51-19.34-44.74-38.16-68.49-57,20.58,15.44,40.97,30.68,60.49,46,18.36,14.05,35.32,31.24,48.28,50.04-12.2-14.29-26.79-27.14-40.28-39.04Z"/>
    <path d="m1647.99,6303.07c4.39-28.1,4.93-56.2,2.51-84-.54-10.72-1.8-21.38-3.75-31.9,10.67,47.02,8.95,96.55-3.44,143.49,1.97-9.14,3.53-18.36,4.68-27.59Z"/>
    <path d="m1743.29,4761.22c18.53,21.73,31.52,46.78,26.7,76.93-1.21,8.47-3.71,16.23-7.19,23.44,12.57-33.29,2.07-69.07-19.51-100.37Z"/>
    <path d="m1565.1,7471.61c-1.07-2.13-2.1-4.29-3.11-6.46-15.09-32.45-2.85-64.9,19.53-90.04-20.27,28.63-25.65,63.06-16.42,96.5Z"/>
    <path d="m1565.1,7471.62c16.85,34.09,39.42,63.3,64.78,90.32-9.17-8.86-18.14-17.78-26.89-26.79-19.08-19.38-31.74-41.23-37.89-63.53Z"/>
    <path d="m1581.53,7375.1c10.86-15.34,26-29,45.46-39.95,13.14-7.62,26.6-15.27,40.19-23.02-21.01,13.29-41.64,26.8-61.19,41.02-8.83,6.38-17.18,13.78-24.46,21.95Z"/>
    <path d="m1592.15,5577.02c-.74-.71-1.16-1.66-1.16-2.87,2.17-32.88,15.83-59.63,35.64-82.83-17.77,24.19-30.26,51.96-34.64,84.83-.15.29-.08.59.16.87Z"/>
    <path d="m1596.52,5578.84c-1.57-.24-2.93-.68-3.9-1.41.81.55,2.23,1.05,3.9,1.41Z"/>
    <path d="m1611.99,5577.15c14.35-4.02,29.03-8.54,43.9-12.93-17.19,5.13-34.22,10.42-50.9,14.93-2.4.48-5.73.27-8.43-.3,4.7.66,11.29-.51,15.43-1.7Z"/>
    <path d="m1626.68,5491.27c35.02-47.63,90.55-81.37,145.07-112.84-3.94,2.84-7.86,5.74-11.76,8.72-44.05,33.2-98.29,63.14-133.31,104.12Z"/>
    <path d="m1898.48,7856.19c-31.28-56.9-77.75-107.36-122.49-155.04-46.42-49.55-100.7-90.84-146.07-139.17,95.49,92.42,209.95,178.58,268.56,294.21Z"/>
    <path d="m1667.32,7312.04c97.44-61.63,203.12-118.38,248.21-217.58-44.9,99.97-150.03,161.58-248.21,217.58Z"/>
    <path d="m1841.2,5558.56c-55.09-27.91-117.18-14.17-176.76,3.13,59.82-17.55,121.27-31.42,176.76-3.13Z"/>
    <path d="m1826.99,5346.15c-17.7,10.81-36.41,21.4-55.23,32.27,86.03-62.01,181.72-92.69,282.2-112.29-78.72,16.63-154.63,37.24-226.97,80.02Z"/>
    <path d="m1921.91,5634.84c-18.39-23.1-35.69-45.48-58.92-62.69,24.21,17.8,41.32,39.66,58.92,62.69Z"/>
    <path d="m1898.51,7856.25c21.83,39.74,36.25,82.62,37.48,129.9-4.03-47.67-17.51-90.5-37.48-129.9Z"/>
    <path d="m1921.99,5634.94c2.96,3.72,5.95,7.47,9,11.21,16.25,19.54,33.27,38.06,50.16,56.37-12.75-12.64-25.43-25.48-37.16-39.37-7.74-9.47-14.91-18.93-22-28.21Z"/>
    <path d="m1918.36,7087.95c8.96-21.56,15.16-44.87,17.94-70.25-2.78,25.65-8.97,48.92-17.94,70.25Z"/>
    <path d="m1975.18,4455.83c-23.35-41.84-37.46-88.9-38.21-142.91,1.54,54.52,15.47,101.47,38.21,142.91Z"/>
    <path d="m1938.06,6693.02c7.37-66.65,38.19-121.96,75.55-175.36-37.02,53.66-67.36,109-75.55,175.36Z"/>
    <path d="m1976.02,4457.35c37.88,67.12,99.55,120.76,167.84,168.04-69-47.34-130.21-100.32-167.84-168.04Z"/>
    <path d="m1981.24,5702.62c26.75,26.52,53.8,52.19,73,84.88-21.92-29.72-47.31-57.05-73-84.88Z"/>
    <path d="m2095.99,6404.15c9.32-13.7,18.56-27.25,27.14-40.91-6.74,11.05-13.87,22-21.14,32.91-27.84,41.34-59.07,79.84-86.84,119.31,25.56-36.84,54.18-72.92,80.84-111.31Z"/>
    <path d="m2120.04,5925.66c-17.84-45.59-39.15-89.75-62.05-131.51-1.21-2.25-2.46-4.46-3.74-6.64,20.43,27.7,37.87,57.47,49.74,91.64,5.38,15.27,10.78,30.78,16.05,46.51Z"/>
    <path d="m2195.99,5237.15c19.83-4.22,41.26-9.86,60.09-19.03-28.83,17.52-65.12,26.08-98.09,31.03-35.02,4.9-69.68,10.27-103.78,16.93,46.33-9.79,93.65-18.19,141.78-28.93Z"/>
    <path d="m2123.19,6363.15c8.06-13.22,15.57-26.59,22.13-40.23-.85,2.06-1.73,4.12-2.63,6.17-5.84,11.52-12.44,22.83-19.5,34.06Z"/>
    <path d="m2145.33,6322.89c5.5-13.22,10.05-26.62,13.72-40.14-2.14,8.67-4.56,17.31-7.28,25.91-2.02,4.78-4.17,9.52-6.44,14.23Z"/>
    <path d="m2159.06,6282.72c8.25-33.44,12.3-67.4,12.84-101.53.04,34.31-3.8,68.32-12.84,101.53Z"/>
    <path d="m2120.07,5925.76c32.23,82.33,53.17,169.33,51.83,255.27-.11-85.64-24.29-173.2-51.83-255.27Z"/>
    <path d="m2325.99,4739.15c-57.82-36.01-121.86-72.13-181.02-113,65.29,44.7,137.46,84.4,203.21,126.79-7.37-4.59-14.79-9.16-22.19-13.79Z"/>
    <path d="m2306.03,5154.15c2.68-9.34,5.65-18.35,8.93-27.05-2.74,8.93-5.06,18.26-6.93,28.05-5.22,31.19-26.1,50.37-51.87,62.93,23.61-14.34,42.2-34.68,49.87-63.93Z"/>
    <path d="m2351.61,5058.15c-14.96,20.82-27.09,43.57-36.63,68.89,8.18-26.61,20.14-49.59,35.39-70.27,20.37-27.62,46.62-51.12,77.62-73.62-31,22.5-56.25,47-76.38,75Z"/>
    <path d="m2392.99,4783.15c-14.46-10.27-29.45-20.31-44.78-30.19,32.98,20.57,64.86,41.55,89.22,69.32-12.71-14.34-27.76-27.14-44.44-39.13Z"/>
    <path d="m2465.99,4866.15c18.85,40.53,1.28,84.6-31.77,112.13,32.95-27.54,49.67-71.61,31.77-112.13Z"/>
    <path d="m2464.79,4863.53c-6.13-13-13.68-24.68-22.33-35.35,8.86,10.82,16.39,22.51,22.33,35.35Z"/>
    <path d="m2373.99,7506.15c.69,10.31,2.91,19.98,6.38,29.08-3.65-9.07-6.19-18.73-7.38-29.08-1.17-10.54,1.16-20.32,5.58-29.52-3.57,9.28-5.31,19.11-4.58,29.52Z"/>
    <path d="m2408.99,7437.15c-11.58,12.19-23.53,25.11-30.41,39.46,9.6-25.04,32.48-46.13,56.09-64.08-8.71,7.91-17.28,16.09-25.68,24.62Z"/>
    <path d="m2464.11,7625.15c-35.12-25.07-69.46-52.8-83.59-89.53,15.07,37.15,48.67,64.52,83.59,89.53Z"/>
    <path d="m2464.76,5809.52c-24.22-33.21-36.98-71.41-25.77-115.37.84-3.29,1.74-6.53,2.7-9.74-2.06,8.3-3.63,16.88-4.7,25.74-4.55,37.9,7.28,70.63,27.77,99.37Z"/>
    <path d="m2445.99,7404.15c-3.75,2.71-7.54,5.5-11.31,8.37,53.23-48.43,111.38-87.09,164.98-135.36-46.63,46.27-99.23,88.48-153.67,126.99Z"/>
    <path d="m2441.7,5684.36c17.95-72.5,72-124.56,133-168.27-59.35,44.13-111.48,96.46-133,168.27Z"/>
    <path d="m2757.72,6089.87c-9.61-24.32-23.17-46.16-39.55-66.18-16.79-20.39-35.33-38.24-55.03-54.56-19.69-16.33-40.55-31.13-62-45.41-46.01-30.76-102.74-67.07-136.31-114.09,31.98,43.79,83.87,78.9,126.96,107.06,23.15,15.27,45.75,31.05,67.09,48.47,21.34,17.42,41.41,36.48,59.51,58.31,16.33,20.08,29.83,41.97,39.4,66.33,5.1,12.99,9.08,26.68,11.78,41.19-2.72-14.48-6.72-28.15-11.85-41.12Z"/>
    <path d="m2667.99,5455.15c-30.3,19.17-62.52,38.92-93,60.74,29.84-22.17,61.5-42.27,92-61.74,23.67-14.67,47.81-26.47,72.32-36,2.87-1.12,5.75-2.2,8.63-3.26-2.69,1.02-5.37,2.07-8.05,3.14-24.4,9.79-48.4,21.95-71.9,37.12Z"/>
    <path d="m2599.69,7277.13c58.05-57.61,106.87-121.53,138.49-192.48-26.17,63.27-65.44,121.69-116.19,171.5-7.33,7.22-14.77,14.19-22.3,20.98Z"/>
    <path d="m2752.89,7885.31c-42.53-95.87-141.43-159.84-234.86-222.92,93.57,63.05,192.6,126.65,234.86,222.92Z"/>
    <path d="m2748.48,5414.69c112.14-42.28,232.37-36.06,350.92-40.49-118.37,4.57-238.43-.51-350.92,40.49Z"/>
    <path d="m2754.3,7888.56c12.5,29.27,19.76,61.52,20.05,97.59h-.36c-.21-36.12-7.34-68.35-19.69-97.59Z"/>
    <path d="m2770.65,6137.25c.42,2.59.79,5.2,1.11,7.84-.33-2.64-.7-5.25-1.11-7.84Z"/>
    <path d="m2828.36,4497.03c-34.94-55.34-57.49-116.21-53.89-184.11-2.99,66.9,19.18,128.34,53.89,184.11Z"/>
    <path d="m2774.47,6857.48c8.92,82.74-5.57,158.19-36.22,227.02,29.48-71.32,42.32-148.8,36.22-227.02Z"/>
    <path d="m3254.99,5243.15c-9.62,27.91-30.36,48.41-47.06,73.99-.65,1-1.3,1.99-1.94,3.01,15-24,34-43,44-68,55-130-22-267-100-380-79-115-172-195-262-296-21.77-24.74-42.02-50.9-59.22-78.45,18.09,28.56,39.46,55.64,62.22,81.45,92,103,188,186,267,304,73,108,141,235,97,360Z"/>
    <path d="m3205.99,5320.15c-16.39,25.88-42.47,45.81-69.86,51.44,27.19-5.65,52.61-25.57,69.86-51.44Z"/>
    <path d="m3394.16,7664.08c.24-3.97.43-7.92.55-11.86v105.32c0-28.92,0-60.28-.55-93.46Z"/>
    <path d="m1.07,4312.92v61.09c-1.39-20.09-1.46-40.44,0-61.09Z"/>
    <path d="m184.36,5881.31c-29.22-9.31-58.45-17.63-77.37-42.16-.87-1.09-1.72-2.19-2.56-3.29,21.1,20.27,50.82,33.49,79.93,45.45Z"/>
    <path d="m199.93,5512.58c-72.08,68.56-124.94,150.97-124.94,253.57v.27c-12.83-88.94,54.1-185.71,118-247.27,2.3-2.22,4.61-4.41,6.94-6.57Z"/>
    <path d="m175.6,7432.54c-33.03-6.52-58.08-32.05-69.32-62.91,10.38,26.09,30.54,48.24,57.71,58.52,3.83,1.56,7.71,3.02,11.61,4.39Z"/>
    <path d="m289.9,7031.27c-33.56,22.46-64.53,48.79-92.35,79.58,27.94-31.95,59.02-57.91,92.35-79.58Z"/>
    <path d="m360.87,5375.89c-15.79,19.52-34.24,37.5-56.88,53.26-1.49,1.04-2.97,2.08-4.46,3.13,21.54-17.19,42.37-35.27,61.34-56.39Z"/>
    <path d="m424.62,6167.53c-30.51-102.24-81.73-195.2-168.96-252.49,75.98,47.19,129.63,127.76,158.33,212.11,4.3,13.37,7.68,26.85,10.63,40.38Z"/>
    <path d="m381.64,7547.11c-26.77-37.4-64.35-66.68-108.1-86.67,24.01,8.17,46.76,19.23,66.45,37.71,16.73,15.3,30.44,31.69,41.65,48.96Z"/>
    <path d="m427.8,7839.98c.7-57.08,1.14-114.02-3.37-171.31,7.9,55.28,5.4,113.83,3.37,171.31Z"/>
    <path d="m491.6,5152.19c-14.3,18.45-27.27,38.3-38.61,59.96-10.98,20.92-21.01,41.98-31.23,62.65,9.3-21.17,18.44-42.59,30.23-63.65,11.91-21.24,25.19-40.77,39.61-58.96Z"/>
    <path d="m770.7,4712.35c-.57-.4-1.14-.8-1.71-1.2-76.56-55.96-167.33-108.86-236.06-175.36,69.14,66.28,160.64,118.8,237.77,176.56Z"/>
    <path d="m770.99,6712.15c-113.82-122.44-244.73-230.75-304.28-387.12,66.75,152.81,191.28,263.76,304.28,387.12Z"/>
    <path d="m697.99,6878.42c-63.93,32.95-137.19,47.5-207.62,66.28,42.19-12.82,85.12-24.25,127.62-36.55,27.35-8.2,54.49-17.45,80-29.73Z"/>
    <path d="m779.99,6818.15c24.02-27.45,20.07-65.2,1.43-93.06,18.88,28.05,23.46,66.45-1.43,93.06Z"/>
    <path d="m821.21,4888.1c-11.28,11.9-24.65,22.33-38.59,32.28,13.65-9.92,27.14-20.42,38.59-32.28Z"/>
    <path d="m851.99,4828.15c2.18-19.65-2.78-36.65-11.96-51.72,9.73,14.94,15.18,31.96,11.96,51.72Z"/>
    <path class="cls-1" d="m1762.8,4861.59s0,.03-.01.04c-10.89,22.55-31.35,39.61-51.8,55.52-29.81,22.76-60.96,45.52-91.61,69.02-.03.02-.05.04-.08.06-92.16,67.36-178.87,139.46-211.79,250.15h0c-10.37,32.26-15.47,67.08-13.76,105.07h0c-21.79,81.56-75.58,147.92-141.77,205.16-.22.2-.44.39-.67.57-44.2,37.31-93.76,70.47-143.32,102.97-16.87,11.12-33.58,21.64-49.03,33.06-39.4,28.21-76.88,67.27-66.45,113.69.01.02.01.05.02.08,4.15,24.78,19.34,48.18,37.08,66.76t0,.01c28.57,37.83,64.49,69.75,103.89,96.45.02.02.04.04.06.04,22.45,16.97,46.21,31.45,71.68,41.37.02,0,.04.02.06.03,17.62,7.86,35.55,11.82,53.69,13.17h.05c11.62,1.2,23.6,1.36,35.94.34,4.57-.52,9.11-1.23,13.63-2.09h.01c28.58-2.88,57.7-13.05,86.29-19.64,13.27-4.12,26.44-6.08,39.4-6.17h.02c5.94.39,11.95,1.22,18.05,2.57,20.53,3.03,40.07,9.05,58.32,17.54.02,0,.03.02.04.02,32.87,17.46,62.18,44.46,85.24,73.77,25.53,31.91,42.15,68.11,50.74,105.95,0,.02.02.05.02.07,1.95,10.52,3.21,21.18,3.75,31.9,2.42,27.8,1.88,55.9-2.51,84-1.15,9.23-2.71,18.45-4.68,27.59h0c-2.63,9.97-5.74,19.81-9.32,29.49-8.09,22.1-16.18,44.09-24.15,66.04-.03.07-.06.15-.08.23-34.57,88.9-63.93,178.89-83.37,272.18-7.83,31.07-16.53,61.92-26.13,92.5-4.81,15.29-9.83,30.52-15.08,45.68-.03.09-.07.19-.1.28-15.96,45.14-34,89.57-54.09,133.09-21.75,46.64-53.52,82.46-91.14,112.3-65.63,50.36-148.91,83.76-223.86,124.7-37.21,20.09-89.36,40.74-111.14,74.71h0c-9.2,11.71-14.4,25.01-11.85,40.29,2.44,16.11,6.46,31.28,11.79,45.67,37.88,112.83,166.63,179,248.21,270.33,5.99,6.53,11.97,13.06,17.91,19.61.03.03.06.07.09.1,47.15,52.74,92.64,106.81,113.07,174.78.33,1.08.64,2.16.95,3.25,6.74,48.64,7.56,86.06,7.56,111.44v38.82H427.32s0-13.44,0-38.82c-.51-35.91.03-71.66.47-107.35,2.03-57.48,4.53-116.03-3.37-171.31-.14-1.84-.29-3.68-.44-5.52-3.78-44.34-18.91-83.25-42.29-115.95-.02-.03-.04-.06-.06-.09-11.21-17.27-24.92-33.66-41.65-48.96-19.69-18.48-42.44-29.54-66.45-37.71-29.22-13.35-61.2-22.56-94.55-27.29-1.14-.18-2.27-.38-3.39-.61-3.9-1.37-7.78-2.83-11.61-4.39-27.17-10.28-47.33-32.43-57.71-58.52,0-.03-.03-.06-.04-.09-3.43-9.43-5.57-19.36-6.25-29.39-8-80,34-151,84-213,4.43-5.6,8.95-11.03,13.56-16.3,27.82-30.79,58.79-57.12,92.35-79.58,61.1-39.74,129.75-65.09,200.47-86.57,70.43-18.78,143.69-33.33,207.62-66.28,30.46-14.64,58.6-33.6,82-60.27,24.49-26.18,20.45-63.77,2.34-91.69t-.02-.02c-.29-.45-.59-.9-.89-1.35-.32-.47-.64-.94-.96-1.4-.41-.59-.82-1.17-1.24-1.74-2.52-3.46-5.28-6.74-8.23-9.8-113-123.36-237.53-234.31-304.28-387.12-9.52-24.98-17.21-51.19-22.72-78.88-5.3-26.52-11.68-52.86-19.37-78.62-2.95-13.53-6.33-27.01-10.63-40.38-28.7-84.35-82.35-164.92-158.33-212.11-10.97-7.22-22.52-13.86-34.67-19.89-11.67-5.69-24.15-9.85-36.63-13.84-29.11-11.96-58.83-25.18-79.93-45.45-16.7-22.01-25.97-45.44-29.44-69.44v-.27c0-102.6,52.86-185.01,124.94-253.57,32.08-29.8,66.66-54.01,99.6-80.3,1.49-1.05,2.97-2.09,4.46-3.13,22.64-15.76,41.09-33.74,56.88-53.26,4.84-5.37,9.55-10.94,14.12-16.74,20.81-26.59,33.94-55.19,46.72-84.25.01-.03.03-.07.05-.1,10.22-20.67,20.25-41.73,31.23-62.65,11.34-21.66,24.31-41.51,38.61-59.96.27-.36.56-.71.84-1.07,46.89-58.82,105.67-103.6,168.23-146.84,2.02-1.39,4.04-2.79,6.07-4.18,1.19-.81,2.38-1.63,3.58-2.45.7-.48,1.4-.96,2.11-1.45.87-.59,1.74-1.19,2.62-1.79,1.47-1,2.94-2.01,4.42-3.01.75-.51,1.49-1.02,2.24-1.53.94-.64,1.89-1.28,2.84-1.92,0,0,.03-.02.04-.03,1.04-.71,2.07-1.41,3.12-2.12,1.15-.78,2.31-1.56,3.46-2.35,28.02-18.98,56.53-38.06,84.82-58.3,2.11-1.51,4.23-3.03,6.35-4.57.09-.06.18-.13.28-.2,13.94-9.95,27.31-20.38,38.59-32.28.31-.31.61-.63.91-.96,15.59-16.4,27.19-35.39,29.87-58.99,3.22-19.76-2.23-36.78-11.96-51.72,0-.02-.02-.04-.04-.05-15.66-25.73-43.6-45.84-69.18-63.95-.04-.02-.08-.05-.11-.08-77.13-57.76-168.63-110.28-237.77-176.56-.43-.41-.85-.83-1.28-1.24-56.01-54.56-97.13-118.28-103.47-200.32-.09-1.31-.19-2.63-.27-3.96-.17-2.7-.3-5.43-.4-8.18-.04-1.33-.08-2.67-.11-4.01-.01-.47-.02-.95-.02-1.42-.02-1.24-.04-2.49-.04-3.74,0-6.58-.01-13.12-.01-19.62,0-15.93,965.24,19.62,965.24,19.62-.12,2.5-.21,4.98-.27,7.44-.03,1.12-.05,2.23-.06,3.35-2.14,156.27,123.12,252.08,242.15,341.36.04.03.08.06.11.08,23.75,18.84,46.98,37.66,68.49,57,13.49,11.9,28.08,24.75,40.28,39.04,0,0,.02.02.02.03,21.58,31.3,32.08,67.08,19.51,100.37Z"/>
    <path class="cls-1" d="m199.93,5512.58c-72.08,68.56-124.94,150.97-124.94,253.57v.27c-12.83-88.94,54.1-185.71,118-247.27,2.3-2.22,4.61-4.41,6.94-6.57Z"/>
    <path class="cls-1" d="m104.43,5835.86c21.1,20.27,50.82,33.49,79.93,45.45-29.22-9.31-58.45-17.63-77.37-42.16-.87-1.09-1.72-2.19-2.56-3.29Z"/>
    <path class="cls-1" d="m163.99,7428.15c3.83,1.56,7.71,3.02,11.61,4.39-33.03-6.52-58.08-32.05-69.32-62.91,10.38,26.09,30.54,48.24,57.71,58.52Z"/>
    <path class="cls-1" d="m289.9,7031.27c-33.56,22.46-64.53,48.79-92.35,79.58,27.94-31.95,59.02-57.91,92.35-79.58Z"/>
    <path class="cls-1" d="m255.66,5915.04c75.98,47.19,129.63,127.76,158.33,212.11,4.3,13.37,7.68,26.85,10.63,40.38-30.51-102.24-81.73-195.2-168.96-252.49Z"/>
    <path class="cls-1" d="m381.64,7547.11c-26.77-37.4-64.35-66.68-108.1-86.67,24.01,8.17,46.76,19.23,66.45,37.71,16.73,15.3,30.44,31.69,41.65,48.96Z"/>
    <path class="cls-1" d="m303.99,5429.15c-1.49,1.04-2.97,2.08-4.46,3.13,21.54-17.19,42.37-35.27,61.34-56.39-15.79,19.52-34.24,37.5-56.88,53.26Z"/>
    <path class="cls-1" d="m491.6,5152.19c-14.3,18.45-27.27,38.3-38.61,59.96-10.98,20.92-21.01,41.98-31.23,62.65,9.3-21.17,18.44-42.59,30.23-63.65,11.91-21.24,25.19-40.77,39.61-58.96Z"/>
    <path class="cls-1" d="m424.43,7668.67c7.9,55.28,5.4,113.83,3.37,171.31.7-57.08,1.14-114.02-3.37-171.31Z"/>
    <path class="cls-1" d="m466.71,6325.03c66.75,152.81,191.28,263.76,304.28,387.12-113.82-122.44-244.73-230.75-304.28-387.12Z"/>
    <path class="cls-1" d="m617.99,6908.15c27.35-8.2,54.49-17.45,80-29.73-63.93,32.95-137.19,47.5-207.62,66.28,42.19-12.82,85.12-24.25,127.62-36.55Z"/>
    <path class="cls-1" d="m768.99,4711.15c-76.56-55.96-167.33-108.86-236.06-175.36,69.14,66.28,160.64,118.8,237.77,176.56-.57-.4-1.14-.8-1.71-1.2Z"/>
    <path class="cls-1" d="m782.62,4920.38c13.65-9.92,27.14-20.42,38.59-32.28-11.28,11.9-24.65,22.33-38.59,32.28Z"/>
    <path class="cls-1" d="m781.42,6725.09c18.88,28.05,23.46,66.45-1.43,93.06,24.02-27.45,20.07-65.2,1.43-93.06Z"/>
    <path class="cls-1" d="m840.03,4776.43c9.73,14.94,15.18,31.96,11.96,51.72,2.18-19.65-2.78-36.65-11.96-51.72Z"/>
    <path class="cls-1" d="m1029.61,5863.74c-17.74-18.58-32.93-41.98-37.08-66.76,1.47,6.58,3.92,13.31,7.46,20.17,8.62,16.44,18.57,31.96,29.62,46.59Z"/>
    <path class="cls-1" d="m1339.85,7082.45c-81.73,64.85-191.04,101.49-284.86,159.7-17.84,10.93-37.66,23.85-50.14,39.71,21.78-33.97,73.93-54.62,111.14-74.71,74.95-40.94,158.23-74.34,223.86-124.7Z"/>
    <path class="cls-1" d="m1251.31,5547.18c-52.61,45.41-112.99,85.05-171.32,121.97-6.9,4.33-13.99,9.02-21.03,14.06,15.45-11.42,32.16-21.94,49.03-33.06,49.56-32.5,99.12-65.66,143.32-102.97Z"/>
    <path class="cls-1" d="m1270.9,7657.76c-5.94-6.55-11.92-13.08-17.91-19.61-81.58-91.33-210.33-157.5-248.21-270.33,42.61,115.11,169.43,180,251.21,273.33,4.97,5.53,9.95,11.06,14.91,16.61Z"/>
    <path class="cls-1" d="m1205.25,6001.61c-25.47-9.92-49.23-24.4-71.68-41.37,21.33,14.47,43.68,27.4,66.42,38.91,1.75.86,3.5,1.68,5.26,2.46Z"/>
    <path class="cls-1" d="m1308.62,6013.06c-4.52.86-9.06,1.57-13.63,2.09-12.34,1.02-24.32.86-35.94-.34,15.65,1.18,31.47.39,47.36-1.54.74-.06,1.47-.13,2.21-.21Z"/>
    <path class="cls-1" d="m1403.99,5249.15c1.15,32.84-2.55,63.51-10.24,92.3-1.71-37.99,3.39-72.81,13.76-105.06-1.26,4.2-2.43,8.45-3.52,12.76Z"/>
    <path class="cls-1" d="m1510.71,6007.36c-18.25-8.49-37.79-14.51-58.32-17.54-6.1-1.35-12.11-2.18-18.05-2.57,26.67-.21,52.47,7.43,76.37,20.11Z"/>
    <path class="cls-1" d="m1609.76,6426.42c-2.1,5.78-4.19,11.55-6.27,17.33-29.98,83.35-57.67,166.45-76.2,253.61-7.9,31.21-16.71,62.17-26.47,92.84-4.97,15.61-10.18,31.13-15.64,46.58,5.25-15.16,10.27-30.39,15.08-45.68,9.6-30.58,18.3-61.43,26.13-92.5,19.44-93.29,48.8-183.28,83.37-272.18Z"/>
    <path class="cls-1" d="m1647.99,6303.07c4.39-28.1,4.93-56.2,2.51-84-.54-10.72-1.8-21.38-3.75-31.9,10.67,47.02,8.95,96.55-3.44,143.49,1.97-9.14,3.53-18.36,4.68-27.59Z"/>
    <path class="cls-1" d="m1743.27,4761.19c-12.2-14.29-26.79-27.14-40.28-39.04-21.51-19.34-44.74-38.16-68.49-57,20.58,15.44,40.97,30.68,60.49,46,18.36,14.05,35.32,31.24,48.28,50.04Z"/>
    <path class="cls-1" d="m1762.79,4861.63c-6.2,16.39-17.99,32.17-36.8,46.52-34.48,26.61-70.96,51.96-106.61,78.02,30.65-23.5,61.8-46.26,91.61-69.02,20.45-15.91,40.91-32.97,51.8-55.52Z"/>
    <path d="m2434.22,4978.28c-1.42,1.18-2.86,2.34-4.33,3.45-.63.48-1.26.95-1.9,1.42-31,22.5-57.25,46-77.62,73.62-15.25,20.68-27.21,43.66-35.39,70.27-.01.02-.01.04-.02.06-3.28,8.7-6.25,17.71-8.93,27.05-7.67,29.25-26.26,49.59-49.87,63.93-.03,0-.05.03-.08.04-18.83,9.17-40.26,14.81-60.09,19.03-48.13,10.74-95.45,19.14-141.78,28.93-.08.02-.17.03-.25.05-100.48,19.6-196.17,50.28-282.2,112.29-.01,0-.01,0-.01,0-54.52,31.47-110.05,65.21-145.07,112.84l-.05.05c-19.81,23.2-33.47,49.95-35.64,82.83,0,1.21.42,2.16,1.16,2.87.04.05.09.1.13.14.1.09.21.18.33.26h0c.97.74,2.33,1.18,3.9,1.42,0,0,.03,0,.04.01,2.7.57,6.03.78,8.43.3,16.68-4.51,33.71-9.8,50.9-14.93,2.85-.85,5.7-1.7,8.55-2.53,59.58-17.3,121.67-31.04,176.76-3.13.74.37,1.48.76,2.22,1.15.71.37,1.42.76,2.12,1.15.71.39,1.42.79,2.12,1.19.71.41,1.41.82,2.11,1.24.7.42,1.41.84,2.11,1.28.93.58,1.86,1.17,2.79,1.77.93.61,1.86,1.23,2.79,1.86.92.63,1.85,1.27,2.77,1.93.92.66,1.84,1.33,2.76,2.02,23.23,17.21,40.53,39.59,58.92,62.69.03.03.05.07.08.1,7.09,9.28,14.26,18.74,22,28.21,11.73,13.89,24.41,26.73,37.16,39.37.03.03.06.06.09.1,25.69,27.83,51.08,55.16,73,84.88h0c1.28,2.19,2.53,4.4,3.74,6.65,22.9,41.76,44.21,85.92,62.05,131.51.01.03.03.06.03.1,27.54,82.07,51.72,169.63,51.83,255.27v.16c-.54,34.13-4.59,68.09-12.84,101.53,0,.01,0,.02,0,.03-3.67,13.52-8.22,26.92-13.72,40.14,0,0,0,.02,0,.03-6.56,13.64-14.07,27.01-22.13,40.23-.02.03-.04.06-.06.09-8.58,13.66-17.82,27.21-27.14,40.91-26.66,38.39-55.28,74.47-80.84,111.31-.51.73-1.03,1.46-1.54,2.2-37.36,53.4-68.18,108.71-75.55,175.36-1.09,27.94-1.09,55.61-1.09,83.02v161.19c0,26.29,0,52.28-.4,77.88-.09.87-.17,1.73-.27,2.59-2.78,25.38-8.98,48.69-17.94,70.25-.29.72-.59,1.44-.91,2.15-.23.56-.48,1.12-.73,1.68-.39.9-.78,1.79-1.19,2.68-45.09,99.2-150.77,155.95-248.21,217.58-.05.03-.1.06-.14.09-13.59,7.75-27.05,15.4-40.19,23.02-19.46,10.95-34.6,24.61-45.46,39.95h0c-22.38,25.15-34.62,57.6-19.53,90.05,1.01,2.17,2.04,4.33,3.11,6.46h0c6.15,22.31,18.81,44.16,37.89,63.54,8.75,9.01,17.72,17.93,26.89,26.79,0,0,.02.03.04.04,45.37,48.33,99.65,89.62,146.07,139.17,44.74,47.68,91.21,98.14,122.49,155.04,0,.02.02.04.03.06,19.97,39.4,33.45,82.23,37.48,129.9h-543.42v-38.82c0-25.38-.82-62.8-7.56-111.44-.31-1.09-.62-2.17-.95-3.25-20.1-67.72-65.2-122-113.07-174.78-.03-.03-.06-.07-.09-.1-4.96-5.55-9.94-11.08-14.91-16.61-81.78-93.33-208.6-158.22-251.21-273.33-4.85-14.41-8.2-29.58-9.79-45.67-1.53-15.35,2.36-28.6,9.85-40.28h0c12.48-15.87,32.3-28.79,50.14-39.72,93.82-58.21,203.13-94.85,284.86-159.7,38.57-29.59,71.04-65.03,92.14-111.3,19.65-43.97,37.37-88.72,53.09-134.09.03-.09.07-.19.1-.28,5.46-15.45,10.67-30.97,15.64-46.58,9.76-30.67,18.57-61.63,26.47-92.84,18.53-87.16,46.22-170.26,76.2-253.61,2.08-5.78,4.17-11.55,6.27-17.33.02-.08.05-.16.08-.23,5.58-14.37,11.31-28.72,17.15-43.04,7.05-17.07,12.47-34.65,16.32-52.48h0c12.39-46.95,14.11-96.48,3.44-143.5,0-.02,0-.05-.02-.07-14.33-77.24-65.53-146.92-135.98-179.72,0,0-.02-.01-.04-.02-23.9-12.68-49.7-20.32-76.37-20.11h-.02c-21.2-1.41-41.47,2.71-61.58,8.28-21.3,5.89-42.44,13.41-64.11,17.53h-.01c-.74.08-1.47.15-2.21.21-15.89,1.93-31.71,2.72-47.36,1.54h-.05c-14.03-1.44-27.56-4.38-40.63-8.55-4.4-1.41-8.76-2.95-13.06-4.62-.02-.01-.04-.02-.06-.03-1.76-.78-3.51-1.6-5.26-2.46-22.74-11.51-45.09-24.44-66.42-38.91-.02,0-.04-.02-.06-.04-35.59-26.88-67.89-59.99-98.52-91.05-1.81-1.75-3.6-3.55-5.37-5.4t0-.01c-11.05-14.63-21-30.15-29.62-46.59-3.54-6.86-5.99-13.59-7.46-20.17,0-.03,0-.06-.02-.08-2.5-15-.97-30.5,6.48-45.75,13.57-28.98,35.12-49.6,59.97-67.94,7.04-5.04,14.13-9.73,21.03-14.06,58.33-36.92,118.71-76.56,171.32-121.97.23-.18.45-.37.67-.57,64.3-54.39,117.16-117.62,142.01-200.46-.09-1.57-.17-3.13-.24-4.69h0c7.69-28.8,11.39-59.47,10.24-92.31,1.09-4.31,2.26-8.56,3.52-12.76h0c33.14-103.08,120.19-179.91,211.79-250.16.03-.02.05-.04.08-.06,35.65-26.06,72.13-51.41,106.61-78.02,18.81-14.35,30.6-30.13,36.8-46.52.01-.01.01-.03.01-.04,3.48-7.21,5.98-14.97,7.19-23.44,4.82-30.15-8.17-55.2-26.7-76.93,0,0,0-.02-.02-.03-12.96-18.8-29.92-35.99-48.28-50.04-19.52-15.32-39.91-30.56-60.49-46-.03-.02-.07-.05-.11-.08-115.97-92-243.98-184.49-242.15-341.36,0-1.12.03-2.23.06-3.35.06-2.46.15-4.94.27-7.44h544.4c.75,54.01,14.86,101.07,38.21,142.91.27.5.55,1.01.84,1.52,37.63,67.72,98.84,120.7,167.84,168.04.37.26.74.52,1.11.76,59.16,40.87,123.2,76.99,181.02,113,7.4,4.63,14.82,9.2,22.19,13.79.01,0,.02,0,.03.02,15.33,9.88,30.32,19.92,44.78,30.19,16.68,11.99,31.73,24.79,44.44,39.13.43.48.85.96,1.26,1.44,1.07,1.23,2.14,2.48,3.18,3.74.2.24.4.48.59.72,8.65,10.67,16.2,22.35,22.33,35.35.42.87.81,1.74,1.2,2.62,17.9,40.52,1.18,84.59-31.77,112.13Z"/>
    <path d="m1029.61,5863.74c-17.74-18.58-32.93-41.98-37.08-66.76,1.47,6.58,3.92,13.31,7.46,20.17,8.62,16.44,18.57,31.96,29.62,46.59Z"/>
    <path d="m1255.99,7641.15c4.97,5.53,9.95,11.06,14.91,16.61-5.94-6.55-11.92-13.08-17.91-19.61-81.58-91.33-210.33-157.5-248.21-270.33,42.61,115.11,169.43,180,251.21,273.33Z"/>
    <path d="m1115.99,7207.15c74.95-40.94,158.23-74.34,223.86-124.7-81.73,64.85-191.04,101.49-284.86,159.7-17.84,10.93-37.66,23.85-50.14,39.71,21.78-33.97,73.93-54.62,111.14-74.71Z"/>
    <path d="m1079.99,5669.15c-6.9,4.33-13.99,9.02-21.03,14.06,15.45-11.42,32.16-21.94,49.03-33.06,49.56-32.5,99.12-65.66,143.32-102.97-52.61,45.41-112.99,85.05-171.32,121.97Z"/>
    <path d="m1133.57,5960.24c21.33,14.47,43.68,27.4,66.42,38.91,1.75.86,3.5,1.68,5.26,2.46-25.47-9.92-49.23-24.4-71.68-41.37Z"/>
    <path d="m1259.05,6014.81c15.65,1.18,31.47.39,47.36-1.54.74-.06,1.47-.13,2.21-.21-4.52.86-9.06,1.57-13.63,2.09-12.34,1.02-24.32.86-35.94-.34Z"/>
    <path d="m1407.51,5236.39c-1.26,4.2-2.43,8.45-3.52,12.76,1.15,32.84-2.55,63.51-10.24,92.3-1.71-37.99,3.39-72.81,13.76-105.06Z"/>
    <path d="m1510.71,6007.36c-18.25-8.49-37.79-14.51-58.32-17.54-6.1-1.35-12.11-2.18-18.05-2.57,26.67-.21,52.47,7.43,76.37,20.11Z"/>
    <path d="m1526.39,6698.6c19.44-93.29,48.8-183.28,83.37-272.18-2.1,5.78-4.19,11.55-6.27,17.33-29.98,83.35-57.67,166.45-76.2,253.61-7.9,31.21-16.71,62.17-26.47,92.84-4.97,15.61-10.18,31.13-15.64,46.58,5.25-15.16,10.27-30.39,15.08-45.68,9.6-30.58,18.3-61.43,26.13-92.5Z"/>
    <path d="m1565.1,7471.61c-1.07-2.13-2.1-4.29-3.11-6.46-15.09-32.45-2.85-64.9,19.53-90.04-20.27,28.63-25.65,63.06-16.42,96.5Z"/>
    <path d="m1655.89,5564.22c-17.19,5.13-34.22,10.42-50.9,14.93-2.4.48-5.73.27-8.43-.3,4.7.66,11.29-.51,15.43-1.7,14.35-4.02,29.03-8.54,43.9-12.93Z"/>
    <path d="m1725.99,4908.15c-34.48,26.61-70.96,51.96-106.61,78.02,30.65-23.5,61.8-46.26,91.61-69.02,20.45-15.91,40.91-32.97,51.8-55.52-6.2,16.39-17.99,32.17-36.8,46.52Z"/>
    <path d="m1702.99,4722.15c-21.51-19.34-44.74-38.16-68.49-57,20.58,15.44,40.97,30.68,60.49,46,18.36,14.05,35.32,31.24,48.28,50.04-12.2-14.29-26.79-27.14-40.28-39.04Z"/>
    <path d="m1647.99,6303.07c4.39-28.1,4.93-56.2,2.51-84-.54-10.72-1.8-21.38-3.75-31.9,10.67,47.02,8.95,96.55-3.44,143.49,1.97-9.14,3.53-18.36,4.68-27.59Z"/>
    <path d="m1771.75,5378.43c-3.94,2.84-7.86,5.74-11.76,8.72-44.05,33.2-98.29,63.14-133.31,104.12,35.02-47.63,90.55-81.37,145.07-112.84Z"/>
    <path d="m1898.48,7856.19c-31.28-56.9-77.75-107.36-122.49-155.04-46.42-49.55-100.7-90.84-146.07-139.17,95.49,92.42,209.95,178.58,268.56,294.21Z"/>
    <path d="m1915.53,7094.46c-44.9,99.97-150.03,161.58-248.21,217.58,97.44-61.63,203.12-118.38,248.21-217.58Z"/>
    <path d="m1981.15,5702.52c-12.75-12.64-25.43-25.48-37.16-39.37-7.74-9.47-14.91-18.93-22-28.21,2.96,3.72,5.95,7.47,9,11.21,16.25,19.54,33.27,38.06,50.16,56.37Z"/>
    <path d="m2013.61,6517.66c-37.02,53.66-67.36,109-75.55,175.36,7.37-66.65,38.19-121.96,75.55-175.36Z"/>
    <path d="m2143.86,4625.39c-69-47.34-130.21-100.32-167.84-168.04,37.88,67.12,99.55,120.76,167.84,168.04Z"/>
    <path d="m2120.04,5925.66c-17.84-45.59-39.15-89.75-62.05-131.51-1.21-2.25-2.46-4.46-3.74-6.64,20.43,27.7,37.87,57.47,49.74,91.64,5.38,15.27,10.78,30.78,16.05,46.51Z"/>
    <path d="m2256.08,5218.12c-28.83,17.52-65.12,26.08-98.09,31.03-35.02,4.9-69.68,10.27-103.78,16.93,46.33-9.79,93.65-18.19,141.78-28.93,19.83-4.22,41.26-9.86,60.09-19.03Z"/>
    <path d="m2145.32,6322.92c-.85,2.06-1.73,4.12-2.63,6.17-5.84,11.52-12.44,22.83-19.5,34.06,8.06-13.22,15.57-26.59,22.13-40.23Z"/>
    <path d="m2171.9,6181.19c.04,34.31-3.8,68.32-12.84,101.53,8.25-33.44,12.3-67.4,12.84-101.53Z"/>
    <path d="m2427.99,4983.15c-31,22.5-56.25,47-76.38,75-14.96,20.82-27.09,43.57-36.63,68.89,8.18-26.61,20.14-49.59,35.39-70.27,20.37-27.62,46.62-51.12,77.62-73.62Z"/>
    <path d="m2437.43,4822.28c-12.71-14.34-27.76-27.14-44.44-39.13-14.46-10.27-29.45-20.31-44.78-30.19,32.98,20.57,64.86,41.55,89.22,69.32Z"/>
    <path d="m2434.22,4978.28c32.95-27.54,49.67-71.61,31.77-112.13,18.85,40.53,1.28,84.6-31.77,112.13Z"/>
    <path class="cls-1" d="m3249.99,5252.15c-10,25-29,44-44,68-17.25,25.87-42.67,45.79-69.86,51.44-.89.18-1.77.35-2.66.5-1,.16-2,.31-3,.45-.5.06-1,.12-1.49.18-.5.06-1,.11-1.5.15-.24.02-.49.05-.73.06-.38.04-.75.07-1.13.09-.88.06-1.75.1-2.63.13-4.04.21-8.08.4-12.12.58-3.82.17-7.64.32-11.47.47-118.55,4.43-238.78-1.79-350.92,40.49-.18.07-.36.14-.54.2-2.88,1.06-5.76,2.14-8.63,3.26-24.51,9.53-48.65,21.33-72.32,36-30.5,19.47-62.16,39.57-92,61.74-.1.07-.2.14-.29.2-61,43.71-115.05,95.77-133,168.27,0,.02,0,.03,0,.05-.96,3.21-1.86,6.45-2.7,9.74-11.21,43.96,1.55,82.16,25.77,115.37.02.04.05.08.07.11,33.57,47.02,90.3,83.33,136.31,114.09,21.45,14.28,42.31,29.08,62,45.41,19.7,16.32,38.24,34.17,55.03,54.56,16.38,20.02,29.94,41.86,39.55,66.18,5.13,12.97,9.13,26.64,11.85,41.12.39,2.07.75,4.16,1.08,6.26.41,2.59.78,5.2,1.11,7.84.17,1.32.32,2.65.46,3.98.1.89.19,1.78.27,2.68.17,1.79.33,3.59.46,5.4.09,1.12.16,2.25.23,3.38,0,.04.01.08.01.12.05.9.1,1.81.15,2.72.02.47.04.95.06,1.42.02.5.05,1,.06,1.5.03.56.05,1.12.06,1.69.03.99.06,1.99.08,2.99.87,29.6.87,59.37.87,89.02v597.49c6.1,78.22-6.74,155.7-36.22,227.02-.03.05-.05.1-.07.15-31.62,70.95-80.44,134.87-138.49,192.48l-.03.03c-53.6,48.27-111.75,86.93-164.98,135.36h0c-23.61,17.96-46.49,39.05-56.09,64.09,0,0,0,.02,0,.02-4.42,9.2-6.75,18.98-5.58,29.52,1.19,10.35,3.73,20.01,7.38,29.08,0,0,0,.02.01.03.04.11.08.22.13.33,0,0,0,.02.01.03,14.13,36.73,48.47,64.46,83.59,89.53,1.13.8,2.26,1.61,3.4,2.42,5.49,3.9,11.01,7.75,16.48,11.58,1.02.71,2.05,1.42,3.08,2.13,1.02.71,2.05,1.42,3.08,2.13,3.09,2.13,6.19,4.26,9.3,6.38,3,2.04,6.01,4.09,9.02,6.13.18.13.36.25.53.37,3,2.04,6.02,4.07,9.03,6.1,93.43,63.08,192.33,127.05,234.86,222.92.48,1.08.95,2.16,1.41,3.25,12.35,29.24,19.48,61.47,19.69,97.59h-838c-1.23-47.28-15.65-90.16-37.48-129.9-.01-.02-.02-.04-.03-.06-58.61-115.63-173.07-201.79-268.56-294.21-.02,0-.03-.03-.04-.04-25.36-27.02-47.93-56.23-64.78-90.32h0c-9.23-33.45-3.85-67.88,16.42-96.51h0c7.28-8.18,15.63-15.58,24.46-21.96,19.55-14.22,40.18-27.73,61.19-41.02.04-.03.09-.06.14-.09,98.18-56,203.31-117.61,248.21-217.58.41-.89.8-1.78,1.19-2.68.25-.56.5-1.12.73-1.68.32-.71.62-1.43.91-2.15,8.97-21.33,15.16-44.6,17.94-70.25.1-.86.18-1.72.27-2.59.4-25.6.4-51.59.4-77.88v-161.19c0-27.41,0-55.08,1.09-83.02,8.19-66.36,38.53-121.7,75.55-175.36.51-.74,1.03-1.47,1.54-2.2,27.77-39.47,59-77.97,86.84-119.31,7.27-10.91,14.4-21.86,21.14-32.91.02-.03.04-.06.06-.09,7.06-11.23,13.66-22.54,19.5-34.06.9-2.05,1.78-4.11,2.63-6.17,0-.01,0-.02,0-.03,2.27-4.71,4.42-9.45,6.44-14.23,2.72-8.6,5.14-17.24,7.28-25.91,0-.01,0-.02,0-.03,9.04-33.21,12.88-67.22,12.84-101.53v-.16c1.34-85.94-19.6-172.94-51.83-255.27,0-.04-.02-.07-.03-.1-5.27-15.73-10.67-31.24-16.05-46.51-11.87-34.17-29.31-63.94-49.74-91.64h0c-19.2-32.7-46.25-58.37-73-84.89-.03-.04-.06-.07-.09-.1-16.89-18.31-33.91-36.83-50.16-56.37-3.05-3.74-6.04-7.49-9-11.21-.03-.03-.05-.07-.08-.1-17.6-23.03-34.71-44.89-58.92-62.69-.92-.69-1.84-1.36-2.76-2.02-.92-.66-1.85-1.3-2.77-1.93-.93-.63-1.86-1.25-2.79-1.86-.93-.6-1.86-1.19-2.79-1.77-.7-.44-1.41-.86-2.11-1.28-.7-.42-1.4-.83-2.11-1.24-.7-.4-1.41-.8-2.12-1.19-.7-.39-1.41-.78-2.12-1.15-.74-.39-1.48-.78-2.22-1.15-55.49-28.29-116.94-14.42-176.76,3.13-2.85.83-5.7,1.68-8.55,2.53-14.87,4.39-29.55,8.91-43.9,12.93-4.14,1.19-10.73,2.36-15.43,1.7,0-.01-.03-.01-.04-.01-1.67-.36-3.09-.86-3.9-1.41h0c-.12-.09-.23-.18-.33-.27-.04-.04-.09-.09-.13-.14-.24-.28-.31-.58-.16-.87,4.38-32.87,16.87-60.64,34.64-84.83l.05-.05c35.02-40.98,89.26-70.92,133.31-104.12,3.9-2.98,7.82-5.88,11.76-8.72,0,0,0,0,.01,0,18.82-10.87,37.53-21.46,55.23-32.27,72.34-42.78,148.25-63.39,226.97-80.02.08-.02.17-.03.25-.05,34.1-6.66,68.76-12.03,103.78-16.93,32.97-4.95,69.26-13.51,98.09-31.03.03,0,.05-.03.08-.04,25.77-12.56,46.65-31.74,51.87-62.93,1.87-9.79,4.19-19.12,6.93-28.05.01-.02.01-.04.02-.06,9.54-25.32,21.67-48.07,36.63-68.89,20.13-28,45.38-52.5,76.38-75,.64-.46,1.28-.94,1.9-1.42,1.47-1.11,2.91-2.27,4.33-3.45,33.05-27.53,50.62-71.6,31.77-112.13-.39-.88-.78-1.75-1.2-2.62-5.94-12.84-13.47-24.53-22.33-35.35-.19-.24-.39-.48-.59-.72-1.03-1.26-2.09-2.51-3.18-3.74-.41-.48-.83-.96-1.26-1.44-24.36-27.77-56.24-48.75-89.22-69.32,0-.01-.02-.01-.03-.02-65.75-42.39-137.92-82.09-203.21-126.79-.37-.24-.74-.5-1.11-.76-68.29-47.28-129.96-100.92-167.84-168.04-.29-.51-.57-1.02-.84-1.52-22.74-41.44-36.67-88.39-38.21-142.91h837.5c-3.6,67.9,18.95,128.77,53.89,184.11.13.23.27.45.41.67,17.2,27.55,37.45,53.71,59.22,78.45,90,101,183,181,262,296,78,113,155,250,100,380Z"/>
    <path class="cls-1" d="m1581.52,7375.11c-20.27,28.63-25.65,63.06-16.42,96.5-1.07-2.13-2.1-4.29-3.11-6.46-15.09-32.45-2.85-64.9,19.53-90.04Z"/>
    <path class="cls-1" d="m1655.89,5564.22c-17.19,5.13-34.22,10.42-50.9,14.93-2.4.48-5.73.27-8.43-.3,4.7.66,11.29-.51,15.43-1.7,14.35-4.02,29.03-8.54,43.9-12.93Z"/>
    <path class="cls-1" d="m1626.68,5491.27c35.02-47.63,90.55-81.37,145.07-112.84-3.94,2.84-7.86,5.74-11.76,8.72-44.05,33.2-98.29,63.14-133.31,104.12Z"/>
    <path class="cls-1" d="m1898.48,7856.19c-31.28-56.9-77.75-107.36-122.49-155.04-46.42-49.55-100.7-90.84-146.07-139.17,95.49,92.42,209.95,178.58,268.56,294.21Z"/>
    <path class="cls-1" d="m1915.53,7094.46c-44.9,99.97-150.03,161.58-248.21,217.58,97.44-61.63,203.12-118.38,248.21-217.58Z"/>
    <path class="cls-1" d="m1943.99,5663.15c-7.74-9.47-14.91-18.93-22-28.21,2.96,3.72,5.95,7.47,9,11.21,16.25,19.54,33.27,38.06,50.16,56.37-12.75-12.64-25.43-25.48-37.16-39.37Z"/>
    <path class="cls-1" d="m1938.06,6693.02c7.37-66.65,38.19-121.96,75.55-175.36-37.02,53.66-67.36,109-75.55,175.36Z"/>
    <path class="cls-1" d="m2143.86,4625.39c-69-47.34-130.21-100.32-167.84-168.04,37.88,67.12,99.55,120.76,167.84,168.04Z"/>
    <path class="cls-1" d="m2103.99,5879.15c5.38,15.27,10.78,30.78,16.05,46.51-17.84-45.59-39.15-89.75-62.05-131.51-1.21-2.25-2.46-4.46-3.74-6.64,20.43,27.7,37.87,57.47,49.74,91.64Z"/>
    <path class="cls-1" d="m2195.99,5237.15c19.83-4.22,41.26-9.86,60.09-19.03-28.83,17.52-65.12,26.08-98.09,31.03-35.02,4.9-69.68,10.27-103.78,16.93,46.33-9.79,93.65-18.19,141.78-28.93Z"/>
    <path class="cls-1" d="m2123.19,6363.15c8.06-13.22,15.57-26.59,22.13-40.23-.85,2.06-1.73,4.12-2.63,6.17-5.84,11.52-12.44,22.83-19.5,34.06Z"/>
    <path class="cls-1" d="m2159.06,6282.72c8.25-33.44,12.3-67.4,12.84-101.53.04,34.31-3.8,68.32-12.84,101.53Z"/>
    <path class="cls-1" d="m2427.99,4983.15c-31,22.5-56.25,47-76.38,75-14.96,20.82-27.09,43.57-36.63,68.89,8.18-26.61,20.14-49.59,35.39-70.27,20.37-27.62,46.62-51.12,77.62-73.62Z"/>
    <path class="cls-1" d="m2392.99,4783.15c-14.46-10.27-29.45-20.31-44.78-30.19,32.98,20.57,64.86,41.55,89.22,69.32-12.71-14.34-27.76-27.14-44.44-39.13Z"/>
    <path class="cls-1" d="m2380.37,7535.23c-3.65-9.07-6.19-18.73-7.38-29.08-1.17-10.54,1.16-20.32,5.58-29.52-3.57,9.28-5.31,19.11-4.58,29.52.69,10.31,2.91,19.98,6.38,29.08Z"/>
    <path class="cls-1" d="m2434.22,4978.28c32.95-27.54,49.67-71.61,31.77-112.13,18.85,40.53,1.28,84.6-31.77,112.13Z"/>
    <path class="cls-1" d="m2464.76,5809.52c-24.22-33.21-36.98-71.41-25.77-115.37.84-3.29,1.74-6.53,2.7-9.74-2.06,8.3-3.63,16.88-4.7,25.74-4.55,37.9,7.28,70.63,27.77,99.37Z"/>
    <path class="cls-1" d="m2599.66,7277.16c-46.63,46.27-99.23,88.48-153.67,126.99-3.75,2.71-7.54,5.5-11.31,8.37,53.23-48.43,111.38-87.09,164.98-135.36Z"/>
    <path class="cls-1" d="m2747.94,5414.89c-2.69,1.02-5.37,2.07-8.05,3.14-24.4,9.79-48.4,21.95-71.9,37.12-30.3,19.17-62.52,38.92-93,60.74,29.84-22.17,61.5-42.27,92-61.74,23.67-14.67,47.81-26.47,72.32-36,2.87-1.12,5.75-2.2,8.63-3.26Z"/>
    <path class="cls-1" d="m2752.89,7885.31c-42.53-95.87-141.43-159.84-234.86-222.92,93.57,63.05,192.6,126.65,234.86,222.92Z"/>
    <path class="cls-1" d="m2738.25,7084.5c29.48-71.32,42.32-148.8,36.22-227.02,8.92,82.74-5.57,158.19-36.22,227.02Z"/>
    <path class="cls-1" d="m3254.99,5243.15c-9.62,27.91-30.36,48.41-47.06,73.99-.65,1-1.3,1.99-1.94,3.01,15-24,34-43,44-68,55-130-22-267-100-380-79-115-172-195-262-296-21.77-24.74-42.02-50.9-59.22-78.45,18.09,28.56,39.46,55.64,62.22,81.45,92,103,188,186,267,304,73,108,141,235,97,360Z"/>
    <path class="cls-1" d="m3205.99,5320.15c-16.39,25.88-42.47,45.81-69.86,51.44,27.19-5.65,52.61-25.57,69.86-51.44Z"/>
    <path d="m2373.99,7506.15c.69,10.31,2.91,19.98,6.38,29.08-3.65-9.07-6.19-18.73-7.38-29.08-1.17-10.54,1.16-20.32,5.58-29.52-3.57,9.28-5.31,19.11-4.58,29.52Z"/>
    <path d="m2464.76,5809.52c-24.22-33.21-36.98-71.41-25.77-115.37.84-3.29,1.74-6.53,2.7-9.74-2.06,8.3-3.63,16.88-4.7,25.74-4.55,37.9,7.28,70.63,27.77,99.37Z"/>
    <path d="m2599.66,7277.16c-46.63,46.27-99.23,88.48-153.67,126.99-3.75,2.71-7.54,5.5-11.31,8.37,53.23-48.43,111.38-87.09,164.98-135.36Z"/>
    <path d="m2667.99,5455.15c-30.3,19.17-62.52,38.92-93,60.74,29.84-22.17,61.5-42.27,92-61.74,23.67-14.67,47.81-26.47,72.32-36,2.87-1.12,5.75-2.2,8.63-3.26-2.69,1.02-5.37,2.07-8.05,3.14-24.4,9.79-48.4,21.95-71.9,37.12Z"/>
    <path d="m2752.89,7885.31c-42.53-95.87-141.43-159.84-234.86-222.92,93.57,63.05,192.6,126.65,234.86,222.92Z"/>
    <path d="m2774.47,6857.48c8.92,82.74-5.57,158.19-36.22,227.02,29.48-71.32,42.32-148.8,36.22-227.02Z"/>
    <path d="m2774.35,7986.15h46.06c-28.79,0-46.06.02-46.06.02v-.02Z"/>
    <path d="m3157.99,4883.15c73,108,141,235,97,360-9.62,27.91-30.36,48.41-47.06,73.99-.65,1-1.3,1.99-1.94,3.01,15-24,34-43,44-68,55-130-22-267-100-380-79-115-172-195-262-296-21.77-24.74-42.02-50.9-59.22-78.45,18.09,28.56,39.46,55.64,62.22,81.45,92,103,188,186,267,304Z"/>
    <path d="m3205.99,5320.15c-16.39,25.88-42.47,45.81-69.86,51.44,27.19-5.65,52.61-25.57,69.86-51.44Z"/>
    <path d="m3394.71,7652.22v-26.87c.29,8.88.3,17.84,0,26.87Z"/>
  </g>
  <g>
    <path d="m74.99,2133.46v.27c-12.83-88.94,54.1-185.71,118-247.27,2.3-2.22,4.61-4.41,6.94-6.57-72.08,68.56-124.94,150.97-124.94,253.57Z"/>
    <path d="m74.99,2133.73c3.47,24,12.74,47.43,29.44,69.44-17.73-17.03-29.37-39.03-29.44-69.44Z"/>
    <path d="m152.99,3535.46c13.75-20.63,28.64-39.69,44.56-57.3-4.61,5.27-9.13,10.7-13.56,16.3-50,62-92,133-84,213,.68,10.03,2.82,19.96,6.25,29.39-3.73-9.41-6.19-19.33-7.25-29.39-6-62,19-119,54-172Z"/>
    <path d="m106.99,2206.46c-.87-1.09-1.72-2.19-2.56-3.29,21.1,20.27,50.82,33.49,79.93,45.45-29.22-9.31-58.45-17.63-77.37-42.16Z"/>
    <path d="m163.99,3795.46c3.83,1.56,7.71,3.02,11.61,4.39-33.03-6.52-58.08-32.05-69.32-62.91,10.38,26.09,30.54,48.24,57.71,58.52Z"/>
    <path d="m178.99,3800.46c33.35,4.73,65.33,13.94,94.55,27.29-31.86-10.84-65.92-16.6-97.94-27.9,1.12.23,2.25.43,3.39.61Z"/>
    <path d="m219.99,2263.46c-11.31-5.01-23.42-9.81-35.63-14.84,12.48,3.99,24.96,8.15,36.63,13.84,12.15,6.03,23.7,12.67,34.67,19.89-11.39-7.09-23.28-13.41-35.67-18.89Z"/>
    <path d="m289.9,3398.58c-33.56,22.46-64.53,48.79-92.35,79.58,27.94-31.95,59.02-57.91,92.35-79.58Z"/>
    <path d="m299.53,1799.59c-32.94,26.29-67.52,50.5-99.6,80.3,30.59-29.1,64.65-55.71,99.6-80.3Z"/>
    <path d="m255.66,2282.35c75.98,47.19,129.63,127.76,158.33,212.11,4.3,13.37,7.68,26.85,10.63,40.38-30.51-102.24-81.73-195.2-168.96-252.49Z"/>
    <path d="m381.64,3914.42c-26.77-37.4-64.35-66.68-108.1-86.67,24.01,8.17,46.76,19.23,66.45,37.71,16.73,15.3,30.44,31.69,41.65,48.96Z"/>
    <path d="m446.99,3324.46c14.26-4.47,28.76-8.55,43.38-12.45-70.72,21.48-139.37,46.83-200.47,86.57,47.68-31.94,100.58-56.08,157.09-74.12Z"/>
    <path d="m303.99,1796.46c-1.49,1.04-2.97,2.08-4.46,3.13,21.54-17.19,42.37-35.27,61.34-56.39-15.79,19.52-34.24,37.5-56.88,53.26Z"/>
    <path d="m374.99,1726.46c-4.57,5.8-9.28,11.37-14.12,16.74,24.89-30.74,43.17-65.29,60.84-100.99-12.78,29.06-25.91,57.66-46.72,84.25Z"/>
    <path d="m423.99,4030.46c.15,1.84.3,3.68.44,5.52-6.16-43.18-18.68-84.37-42.73-121.47,23.38,32.7,38.51,71.61,42.29,115.95Z"/>
    <path d="m452.99,1579.46c-10.98,20.92-21.01,41.98-31.23,62.65,9.3-21.17,18.44-42.59,30.23-63.65,11.91-21.24,25.19-40.77,39.61-58.96-14.3,18.45-27.27,38.3-38.61,59.96Z"/>
    <path d="m427.8,4207.29c-.44,35.69-.98,71.44-.47,107.35-1.91-34.6-.81-70.75.47-107.35Z"/>
    <path d="m424.43,4035.98c7.9,55.28,5.4,113.83,3.37,171.31.7-57.08,1.14-114.02-3.37-171.31Z"/>
    <path d="m454.99,2663.46c-15.99-41.87-20.96-85.48-30.37-128.62,7.69,25.76,14.07,52.1,19.37,78.62,5.51,27.69,13.2,53.9,22.72,78.88-4.14-9.46-8.05-19.08-11.72-28.88Z"/>
    <path d="m427.91,697.58c5.3,83.95,46.83,148.85,103.74,204.28-56.99-54.98-98.51-119.49-103.74-204.28Z"/>
    <path d="m770.99,3079.46c-113.82-122.44-244.73-230.75-304.28-387.12,66.75,152.81,191.28,263.76,304.28,387.12Z"/>
    <path d="m617.99,3275.46c27.35-8.2,54.49-17.45,80-29.73-63.93,32.95-137.19,47.5-207.62,66.28,42.19-12.82,85.12-24.25,127.62-36.55Z"/>
    <path d="m768.99,1078.46c-76.56-55.96-167.33-108.86-236.06-175.36,69.14,66.28,160.64,118.8,237.77,176.56-.57-.4-1.14-.8-1.71-1.2Z"/>
    <path d="m663.81,1369.42c1.62-1.12,3.25-2.23,4.88-3.35.54-.37,1.09-.74,1.63-1.11-1.2.82-2.39,1.64-3.58,2.45-64.83,44.55-125.9,90.3-174.3,151.02,1.02-1.31,2.05-2.61,3.08-3.91,6.71-8.41,13.7-16.52,20.94-24.39.6-.66,1.2-1.31,1.82-1.96.5-.55,1.01-1.09,1.52-1.63.4-.43.81-.87,1.23-1.3.71-.76,1.43-1.52,2.16-2.28.94-.98,1.88-1.96,2.83-2.93.56-.58,1.12-1.16,1.69-1.73,1.86-1.9,3.74-3.78,5.63-5.65.81-.81,1.63-1.61,2.46-2.41.9-.89,1.81-1.77,2.73-2.65,5.58-5.37,11.27-10.63,17.07-15.8.85-.76,1.71-1.52,2.57-2.27,1.91-1.69,3.83-3.36,5.76-5.02.97-.83,1.94-1.66,2.91-2.49,3.88-3.31,7.81-6.58,11.77-9.81,1.98-1.62,3.97-3.23,5.98-4.83,2-1.6,4.01-3.2,6.03-4.79,2.02-1.58,4.04-3.16,6.08-4.74.25-.2.5-.4.76-.59,1.78-1.37,3.57-2.74,5.37-4.11,2.05-1.56,4.11-3.11,6.18-4.66,12.41-9.3,25.09-18.39,37.96-27.39,5.58-3.91,11.19-7.79,16.84-11.67Z"/>
    <path d="m684.55,1355.26s.05-.04.07-.06c1.03-.7,2.06-1.4,3.09-2.09-1.06.72-2.11,1.43-3.16,2.15Z"/>
    <path d="m756.99,1305.46c8.44-5.83,17-11.61,25.35-17.57-2.12,1.54-4.24,3.06-6.35,4.57-28.29,20.24-56.8,39.32-84.82,58.3,14.49-9.84,29.08-19.72,43.68-29.82,1.34-.92,2.68-1.85,4.02-2.78.53-.36,1.05-.72,1.57-1.09,2.31-1.6,4.62-3.22,6.94-4.84.18-.12.37-.26.56-.39,3.02-2.11,6.03-4.24,9.05-6.38Z"/>
    <path d="m779.99,3185.46c-23.4,26.67-51.54,45.63-82,60.27,29.77-15.34,57.51-34.67,82-60.27Z"/>
    <path d="m794.99,1098.46c-7.87-6.31-15.94-12.55-24.18-18.72,25.58,18.11,53.52,38.22,69.18,63.95-11.44-17.56-28.8-32.27-45-45.23Z"/>
    <path d="m782.62,1287.69c13.65-9.92,27.14-20.42,38.59-32.28-11.28,11.9-24.65,22.33-38.59,32.28Z"/>
    <path d="m781.42,3092.4c18.88,28.05,23.46,66.45-1.43,93.06,24.02-27.45,20.07-65.2,1.43-93.06Z"/>
    <path d="m822.12,1254.45c15.06-16.15,26.25-35.01,29.87-58.99-2.68,23.6-14.28,42.59-29.87,58.99Z"/>
    <path d="m840.03,1143.74c9.73,14.94,15.18,31.96,11.96,51.72,2.18-19.65-2.78-36.65-11.96-51.72Z"/>
    <path d="m992.51,2164.21c-10.43-46.42,27.05-85.48,66.45-113.69-24.85,18.34-46.4,38.96-59.97,67.94-7.45,15.25-8.98,30.75-6.48,45.75Z"/>
    <path d="m999.99,2184.46c8.62,16.44,18.57,31.96,29.62,46.59-17.74-18.58-32.93-41.98-37.08-66.76,1.47,6.58,3.92,13.31,7.46,20.17Z"/>
    <path d="m994.99,3689.46c1.59,16.09,4.94,31.26,9.79,45.67-5.33-14.39-9.35-29.56-11.79-45.67-2.55-15.28,2.65-28.58,11.85-40.28-7.49,11.68-11.38,24.93-9.85,40.28Z"/>
    <path d="m1255.99,4008.46c4.97,5.53,9.95,11.06,14.91,16.61-5.94-6.55-11.92-13.08-17.91-19.61-81.58-91.33-210.33-157.5-248.21-270.33,42.61,115.11,169.43,180,251.21,273.33Z"/>
    <path d="m1115.99,3574.46c74.95-40.94,158.23-74.34,223.86-124.7-81.73,64.85-191.04,101.49-284.86,159.7-17.84,10.93-37.66,23.85-50.14,39.71,21.78-33.97,73.93-54.62,111.14-74.71Z"/>
    <path d="m1133.51,2327.51c-39.4-26.7-75.32-58.62-103.89-96.45,1.77,1.85,3.56,3.65,5.37,5.4,30.63,31.06,62.93,64.17,98.52,91.05Z"/>
    <path d="m1079.99,2036.46c-6.9,4.33-13.99,9.02-21.03,14.06,15.45-11.42,32.16-21.94,49.03-33.06,49.56-32.5,99.12-65.66,143.32-102.97-52.61,45.41-112.99,85.05-171.32,121.97Z"/>
    <path d="m1133.57,2327.55c21.33,14.47,43.68,27.4,66.42,38.91,1.75.86,3.5,1.68,5.26,2.46-25.47-9.92-49.23-24.4-71.68-41.37Z"/>
    <path d="m1218.37,2373.57c13.07,4.17,26.6,7.11,40.63,8.55-18.14-1.35-36.07-5.31-53.69-13.17,4.3,1.67,8.66,3.21,13.06,4.62Z"/>
    <path d="m1251.98,1913.92c66.19-57.24,119.98-123.6,141.77-205.15.07,1.56.15,3.12.24,4.69-24.85,82.84-77.71,146.07-142.01,200.46Z"/>
    <path d="m1306.41,2380.58c.74-.06,1.47-.13,2.21-.21-4.52.86-9.06,1.57-13.63,2.09-12.34,1.02-24.32.86-35.94-.34,15.65,1.18,31.47.39,47.36-1.54Z"/>
    <path d="m1270.99,4025.17c47.87,52.78,92.97,107.06,113.07,174.78-20.43-67.97-65.92-122.04-113.07-174.78Z"/>
    <path d="m1372.74,2362.84c20.11-5.57,40.38-9.69,61.58-8.28-12.96.09-26.13,2.05-39.4,6.17-28.59,6.59-57.71,16.76-86.29,19.64,21.67-4.12,42.81-11.64,64.11-17.53Z"/>
    <path d="m1430.99,3337.46c20.09-43.52,38.13-87.95,54.09-133.09-15.72,45.37-33.44,90.12-53.09,134.09-21.1,46.27-53.57,81.71-92.14,111.3,37.62-29.84,69.39-65.66,91.14-112.3Z"/>
    <path d="m1392.24,691.02c-1.83,156.87,126.18,249.36,242.15,341.36-119.03-89.28-244.29-185.09-242.15-341.36Z"/>
    <path d="m1407.51,1603.7c-1.26,4.2-2.43,8.45-3.52,12.76,1.15,32.84-2.55,63.51-10.24,92.3-1.71-37.99,3.39-72.81,13.76-105.06Z"/>
    <path d="m1619.3,1353.54c-91.6,70.25-178.65,147.08-211.79,250.15,32.92-110.69,119.63-182.79,211.79-250.15Z"/>
    <path d="m1434.34,2354.56c26.67-.21,52.47,7.43,76.37,20.11-18.25-8.49-37.79-14.51-58.32-17.54-6.1-1.35-12.11-2.18-18.05-2.57Z"/>
    <path d="m1603.49,2811.06c-29.98,83.35-57.67,166.45-76.2,253.61-7.9,31.21-16.71,62.17-26.47,92.84-4.97,15.61-10.18,31.13-15.64,46.58,5.25-15.16,10.27-30.39,15.08-45.68,9.6-30.58,18.3-61.43,26.13-92.5,19.44-93.29,48.8-183.28,83.37-272.18-2.1,5.78-4.19,11.55-6.27,17.33Z"/>
    <path d="m1646.73,2554.41c-8.59-37.84-25.21-74.04-50.74-105.95-23.06-29.31-52.37-56.31-85.24-73.77,70.45,32.8,121.65,102.48,135.98,179.72Z"/>
    <path d="m1609.84,2793.5c7.97-21.95,16.06-43.94,24.15-66.04,3.58-9.68,6.69-19.52,9.32-29.48-3.85,17.83-9.27,35.41-16.32,52.48-5.84,14.32-11.57,28.67-17.15,43.04Z"/>
    <path d="m1762.79,1228.94c-6.2,16.39-17.99,32.17-36.8,46.52-34.48,26.61-70.96,51.96-106.61,78.02,30.65-23.5,61.8-46.26,91.61-69.02,20.45-15.91,40.91-32.97,51.8-55.52Z"/>
    <path d="m1702.99,1089.46c-21.51-19.34-44.74-38.16-68.49-57,20.58,15.44,40.97,30.68,60.49,46,18.36,14.05,35.32,31.24,48.28,50.04-12.2-14.29-26.79-27.14-40.28-39.04Z"/>
    <path d="m1647.99,2670.38c4.39-28.1,4.93-56.2,2.51-84-.54-10.72-1.8-21.38-3.75-31.9,10.67,47.02,8.95,96.55-3.44,143.49,1.97-9.14,3.53-18.36,4.68-27.59Z"/>
    <path d="m1743.29,1128.53c18.53,21.73,31.52,46.78,26.7,76.93-1.21,8.47-3.71,16.23-7.19,23.44,12.57-33.29,2.07-69.07-19.51-100.37Z"/>
    <path d="m1565.1,3838.92c-1.07-2.13-2.1-4.29-3.11-6.46-15.09-32.45-2.85-64.9,19.53-90.04-20.27,28.63-25.65,63.06-16.42,96.5Z"/>
    <path d="m1565.1,3838.93c16.85,34.09,39.42,63.3,64.78,90.32-9.17-8.86-18.14-17.78-26.89-26.79-19.08-19.38-31.74-41.23-37.89-63.53Z"/>
    <path d="m1581.53,3742.41c10.86-15.34,26-29,45.46-39.95,13.14-7.62,26.6-15.27,40.19-23.02-21.01,13.29-41.64,26.8-61.19,41.02-8.83,6.38-17.18,13.78-24.46,21.95Z"/>
    <path d="m1592.15,1944.33c-.74-.71-1.16-1.66-1.16-2.87,2.17-32.88,15.83-59.63,35.64-82.83-17.77,24.19-30.26,51.96-34.64,84.83-.15.29-.08.59.16.87Z"/>
    <path d="m1596.52,1946.15c-1.57-.24-2.93-.68-3.9-1.41.81.55,2.23,1.05,3.9,1.41Z"/>
    <path d="m1611.99,1944.46c14.35-4.02,29.03-8.54,43.9-12.93-17.19,5.13-34.22,10.42-50.9,14.93-2.4.48-5.73.27-8.43-.3,4.7.66,11.29-.51,15.43-1.7Z"/>
    <path d="m1626.68,1858.58c35.02-47.63,90.55-81.37,145.07-112.84-3.94,2.84-7.86,5.74-11.76,8.72-44.05,33.2-98.29,63.14-133.31,104.12Z"/>
    <path d="m1898.48,4223.5c-31.28-56.9-77.75-107.36-122.49-155.04-46.42-49.55-100.7-90.84-146.07-139.17,95.49,92.42,209.95,178.58,268.56,294.21Z"/>
    <path d="m1667.32,3679.35c97.44-61.63,203.12-118.38,248.21-217.58-44.9,99.97-150.03,161.58-248.21,217.58Z"/>
    <path d="m1841.2,1925.87c-55.09-27.91-117.18-14.17-176.76,3.13,59.82-17.55,121.27-31.42,176.76-3.13Z"/>
    <path d="m1826.99,1713.46c-17.7,10.81-36.41,21.4-55.23,32.27,86.03-62.01,181.72-92.69,282.2-112.29-78.72,16.63-154.63,37.24-226.97,80.02Z"/>
    <path d="m1921.91,2002.15c-18.39-23.1-35.69-45.48-58.92-62.69,24.21,17.8,41.32,39.66,58.92,62.69Z"/>
    <path d="m1898.51,4223.56c21.83,39.74,36.25,82.62,37.48,129.9-4.03-47.67-17.51-90.5-37.48-129.9Z"/>
    <path d="m1921.99,2002.25c2.96,3.72,5.95,7.47,9,11.21,16.25,19.54,33.27,38.06,50.16,56.37-12.75-12.64-25.43-25.48-37.16-39.37-7.74-9.47-14.91-18.93-22-28.21Z"/>
    <path d="m1918.36,3455.26c8.96-21.56,15.16-44.87,17.94-70.25-2.78,25.65-8.97,48.92-17.94,70.25Z"/>
    <path d="m1975.18,823.14c-23.35-41.84-37.46-88.9-38.21-142.91,1.54,54.52,15.47,101.47,38.21,142.91Z"/>
    <path d="m1938.06,3060.33c7.37-66.65,38.19-121.96,75.55-175.36-37.02,53.66-67.36,109-75.55,175.36Z"/>
    <path d="m1976.02,824.66c37.88,67.12,99.55,120.76,167.84,168.04-69-47.34-130.21-100.32-167.84-168.04Z"/>
    <path d="m1981.24,2069.93c26.75,26.52,53.8,52.19,73,84.88-21.92-29.72-47.31-57.05-73-84.88Z"/>
    <path d="m2095.99,2771.46c9.32-13.7,18.56-27.25,27.14-40.91-6.74,11.05-13.87,22-21.14,32.91-27.84,41.34-59.07,79.84-86.84,119.31,25.56-36.84,54.18-72.92,80.84-111.31Z"/>
    <path d="m2120.04,2292.97c-17.84-45.59-39.15-89.75-62.05-131.51-1.21-2.25-2.46-4.46-3.74-6.64,20.43,27.7,37.87,57.47,49.74,91.64,5.38,15.27,10.78,30.78,16.05,46.51Z"/>
    <path d="m2195.99,1604.46c19.83-4.22,41.26-9.86,60.09-19.03-28.83,17.52-65.12,26.08-98.09,31.03-35.02,4.9-69.68,10.27-103.78,16.93,46.33-9.79,93.65-18.19,141.78-28.93Z"/>
    <path d="m2123.19,2730.46c8.06-13.22,15.57-26.59,22.13-40.23-.85,2.06-1.73,4.12-2.63,6.17-5.84,11.52-12.44,22.83-19.5,34.06Z"/>
    <path d="m2145.33,2690.2c5.5-13.22,10.05-26.62,13.72-40.14-2.14,8.67-4.56,17.31-7.28,25.91-2.02,4.78-4.17,9.52-6.44,14.23Z"/>
    <path d="m2159.06,2650.03c8.25-33.44,12.3-67.4,12.84-101.53.04,34.31-3.8,68.32-12.84,101.53Z"/>
    <path d="m2120.07,2293.07c32.23,82.33,53.17,169.33,51.83,255.27-.11-85.64-24.29-173.2-51.83-255.27Z"/>
    <path d="m2325.99,1106.46c-57.82-36.01-121.86-72.13-181.02-113,65.29,44.7,137.46,84.4,203.21,126.79-7.37-4.59-14.79-9.16-22.19-13.79Z"/>
    <path d="m2306.03,1521.46c2.68-9.34,5.65-18.35,8.93-27.05-2.74,8.93-5.06,18.26-6.93,28.05-5.22,31.19-26.1,50.37-51.87,62.93,23.61-14.34,42.2-34.68,49.87-63.93Z"/>
    <path d="m2351.61,1425.46c-14.96,20.82-27.09,43.57-36.63,68.89,8.18-26.61,20.14-49.59,35.39-70.27,20.37-27.62,46.62-51.12,77.62-73.62-31,22.5-56.25,47-76.38,75Z"/>
    <path d="m2392.99,1150.46c-14.46-10.27-29.45-20.31-44.78-30.19,32.98,20.57,64.86,41.55,89.22,69.32-12.71-14.34-27.76-27.14-44.44-39.13Z"/>
    <path d="m2465.99,1233.46c18.85,40.53,1.28,84.6-31.77,112.13,32.95-27.54,49.67-71.61,31.77-112.13Z"/>
    <path d="m2464.79,1230.84c-6.13-13-13.68-24.68-22.33-35.35,8.86,10.82,16.39,22.51,22.33,35.35Z"/>
    <path d="m2373.99,3873.46c.69,10.31,2.91,19.98,6.38,29.08-3.65-9.07-6.19-18.73-7.38-29.08-1.17-10.54,1.16-20.32,5.58-29.52-3.57,9.28-5.31,19.11-4.58,29.52Z"/>
    <path d="m2408.99,3804.46c-11.58,12.19-23.53,25.11-30.41,39.46,9.6-25.04,32.48-46.13,56.09-64.08-8.71,7.91-17.28,16.09-25.68,24.62Z"/>
    <path d="m2464.11,3992.46c-35.12-25.07-69.46-52.8-83.59-89.53,15.07,37.15,48.67,64.52,83.59,89.53Z"/>
    <path d="m2464.76,2176.83c-24.22-33.21-36.98-71.41-25.77-115.37.84-3.29,1.74-6.53,2.7-9.74-2.06,8.3-3.63,16.88-4.7,25.74-4.55,37.9,7.28,70.63,27.77,99.37Z"/>
    <path d="m2445.99,3771.46c-3.75,2.71-7.54,5.5-11.31,8.37,53.23-48.43,111.38-87.09,164.98-135.36-46.63,46.27-99.23,88.48-153.67,126.99Z"/>
    <path d="m2441.7,2051.67c17.95-72.5,72-124.56,133-168.27-59.35,44.13-111.48,96.46-133,168.27Z"/>
    <path d="m2757.72,2457.18c-9.61-24.32-23.17-46.16-39.55-66.18-16.79-20.39-35.33-38.24-55.03-54.56-19.69-16.33-40.55-31.13-62-45.41-46.01-30.76-102.74-67.07-136.31-114.09,31.98,43.79,83.87,78.9,126.96,107.06,23.15,15.27,45.75,31.05,67.09,48.47,21.34,17.42,41.41,36.48,59.51,58.31,16.33,20.08,29.83,41.97,39.4,66.33,5.1,12.99,9.08,26.68,11.78,41.19-2.72-14.48-6.72-28.15-11.85-41.12Z"/>
    <path d="m2667.99,1822.46c-30.3,19.17-62.52,38.92-93,60.74,29.84-22.17,61.5-42.27,92-61.74,23.67-14.67,47.81-26.47,72.32-36,2.87-1.12,5.75-2.2,8.63-3.26-2.69,1.02-5.37,2.07-8.05,3.14-24.4,9.79-48.4,21.95-71.9,37.12Z"/>
    <path d="m2599.69,3644.44c58.05-57.61,106.87-121.53,138.49-192.48-26.17,63.27-65.44,121.69-116.19,171.5-7.33,7.22-14.77,14.19-22.3,20.98Z"/>
    <path d="m2752.89,4252.62c-42.53-95.87-141.43-159.84-234.86-222.92,93.57,63.05,192.6,126.65,234.86,222.92Z"/>
    <path d="m2748.48,1782c112.14-42.28,232.37-36.06,350.92-40.49-118.37,4.57-238.43-.51-350.92,40.49Z"/>
    <path d="m2754.3,4255.87c12.5,29.27,19.76,61.52,20.05,97.59h-.36c-.21-36.12-7.34-68.35-19.69-97.59Z"/>
    <path d="m2770.65,2504.56c.42,2.59.79,5.2,1.11,7.84-.33-2.64-.7-5.25-1.11-7.84Z"/>
    <path d="m2828.36,864.34c-34.94-55.34-57.49-116.21-53.89-184.11-2.99,66.9,19.18,128.34,53.89,184.11Z"/>
    <path d="m2774.47,3224.79c8.92,82.74-5.57,158.19-36.22,227.02,29.48-71.32,42.32-148.8,36.22-227.02Z"/>
    <path d="m3254.99,1610.46c-9.62,27.91-30.36,48.41-47.06,73.99-.65,1-1.3,1.99-1.94,3.01,15-24,34-43,44-68,55-130-22-267-100-380-79-115-172-195-262-296-21.77-24.74-42.02-50.9-59.22-78.45,18.09,28.56,39.46,55.64,62.22,81.45,92,103,188,186,267,304,73,108,141,235,97,360Z"/>
    <path d="m3205.99,1687.46c-16.39,25.88-42.47,45.81-69.86,51.44,27.19-5.65,52.61-25.57,69.86-51.44Z"/>
    <path d="m318.15,7986.56c58.12-.38,103.32-.41,108.65-.41h.52s0-13.44,0-38.82c-1.91-34.6-.81-70.75.47-107.35.7-57.08,1.14-114.02-3.37-171.31-6.16-43.18-18.68-84.37-42.73-121.47-.02-.03-.04-.06-.06-.09-26.77-37.4-64.35-66.68-108.1-86.67-31.86-10.84-65.92-16.6-97.94-27.9-33.03-6.52-58.08-32.05-69.32-62.91,0-.03-.03-.06-.04-.09-3.73-9.41-6.19-19.33-7.25-29.39-6-62,19-119,54-172,13.75-20.63,28.64-39.69,44.56-57.3,27.94-31.95,59.02-57.91,92.35-79.58,47.68-31.94,100.58-56.08,157.09-74.12,14.26-4.47,28.76-8.55,43.38-12.45,42.19-12.82,85.12-24.25,127.62-36.55,27.35-8.2,54.49-17.45,80-29.73,29.77-15.34,57.51-34.67,82-60.27,24.02-27.45,20.07-65.2,1.43-93.06-.32-.47-.64-.94-.96-1.4-.41-.59-.82-1.17-1.24-1.74-2.52-3.46-5.28-6.74-8.23-9.8-113.82-122.44-244.73-230.75-304.28-387.12-4.14-9.46-8.05-19.08-11.72-28.88-15.99-41.87-20.96-85.48-30.37-128.62-30.51-102.24-81.73-195.2-168.96-252.49-11.39-7.09-23.28-13.41-35.67-18.89-11.31-5.01-23.42-9.81-35.63-14.84-29.22-9.31-58.45-17.63-77.37-42.16-.87-1.09-1.72-2.19-2.56-3.29-17.73-17.03-29.37-39.03-29.44-69.44-12.83-88.94,54.1-185.71,118-247.27,2.3-2.22,4.61-4.41,6.94-6.57,30.59-29.1,64.65-55.71,99.6-80.3,21.54-17.19,42.37-35.27,61.34-56.39,24.89-30.74,43.17-65.29,60.84-100.99.01-.03.03-.07.05-.1,9.3-21.17,18.44-42.59,30.23-63.65,11.91-21.24,25.19-40.77,39.61-58.96.27-.36.56-.71.84-1.07,1.02-1.31,2.05-2.61,3.08-3.91,6.71-8.41,13.7-16.52,20.94-24.39.6-.66,1.21-1.31,1.82-1.96.5-.54,1-1.09,1.52-1.63.4-.43.81-.87,1.23-1.3.71-.77,1.43-1.52,2.16-2.28.94-.98,1.88-1.96,2.83-2.93.56-.58,1.12-1.16,1.69-1.73,1.86-1.9,3.74-3.78,5.63-5.65.82-.81,1.63-1.62,2.46-2.41.9-.89,1.81-1.77,2.73-2.65,5.58-5.37,11.27-10.63,17.07-15.8.85-.76,1.71-1.52,2.57-2.27,1.91-1.69,3.83-3.36,5.76-5.02.97-.84,1.94-1.67,2.91-2.49,3.88-3.31,7.81-6.58,11.77-9.81,1.98-1.63,3.98-3.24,5.98-4.83,2-1.62,4.01-3.21,6.03-4.79,2.02-1.6,4.04-3.17,6.08-4.74.25-.2.5-.4.76-.59,1.78-1.38,3.57-2.75,5.37-4.11,2.05-1.57,4.11-3.12,6.18-4.66,12.41-9.3,25.09-18.39,37.96-27.39,5.58-3.91,11.19-7.79,16.84-11.67.97-.67,1.95-1.34,2.93-2.01.65-.45,1.3-.9,1.95-1.34,1.24-.86,2.49-1.71,3.74-2.56.87-.6,1.75-1.2,2.62-1.79,1.47-1,2.95-2.01,4.42-3.01.75-.51,1.49-1.02,2.24-1.53.97-.66,1.94-1.32,2.91-1.98,1.03-.7,2.06-1.4,3.09-2.09,1.15-.78,2.31-1.56,3.46-2.35,14.49-9.84,29.08-19.72,43.68-29.82,1.34-.92,2.68-1.85,4.02-2.78.53-.36,1.05-.72,1.57-1.09,2.31-1.6,4.63-3.22,6.94-4.84.18-.12.37-.26.56-.39,3.02-2.12,6.04-4.24,9.05-6.38,8.44-5.83,17-11.61,25.35-17.57.09-.06.18-.13.28-.2,13.65-9.92,27.14-20.42,38.59-32.28.31-.31.61-.63.91-.96,15.06-16.15,26.25-35.01,29.87-58.99,2.18-19.65-2.78-36.65-11.96-51.72,0-.02-.02-.04-.04-.05-11.44-17.56-28.8-32.27-45-45.23-7.87-6.31-15.94-12.55-24.18-18.72-.04-.02-.08-.05-.11-.08-.57-.4-1.14-.8-1.71-1.2-76.56-55.96-167.33-108.86-236.06-175.36-.43-.41-.85-.83-1.28-1.24-56.99-54.98-98.51-119.49-103.74-204.28-.17-2.7-.3-5.43-.4-8.18-.04-1.33-.08-2.67-.11-4.01-.01-.47-.02-.95-.02-1.42-.02-1.24-.04-2.49-.04-3.74,0-6.58-.01-13.12-.01-19.62,0-15.93,0-31.63,0-47.12v-24.74c.15-4.71.31-9.42.48-14.15.48-39.52.84-78.98-.48-118.53,0-280.55-321.24-456.07-321.24-456.07,9.43-33.91,26.46-66.25,46.91-97.23,13.75-20.63,28.64-39.69,44.56-57.3,27.94-31.95,59.02-57.91,92.35-79.58,47.68-31.94,100.58-56.08,157.09-74.12,14.26-4.47,28.76-8.55,43.38-12.45,42.19-12.82,85.12-24.25,127.62-36.55,27.35-8.2,54.49-17.45,80-29.73,29.77-15.34,57.51-34.67,82-60.27,24.02-27.45,20.07-65.2,1.43-93.06-.32-.47-.64-.94-.96-1.4-.41-.59-.82-1.17-1.24-1.74-2.52-3.46-5.28-6.74-8.23-9.8-113.82-122.44-244.73-230.75-304.28-387.12-4.14-9.46-8.05-19.08-11.72-28.88-15.99-41.87-20.96-85.48-30.37-128.62-30.51-102.24-81.73-195.2-168.96-252.49-11.39-7.09-23.28-13.41-35.67-18.89-11.31-5.01-23.42-9.81-35.63-14.84-29.22-9.31-58.45-17.63-77.37-42.16-.87-1.09-1.72-2.19-2.56-3.29-17.73-17.03-29.37-39.03-29.44-69.44-12.83-88.94,54.1-185.71,118-247.27,2.3-2.22,4.61-4.41,6.94-6.57,30.59-29.1,64.65-55.71,99.6-80.3,21.54-17.19,42.37-35.27,61.34-56.39,24.89-30.74,43.17-65.29,60.84-100.99.01-.03.03-.07.05-.1,9.3-21.17,18.44-42.59,30.23-63.65,11.91-21.24,25.19-40.77,39.61-58.96.27-.36.56-.71.84-1.07,1.02-1.31,2.05-2.61,3.08-3.91,6.71-8.41,13.7-16.52,20.94-24.39.6-.66,1.21-1.31,1.82-1.96.5-.54,1-1.09,1.52-1.63.4-.43.81-.87,1.23-1.3.71-.77,1.43-1.52,2.16-2.28.94-.98,1.88-1.96,2.83-2.93.56-.58,1.12-1.16,1.69-1.73,1.86-1.9,3.74-3.78,5.63-5.65.82-.81,1.63-1.62,2.46-2.41.9-.89,1.81-1.77,2.73-2.65,5.58-5.37,11.27-10.63,17.07-15.8.85-.76,1.71-1.52,2.57-2.27,1.91-1.69,3.83-3.36,5.76-5.02.97-.84,1.94-1.67,2.91-2.49,3.88-3.31,7.81-6.58,11.77-9.81,1.98-1.63,3.98-3.24,5.98-4.83,2-1.62,4.01-3.21,6.03-4.79,2.02-1.6,4.04-3.17,6.08-4.74.25-.2.5-.4.76-.59,1.78-1.38,3.57-2.75,5.37-4.11,2.05-1.57,4.11-3.12,6.18-4.66,12.41-9.3,25.09-18.39,37.96-27.39,5.58-3.91,11.19-7.79,16.84-11.67.97-.67,1.95-1.34,2.93-2.01.65-.45,1.3-.9,1.95-1.34,1.24-.86,2.49-1.71,3.74-2.56.87-.6,1.75-1.2,2.62-1.79,1.47-1,2.95-2.01,4.42-3.01.75-.51,1.49-1.02,2.24-1.53.97-.66,1.94-1.32,2.91-1.98,1.03-.7,2.06-1.4,3.09-2.09,1.15-.78,2.31-1.56,3.46-2.35,14.49-9.84,29.08-19.72,43.68-29.82,1.34-.92,2.68-1.85,4.02-2.78.53-.36,1.05-.72,1.57-1.09,2.31-1.6,4.63-3.22,6.94-4.84.18-.12.37-.26.56-.39,3.02-2.12,6.04-4.24,9.05-6.38,8.44-5.83,17-11.61,25.35-17.57.09-.06.18-.13.28-.2,13.65-9.92,27.14-20.42,38.59-32.28.31-.31.61-.63.91-.96,15.06-16.15,26.25-35.01,29.87-58.99,2.18-19.65-2.78-36.65-11.96-51.72,0-.02-.02-.04-.04-.05-11.44-17.56-28.8-32.27-45-45.23-7.87-6.31-15.94-12.55-24.18-18.72-.04-.02-.08-.05-.11-.08-.57-.4-1.14-.8-1.71-1.2-76.56-55.96-167.33-108.86-236.06-175.36-.43-.41-.85-.83-1.28-1.24-56.99-54.98-98.51-119.49-103.74-204.28-.17-2.7-.3-5.43-.4-8.18-.04-1.33-.08-2.67-.11-4.01-.01-.47-.02-.95-.02-1.42-.02-1.24-.04-2.49-.04-3.74,0-6.58-.01-13.12-.01-19.62,0-15.93,0-31.63,0-47.12V0H.95v613.49c.04,21.81.07,44.06.12,66.74-1.46,20.65-1.39,41,0,61.09v2891.37h-.12v613.49c.04,21.81.07,44.06.12,66.74v3673.23h26.54"/>
    <path d="m184.36,2248.62c-29.22-9.31-58.45-17.63-77.37-42.16-.87-1.09-1.72-2.19-2.56-3.29,21.1,20.27,50.82,33.49,79.93,45.45Z"/>
    <path d="m199.93,1879.89c-72.08,68.56-124.94,150.97-124.94,253.57v.27c-12.83-88.94,54.1-185.71,118-247.27,2.3-2.22,4.61-4.41,6.94-6.57Z"/>
    <path d="m175.6,3799.85c-33.03-6.52-58.08-32.05-69.32-62.91,10.38,26.09,30.54,48.24,57.71,58.52,3.83,1.56,7.71,3.02,11.61,4.39Z"/>
    <path d="m27.61,4353.46h399.19c-5.33,0-50.53.03-108.65.41-98.16.59-196.16,12.59-294.16,20.59,1.12-6.9,2.35-13.91,3.62-21Z"/>
    <path d="m289.9,3398.58c-33.56,22.46-64.53,48.79-92.35,79.58,27.94-31.95,59.02-57.91,92.35-79.58Z"/>
    <path d="m360.87,1743.2c-15.79,19.52-34.24,37.5-56.88,53.26-1.49,1.04-2.97,2.08-4.46,3.13,21.54-17.19,42.37-35.27,61.34-56.39Z"/>
    <path d="m424.62,2534.84c-30.51-102.24-81.73-195.2-168.96-252.49,75.98,47.19,129.63,127.76,158.33,212.11,4.3,13.37,7.68,26.85,10.63,40.38Z"/>
    <path d="m381.64,3914.42c-26.77-37.4-64.35-66.68-108.1-86.67,24.01,8.17,46.76,19.23,66.45,37.71,16.73,15.3,30.44,31.69,41.65,48.96Z"/>
    <path d="m427.8,4207.29c.7-57.08,1.14-114.02-3.37-171.31,7.9,55.28,5.4,113.83,3.37,171.31Z"/>
    <path d="m491.6,1519.5c-14.3,18.45-27.27,38.3-38.61,59.96-10.98,20.92-21.01,41.98-31.23,62.65,9.3-21.17,18.44-42.59,30.23-63.65,11.91-21.24,25.19-40.77,39.61-58.96Z"/>
    <path d="m770.7,1079.66c-.57-.4-1.14-.8-1.71-1.2-76.56-55.96-167.33-108.86-236.06-175.36,69.14,66.28,160.64,118.8,237.77,176.56Z"/>
    <path d="m770.99,3079.46c-113.82-122.44-244.73-230.75-304.28-387.12,66.75,152.81,191.28,263.76,304.28,387.12Z"/>
    <path d="m697.99,3245.73c-63.93,32.95-137.19,47.5-207.62,66.28,42.19-12.82,85.12-24.25,127.62-36.55,27.35-8.2,54.49-17.45,80-29.73Z"/>
    <path d="m779.99,3185.46c24.02-27.45,20.07-65.2,1.43-93.06,18.88,28.05,23.46,66.45-1.43,93.06Z"/>
    <path d="m821.21,1255.41c-11.28,11.9-24.65,22.33-38.59,32.28,13.65-9.92,27.14-20.42,38.59-32.28Z"/>
    <path d="m851.99,1195.46c2.18-19.65-2.78-36.65-11.96-51.72,9.73,14.94,15.18,31.96,11.96,51.72Z"/>
    <path class="cls-1" d="m1762.8,1228.9s0,.03-.01.04c-10.89,22.55-31.35,39.61-51.8,55.52-29.81,22.76-60.96,45.52-91.61,69.02-.03.02-.05.04-.08.06-92.16,67.36-178.87,139.46-211.79,250.15h0c-10.37,32.26-15.47,67.08-13.76,105.07h0c-21.79,81.56-75.58,147.92-141.77,205.16-.22.2-.44.39-.67.57-44.2,37.31-93.76,70.47-143.32,102.97-16.87,11.12-33.58,21.64-49.03,33.06-39.4,28.21-76.88,67.27-66.45,113.69.01.02.01.05.02.08,4.15,24.78,19.34,48.18,37.08,66.76t0,.01c28.57,37.83,64.49,69.75,103.89,96.45.02.02.04.04.06.04,22.45,16.97,46.21,31.45,71.68,41.37.02,0,.04.02.06.03,17.62,7.86,35.55,11.82,53.69,13.17h.05c11.62,1.2,23.6,1.36,35.94.34,4.57-.52,9.11-1.23,13.63-2.09h.01c28.58-2.88,57.7-13.05,86.29-19.64,13.27-4.12,26.44-6.08,39.4-6.17h.02c5.94.39,11.95,1.22,18.05,2.57,20.53,3.03,40.07,9.05,58.32,17.54.02,0,.03.02.04.02,32.87,17.46,62.18,44.46,85.24,73.77,25.53,31.91,42.15,68.11,50.74,105.95,0,.02.02.05.02.07,1.95,10.52,3.21,21.18,3.75,31.9,2.42,27.8,1.88,55.9-2.51,84-1.15,9.23-2.71,18.45-4.68,27.59h0c-2.63,9.97-5.74,19.81-9.32,29.49-8.09,22.1-16.18,44.09-24.15,66.04-.03.07-.06.15-.08.23-34.57,88.9-63.93,178.89-83.37,272.18-7.83,31.07-16.53,61.92-26.13,92.5-4.81,15.29-9.83,30.52-15.08,45.68-.03.09-.07.19-.1.28-15.96,45.14-34,89.57-54.09,133.09-21.75,46.64-53.52,82.46-91.14,112.3-65.63,50.36-148.91,83.76-223.86,124.7-37.21,20.09-89.36,40.74-111.14,74.71h0c-9.2,11.71-14.4,25.01-11.85,40.29,2.44,16.11,6.46,31.28,11.79,45.67,37.88,112.83,166.63,179,248.21,270.33,5.99,6.53,11.97,13.06,17.91,19.61.03.03.06.07.09.1,47.15,52.74,92.64,106.81,113.07,174.78.33,1.08.64,2.16.95,3.25,6.74,48.64,7.56,86.06,7.56,111.44v38.82H427.32s0-13.44,0-38.82c-.51-35.91.03-71.66.47-107.35,2.03-57.48,4.53-116.03-3.37-171.31-.14-1.84-.29-3.68-.44-5.52-3.78-44.34-18.91-83.25-42.29-115.95-.02-.03-.04-.06-.06-.09-11.21-17.27-24.92-33.66-41.65-48.96-19.69-18.48-42.44-29.54-66.45-37.71-29.22-13.35-61.2-22.56-94.55-27.29-1.14-.18-2.27-.38-3.39-.61-3.9-1.37-7.78-2.83-11.61-4.39-27.17-10.28-47.33-32.43-57.71-58.52,0-.03-.03-.06-.04-.09-3.43-9.43-5.57-19.36-6.25-29.39-8-80,34-151,84-213,4.43-5.6,8.95-11.03,13.56-16.3,27.82-30.79,58.79-57.12,92.35-79.58,61.1-39.74,129.75-65.09,200.47-86.57,70.43-18.78,143.69-33.33,207.62-66.28,30.46-14.64,58.6-33.6,82-60.27,24.49-26.18,20.45-63.77,2.34-91.69t-.02-.02c-.29-.45-.59-.9-.89-1.35-.32-.47-.64-.94-.96-1.4-.41-.59-.82-1.17-1.24-1.74-2.52-3.46-5.28-6.74-8.23-9.8-113-123.36-237.53-234.31-304.28-387.12-9.52-24.98-17.21-51.19-22.72-78.88-5.3-26.52-11.68-52.86-19.37-78.62-2.95-13.53-6.33-27.01-10.63-40.38-28.7-84.35-82.35-164.92-158.33-212.11-10.97-7.22-22.52-13.86-34.67-19.89-11.67-5.69-24.15-9.85-36.63-13.84-29.11-11.96-58.83-25.18-79.93-45.45-16.7-22.01-25.97-45.44-29.44-69.44v-.27c0-102.6,52.86-185.01,124.94-253.57,32.08-29.8,66.66-54.01,99.6-80.3,1.49-1.05,2.97-2.09,4.46-3.13,22.64-15.76,41.09-33.74,56.88-53.26,4.84-5.37,9.55-10.94,14.12-16.74,20.81-26.59,33.94-55.19,46.72-84.25.01-.03.03-.07.05-.1,10.22-20.67,20.25-41.73,31.23-62.65,11.34-21.66,24.31-41.51,38.61-59.96.27-.36.56-.71.84-1.07,46.89-58.82,105.67-103.6,168.23-146.84,2.02-1.39,4.04-2.79,6.07-4.18,1.19-.81,2.38-1.63,3.58-2.45.7-.48,1.4-.96,2.11-1.45.87-.59,1.74-1.19,2.62-1.79,1.47-1,2.94-2.01,4.42-3.01.75-.51,1.49-1.02,2.24-1.53.94-.64,1.89-1.28,2.84-1.92,0,0,.03-.02.04-.03,1.04-.71,2.07-1.41,3.12-2.12,1.15-.78,2.31-1.56,3.46-2.35,28.02-18.98,56.53-38.06,84.82-58.3,2.11-1.51,4.23-3.03,6.35-4.57.09-.06.18-.13.28-.2,13.94-9.95,27.31-20.38,38.59-32.28.31-.31.61-.63.91-.96,15.59-16.4,27.19-35.39,29.87-58.99,3.22-19.76-2.23-36.78-11.96-51.72,0-.02-.02-.04-.04-.05-15.66-25.73-43.6-45.84-69.18-63.95-.04-.02-.08-.05-.11-.08-77.13-57.76-168.63-110.28-237.77-176.56-.43-.41-.85-.83-1.28-1.24-56.01-54.56-97.13-118.28-103.47-200.32-.09-1.31-.19-2.63-.27-3.96-.17-2.7-.3-5.43-.4-8.18-.04-1.33-.08-2.67-.11-4.01-.01-.47-.02-.95-.02-1.42-.02-1.24-.04-2.49-.04-3.74,0-6.58-.01-13.12-.01-19.62,0-15.93,0-31.63,0-47.12V0h965.25v680.23c-.12,2.5-.21,4.98-.27,7.44-.03,1.12-.05,2.23-.06,3.35-2.14,156.27,123.12,252.08,242.15,341.36.04.03.08.06.11.08,23.75,18.84,46.98,37.66,68.49,57,13.49,11.9,28.08,24.75,40.28,39.04,0,0,.02.02.02.03,21.58,31.3,32.08,67.08,19.51,100.37Z"/>
    <path class="cls-1" d="m199.93,1879.89c-72.08,68.56-124.94,150.97-124.94,253.57v.27c-12.83-88.94,54.1-185.71,118-247.27,2.3-2.22,4.61-4.41,6.94-6.57Z"/>
    <path class="cls-1" d="m104.43,2203.17c21.1,20.27,50.82,33.49,79.93,45.45-29.22-9.31-58.45-17.63-77.37-42.16-.87-1.09-1.72-2.19-2.56-3.29Z"/>
    <path class="cls-1" d="m163.99,3795.46c3.83,1.56,7.71,3.02,11.61,4.39-33.03-6.52-58.08-32.05-69.32-62.91,10.38,26.09,30.54,48.24,57.71,58.52Z"/>
    <path class="cls-1" d="m289.9,3398.58c-33.56,22.46-64.53,48.79-92.35,79.58,27.94-31.95,59.02-57.91,92.35-79.58Z"/>
    <path class="cls-1" d="m255.66,2282.35c75.98,47.19,129.63,127.76,158.33,212.11,4.3,13.37,7.68,26.85,10.63,40.38-30.51-102.24-81.73-195.2-168.96-252.49Z"/>
    <path class="cls-1" d="m381.64,3914.42c-26.77-37.4-64.35-66.68-108.1-86.67,24.01,8.17,46.76,19.23,66.45,37.71,16.73,15.3,30.44,31.69,41.65,48.96Z"/>
    <path class="cls-1" d="m303.99,1796.46c-1.49,1.04-2.97,2.08-4.46,3.13,21.54-17.19,42.37-35.27,61.34-56.39-15.79,19.52-34.24,37.5-56.88,53.26Z"/>
    <path class="cls-1" d="m491.6,1519.5c-14.3,18.45-27.27,38.3-38.61,59.96-10.98,20.92-21.01,41.98-31.23,62.65,9.3-21.17,18.44-42.59,30.23-63.65,11.91-21.24,25.19-40.77,39.61-58.96Z"/>
    <path class="cls-1" d="m424.43,4035.98c7.9,55.28,5.4,113.83,3.37,171.31.7-57.08,1.14-114.02-3.37-171.31Z"/>
    <path class="cls-1" d="m466.71,2692.34c66.75,152.81,191.28,263.76,304.28,387.12-113.82-122.44-244.73-230.75-304.28-387.12Z"/>
    <path class="cls-1" d="m617.99,3275.46c27.35-8.2,54.49-17.45,80-29.73-63.93,32.95-137.19,47.5-207.62,66.28,42.19-12.82,85.12-24.25,127.62-36.55Z"/>
    <path class="cls-1" d="m768.99,1078.46c-76.56-55.96-167.33-108.86-236.06-175.36,69.14,66.28,160.64,118.8,237.77,176.56-.57-.4-1.14-.8-1.71-1.2Z"/>
    <path class="cls-1" d="m782.62,1287.69c13.65-9.92,27.14-20.42,38.59-32.28-11.28,11.9-24.65,22.33-38.59,32.28Z"/>
    <path class="cls-1" d="m781.42,3092.4c18.88,28.05,23.46,66.45-1.43,93.06,24.02-27.45,20.07-65.2,1.43-93.06Z"/>
    <path class="cls-1" d="m840.03,1143.74c9.73,14.94,15.18,31.96,11.96,51.72,2.18-19.65-2.78-36.65-11.96-51.72Z"/>
    <path class="cls-1" d="m1029.61,2231.05c-17.74-18.58-32.93-41.98-37.08-66.76,1.47,6.58,3.92,13.31,7.46,20.17,8.62,16.44,18.57,31.96,29.62,46.59Z"/>
    <path class="cls-1" d="m1339.85,3449.76c-81.73,64.85-191.04,101.49-284.86,159.7-17.84,10.93-37.66,23.85-50.14,39.71,21.78-33.97,73.93-54.62,111.14-74.71,74.95-40.94,158.23-74.34,223.86-124.7Z"/>
    <path class="cls-1" d="m1251.31,1914.49c-52.61,45.41-112.99,85.05-171.32,121.97-6.9,4.33-13.99,9.02-21.03,14.06,15.45-11.42,32.16-21.94,49.03-33.06,49.56-32.5,99.12-65.66,143.32-102.97Z"/>
    <path class="cls-1" d="m1270.9,4025.07c-5.94-6.55-11.92-13.08-17.91-19.61-81.58-91.33-210.33-157.5-248.21-270.33,42.61,115.11,169.43,180,251.21,273.33,4.97,5.53,9.95,11.06,14.91,16.61Z"/>
    <path class="cls-1" d="m1205.25,2368.92c-25.47-9.92-49.23-24.4-71.68-41.37,21.33,14.47,43.68,27.4,66.42,38.91,1.75.86,3.5,1.68,5.26,2.46Z"/>
    <path class="cls-1" d="m1308.62,2380.37c-4.52.86-9.06,1.57-13.63,2.09-12.34,1.02-24.32.86-35.94-.34,15.65,1.18,31.47.39,47.36-1.54.74-.06,1.47-.13,2.21-.21Z"/>
    <path class="cls-1" d="m1403.99,1616.46c1.15,32.84-2.55,63.51-10.24,92.3-1.71-37.99,3.39-72.81,13.76-105.06-1.26,4.2-2.43,8.45-3.52,12.76Z"/>
    <path class="cls-1" d="m1510.71,2374.67c-18.25-8.49-37.79-14.51-58.32-17.54-6.1-1.35-12.11-2.18-18.05-2.57,26.67-.21,52.47,7.43,76.37,20.11Z"/>
    <path class="cls-1" d="m1609.76,2793.73c-2.1,5.78-4.19,11.55-6.27,17.33-29.98,83.35-57.67,166.45-76.2,253.61-7.9,31.21-16.71,62.17-26.47,92.84-4.97,15.61-10.18,31.13-15.64,46.58,5.25-15.16,10.27-30.39,15.08-45.68,9.6-30.58,18.3-61.43,26.13-92.5,19.44-93.29,48.8-183.28,83.37-272.18Z"/>
    <path class="cls-1" d="m1647.99,2670.38c4.39-28.1,4.93-56.2,2.51-84-.54-10.72-1.8-21.38-3.75-31.9,10.67,47.02,8.95,96.55-3.44,143.49,1.97-9.14,3.53-18.36,4.68-27.59Z"/>
    <path class="cls-1" d="m1743.27,1128.5c-12.2-14.29-26.79-27.14-40.28-39.04-21.51-19.34-44.74-38.16-68.49-57,20.58,15.44,40.97,30.68,60.49,46,18.36,14.05,35.32,31.24,48.28,50.04Z"/>
    <path class="cls-1" d="m1762.79,1228.94c-6.2,16.39-17.99,32.17-36.8,46.52-34.48,26.61-70.96,51.96-106.61,78.02,30.65-23.5,61.8-46.26,91.61-69.02,20.45-15.91,40.91-32.97,51.8-55.52Z"/>
    <path d="m2434.22,1345.59c-1.42,1.18-2.86,2.34-4.33,3.45-.63.48-1.26.95-1.9,1.42-31,22.5-57.25,46-77.62,73.62-15.25,20.68-27.21,43.66-35.39,70.27-.01.02-.01.04-.02.06-3.28,8.7-6.25,17.71-8.93,27.05-7.67,29.25-26.26,49.59-49.87,63.93-.03,0-.05.03-.08.04-18.83,9.17-40.26,14.81-60.09,19.03-48.13,10.74-95.45,19.14-141.78,28.93-.08.02-.17.03-.25.05-100.48,19.6-196.17,50.28-282.2,112.29-.01,0-.01,0-.01,0-54.52,31.47-110.05,65.21-145.07,112.84l-.05.05c-19.81,23.2-33.47,49.95-35.64,82.83,0,1.21.42,2.16,1.16,2.87.04.05.09.1.13.14.1.09.21.18.33.26h0c.97.74,2.33,1.18,3.9,1.42,0,0,.03,0,.04.01,2.7.57,6.03.78,8.43.3,16.68-4.51,33.71-9.8,50.9-14.93,2.85-.85,5.7-1.7,8.55-2.53,59.58-17.3,121.67-31.04,176.76-3.13.74.37,1.48.76,2.22,1.15.71.37,1.42.76,2.12,1.15.71.39,1.42.79,2.12,1.19.71.41,1.41.82,2.11,1.24.7.42,1.41.84,2.11,1.28.93.58,1.86,1.17,2.79,1.77.93.61,1.86,1.23,2.79,1.86.92.63,1.85,1.27,2.77,1.93.92.66,1.84,1.33,2.76,2.02,23.23,17.21,40.53,39.59,58.92,62.69.03.03.05.07.08.1,7.09,9.28,14.26,18.74,22,28.21,11.73,13.89,24.41,26.73,37.16,39.37.03.03.06.06.09.1,25.69,27.83,51.08,55.16,73,84.88h0c1.28,2.19,2.53,4.4,3.74,6.65,22.9,41.76,44.21,85.92,62.05,131.51.01.03.03.06.03.1,27.54,82.07,51.72,169.63,51.83,255.27v.16c-.54,34.13-4.59,68.09-12.84,101.53,0,.01,0,.02,0,.03-3.67,13.52-8.22,26.92-13.72,40.14,0,0,0,.02,0,.03-6.56,13.64-14.07,27.01-22.13,40.23-.02.03-.04.06-.06.09-8.58,13.66-17.82,27.21-27.14,40.91-26.66,38.39-55.28,74.47-80.84,111.31-.51.73-1.03,1.46-1.54,2.2-37.36,53.4-68.18,108.71-75.55,175.36-1.09,27.94-1.09,55.61-1.09,83.02v161.19c0,26.29,0,52.28-.4,77.88-.09.87-.17,1.73-.27,2.59-2.78,25.38-8.98,48.69-17.94,70.25-.29.72-.59,1.44-.91,2.15-.23.56-.48,1.12-.73,1.68-.39.9-.78,1.79-1.19,2.68-45.09,99.2-150.77,155.95-248.21,217.58-.05.03-.1.06-.14.09-13.59,7.75-27.05,15.4-40.19,23.02-19.46,10.95-34.6,24.61-45.46,39.95h0c-22.38,25.15-34.62,57.6-19.53,90.05,1.01,2.17,2.04,4.33,3.11,6.46h0c6.15,22.31,18.81,44.16,37.89,63.54,8.75,9.01,17.72,17.93,26.89,26.79,0,0,.02.03.04.04,45.37,48.33,99.65,89.62,146.07,139.17,44.74,47.68,91.21,98.14,122.49,155.04,0,.02.02.04.03.06,19.97,39.4,33.45,82.23,37.48,129.9h-543.42v-38.82c0-25.38-.82-62.8-7.56-111.44-.31-1.09-.62-2.17-.95-3.25-20.1-67.72-65.2-122-113.07-174.78-.03-.03-.06-.07-.09-.1-4.96-5.55-9.94-11.08-14.91-16.61-81.78-93.33-208.6-158.22-251.21-273.33-4.85-14.41-8.2-29.58-9.79-45.67-1.53-15.35,2.36-28.6,9.85-40.28h0c12.48-15.87,32.3-28.79,50.14-39.72,93.82-58.21,203.13-94.85,284.86-159.7,38.57-29.59,71.04-65.03,92.14-111.3,19.65-43.97,37.37-88.72,53.09-134.09.03-.09.07-.19.1-.28,5.46-15.45,10.67-30.97,15.64-46.58,9.76-30.67,18.57-61.63,26.47-92.84,18.53-87.16,46.22-170.26,76.2-253.61,2.08-5.78,4.17-11.55,6.27-17.33.02-.08.05-.16.08-.23,5.58-14.37,11.31-28.72,17.15-43.04,7.05-17.07,12.47-34.65,16.32-52.48h0c12.39-46.95,14.11-96.48,3.44-143.5,0-.02,0-.05-.02-.07-14.33-77.24-65.53-146.92-135.98-179.72,0,0-.02-.01-.04-.02-23.9-12.68-49.7-20.32-76.37-20.11h-.02c-21.2-1.41-41.47,2.71-61.58,8.28-21.3,5.89-42.44,13.41-64.11,17.53h-.01c-.74.08-1.47.15-2.21.21-15.89,1.93-31.71,2.72-47.36,1.54h-.05c-14.03-1.44-27.56-4.38-40.63-8.55-4.4-1.41-8.76-2.95-13.06-4.62-.02-.01-.04-.02-.06-.03-1.76-.78-3.51-1.6-5.26-2.46-22.74-11.51-45.09-24.44-66.42-38.91-.02,0-.04-.02-.06-.04-35.59-26.88-67.89-59.99-98.52-91.05-1.81-1.75-3.6-3.55-5.37-5.4t0-.01c-11.05-14.63-21-30.15-29.62-46.59-3.54-6.86-5.99-13.59-7.46-20.17,0-.03,0-.06-.02-.08-2.5-15-.97-30.5,6.48-45.75,13.57-28.98,35.12-49.6,59.97-67.94,7.04-5.04,14.13-9.73,21.03-14.06,58.33-36.92,118.71-76.56,171.32-121.97.23-.18.45-.37.67-.57,64.3-54.39,117.16-117.62,142.01-200.46-.09-1.57-.17-3.13-.24-4.69h0c7.69-28.8,11.39-59.47,10.24-92.31,1.09-4.31,2.26-8.56,3.52-12.76h0c33.14-103.08,120.19-179.91,211.79-250.16.03-.02.05-.04.08-.06,35.65-26.06,72.13-51.41,106.61-78.02,18.81-14.35,30.6-30.13,36.8-46.52.01-.01.01-.03.01-.04,3.48-7.21,5.98-14.97,7.19-23.44,4.82-30.15-8.17-55.2-26.7-76.93,0,0,0-.02-.02-.03-12.96-18.8-29.92-35.99-48.28-50.04-19.52-15.32-39.91-30.56-60.49-46-.03-.02-.07-.05-.11-.08-115.97-92-243.98-184.49-242.15-341.36,0-1.12.03-2.23.06-3.35.06-2.46.15-4.94.27-7.44V0h544.4v680.23c.75,54.01,14.86,101.07,38.21,142.91.27.5.55,1.01.84,1.52,37.63,67.72,98.84,120.7,167.84,168.04.37.26.74.52,1.11.76,59.16,40.87,123.2,76.99,181.02,113,7.4,4.63,14.82,9.2,22.19,13.79.01,0,.02,0,.03.02,15.33,9.88,30.32,19.92,44.78,30.19,16.68,11.99,31.73,24.79,44.44,39.13.43.48.85.96,1.26,1.44,1.07,1.23,2.14,2.48,3.18,3.74.2.24.4.48.59.72,8.65,10.67,16.2,22.35,22.33,35.35.42.87.81,1.74,1.2,2.62,17.9,40.52,1.18,84.59-31.77,112.13Z"/>
    <path d="m1029.61,2231.05c-17.74-18.58-32.93-41.98-37.08-66.76,1.47,6.58,3.92,13.31,7.46,20.17,8.62,16.44,18.57,31.96,29.62,46.59Z"/>
    <path d="m1255.99,4008.46c4.97,5.53,9.95,11.06,14.91,16.61-5.94-6.55-11.92-13.08-17.91-19.61-81.58-91.33-210.33-157.5-248.21-270.33,42.61,115.11,169.43,180,251.21,273.33Z"/>
    <path d="m1115.99,3574.46c74.95-40.94,158.23-74.34,223.86-124.7-81.73,64.85-191.04,101.49-284.86,159.7-17.84,10.93-37.66,23.85-50.14,39.71,21.78-33.97,73.93-54.62,111.14-74.71Z"/>
    <path d="m1079.99,2036.46c-6.9,4.33-13.99,9.02-21.03,14.06,15.45-11.42,32.16-21.94,49.03-33.06,49.56-32.5,99.12-65.66,143.32-102.97-52.61,45.41-112.99,85.05-171.32,121.97Z"/>
    <path d="m1133.57,2327.55c21.33,14.47,43.68,27.4,66.42,38.91,1.75.86,3.5,1.68,5.26,2.46-25.47-9.92-49.23-24.4-71.68-41.37Z"/>
    <path d="m1259.05,2382.12c15.65,1.18,31.47.39,47.36-1.54.74-.06,1.47-.13,2.21-.21-4.52.86-9.06,1.57-13.63,2.09-12.34,1.02-24.32.86-35.94-.34Z"/>
    <path d="m1407.51,1603.7c-1.26,4.2-2.43,8.45-3.52,12.76,1.15,32.84-2.55,63.51-10.24,92.3-1.71-37.99,3.39-72.81,13.76-105.06Z"/>
    <path d="m1510.71,2374.67c-18.25-8.49-37.79-14.51-58.32-17.54-6.1-1.35-12.11-2.18-18.05-2.57,26.67-.21,52.47,7.43,76.37,20.11Z"/>
    <path d="m1526.39,3065.91c19.44-93.29,48.8-183.28,83.37-272.18-2.1,5.78-4.19,11.55-6.27,17.33-29.98,83.35-57.67,166.45-76.2,253.61-7.9,31.21-16.71,62.17-26.47,92.84-4.97,15.61-10.18,31.13-15.64,46.58,5.25-15.16,10.27-30.39,15.08-45.68,9.6-30.58,18.3-61.43,26.13-92.5Z"/>
    <path d="m1565.1,3838.92c-1.07-2.13-2.1-4.29-3.11-6.46-15.09-32.45-2.85-64.9,19.53-90.04-20.27,28.63-25.65,63.06-16.42,96.5Z"/>
    <path d="m1655.89,1931.53c-17.19,5.13-34.22,10.42-50.9,14.93-2.4.48-5.73.27-8.43-.3,4.7.66,11.29-.51,15.43-1.7,14.35-4.02,29.03-8.54,43.9-12.93Z"/>
    <path d="m1725.99,1275.46c-34.48,26.61-70.96,51.96-106.61,78.02,30.65-23.5,61.8-46.26,91.61-69.02,20.45-15.91,40.91-32.97,51.8-55.52-6.2,16.39-17.99,32.17-36.8,46.52Z"/>
    <path d="m1702.99,1089.46c-21.51-19.34-44.74-38.16-68.49-57,20.58,15.44,40.97,30.68,60.49,46,18.36,14.05,35.32,31.24,48.28,50.04-12.2-14.29-26.79-27.14-40.28-39.04Z"/>
    <path d="m1647.99,2670.38c4.39-28.1,4.93-56.2,2.51-84-.54-10.72-1.8-21.38-3.75-31.9,10.67,47.02,8.95,96.55-3.44,143.49,1.97-9.14,3.53-18.36,4.68-27.59Z"/>
    <path d="m1771.75,1745.74c-3.94,2.84-7.86,5.74-11.76,8.72-44.05,33.2-98.29,63.14-133.31,104.12,35.02-47.63,90.55-81.37,145.07-112.84Z"/>
    <path d="m1898.48,4223.5c-31.28-56.9-77.75-107.36-122.49-155.04-46.42-49.55-100.7-90.84-146.07-139.17,95.49,92.42,209.95,178.58,268.56,294.21Z"/>
    <path d="m1915.53,3461.77c-44.9,99.97-150.03,161.58-248.21,217.58,97.44-61.63,203.12-118.38,248.21-217.58Z"/>
    <path d="m1981.15,2069.83c-12.75-12.64-25.43-25.48-37.16-39.37-7.74-9.47-14.91-18.93-22-28.21,2.96,3.72,5.95,7.47,9,11.21,16.25,19.54,33.27,38.06,50.16,56.37Z"/>
    <path d="m2013.61,2884.97c-37.02,53.66-67.36,109-75.55,175.36,7.37-66.65,38.19-121.96,75.55-175.36Z"/>
    <path d="m2143.86,992.7c-69-47.34-130.21-100.32-167.84-168.04,37.88,67.12,99.55,120.76,167.84,168.04Z"/>
    <path d="m2120.04,2292.97c-17.84-45.59-39.15-89.75-62.05-131.51-1.21-2.25-2.46-4.46-3.74-6.64,20.43,27.7,37.87,57.47,49.74,91.64,5.38,15.27,10.78,30.78,16.05,46.51Z"/>
    <path d="m2256.08,1585.43c-28.83,17.52-65.12,26.08-98.09,31.03-35.02,4.9-69.68,10.27-103.78,16.93,46.33-9.79,93.65-18.19,141.78-28.93,19.83-4.22,41.26-9.86,60.09-19.03Z"/>
    <path d="m2145.32,2690.23c-.85,2.06-1.73,4.12-2.63,6.17-5.84,11.52-12.44,22.83-19.5,34.06,8.06-13.22,15.57-26.59,22.13-40.23Z"/>
    <path d="m2171.9,2548.5c.04,34.31-3.8,68.32-12.84,101.53,8.25-33.44,12.3-67.4,12.84-101.53Z"/>
    <path d="m2427.99,1350.46c-31,22.5-56.25,47-76.38,75-14.96,20.82-27.09,43.57-36.63,68.89,8.18-26.61,20.14-49.59,35.39-70.27,20.37-27.62,46.62-51.12,77.62-73.62Z"/>
    <path d="m2437.43,1189.59c-12.71-14.34-27.76-27.14-44.44-39.13-14.46-10.27-29.45-20.31-44.78-30.19,32.98,20.57,64.86,41.55,89.22,69.32Z"/>
    <path d="m2434.22,1345.59c32.95-27.54,49.67-71.61,31.77-112.13,18.85,40.53,1.28,84.6-31.77,112.13Z"/>
    <path class="cls-1" d="m3249.99,1619.46c-10,25-29,44-44,68-17.25,25.87-42.67,45.79-69.86,51.44-.89.18-1.77.35-2.66.5-1,.16-2,.31-3,.45-.5.06-1,.12-1.49.18-.5.06-1,.11-1.5.15-.24.02-.49.05-.73.06-.38.04-.75.07-1.13.09-.88.06-1.75.1-2.63.13-4.04.21-8.08.4-12.12.58-3.82.17-7.64.32-11.47.47-118.55,4.43-238.78-1.79-350.92,40.49-.18.07-.36.14-.54.2-2.88,1.06-5.76,2.14-8.63,3.26-24.51,9.53-48.65,21.33-72.32,36-30.5,19.47-62.16,39.57-92,61.74-.1.07-.2.14-.29.2-61,43.71-115.05,95.77-133,168.27,0,.02,0,.03,0,.05-.96,3.21-1.86,6.45-2.7,9.74-11.21,43.96,1.55,82.16,25.77,115.37.02.04.05.08.07.11,33.57,47.02,90.3,83.33,136.31,114.09,21.45,14.28,42.31,29.08,62,45.41,19.7,16.32,38.24,34.17,55.03,54.56,16.38,20.02,29.94,41.86,39.55,66.18,5.13,12.97,9.13,26.64,11.85,41.12.39,2.07.75,4.16,1.08,6.26.41,2.59.78,5.2,1.11,7.84.17,1.32.32,2.65.46,3.98.1.89.19,1.78.27,2.68.17,1.79.33,3.59.46,5.4.09,1.12.16,2.25.23,3.38,0,.04.01.08.01.12.05.9.1,1.81.15,2.72.02.47.04.95.06,1.42.02.5.05,1,.06,1.5.03.56.05,1.12.06,1.69.03.99.06,1.99.08,2.99.87,29.6.87,59.37.87,89.02v597.49c6.1,78.22-6.74,155.7-36.22,227.02-.03.05-.05.1-.07.15-31.62,70.95-80.44,134.87-138.49,192.48l-.03.03c-53.6,48.27-111.75,86.93-164.98,135.36h0c-23.61,17.96-46.49,39.05-56.09,64.09,0,0,0,.02,0,.02-4.42,9.2-6.75,18.98-5.58,29.52,1.19,10.35,3.73,20.01,7.38,29.08,0,0,0,.02.01.03.04.11.08.22.13.33,0,0,0,.02.01.03,14.13,36.73,48.47,64.46,83.59,89.53,1.13.8,2.26,1.61,3.4,2.42,5.49,3.9,11.01,7.75,16.48,11.58,1.02.71,2.05,1.42,3.08,2.13,1.02.71,2.05,1.42,3.08,2.13,3.09,2.13,6.19,4.26,9.3,6.38,3,2.04,6.01,4.09,9.02,6.13.18.13.36.25.53.37,3,2.04,6.02,4.07,9.03,6.1,93.43,63.08,192.33,127.05,234.86,222.92.48,1.08.95,2.16,1.41,3.25,12.35,29.24,19.48,61.47,19.69,97.59h-838c-1.23-47.28-15.65-90.16-37.48-129.9-.01-.02-.02-.04-.03-.06-58.61-115.63-173.07-201.79-268.56-294.21-.02,0-.03-.03-.04-.04-25.36-27.02-47.93-56.23-64.78-90.32h0c-9.23-33.45-3.85-67.88,16.42-96.51h0c7.28-8.18,15.63-15.58,24.46-21.96,19.55-14.22,40.18-27.73,61.19-41.02.04-.03.09-.06.14-.09,98.18-56,203.31-117.61,248.21-217.58.41-.89.8-1.78,1.19-2.68.25-.56.5-1.12.73-1.68.32-.71.62-1.43.91-2.15,8.97-21.33,15.16-44.6,17.94-70.25.1-.86.18-1.72.27-2.59.4-25.6.4-51.59.4-77.88v-161.19c0-27.41,0-55.08,1.09-83.02,8.19-66.36,38.53-121.7,75.55-175.36.51-.74,1.03-1.47,1.54-2.2,27.77-39.47,59-77.97,86.84-119.31,7.27-10.91,14.4-21.86,21.14-32.91.02-.03.04-.06.06-.09,7.06-11.23,13.66-22.54,19.5-34.06.9-2.05,1.78-4.11,2.63-6.17,0-.01,0-.02,0-.03,2.27-4.71,4.42-9.45,6.44-14.23,2.72-8.6,5.14-17.24,7.28-25.91,0-.01,0-.02,0-.03,9.04-33.21,12.88-67.22,12.84-101.53v-.16c1.34-85.94-19.6-172.94-51.83-255.27,0-.04-.02-.07-.03-.1-5.27-15.73-10.67-31.24-16.05-46.51-11.87-34.17-29.31-63.94-49.74-91.64h0c-19.2-32.7-46.25-58.37-73-84.89-.03-.04-.06-.07-.09-.1-16.89-18.31-33.91-36.83-50.16-56.37-3.05-3.74-6.04-7.49-9-11.21-.03-.03-.05-.07-.08-.1-17.6-23.03-34.71-44.89-58.92-62.69-.92-.69-1.84-1.36-2.76-2.02-.92-.66-1.85-1.3-2.77-1.93-.93-.63-1.86-1.25-2.79-1.86-.93-.6-1.86-1.19-2.79-1.77-.7-.44-1.41-.86-2.11-1.28-.7-.42-1.4-.83-2.11-1.24-.7-.4-1.41-.8-2.12-1.19-.7-.39-1.41-.78-2.12-1.15-.74-.39-1.48-.78-2.22-1.15-55.49-28.29-116.94-14.42-176.76,3.13-2.85.83-5.7,1.68-8.55,2.53-14.87,4.39-29.55,8.91-43.9,12.93-4.14,1.19-10.73,2.36-15.43,1.7,0-.01-.03-.01-.04-.01-1.67-.36-3.09-.86-3.9-1.41h0c-.12-.09-.23-.18-.33-.27-.04-.04-.09-.09-.13-.14-.24-.28-.31-.58-.16-.87,4.38-32.87,16.87-60.64,34.64-84.83l.05-.05c35.02-40.98,89.26-70.92,133.31-104.12,3.9-2.98,7.82-5.88,11.76-8.72,0,0,0,0,.01,0,18.82-10.87,37.53-21.46,55.23-32.27,72.34-42.78,148.25-63.39,226.97-80.02.08-.02.17-.03.25-.05,34.1-6.66,68.76-12.03,103.78-16.93,32.97-4.95,69.26-13.51,98.09-31.03.03,0,.05-.03.08-.04,25.77-12.56,46.65-31.74,51.87-62.93,1.87-9.79,4.19-19.12,6.93-28.05.01-.02.01-.04.02-.06,9.54-25.32,21.67-48.07,36.63-68.89,20.13-28,45.38-52.5,76.38-75,.64-.46,1.28-.94,1.9-1.42,1.47-1.11,2.91-2.27,4.33-3.45,33.05-27.53,50.62-71.6,31.77-112.13-.39-.88-.78-1.75-1.2-2.62-5.94-12.84-13.47-24.53-22.33-35.35-.19-.24-.39-.48-.59-.72-1.03-1.26-2.09-2.51-3.18-3.74-.41-.48-.83-.96-1.26-1.44-24.36-27.77-56.24-48.75-89.22-69.32,0-.01-.02-.01-.03-.02-65.75-42.39-137.92-82.09-203.21-126.79-.37-.24-.74-.5-1.11-.76-68.29-47.28-129.96-100.92-167.84-168.04-.29-.51-.57-1.02-.84-1.52-22.74-41.44-36.67-88.39-38.21-142.91V0h837.5v680.23c-3.6,67.9,18.95,128.77,53.89,184.11.13.23.27.45.41.67,17.2,27.55,37.45,53.71,59.22,78.45,90,101,183,181,262,296,78,113,155,250,100,380Z"/>
    <path class="cls-1" d="m1581.52,3742.42c-20.27,28.63-25.65,63.06-16.42,96.5-1.07-2.13-2.1-4.29-3.11-6.46-15.09-32.45-2.85-64.9,19.53-90.04Z"/>
    <path class="cls-1" d="m1655.89,1931.53c-17.19,5.13-34.22,10.42-50.9,14.93-2.4.48-5.73.27-8.43-.3,4.7.66,11.29-.51,15.43-1.7,14.35-4.02,29.03-8.54,43.9-12.93Z"/>
    <path class="cls-1" d="m1626.68,1858.58c35.02-47.63,90.55-81.37,145.07-112.84-3.94,2.84-7.86,5.74-11.76,8.72-44.05,33.2-98.29,63.14-133.31,104.12Z"/>
    <path class="cls-1" d="m1898.48,4223.5c-31.28-56.9-77.75-107.36-122.49-155.04-46.42-49.55-100.7-90.84-146.07-139.17,95.49,92.42,209.95,178.58,268.56,294.21Z"/>
    <path class="cls-1" d="m1915.53,3461.77c-44.9,99.97-150.03,161.58-248.21,217.58,97.44-61.63,203.12-118.38,248.21-217.58Z"/>
    <path class="cls-1" d="m1943.99,2030.46c-7.74-9.47-14.91-18.93-22-28.21,2.96,3.72,5.95,7.47,9,11.21,16.25,19.54,33.27,38.06,50.16,56.37-12.75-12.64-25.43-25.48-37.16-39.37Z"/>
    <path class="cls-1" d="m1938.06,3060.33c7.37-66.65,38.19-121.96,75.55-175.36-37.02,53.66-67.36,109-75.55,175.36Z"/>
    <path class="cls-1" d="m2143.86,992.7c-69-47.34-130.21-100.32-167.84-168.04,37.88,67.12,99.55,120.76,167.84,168.04Z"/>
    <path class="cls-1" d="m2103.99,2246.46c5.38,15.27,10.78,30.78,16.05,46.51-17.84-45.59-39.15-89.75-62.05-131.51-1.21-2.25-2.46-4.46-3.74-6.64,20.43,27.7,37.87,57.47,49.74,91.64Z"/>
    <path class="cls-1" d="m2195.99,1604.46c19.83-4.22,41.26-9.86,60.09-19.03-28.83,17.52-65.12,26.08-98.09,31.03-35.02,4.9-69.68,10.27-103.78,16.93,46.33-9.79,93.65-18.19,141.78-28.93Z"/>
    <path class="cls-1" d="m2123.19,2730.46c8.06-13.22,15.57-26.59,22.13-40.23-.85,2.06-1.73,4.12-2.63,6.17-5.84,11.52-12.44,22.83-19.5,34.06Z"/>
    <path class="cls-1" d="m2159.06,2650.03c8.25-33.44,12.3-67.4,12.84-101.53.04,34.31-3.8,68.32-12.84,101.53Z"/>
    <path class="cls-1" d="m2427.99,1350.46c-31,22.5-56.25,47-76.38,75-14.96,20.82-27.09,43.57-36.63,68.89,8.18-26.61,20.14-49.59,35.39-70.27,20.37-27.62,46.62-51.12,77.62-73.62Z"/>
    <path class="cls-1" d="m2392.99,1150.46c-14.46-10.27-29.45-20.31-44.78-30.19,32.98,20.57,64.86,41.55,89.22,69.32-12.71-14.34-27.76-27.14-44.44-39.13Z"/>
    <path class="cls-1" d="m2380.37,3902.54c-3.65-9.07-6.19-18.73-7.38-29.08-1.17-10.54,1.16-20.32,5.58-29.52-3.57,9.28-5.31,19.11-4.58,29.52.69,10.31,2.91,19.98,6.38,29.08Z"/>
    <path class="cls-1" d="m2434.22,1345.59c32.95-27.54,49.67-71.61,31.77-112.13,18.85,40.53,1.28,84.6-31.77,112.13Z"/>
    <path class="cls-1" d="m2464.76,2176.83c-24.22-33.21-36.98-71.41-25.77-115.37.84-3.29,1.74-6.53,2.7-9.74-2.06,8.3-3.63,16.88-4.7,25.74-4.55,37.9,7.28,70.63,27.77,99.37Z"/>
    <path class="cls-1" d="m2599.66,3644.47c-46.63,46.27-99.23,88.48-153.67,126.99-3.75,2.71-7.54,5.5-11.31,8.37,53.23-48.43,111.38-87.09,164.98-135.36Z"/>
    <path class="cls-1" d="m2747.94,1782.2c-2.69,1.02-5.37,2.07-8.05,3.14-24.4,9.79-48.4,21.95-71.9,37.12-30.3,19.17-62.52,38.92-93,60.74,29.84-22.17,61.5-42.27,92-61.74,23.67-14.67,47.81-26.47,72.32-36,2.87-1.12,5.75-2.2,8.63-3.26Z"/>
    <path class="cls-1" d="m2752.89,4252.62c-42.53-95.87-141.43-159.84-234.86-222.92,93.57,63.05,192.6,126.65,234.86,222.92Z"/>
    <path class="cls-1" d="m2738.25,3451.81c29.48-71.32,42.32-148.8,36.22-227.02,8.92,82.74-5.57,158.19-36.22,227.02Z"/>
    <path class="cls-1" d="m3254.99,1610.46c-9.62,27.91-30.36,48.41-47.06,73.99-.65,1-1.3,1.99-1.94,3.01,15-24,34-43,44-68,55-130-22-267-100-380-79-115-172-195-262-296-21.77-24.74-42.02-50.9-59.22-78.45,18.09,28.56,39.46,55.64,62.22,81.45,92,103,188,186,267,304,73,108,141,235,97,360Z"/>
    <path class="cls-1" d="m3205.99,1687.46c-16.39,25.88-42.47,45.81-69.86,51.44,27.19-5.65,52.61-25.57,69.86-51.44Z"/>
    <path d="m2373.99,3873.46c.69,10.31,2.91,19.98,6.38,29.08-3.65-9.07-6.19-18.73-7.38-29.08-1.17-10.54,1.16-20.32,5.58-29.52-3.57,9.28-5.31,19.11-4.58,29.52Z"/>
    <path d="m2464.76,2176.83c-24.22-33.21-36.98-71.41-25.77-115.37.84-3.29,1.74-6.53,2.7-9.74-2.06,8.3-3.63,16.88-4.7,25.74-4.55,37.9,7.28,70.63,27.77,99.37Z"/>
    <path d="m2599.66,3644.47c-46.63,46.27-99.23,88.48-153.67,126.99-3.75,2.71-7.54,5.5-11.31,8.37,53.23-48.43,111.38-87.09,164.98-135.36Z"/>
    <path d="m2667.99,1822.46c-30.3,19.17-62.52,38.92-93,60.74,29.84-22.17,61.5-42.27,92-61.74,23.67-14.67,47.81-26.47,72.32-36,2.87-1.12,5.75-2.2,8.63-3.26-2.69,1.02-5.37,2.07-8.05,3.14-24.4,9.79-48.4,21.95-71.9,37.12Z"/>
    <path d="m2752.89,4252.62c-42.53-95.87-141.43-159.84-234.86-222.92,93.57,63.05,192.6,126.65,234.86,222.92Z"/>
    <path d="m2774.47,3224.79c8.92,82.74-5.57,158.19-36.22,227.02,29.48-71.32,42.32-148.8,36.22-227.02Z"/>
    <path d="m2774.35,4353.46h46.06c-28.79,0-46.06.02-46.06.02v-.02Z"/>
    <path d="m3157.99,1250.46c73,108,141,235,97,360-9.62,27.91-30.36,48.41-47.06,73.99-.65,1-1.3,1.99-1.94,3.01,15-24,34-43,44-68,55-130-22-267-100-380-79-115-172-195-262-296-21.77-24.74-42.02-50.9-59.22-78.45,18.09,28.56,39.46,55.64,62.22,81.45,92,103,188,186,267,304Z"/>
    <path d="m3205.99,1687.46c-16.39,25.88-42.47,45.81-69.86,51.44,27.19-5.65,52.61-25.57,69.86-51.44Z"/>
    <path d="m3394.71,3992.66v-1457.06h0v-344.5h0V0h-620.24v680.23c-2.99,66.9,19.18,128.34,53.89,184.11.13.23.27.45.41.67,18.09,28.56,39.46,55.64,62.22,81.45,92,103,188,186,267,304,73,108,141,235,97,360-9.62,27.91-30.36,48.41-47.06,73.99-.65,1-1.3,1.99-1.94,3.01-16.39,25.88-42.47,45.81-69.86,51.44-.89.18-1.77.35-2.66.5-1,.16-2,.31-3,.45-.5.06-1,.12-1.49.18-.5.06-1,.11-1.5.15-.24.02-.49.05-.73.06-.38.04-.75.07-1.13.09-.88.06-1.75.1-2.63.13-4.04.21-8.08.4-12.12.58-3.82.17-7.64.33-11.47.47-118.37,4.57-238.43-.51-350.92,40.49-.18.07-.36.14-.54.2-2.69,1.02-5.37,2.07-8.05,3.14-24.4,9.79-48.4,21.95-71.9,37.12-30.3,19.17-62.52,38.92-93,60.74-.1.07-.2.14-.29.2-59.35,44.13-111.48,96.46-133,168.27,0,.02,0,.03,0,.05-2.06,8.3-3.63,16.88-4.7,25.74-4.55,37.9,7.28,70.63,27.77,99.37.02.04.05.08.07.11,31.98,43.79,83.87,78.9,126.96,107.06,23.15,15.27,45.75,31.05,67.09,48.47,21.34,17.42,41.41,36.48,59.51,58.31,16.33,20.08,29.83,41.97,39.4,66.33,5.1,12.99,9.08,26.68,11.78,41.19.39,2.07.75,4.16,1.08,6.26.42,2.59.79,5.2,1.11,7.84.17,1.32.32,2.65.46,3.98.1.89.19,1.78.27,2.68.18,1.79.33,3.59.46,5.4.09,1.12.16,2.25.23,3.38,0,.04.01.08.01.12.05.9.1,1.81.15,2.72.02.47.04.95.06,1.42.02.5.05,1,.06,1.5.03.56.05,1.12.06,1.69.03.99.06,1.99.08,2.99.87,29.6.87,59.37.87,89.02v597.49c8.92,82.74-5.57,158.19-36.22,227.02-.03.05-.05.1-.07.15-26.17,63.27-65.44,121.69-116.19,171.5-7.33,7.22-14.77,14.19-22.3,20.98l-.03.03c-46.63,46.27-99.23,88.48-153.67,126.99-3.75,2.71-7.54,5.5-11.31,8.37h0c-8.71,7.92-17.28,16.1-25.68,24.63-11.58,12.19-23.53,25.11-30.41,39.46,0,0,0,.02,0,.02-3.57,9.28-5.31,19.11-4.58,29.52.69,10.31,2.91,19.98,6.38,29.08,0,0,0,.02.01.03.04.11.08.22.13.33,0,0,0,.02.01.03,15.07,37.15,48.67,64.52,83.59,89.53,1.13.8,2.26,1.61,3.4,2.42,5.49,3.9,11.01,7.75,16.48,11.58,1.02.71,2.05,1.42,3.08,2.13,1.02.71,2.05,1.42,3.08,2.13,3.09,2.13,6.19,4.26,9.3,6.38,3,2.04,6.01,4.09,9.02,6.13.18.13.36.25.53.37,3,2.04,6.02,4.07,9.03,6.1,93.57,63.05,192.6,126.65,234.86,222.92.48,1.08.95,2.16,1.41,3.25,12.5,29.27,19.76,61.52,20.05,97.59h1.37c5.42,51.36,25.06,99.26,52.64,143.57.13.23.27.45.41.67,18.09,28.56,39.46,55.64,62.22,81.45,92,103,188,186,267,304,73,108,141,235,97,360-9.62,27.91-30.36,48.41-47.06,73.99-.65,1-1.3,1.99-1.94,3.01-16.39,25.88-42.47,45.81-69.86,51.44-.89.18-1.77.35-2.66.5-1,.16-2,.31-3,.45-.5.06-1,.12-1.49.18-.5.06-1,.11-1.5.15-.24.02-.49.05-.73.06-.38.04-.75.07-1.13.09-.88.06-1.75.1-2.63.13-4.04.21-8.08.4-12.12.58-3.82.17-7.64.33-11.47.47-118.37,4.57-238.43-.51-350.92,40.49-.18.07-.36.14-.54.2-2.69,1.02-5.37,2.07-8.05,3.14-24.4,9.79-48.4,21.95-71.9,37.12-30.3,19.17-62.52,38.92-93,60.74-.1.07-.2.14-.29.2-59.35,44.13-111.48,96.46-133,168.27,0,.02,0,.03,0,.05-2.06,8.3-3.63,16.88-4.7,25.74-4.55,37.9,7.28,70.63,27.77,99.37.02.04.05.08.07.11,31.98,43.79,83.87,78.9,126.96,107.06,23.15,15.27,45.75,31.05,67.09,48.47,21.34,17.42,41.41,36.48,59.51,58.31,16.33,20.08,29.83,41.97,39.4,66.33,5.1,12.99,9.08,26.68,11.78,41.19.39,2.07.75,4.16,1.08,6.26.42,2.59.79,5.2,1.11,7.84.17,1.32.32,2.65.46,3.98.1.89.19,1.78.27,2.68.18,1.79.33,3.59.46,5.4.09,1.12.16,2.25.23,3.38,0,.04.01.08.01.12.05.9.1,1.81.15,2.72.02.47.04.95.06,1.42.02.5.05,1,.06,1.5.03.56.05,1.12.06,1.69.03.99.06,1.99.08,2.99.87,29.6.87,59.37.87,89.02v597.49c8.92,82.74-5.57,158.19-36.22,227.02-.03.05-.05.1-.07.15-26.17,63.27-65.44,121.69-116.19,171.5-7.33,7.22-14.77,14.19-22.3,20.98l-.03.03c-46.63,46.27-99.23,88.48-153.67,126.99-3.75,2.71-7.54,5.5-11.31,8.37h0c-8.71,7.92-17.28,16.1-25.68,24.63-11.58,12.19-23.53,25.11-30.41,39.46,0,0,0,.02,0,.02-3.57,9.28-5.31,19.11-4.58,29.52.69,10.31,2.91,19.98,6.38,29.08,0,0,0,.02.01.03.04.11.08.22.13.33,0,0,0,.02.01.03,15.07,37.15,48.67,64.52,83.59,89.53,1.13.8,2.26,1.61,3.4,2.42,5.49,3.9,11.01,7.75,16.48,11.58,1.02.71,2.05,1.42,3.08,2.13,1.02.71,2.05,1.42,3.08,2.13,3.09,2.13,6.19,4.26,9.3,6.38,3,2.04,6.01,4.09,9.02,6.13.18.13.36.25.53.37,3,2.04,6.02,4.07,9.03,6.1,93.57,63.05,192.6,126.65,234.86,222.92.48,1.08.95,2.16,1.41,3.25,12.5,29.27,19.76,61.52,20.05,97.59h620.36v-228.61c0-28.92,0-60.28-.55-93.46.24-3.97.43-7.92.55-11.86v-26.87h0v-1340.19h0v-116.87h0v-2148.76c.3-9.03.29-17.99,0-26.87Z"/>
  </g>
</svg>