<?xml version="1.0" encoding="UTF-8"?>
<svg id="Layer_2" data-name="Layer 2" xmlns="http://www.w3.org/2000/svg" viewBox="0 0 3393.76 1636.73">
  <defs>
    <style>
      .cls-1 {
        fill: #fff;
      }
    </style>
  </defs>
  <g id="Layer_1-2" data-name="Layer 1">
    <polyline points="0 705.25 690.37 748.55 1413.72 793.92 1413.73 793.92 1702.39 812.02 1536.76 919.07 850.77 1362.43 426.37 1636.73 0 1636.73 0 705.34"/>
    <polygon class="cls-1" points="1969.87 0 1741.99 691.81 1702.46 811.82 1702.39 812.02 1660.84 685.88 1434.92 0 1969.87 0"/>
    <polygon class="cls-1" points="3393.76 0 3393.76 846.04 2716.2 832.41 1962.32 817.25 1702.61 812.02 1702.39 812.02 1702.61 811.86 1812.88 733.75 2105.39 526.56 2529.85 225.9 2848.76 0 3393.76 0"/>
    <polygon class="cls-1" points="1702.39 812.02 0 812.02 0 0 736.37 0 926.18 159.55 1587.15 715.15 1587.16 715.15 1702.39 812.02"/>
    <polygon class="cls-1" points="1702.39 812.02 1639.7 978.26 1391.4 1636.73 426.37 1636.73 850.77 1362.43 1536.76 919.07 1702.39 812.02"/>
    <polygon class="cls-1" points="2773.28 1636.73 1937.87 1636.73 1748.12 972.18 1702.39 812.02 1841 918.77 2505.77 1430.72 2773.28 1636.73"/>
    <polygon points="2848.89 0 2529.88 225.94 1812.89 733.76 1702.61 811.86 1702.39 812.02 1702.46 811.82 1741.98 691.81 1969.81 0 2848.89 0"/>
    <polygon points="1702.39 812.02 1582.66 718.33 903.81 187.13 664.67 0 1477.31 0 1667.18 685 1702.39 812.02"/>
    <polygon points="1936.02 1636.73 1391.62 1636.73 1639.74 978.28 1702.39 812.02 1747.81 972.35 1936.02 1636.73"/>
    <polygon points="3393.76 845.39 3393.76 1636.73 2773.52 1636.73 2505.84 1430.63 1841.02 918.76 1702.39 812.02 1702.61 812.02 1962.34 817.15 2109.43 820.05 2716.2 832.02 3393.76 845.39"/>
  </g>
</svg>