<?xml version="1.0" encoding="UTF-8"?>
<svg id="Layer_2" data-name="Layer 2" xmlns="http://www.w3.org/2000/svg" viewBox="0 0 964.9 404.42">
  <defs>
    <style>
      .cls-1 {
        fill: #fff;
      }
    </style>
  </defs>
  <g id="Layer_1-2" data-name="Layer 1">
    <g>
      <path class="cls-1" d="m26.84,199.49c-7.48,0-14.1-2.66-19.14-7.71-5.04-5.03-7.71-11.65-7.71-19.14v-98.54c0-20.76,7.2-38.49,21.41-52.7C35.61,7.2,53.34,0,74.1,0s38.51,7.19,52.8,21.38c14.3,14.21,21.56,31.95,21.56,52.72s-7.24,38.53-21.53,52.82-32.06,21.53-52.82,21.53c-7.7,0-14.39-2.7-19.36-7.8-.28-.28-.54-.57-.81-.86v32.85c0,7.69-2.7,14.38-7.8,19.35-5.04,4.9-11.71,7.49-19.29,7.49ZM74.1,53.94c-5.75,0-10.29,1.87-14.3,5.87s-5.87,8.55-5.87,14.3v28.95c.29-.32.59-.64.9-.95,4.96-4.96,11.62-7.58,19.27-7.58,5.75,0,10.33-1.91,14.42-6,4.09-4.09,5.99-8.67,5.99-14.42s-1.89-10.25-5.95-14.25c-4.1-4.04-8.69-5.92-14.47-5.92Z"/>
      <path class="cls-1" d="m74.1,104.52c8.38,0,15.54-2.97,21.49-8.92,5.95-5.95,8.92-13.11,8.92-21.49s-2.98-15.5-8.92-21.37c-5.95-5.86-13.12-8.8-21.49-8.8s-15.5,2.93-21.37,8.8c-5.87,5.87-8.8,12.99-8.8,21.37v98.54c0,5.03-1.6,9.09-4.78,12.19-3.19,3.1-7.29,4.65-12.32,4.65s-8.88-1.59-12.07-4.78c-3.19-3.18-4.78-7.2-4.78-12.07v-98.54c0-18.1,6.16-33.31,18.48-45.63,12.32-12.32,27.53-18.48,45.63-18.48s33.35,6.16,45.75,18.48c12.4,12.32,18.6,27.53,18.6,45.63s-6.2,33.35-18.6,45.75-27.65,18.6-45.75,18.6c-5.03,0-9.09-1.59-12.19-4.78-3.1-3.18-4.65-7.29-4.65-12.32s1.55-9.09,4.65-12.19c3.1-3.1,7.16-4.65,12.19-4.65Z"/>
      <path class="cls-1" d="m168.87,199.49c-7.64,0-14.3-2.62-19.26-7.58-4.96-4.95-7.58-11.61-7.58-19.26V27.34c0-7.64,2.62-14.31,7.58-19.26,4.96-4.96,11.62-7.58,19.26-7.58,16.96,0,27.09,10.03,27.09,26.84v145.3c0,7.69-2.7,14.39-7.8,19.35-5.04,4.9-11.71,7.49-19.3,7.49Z"/>
      <path class="cls-1" d="m185.96,27.34v145.3c0,5.03-1.59,9.09-4.78,12.19-3.19,3.1-7.29,4.65-12.32,4.65s-9.09-1.55-12.19-4.65c-3.1-3.1-4.65-7.17-4.65-12.19V27.34c0-5.03,1.55-9.09,4.65-12.19,3.1-3.1,7.16-4.65,12.19-4.65,11.39,0,17.09,5.62,17.09,16.84Z"/>
      <path class="cls-1" d="m263.64,199.99c-20.78,0-38.52-7.25-52.72-21.56-14.19-14.28-21.38-32.04-21.38-52.8s7.2-38.49,21.41-52.7c14.2-14.2,31.93-21.41,52.7-21.41s38.51,7.19,52.8,21.38c14.3,14.21,21.56,31.95,21.56,52.72v47.01c0,7.69-2.7,14.39-7.8,19.35-5.04,4.9-11.71,7.49-19.3,7.49s-14.31-2.62-19.26-7.58c-1.66-1.66-3.06-3.51-4.18-5.52-1.17,2.15-2.65,4.13-4.42,5.9-5.05,5.04-11.75,7.71-19.39,7.71Zm0-94.52c-5.75,0-10.29,1.87-14.3,5.87-4,4-5.87,8.55-5.87,14.3s1.88,10.38,5.92,14.47c4,4.06,8.53,5.95,14.25,5.95,7.59,0,14.26,2.59,19.29,7.48.39.38.76.77,1.13,1.17v-29.07c0-5.72-1.89-10.24-5.95-14.25-4.09-4.03-8.69-5.92-14.47-5.92Z"/>
      <path class="cls-1" d="m263.64,189.99c-18.1,0-33.31-6.2-45.62-18.6-12.32-12.4-18.48-27.65-18.48-45.75s6.16-33.31,18.48-45.63c12.32-12.32,27.53-18.48,45.62-18.48s33.35,6.16,45.75,18.48c12.4,12.32,18.6,27.53,18.6,45.63v47.01c0,5.03-1.59,9.09-4.78,12.19-3.19,3.1-7.29,4.65-12.32,4.65s-9.09-1.55-12.19-4.65c-3.1-3.1-4.65-7.17-4.65-12.19v-47.01c0-8.38-2.98-15.5-8.92-21.37-5.95-5.86-13.12-8.8-21.49-8.8s-15.5,2.93-21.37,8.8c-5.87,5.87-8.8,12.99-8.8,21.37s2.93,15.55,8.8,21.49c5.87,5.95,12.99,8.92,21.37,8.92,5.03,0,9.13,1.55,12.32,4.65,3.18,3.1,4.78,7.16,4.78,12.19s-1.59,9.14-4.78,12.32c-3.19,3.18-7.29,4.78-12.32,4.78Z"/>
      <path class="cls-1" d="m394.61,254.79c-7.59,0-14.27-2.59-19.29-7.49-5.1-4.97-7.8-11.66-7.8-19.36s2.67-14.36,7.71-19.39c5.03-5.04,11.73-7.7,19.38-7.7h1.01c2.06,0,3.8-.49,5.4-1.56-1.71.13-3.42.2-5.15.2-18.1,0-33.5-6.23-45.79-18.52-12.28-12.28-18.51-27.68-18.51-45.78v-56.81c0-7.64,2.62-14.31,7.58-19.26,4.96-4.96,11.62-7.58,19.26-7.58,16.96,0,27.09,10.03,27.09,26.84v56.81c0,3.05.92,5.32,2.98,7.38,2.06,2.06,4.34,2.98,7.39,2.98s5.22-.9,7.18-2.9c2.02-2.07,2.93-4.37,2.93-7.46v-56.81c0-7.69,2.7-14.38,7.8-19.35,5.03-4.9,11.7-7.49,19.29-7.49s14.3,2.62,19.26,7.58c4.96,4.97,7.58,11.63,7.58,19.27v112.12c0,17.92-6.27,33.28-18.64,45.66-12.37,12.37-27.74,18.64-45.66,18.64h-1.01Z"/>
      <path class="cls-1" d="m395.86,189.49c-15.42,0-28.32-5.19-38.71-15.59-10.39-10.39-15.59-23.29-15.59-38.71v-56.81c0-5.03,1.55-9.09,4.65-12.19,3.1-3.1,7.16-4.65,12.19-4.65,11.39,0,17.09,5.62,17.09,16.84v56.81c0,5.7,1.97,10.52,5.91,14.46,3.94,3.94,8.76,5.91,14.46,5.91s10.47-1.97,14.33-5.91c3.85-3.94,5.78-8.76,5.78-14.46v-56.81c0-5.03,1.59-9.09,4.78-12.19,3.18-3.1,7.29-4.65,12.32-4.65s9.09,1.55,12.19,4.65c3.1,3.1,4.65,7.17,4.65,12.19v112.12c0,15.25-5.24,28.11-15.71,38.59-10.47,10.47-23.34,15.71-38.59,15.71h-1.01c-5.03,0-9.14-1.55-12.32-4.65-3.19-3.1-4.78-7.17-4.78-12.19s1.59-9.14,4.78-12.32c3.18-3.19,7.29-4.78,12.32-4.78h1.01c5.53,0,10.31-2.01,14.33-6.03s6.03-8.8,6.03-14.33v-4.78c-6.37,2.51-13.07,3.77-20.11,3.77Z"/>
      <path class="cls-1" d="m480.58,199.49c-7.64,0-14.3-2.62-19.26-7.58-4.96-4.96-7.58-11.62-7.58-19.26v-108.34c0-18.09,6.23-33.5,18.51-45.78,12.29-12.29,27.69-18.51,45.78-18.51s33.27,6.28,45.56,18.67c12.27,12.37,18.49,27.72,18.49,45.63v1.76c0,7.6-2.59,14.27-7.49,19.3-2.73,2.8-5.97,4.87-9.62,6.18,4.05,1.27,7.64,3.46,10.62,6.51,4.91,5.04,7.49,11.71,7.49,19.3s-2.62,14.3-7.58,19.26c-4.96,4.96-11.62,7.58-19.27,7.58h-48.57v28.46c0,7.69-2.7,14.38-7.8,19.35-5.04,4.9-11.71,7.49-19.29,7.49Zm62.15-109.24c-2.46-1.25-4.73-2.9-6.75-4.92-5.12-5.12-7.83-11.78-7.83-19.26v-1.76c0-3.09-.9-5.39-2.93-7.46-1.96-2-4.18-2.9-7.18-2.9s-5.32.92-7.38,2.98c-2.06,2.06-2.98,4.34-2.98,7.38v25.95h35.05Z"/>
      <path class="cls-1" d="m556.24,134.18h-58.57v38.46c0,5.03-1.6,9.09-4.78,12.19-3.19,3.1-7.29,4.65-12.32,4.65s-9.09-1.55-12.19-4.65c-3.1-3.1-4.65-7.17-4.65-12.19v-108.34c0-15.42,5.19-28.32,15.59-38.71,10.39-10.39,23.29-15.58,38.71-15.58s28.07,5.24,38.46,15.71c10.39,10.48,15.59,23.34,15.59,38.59v1.76c0,5.03-1.55,9.14-4.65,12.32-3.1,3.19-7.16,4.78-12.19,4.78s-8.92-1.63-12.19-4.9c-3.27-3.27-4.9-7.33-4.9-12.19v-1.76c0-5.7-1.93-10.51-5.78-14.45-3.86-3.94-8.63-5.91-14.33-5.91s-10.52,1.97-14.46,5.91c-3.94,3.94-5.91,8.76-5.91,14.45v35.95h58.57c5.03,0,9.09,1.59,12.19,4.78,3.1,3.19,4.65,7.29,4.65,12.32s-1.55,9.09-4.65,12.19c-3.1,3.1-7.16,4.65-12.19,4.65Z"/>
      <path class="cls-1" d="m640.45,199.49c-18.1,0-33.5-6.23-45.79-18.52-12.28-12.28-18.51-27.68-18.51-45.78v-56.31c0-7.59,2.59-14.27,7.49-19.29,4.97-5.1,11.67-7.8,19.36-7.8s14.34,2.66,19.38,7.7c5.05,5.05,7.71,11.75,7.71,19.39v56.31c0,3.05.92,5.33,2.97,7.38,2.06,2.06,4.34,2.98,7.39,2.98s5.22-.9,7.18-2.9c2.03-2.07,2.93-4.37,2.93-7.46v-56.81c0-7.69,2.7-14.39,7.8-19.35,5.03-4.9,11.7-7.49,19.3-7.49s14.29,2.62,19.26,7.57c4.97,4.97,7.58,11.63,7.58,19.27v56.81c0,17.91-6.22,33.27-18.49,45.63-12.29,12.39-27.62,18.67-45.56,18.67Z"/>
      <path class="cls-1" d="m620.09,78.88v56.31c0,5.7,1.97,10.52,5.91,14.46,3.94,3.94,8.76,5.91,14.46,5.91s10.47-1.97,14.33-5.91c3.85-3.94,5.78-8.76,5.78-14.46v-56.81c0-5.03,1.59-9.09,4.78-12.19,3.18-3.1,7.29-4.65,12.32-4.65s9.09,1.55,12.19,4.65c3.1,3.1,4.65,7.17,4.65,12.19v56.81c0,15.25-5.2,28.12-15.59,38.59-10.39,10.48-23.21,15.71-38.46,15.71s-28.32-5.19-38.71-15.59c-10.39-10.39-15.59-23.29-15.59-38.71v-56.31c0-5.03,1.55-9.13,4.65-12.32,3.1-3.18,7.17-4.78,12.19-4.78s9.13,1.59,12.32,4.78c3.18,3.18,4.78,7.29,4.78,12.32Z"/>
      <path class="cls-1" d="m725.17,199.49c-7.64,0-14.3-2.62-19.26-7.58-4.96-4.95-7.58-11.61-7.58-19.26V27.34c0-7.64,2.62-14.31,7.58-19.26,4.96-4.96,11.62-7.58,19.26-7.58,16.96,0,27.09,10.03,27.09,26.84v145.3c0,7.69-2.7,14.39-7.8,19.35-5.04,4.9-11.71,7.49-19.3,7.49Z"/>
      <path class="cls-1" d="m742.26,27.34v145.3c0,5.03-1.59,9.09-4.78,12.19-3.19,3.1-7.29,4.65-12.32,4.65s-9.09-1.55-12.19-4.65c-3.1-3.1-4.65-7.17-4.65-12.19V27.34c0-5.03,1.55-9.09,4.65-12.19,3.1-3.1,7.16-4.65,12.19-4.65,11.39,0,17.09,5.62,17.09,16.84Z"/>
    </g>
    <g>
      <path d="m74.1,104.52c8.38,0,15.54-2.97,21.49-8.92,5.95-5.95,8.92-13.11,8.92-21.49s-2.98-15.5-8.92-21.37c-5.95-5.86-13.12-8.8-21.49-8.8s-15.5,2.93-21.37,8.8c-5.87,5.87-8.8,12.99-8.8,21.37v98.54c0,5.03-1.6,9.09-4.78,12.19-3.19,3.1-7.29,4.65-12.32,4.65s-8.88-1.59-12.07-4.78c-3.19-3.18-4.78-7.2-4.78-12.07v-98.54c0-18.1,6.16-33.31,18.48-45.63,12.32-12.32,27.53-18.48,45.63-18.48s33.35,6.16,45.75,18.48c12.4,12.32,18.6,27.53,18.6,45.63s-6.2,33.35-18.6,45.75-27.65,18.6-45.75,18.6c-5.03,0-9.09-1.59-12.19-4.78-3.1-3.18-4.65-7.29-4.65-12.32s1.55-9.09,4.65-12.19c3.1-3.1,7.16-4.65,12.19-4.65Z"/>
      <path d="m185.96,27.34v145.3c0,5.03-1.59,9.09-4.78,12.19-3.19,3.1-7.29,4.65-12.32,4.65s-9.09-1.55-12.19-4.65c-3.1-3.1-4.65-7.17-4.65-12.19V27.34c0-5.03,1.55-9.09,4.65-12.19,3.1-3.1,7.16-4.65,12.19-4.65,11.39,0,17.09,5.62,17.09,16.84Z"/>
      <path d="m263.64,189.99c-18.1,0-33.31-6.2-45.62-18.6-12.32-12.4-18.48-27.65-18.48-45.75s6.16-33.31,18.48-45.63c12.32-12.32,27.53-18.48,45.62-18.48s33.35,6.16,45.75,18.48c12.4,12.32,18.6,27.53,18.6,45.63v47.01c0,5.03-1.59,9.09-4.78,12.19-3.19,3.1-7.29,4.65-12.32,4.65s-9.09-1.55-12.19-4.65c-3.1-3.1-4.65-7.17-4.65-12.19v-47.01c0-8.38-2.98-15.5-8.92-21.37-5.95-5.86-13.12-8.8-21.49-8.8s-15.5,2.93-21.37,8.8c-5.87,5.87-8.8,12.99-8.8,21.37s2.93,15.55,8.8,21.49c5.87,5.95,12.99,8.92,21.37,8.92,5.03,0,9.13,1.55,12.32,4.65,3.18,3.1,4.78,7.16,4.78,12.19s-1.59,9.14-4.78,12.32c-3.19,3.18-7.29,4.78-12.32,4.78Z"/>
      <path d="m395.86,189.49c-15.42,0-28.32-5.19-38.71-15.59-10.39-10.39-15.59-23.29-15.59-38.71v-56.81c0-5.03,1.55-9.09,4.65-12.19,3.1-3.1,7.16-4.65,12.19-4.65,11.39,0,17.09,5.62,17.09,16.84v56.81c0,5.7,1.97,10.52,5.91,14.46,3.94,3.94,8.76,5.91,14.46,5.91s10.47-1.97,14.33-5.91c3.85-3.94,5.78-8.76,5.78-14.46v-56.81c0-5.03,1.59-9.09,4.78-12.19,3.18-3.1,7.29-4.65,12.32-4.65s9.09,1.55,12.19,4.65c3.1,3.1,4.65,7.17,4.65,12.19v112.12c0,15.25-5.24,28.11-15.71,38.59-10.47,10.47-23.34,15.71-38.59,15.71h-1.01c-5.03,0-9.14-1.55-12.32-4.65-3.19-3.1-4.78-7.17-4.78-12.19s1.59-9.14,4.78-12.32c3.18-3.19,7.29-4.78,12.32-4.78h1.01c5.53,0,10.31-2.01,14.33-6.03s6.03-8.8,6.03-14.33v-4.78c-6.37,2.51-13.07,3.77-20.11,3.77Z"/>
      <path d="m556.24,134.18h-58.57v38.46c0,5.03-1.6,9.09-4.78,12.19-3.19,3.1-7.29,4.65-12.32,4.65s-9.09-1.55-12.19-4.65c-3.1-3.1-4.65-7.17-4.65-12.19v-108.34c0-15.42,5.19-28.32,15.59-38.71,10.39-10.39,23.29-15.58,38.71-15.58s28.07,5.24,38.46,15.71c10.39,10.48,15.59,23.34,15.59,38.59v1.76c0,5.03-1.55,9.14-4.65,12.32-3.1,3.19-7.16,4.78-12.19,4.78s-8.92-1.63-12.19-4.9c-3.27-3.27-4.9-7.33-4.9-12.19v-1.76c0-5.7-1.93-10.51-5.78-14.45-3.86-3.94-8.63-5.91-14.33-5.91s-10.52,1.97-14.46,5.91c-3.94,3.94-5.91,8.76-5.91,14.45v35.95h58.57c5.03,0,9.09,1.59,12.19,4.78,3.1,3.19,4.65,7.29,4.65,12.32s-1.55,9.09-4.65,12.19c-3.1,3.1-7.16,4.65-12.19,4.65Z"/>
      <path d="m620.09,78.88v56.31c0,5.7,1.97,10.52,5.91,14.46,3.94,3.94,8.76,5.91,14.46,5.91s10.47-1.97,14.33-5.91c3.85-3.94,5.78-8.76,5.78-14.46v-56.81c0-5.03,1.59-9.09,4.78-12.19,3.18-3.1,7.29-4.65,12.32-4.65s9.09,1.55,12.19,4.65c3.1,3.1,4.65,7.17,4.65,12.19v56.81c0,15.25-5.2,28.12-15.59,38.59-10.39,10.48-23.21,15.71-38.46,15.71s-28.32-5.19-38.71-15.59c-10.39-10.39-15.59-23.29-15.59-38.71v-56.31c0-5.03,1.55-9.13,4.65-12.32,3.1-3.18,7.17-4.78,12.19-4.78s9.13,1.59,12.32,4.78c3.18,3.18,4.78,7.29,4.78,12.32Z"/>
      <path d="m742.26,27.34v145.3c0,5.03-1.59,9.09-4.78,12.19-3.19,3.1-7.29,4.65-12.32,4.65s-9.09-1.55-12.19-4.65c-3.1-3.1-4.65-7.17-4.65-12.19V27.34c0-5.03,1.55-9.09,4.65-12.19,3.1-3.1,7.16-4.65,12.19-4.65,11.39,0,17.09,5.62,17.09,16.84Z"/>
    </g>
    <g>
      <path d="m426.45,353.65c-5.1,0-10.33-1.13-14.72-3.18l-.1-.05c-8.5-4.13-13.18-11.66-13.18-21.21,0-5.26,1.57-9.87,2.16-11.61l.09-.26c1.38-4.16,4.78-7.16,8.85-7.84l.57-.1h.58c2.62,0,5.07,1.08,6.73,2.96,1.67,1.89,2.42,4.39,2.12,7.06.06.42.66,1.66,1.75,1.84.39.06.89.1,1.38.1,7.12,0,15.28-7.52,22.73-20.79-.28.01-.56.02-.85.02-2.95,0-5.83-.78-8.34-2.25-5.19-2.85-8.17-8.19-8.17-14.7s3.09-13.4,8.28-18.31c7.97-7.77,19.68-12.09,32.88-12.09h.16l2.5-5.11c19.43-38.35,41.54-52.49,47.85-55.91,22-12.17,40.36-14.1,52.25-14.49h.23c3.41,0,6.95.2,9.58,2.5,4.92,4.04,2.23,9.96,1.2,12.22l-.11.25-.13.24c-8.12,14.73-18.91,44.68-23.8,73.4-7.77,43.37-7.05,73.51-7.04,73.81v.19c0,3.69-1.91,9.94-9.1,9.94h-23.94c-2.43,0-4.78-1.13-6.45-3.11-1.8-2.12-2.58-4.88-2.13-7.56l.17-1.04.16-.32c.21-1.06.62-3.82.62-7.58,0-9.59-2.57-23.67-14.82-36.28l-.08-.08c-1.15-1.22-2.47-2.4-3.91-3.49l-8.71,16.82c-21.03,41.51-47.04,45.99-57.25,45.99Zm79.95-90.55c1.95,1.07,3.87,2.24,5.67,3.56l.09.07c3.88,2.94,7.25,5.71,10.23,8.43.04-.17.57-2.38.57-2.38,6.62-26.63,16.55-49.41,25.58-66.57-3.05,1.81-5.9,3.84-8.56,6.12-13.11,10.89-21.01,26.24-30.16,44l-1.56,3.03-1.88,3.75Z"/>
      <path d="m576.61,189.57c-9.03,16.38-19.74,47.25-24.57,75.6-7.98,44.52-7.14,75.18-7.14,75.18,0,1.47-.21,2.94-2.1,2.94h-23.94c-.84,0-1.89-1.26-1.68-2.52.21-.42,1.05-4.41,1.05-10.08,0-10.29-2.73-26.67-16.8-41.16-3.36-3.57-7.56-6.51-11.76-8.61l-12.18,23.52c-16.17,31.92-36.33,42.21-51.03,42.21-4.41,0-8.61-1.05-11.76-2.52-7.35-3.57-9.24-9.66-9.24-14.91,0-4.41,1.47-8.4,1.89-9.66.63-1.89,2.1-2.94,3.36-3.15,1.05,0,2.1.63,1.89,2.31-.42,3.57,2.52,8.61,7.56,9.45,8.19,1.26,20.79-3.15,33.6-28.35l12.6-25.2c-4.83-.42-8.4,0-9.66,1.05-1.05.84-1.47,1.68-1.68,2.52-.63,2.73,1.89,5.25-.42,9.24-2.73,5.25-9.66,7.98-14.91,4.83-3.15-1.68-4.62-4.83-4.62-8.61,0-4.41,2.1-9.45,6.09-13.23,8.19-7.98,20.16-10.71,31.08-10.08h1.47l4.41-9.03c16.17-31.92,34.86-47.46,44.94-52.92,19.74-10.92,36.33-13.23,49.14-13.65,2.73,0,4.41.21,5.04.84.84.63.42,1.68-.63,3.99Zm-14.49,3.15c-10.92,3.36-19.53,8.19-26.67,14.28-14.91,12.39-23.31,29.61-33.39,49.14l-5.04,10.08c3.99,1.89,7.77,3.78,10.92,6.09,6.93,5.25,13.23,10.71,18.48,17.22.84-4.83,2.1-9.87,3.36-15.12,9.03-36.33,24.15-64.47,32.97-79.17,2.1-3.15,1.26-3.15-.63-2.52Z"/>
      <path d="m560.4,403.31c-1.83,0-3.58-.13-5.23-.38-12.25-1.75-20.22-10.24-20.22-21.62,0-4.09,1.18-8.57,3.61-13.71l.07-.14.07-.14c4.21-7.96,12.76-14.16,21.92-19.06-.1-.06-.2-.13-.29-.19-3.82-2.55-8.37-7.88-8.37-18.85s4.64-24.85,9.24-33.36c11.44-21.53,34.02-43.36,55.02-43.36h.37c3.98,0,7.02.79,9.33,1.92,1.07-.43,2.22-.66,3.4-.66h14.91c2.68,0,5.05,1.17,6.52,3.2,2.37,3.29,1.19,6.8.75,8.12l-.1.29-23.7,54.67c3.16-2.08,6.25-4.79,8.96-8.56,4.06-5.6,7.42-12.31,9.25-15.97,1.55-3.25,4.81-5.27,8.55-5.27,3.12,0,6.54,1.4,9.15,3.75,3.9,3.41,6.53,10.28,3.89,16.69l-.05.13-.06.12c-3.09,6.75-6.27,12.35-9.71,17.14-9.31,12.75-24.47,21.82-46.31,27.69l-11.2,23.9c-7.85,16.35-25.62,23.65-39.77,23.65Zm9.48-32.82c-4.09,2.07-6.74,3.93-7.85,5.2.52-.04,1.07-.14,1.59-.29,1.95-.51,4.11-1.51,6.26-4.91Zm18.38-53.54c1.89,0,5.71-1.28,8.07-6.06l15.07-32.79c-5.04,2.6-12.15,8.83-18,20.8l-.06.12c-4.63,9.03-5.32,14.24-5.32,16.55,0,.62.05,1.07.11,1.37.04,0,.08,0,.12,0Z"/>
      <path d="m652.01,323.97c-9.66,13.23-26.04,21-45.57,25.83l-12.6,26.88c-7.56,15.75-26.67,21-37.59,19.32-8.82-1.26-14.28-6.93-14.28-14.7,0-3.15,1.05-6.72,2.94-10.71,7.77-14.7,37.38-23.94,45.99-28.14l5.04-10.29c-5.04,5.46-15.96,11.97-24.78,11.97-2.52,0-5.04-.63-6.93-1.89-3.78-2.52-5.25-7.35-5.25-13.02,0-9.87,4.2-22.26,8.4-30.03,10.71-20.16,31.29-39.9,49.14-39.69,8.4,0,9.66,4.62,9.66,4.62l1.05-1.89c.21-.63,1.05-1.47,2.1-1.47h14.91c1.26,0,1.05.84.63,2.1l-30.87,71.19c6.09-2.94,19.11-5.67,28.35-18.48,4.41-6.09,7.98-13.23,9.87-17.01,1.05-2.31,4.62-1.26,6.72.63,1.68,1.47,3.57,5.25,2.1,8.82-2.31,5.04-5.25,10.71-9.03,15.96Zm-67.83,33.39c-11.55,3.57-26.88,10.08-29.19,16.59-3.15,7.98,4.41,9.87,10.5,8.19,4.83-1.26,8.82-4.41,11.97-10.92l6.72-13.86Zm35.28-80.01c2.1-4.83.42-7.77-3.15-7.77-7.35,0-20.16,7.77-29.19,26.25-4.2,8.19-6.09,14.91-6.09,19.74,0,4.2,1.47,7.14,4.41,7.98,4.83,1.47,13.02-1.05,17.22-9.66l16.8-36.54Z"/>
      <path d="m675.11,353.02c-22.84,0-37.03-12.82-37.03-33.46,0-14.34,7.69-31.14,20.57-44.94,13.37-14.33,29.4-22.54,43.97-22.54,19.16,0,20.65,13.4,20.65,17.5,0,23.53-28.49,44.9-47.77,52.64.12.65.33,1.25.69,1.63.78.82,2.81,1.31,5.43,1.31,8.8,0,15.97-6.25,19.46-9.97l.16-.16c3.07-3.06,5.09-6.47,7.44-10.41.79-1.33,1.6-2.69,2.47-4.07,2.1-3.46,5.03-5.22,8.69-5.22,7.2,0,13.51,6.71,13.51,14.35s-6.1,16.15-12.06,23.51l-.13.15c-10.71,12.5-27.5,19.67-46.06,19.67Z"/>
      <path d="m715.85,328.8c-10.08,11.76-25.41,17.22-40.74,17.22-16.38,0-30.03-7.77-30.03-26.46,0-26.46,30.66-60.48,57.54-60.48,7.14,0,13.65,2.31,13.65,10.5,0,21-29.61,42.21-47.67,47.67l-.21,2.31c-.42,8.82,4.62,12.6,13.23,12.6,9.66,0,18.27-5.46,24.57-12.18,4.83-4.83,7.35-10.08,10.92-15.75.63-1.05,1.26-1.89,2.73-1.89,3.57,0,6.51,3.78,6.51,7.35,0,5.88-6.93,14.7-10.5,19.11Zm-12.6-60.06c-11.13,0-28.77,28.98-32.13,38.22,11.34-5.25,35.7-21,35.7-34.86,0-2.1-1.26-3.36-3.57-3.36Z"/>
      <path d="m768.35,351.55c-2.81,0-5.44-.27-7.82-.8-10.98-2.58-18.29-12.07-18.29-23.63,0-5.03,1.36-10.43,4.04-16.04l9.04-18.72c1.24-2.48,2.06-4.7,2.58-6.55-.96,1.01-2.05,2.3-3.28,3.93-3.54,4.85-6.47,9.42-9.95,16.99l-17.4,37.52c-.69,1.61-2.72,6.04-9.12,6.04h-16.59c-4.38,0-6.49-2.64-7.19-3.77-.7-1.13-2.1-4.17-.18-8.13l36.18-78.43c.85-2.18,3.28-6.2,9.62-6.2h11.97c2.48,0,5,1.17,6.73,3.05,4.08-2.03,8.88-3.49,14.21-3.49.38,0,.76,0,1.14.02,6.12.16,11.53,2.62,15.23,6.94,4.19,4.89,5.94,11.85,4.93,19.6-.75,6.43-4.35,14.32-8.17,22.66-2.67,5.84-5.9,12.91-6.71,17.04,3.85-1.11,10.62-8,18.63-24.68l.11-.22.12-.22c1.53-2.67,4.38-4.27,7.64-4.27s6.67,1.51,9.44,4.03c4.72,4.25,6.23,10.59,3.92,16.54l-.06.15-.07.15c-16.64,37.58-43.02,40.5-50.71,40.5Z"/>
      <path d="m768.35,344.55c-2.31,0-4.41-.21-6.3-.63-7.14-1.68-12.81-7.77-12.81-16.8,0-3.78,1.05-8.19,3.36-13.02l9.03-18.69c4.62-9.24,5.46-18.27,1.89-19.53-3.99-1.68-9.45,2.94-14.49,9.66-3.99,5.46-7.14,10.5-10.71,18.27l-17.43,37.59c-.63,1.47-1.05,1.89-2.73,1.89h-16.59c-1.68,0-1.47-1.05-1.05-1.89l36.33-78.75c.42-1.26,1.26-1.89,3.15-1.89h11.97c.84,0,2.52,1.05,1.89,2.52l-3.78,9.03c5.04-5.88,13.86-12.39,23.73-11.97,9.24.21,14.91,7.56,13.44,18.69-1.26,11.13-15.12,32.34-15.12,42.21,0,2.52.84,4.41,3.15,5.04,10.71,3.36,21.21-12.18,28.98-28.35.84-1.47,3.99-.63,6.3,1.47,2.1,1.89,3.57,5.04,2.1,8.82-12.18,27.51-30.87,36.33-44.31,36.33Z"/>
      <path d="m826.73,353.02c-22.62,0-37.24-13.55-37.24-34.51,0-14.29,7.79-30.92,20.83-44.49,13.41-13.94,29.42-21.94,43.92-21.94,12.21,0,21.07,8.07,21.07,19.18s-9.2,26.95-21.91,26.95c-6.25,0-11.34-4.03-12.72-9.61-.91,1.27-1.83,2.63-2.76,4.1-6.83,10.77-10.91,22.12-10.91,26.86,0,5.12,1.71,5.6,6.23,5.6,8.48,0,15.82-6.22,19.47-9.98,2.99-3.28,5.01-6.64,7.35-10.54.8-1.33,1.62-2.69,2.5-4.09,2.76-4.53,6.62-5.21,8.69-5.21,7.31,0,13.72,6.71,13.72,14.35,0,2.28,0,9.2-12.4,23.67-10.71,12.5-27.42,19.67-45.85,19.67Z"/>
      <path d="m867.26,328.8c-10.08,11.76-25.2,17.22-40.53,17.22-16.59,0-30.24-8.82-30.24-27.51,0-26.46,31.08-59.43,57.75-59.43,7.35,0,14.07,4.2,14.07,12.18,0,7.35-6.72,19.95-14.91,19.95-3.36,0-6.09-2.31-6.09-5.67,0-6.93,7.14-14.28,14.07-13.02,0-3.36-3.36-3.78-5.88-3.78-15.33,0-35.49,36.96-35.49,50.82,0,8.82,4.62,12.6,13.23,12.6,9.45,0,18.06-5.46,24.57-12.18,4.62-5.04,7.14-10.08,10.71-15.75.63-1.05,1.47-1.89,2.73-1.89,3.57,0,6.72,3.78,6.72,7.35,0,5.88-6.93,14.7-10.71,19.11Z"/>
      <path d="m857.06,404.42c-2.06,0-4.07-.15-5.97-.44-12.06-2.01-19.8-10.65-19.8-22.04,0-4.63,1.37-9.68,3.96-14.6,4.87-9.47,16.07-16.45,27.08-21.73-1.63-.98-3.11-2.2-4.41-3.65-2.93-3.28-6.21-9.17-5.17-18.67.51-5.53,5-13.92,12.25-27.12,3.97-7.22,8.07-14.68,9.99-19.56.38-1.1.59-1.89.71-2.43-3.68-4.46-4.06-10.65-.86-16.26l.1-.17.1-.16c3.64-5.63,9.94-9.12,16.44-9.12.53,0,1.06.02,1.59.07l.22.02c6.47.77,10,3.96,11.83,6.51,3.09,4.31,3.89,10.11,2.38,17.23-1.59,7.96-7.37,20.21-12.47,31.02-2.33,4.95-5.44,11.52-6.36,14.28.9-.51,2.15-1.52,3.63-3.35,10.11-22.39,23.52-51.94,24.77-54.69,1.37-3.43,4.82-5.78,8.57-5.78h14.91c2.94,0,5.45,1.34,6.89,3.68,1.06,1.71,1.92,4.54.1,8.35l-23.52,54.24c3.16-2.08,6.25-4.79,8.96-8.56,4.12-5.69,7.68-12.41,9.46-15.97,1.55-3.25,4.78-5.27,8.48-5.27,3.08,0,6.37,1.37,9.01,3.75,3.9,3.41,6.53,10.28,3.89,16.69-2.73,6.54-6.05,12.41-9.89,17.48-9.29,12.69-24.44,21.74-46.25,27.6l-11.2,23.9c-8.6,18.26-26.01,24.76-39.44,24.76Zm9.35-34.03c-4.21,2.11-6.93,4.02-8.06,5.3.52-.04,1.06-.14,1.59-.29l.16-.04c2.21-.55,4.18-1.67,6.3-4.97Z"/>
      <path d="m948.33,323.97c-9.66,13.23-26.04,21-45.57,25.83l-12.6,26.88c-8.61,18.27-27.09,22.05-38.01,20.37-8.82-1.47-13.86-7.35-13.86-15.12,0-3.36,1.05-7.35,3.15-11.34,7.56-14.7,37.38-23.94,45.78-28.14.42-.84,1.89-3.99,3.99-8.61-5.25,4.41-12.39,7.56-18.48,7.56-7.77,0-14.28-6.09-13.02-17.43.63-7.56,17.01-32.55,21.84-44.94,1.47-4.2,1.89-7.35.21-8.61-2.73-2.52-2.52-6.09-.84-9.03,2.31-3.57,6.72-6.3,11.55-5.88,8.82,1.05,9.66,8.4,8.19,15.33-2.52,12.6-18.06,40.11-19.11,46.41-1.05,5.67,3.15,7.77,5.88,7.77,3.15,0,6.93-1.89,10.92-7.14,10.71-23.73,25.2-55.65,25.2-55.65.21-.63,1.05-1.47,2.1-1.47h14.91c1.26,0,1.26.84.63,2.1l-30.87,71.19c6.09-2.94,19.11-5.67,28.35-18.48,4.41-6.09,8.19-13.23,10.08-17.01,1.05-2.31,4.41-1.26,6.51.63,1.68,1.47,3.57,5.25,2.1,8.82-2.1,5.04-5.04,10.71-9.03,15.96Zm-67.83,33.39c-11.55,3.57-26.88,10.08-29.19,16.59-2.94,7.98,4.41,9.87,10.5,8.19,5.04-1.26,8.82-4.41,12.18-10.92l6.51-13.86Z"/>
      <rect x="395.09" y="362.13" width="546.79" height="18.2"/>
      <path d="m402.09,373.32v-4.2h532.79v4.2H402.09Z"/>
    </g>
    <g>
      <path class="cls-1" d="m576.59,189.57c-9.03,16.38-19.74,47.25-24.57,75.6-7.98,44.52-7.14,75.18-7.14,75.18,0,1.47-.21,2.94-2.1,2.94h-23.94c-.84,0-1.89-1.26-1.68-2.52.21-.42,1.05-4.41,1.05-10.08,0-10.29-2.73-26.67-16.8-41.16-3.36-3.57-7.56-6.51-11.76-8.61l-12.18,23.52c-16.17,31.92-36.33,42.21-51.03,42.21-4.41,0-8.61-1.05-11.76-2.52-7.35-3.57-9.24-9.66-9.24-14.91,0-4.41,1.47-8.4,1.89-9.66.63-1.89,2.1-2.94,3.36-3.15,1.05,0,2.1.63,1.89,2.31-.42,3.57,2.52,8.61,7.56,9.45,8.19,1.26,20.79-3.15,33.6-28.35l12.6-25.2c-4.83-.42-8.4,0-9.66,1.05-1.05.84-1.47,1.68-1.68,2.52-.63,2.73,1.89,5.25-.42,9.24-2.73,5.25-9.66,7.98-14.91,4.83-3.15-1.68-4.62-4.83-4.62-8.61,0-4.41,2.1-9.45,6.09-13.23,8.19-7.98,20.16-10.71,31.08-10.08h1.47l4.41-9.03c16.17-31.92,34.86-47.46,44.94-52.92,19.74-10.92,36.33-13.23,49.14-13.65,2.73,0,4.41.21,5.04.84.84.63.42,1.68-.63,3.99Zm-14.49,3.15c-10.92,3.36-19.53,8.19-26.67,14.28-14.91,12.39-23.31,29.61-33.39,49.14l-5.04,10.08c3.99,1.89,7.77,3.78,10.92,6.09,6.93,5.25,13.23,10.71,18.48,17.22.84-4.83,2.1-9.87,3.36-15.12,9.03-36.33,24.15-64.47,32.97-79.17,2.1-3.15,1.26-3.15-.63-2.52Z"/>
      <path class="cls-1" d="m651.99,323.97c-9.66,13.23-26.04,21-45.57,25.83l-12.6,26.88c-7.56,15.75-26.67,21-37.59,19.32-8.82-1.26-14.28-6.93-14.28-14.7,0-3.15,1.05-6.72,2.94-10.71,7.77-14.7,37.38-23.94,45.99-28.14l5.04-10.29c-5.04,5.46-15.96,11.97-24.78,11.97-2.52,0-5.04-.63-6.93-1.89-3.78-2.52-5.25-7.35-5.25-13.02,0-9.87,4.2-22.26,8.4-30.03,10.71-20.16,31.29-39.9,49.14-39.69,8.4,0,9.66,4.62,9.66,4.62l1.05-1.89c.21-.63,1.05-1.47,2.1-1.47h14.91c1.26,0,1.05.84.63,2.1l-30.87,71.19c6.09-2.94,19.11-5.67,28.35-18.48,4.41-6.09,7.98-13.23,9.87-17.01,1.05-2.31,4.62-1.26,6.72.63,1.68,1.47,3.57,5.25,2.1,8.82-2.31,5.04-5.25,10.71-9.03,15.96Zm-67.83,33.39c-11.55,3.57-26.88,10.08-29.19,16.59-3.15,7.98,4.41,9.87,10.5,8.19,4.83-1.26,8.82-4.41,11.97-10.92l6.72-13.86Zm35.28-80.01c2.1-4.83.42-7.77-3.15-7.77-7.35,0-20.16,7.77-29.19,26.25-4.2,8.19-6.09,14.91-6.09,19.74,0,4.2,1.47,7.14,4.41,7.98,4.83,1.47,13.02-1.05,17.22-9.66l16.8-36.54Z"/>
      <path class="cls-1" d="m715.83,328.8c-10.08,11.76-25.41,17.22-40.74,17.22-16.38,0-30.03-7.77-30.03-26.46,0-26.46,30.66-60.48,57.54-60.48,7.14,0,13.65,2.31,13.65,10.5,0,21-29.61,42.21-47.67,47.67l-.21,2.31c-.42,8.82,4.62,12.6,13.23,12.6,9.66,0,18.27-5.46,24.57-12.18,4.83-4.83,7.35-10.08,10.92-15.75.63-1.05,1.26-1.89,2.73-1.89,3.57,0,6.51,3.78,6.51,7.35,0,5.88-6.93,14.7-10.5,19.11Zm-12.6-60.06c-11.13,0-28.77,28.98-32.13,38.22,11.34-5.25,35.7-21,35.7-34.86,0-2.1-1.26-3.36-3.57-3.36Z"/>
      <path class="cls-1" d="m768.33,344.55c-2.31,0-4.41-.21-6.3-.63-7.14-1.68-12.81-7.77-12.81-16.8,0-3.78,1.05-8.19,3.36-13.02l9.03-18.69c4.62-9.24,5.46-18.27,1.89-19.53-3.99-1.68-9.45,2.94-14.49,9.66-3.99,5.46-7.14,10.5-10.71,18.27l-17.43,37.59c-.63,1.47-1.05,1.89-2.73,1.89h-16.59c-1.68,0-1.47-1.05-1.05-1.89l36.33-78.75c.42-1.26,1.26-1.89,3.15-1.89h11.97c.84,0,2.52,1.05,1.89,2.52l-3.78,9.03c5.04-5.88,13.86-12.39,23.73-11.97,9.24.21,14.91,7.56,13.44,18.69-1.26,11.13-15.12,32.34-15.12,42.21,0,2.52.84,4.41,3.15,5.04,10.71,3.36,21.21-12.18,28.98-28.35.84-1.47,3.99-.63,6.3,1.47,2.1,1.89,3.57,5.04,2.1,8.82-12.18,27.51-30.87,36.33-44.31,36.33Z"/>
      <path class="cls-1" d="m867.24,328.8c-10.08,11.76-25.2,17.22-40.53,17.22-16.59,0-30.24-8.82-30.24-27.51,0-26.46,31.08-59.43,57.75-59.43,7.35,0,14.07,4.2,14.07,12.18,0,7.35-6.72,19.95-14.91,19.95-3.36,0-6.09-2.31-6.09-5.67,0-6.93,7.14-14.28,14.07-13.02,0-3.36-3.36-3.78-5.88-3.78-15.33,0-35.49,36.96-35.49,50.82,0,8.82,4.62,12.6,13.23,12.6,9.45,0,18.06-5.46,24.57-12.18,4.62-5.04,7.14-10.08,10.71-15.75.63-1.05,1.47-1.89,2.73-1.89,3.57,0,6.72,3.78,6.72,7.35,0,5.88-6.93,14.7-10.71,19.11Z"/>
      <path class="cls-1" d="m948.31,323.97c-9.66,13.23-26.04,21-45.57,25.83l-12.6,26.88c-8.61,18.27-27.09,22.05-38.01,20.37-8.82-1.47-13.86-7.35-13.86-15.12,0-3.36,1.05-7.35,3.15-11.34,7.56-14.7,37.38-23.94,45.78-28.14.42-.84,1.89-3.99,3.99-8.61-5.25,4.41-12.39,7.56-18.48,7.56-7.77,0-14.28-6.09-13.02-17.43.63-7.56,17.01-32.55,21.84-44.94,1.47-4.2,1.89-7.35.21-8.61-2.73-2.52-2.52-6.09-.84-9.03,2.31-3.57,6.72-6.3,11.55-5.88,8.82,1.05,9.66,8.4,8.19,15.33-2.52,12.6-18.06,40.11-19.11,46.41-1.05,5.67,3.15,7.77,5.88,7.77,3.15,0,6.93-1.89,10.92-7.14,10.71-23.73,25.2-55.65,25.2-55.65.21-.63,1.05-1.47,2.1-1.47h14.91c1.26,0,1.26.84.63,2.1l-30.87,71.19c6.09-2.94,19.11-5.67,28.35-18.48,4.41-6.09,8.19-13.23,10.08-17.01,1.05-2.31,4.41-1.26,6.51.63,1.68,1.47,3.57,5.25,2.1,8.82-2.1,5.04-5.04,10.71-9.03,15.96Zm-67.83,33.39c-11.55,3.57-26.88,10.08-29.19,16.59-2.94,7.98,4.41,9.87,10.5,8.19,5.04-1.26,8.82-4.41,12.18-10.92l6.51-13.86Z"/>
      <path class="cls-1" d="m402.07,373.32v-4.2h532.79v4.2H402.07Z"/>
    </g>
  </g>
</svg>