<?xml version="1.0" encoding="UTF-8"?>
<svg xmlns="http://www.w3.org/2000/svg" viewBox="0 0 1920 1280">
  <defs>
    <style>
      .cls-1, .cls-2, .cls-3, .cls-4 {
        fill: none;
      }

      .cls-2 {
        isolation: isolate;
      }

      .cls-5 {
        fill: #fff;
      }

      .cls-6 {
        fill: #c1c3be;
      }

      .cls-7 {
        fill: #d9821e;
      }

      .cls-8 {
        fill: #ddd4c7;
      }

      .cls-9, .cls-10 {
        fill: #e09d1b;
      }

      .cls-11 {
        fill: #161513;
      }

      .cls-12 {
        fill: #1a1818;
      }

      .cls-13 {
        fill: #959c94;
      }

      .cls-14 {
        fill: #2d2a26;
      }

      .cls-10 {
        mix-blend-mode: overlay;
      }

      .cls-3 {
        stroke: #fff;
        stroke-width: .47px;
      }

      .cls-3, .cls-4 {
        stroke-miterlimit: 10;
      }

      .cls-4 {
        stroke: #2d2a26;
        stroke-width: 6.64px;
      }
    </style>
  </defs>
  <g class="cls-2">
    <g id="Layer_1" data-name="Layer 1">
      <polygon class="cls-14" points="1918.98 -1.91 1918.98 1281.24 .66 1281.24 .66 -1.91 874.3 -1.91 960.13 465.45 1041.53 -1.91 1918.98 -1.91"/>
      <line class="cls-1" x1="1263.13" y1="225.13" x2="949.57" y2="738.47"/>
      <path class="cls-12" d="m990.93,814.83c.24.36-3.07,3.27-9.5,6.16-6.36,2.95-15.99,5.65-26.82,5.46-5.4-.07-10.53-.82-15.05-2-4.53-1.16-8.43-2.73-11.59-4.22-6.32-3.02-9.78-5.62-9.55-6.04.26-.49,4.17,1.26,10.56,3.58,3.2,1.13,7.04,2.39,11.38,3.3,4.33.94,9.19,1.54,14.3,1.61,10.25.18,19.43-1.96,25.8-4.17,6.42-2.15,10.17-4.2,10.48-3.68Z"/>
      <path class="cls-12" d="m1019.15,663.59c.05-.23.42-.35.83-.32.42.03.77.19.79.42.02.23-.36.45-.84.42-.48-.03-.83-.29-.78-.52Z"/>
      <path class="cls-12" d="m1053.67,653.65c.17-.16.37-.22.47-.12.09.1.02.3-.15.46s-.38.21-.47.12c-.08-.09-.02-.29.15-.46Z"/>
      <path class="cls-12" d="m1130.13,560.01c-.23.03-.64-2.17-.91-4.92-.27-2.75-.31-4.99-.07-5s.64,2.19.91,4.92c.27,2.73.3,4.97.07,5Z"/>
      <path class="cls-12" d="m1194.88,556.42c-.1-.21-.07-.44.06-.51.13-.07.34.03.47.22.13.2.1.43-.06.51-.16.09-.37-.01-.47-.22Z"/>
      <path class="cls-12" d="m1194.63,556.9c-.12-.2-.12-.42,0-.48.12-.06.29.06.39.27s.1.42,0,.48c-.1.05-.28-.07-.39-.27Z"/>
      <path class="cls-12" d="m1123.56,487.14c-.21-.11-.36-.22-.34-.25.02-.03.19.04.39.16.2.12.35.23.34.25-.01.02-.19-.05-.39-.16Z"/>
      <path class="cls-12" d="m1213.22,498.66c-.08.08-.22.08-.39.01-.08-.04-.17-.09-.27-.16-.1-.09-.16-.1-.31-.32-.2-.56-.14-.95.08-1.04.22-.09.55.28.67.64-.02-.02.1.13.14.2.05.09.09.18.11.26.05.17.04.31-.04.4Z"/>
      <path class="cls-12" d="m1405.95,419.8c.01-.23.08-.42.15-.41.07,0,.11.2.1.43-.01.23-.08.42-.15.41-.07,0-.11-.2-.1-.43Z"/>
      <path class="cls-12" d="m1467.09,396.4c.17-.16.32-.28.33-.27,0,.01-.12.15-.29.31-.17.16-.32.28-.33.27,0-.01.12-.15.29-.3Z"/>
      <path class="cls-12" d="m1517.57,897.1c.03-.65.16-1.17.3-1.17.14,0,.19.54.13,1.19-.06.65-.2,1.17-.3,1.17-.1,0-.16-.54-.13-1.19Z"/>
      <path class="cls-9" d="m1685.28-38.78l-218.77,907c-43.48-77.94-124.47-123.4-243.62-120.44-36.94.91-73.96,9.24-109.43,26.5-23.62,11.49-77.91,45.92-109.2,110.86l-44.58-407.43-42.75,409.17c-31.34-64.59-85.39-98.85-108.94-110.3-35.48-17.26-72.5-25.59-109.43-26.5-119.26-2.96-200.31,42.59-243.75,120.68L233.85-38.78h1451.42Z"/>
      <path class="cls-9" d="m916.92,808.6l-6.93,39.69h-443.28l-11.91-49.33c43.44-46.71,124.49-73.96,243.75-72.18,36.94.54,73.96,5.53,109.43,15.85,23.55,6.85,77.6,27.34,108.94,65.98Z"/>
      <path class="cls-9" d="m1466.51,797.44l-11.78,49.46h-443.28l-7.2-39.35c31.29-38.84,85.58-59.44,109.2-66.31,35.48-10.32,72.49-15.31,109.43-15.85,119.14-1.77,200.14,25.42,243.62,72.04Z"/>
      <g>
        <path class="cls-11" d="m535.51,505.65c.71-9.98-11.99-11.17-17.76-4.96-6.01,5.5-8.12,14.18-14.18,19.65-8.78,6.91-30.55,14.94-33.23-1.67,2.48-33.99,6.35-109.95,47.82-122.12,2.3-1.19,4.36-3.3,4.6-5.88.38-6.15-7.19-8.66-12.12-6.47-2.57.91-7.4,4.41-7.4,4.41.77-2.8-1.18-5.87-3.87-6.96-5.82-2.23-11.32,2.37-15.07,6.42-5.79,7.4-15.07,9.52-24.07,7.33-15.83-4.8-33.65-5.79-43.19,10.36-6.26,8.2-3.39,20.83,8.79,16.74,6.28-2.34,10.96-8.97,18.02-9.18,12.38.42,14.87,15.65,12.47,25.53-1.11,21.84-25.6,61.73-14.04,79.51,1.71,1.69,2.67,4.28,2.21,6.65-1.49,6.56-11.07,5.88-14.28,11.01-1.81,2.87-1.06,6.89,1.2,9.43,4.84,5.29,12.83,4.3,19.21,2.96,21.63-4.14,41.01-8.24,63.02-7.54,7.31.89,10.81-3.75,7.93-10.52-8.72-16.21,10.37-13.88,13.95-24.7Z"/>
        <path class="cls-11" d="m450.36,375.52c1.61,1.02,3.77,1.06,5.46.18,1.35-.71,2.36-1.92,3.36-3.07,1.01-1.15,2.11-2.3,3.54-2.82,1.44-.52,3.29-.21,4.08,1.09.57.93.48,2.14.03,3.14-.27.62-.67,1.17-1.1,1.69l.23.19c-1.12,1.38-.63,3.66.83,4.68,1.46,1.02,3.55.84,5-.2,1.45-1.03,2.29-2.76,2.53-4.52.24-1.76-.06-3.55-.53-5.27-.86-3.11-2.33-6.13-4.68-8.34-2.35-2.21-5.68-3.52-8.86-2.97-3.56.61-6.34,3.32-8.88,5.9-1.53,1.56-3.15,3.29-3.39,5.46-.21,1.9.77,3.86,2.39,4.87Z"/>
        <path class="cls-11" d="m562.93,512.19c-1.99,4.26-8.63,9.52-12.86,11.58-14.95,4.71-9.93,12.94-15.73,23.73-4.44,6.6-14.58,7.85-18.21,14.93-5.97,16.05,14.46,29.01,28.53,29.59,36.73-2.02,60.66-1.07,71.73-59.94,5.93-33.33-25.38-68.5-53.46-19.89Zm38.64,8.93c-1.13,7.62-8.15,13.09-10.38,20.47-.85,2.82-.96,5.81-1.39,8.73-.43,2.92-1.23,5.91-3.2,8.11-1.27,1.42-2.94,2.42-4.58,3.39-1.99,1.18-3.99,2.36-5.98,3.54-3.21,1.9-2.85,3.96-12.09,2.17-1.71-.33-4.86,1.3-6.6,1.49-2.27.25-4.87-.19-5.81-2.71-.34-.92-.35-1.93-.08-2.87.69-2.46,2.74-4.05,4.86-5.27,1.73-1,3.59-1.82,5.16-3.06,1.57-1.24,2.88-3,2.99-5,.07-1.33-.39-2.68-.1-3.98.35-1.55,1.72-2.69,3.2-3.28,1.48-.59,3.09-.73,4.65-1.02,1.57-.29,3.17-.77,4.31-1.87.29-.28.62-.71.96-1.19,1.27-1.86,2.04-4.01,2.3-6.25.24-2.1.67-4.98,1.4-7.18,1.42-4.31,2.96-8.83,6.33-11.87,2.8-2.52,7.18-3.69,10.41-1.75,3.06,1.84,4.17,5.88,3.64,9.4Z"/>
        <path class="cls-11" d="m715.45,534.51c3.55-4.84,4.9-12.12,3.43-17.88-1.34-5.91-9.87-9.38-13.23-4.94-3.44-26.91-2.11-54.43,3.89-80.88,1.09-4.79,2.09-10.51-1.32-14.04-2.89-2.99-7.61-2.93-11.76-2.67-9.43,1.26-20.36-.65-28.72,4.47-9.28,8.33-2.56,17.38,8.83,14.98,9.94-1.81,15.45,2.59,13.93,12.83-2.57,19.54-6.06,41.01-17.98,57.15-9.57,10.12-22.8,2.11-22.32-10.91.11-6.62,2.98-12.83,5.15-19.1,6.23-15.12,1.16-32.18-17-32.6-6.74.05-27.35,1.83-27.57,10.49-.11,7.76,10.6,8.13,15.24,5.31.13-.06.26-.11.4-.16,4.52-1.65,10.83,1.1,10.75,5.92-.22,12.88-15.41,25.69-16.66,38.43-2.48,44.06,53.75,47.77,69.84,13.8h0l-3.94,11.07c-.98,2.76-1.96,5.96,1.43,8.21,2.18,1.88,14.45,1.97,17.2,2.57,3.65.36,7.82.54,10.41-2.05Z"/>
        <path class="cls-11" d="m787.72,557c.72-4.2-3.45-7.96-7.69-8.43-4.24-.47-8.35,1.36-12.23,3.14,9.7-24.4,13.98-94.57,5.91-109.7-2.49-4.66-7.99-6.92-13.09-8.34-5.43-1.52-11.35-1.99-16.62,0-5.27,1.99-9.69,6.83-10.01,12.46-.22,3.99,2.01,8.29,5.83,9.48,2.9.9,6.08-.08,9.07.5,3.42.66,6.19,3.33,7.77,6.43,1.58,3.1,2.54,6.59,2.53,10.08-.11,67.9-11.58,75.82-23.42,89.38l-.03.04c-2.36-2.06-5.31-3.46-8.41-3.94-2.84-.45-5.84-.13-8.38,1.2-2.63,1.38-4.71,3.88-5.33,6.79-.62,2.91.32,6.15,2.56,8.1,3.33,2.9,8.33,2.43,12.68,1.72,16.65-2.72,33.12-6.54,49.27-11.42,4.1-1.24,8.84-3.27,9.57-7.49Z"/>
        <path class="cls-11" d="m744.53,416.6c3.51,1.5,8.11-.87,8.92-4.61.06-1.98-1.99-9.07,3.02-11.51,2.01-.98,4.41-.15,6.31,1.03,1.9,1.18,3.76,2.68,5.98,2.85,3.52.27,6.55-3.19,6.71-6.71.16-3.53-1.91-6.83-4.56-9.17-6.68-5.89-17.51-6.4-24.7-1.15-7.2,5.25-10.03,15.71-6.46,23.87.99,2.25,2.52,4.42,4.78,5.39Z"/>
        <path class="cls-11" d="m775.05,407.64c-.27,1.99,1.41,3.87,3.37,4.33,1.95.46,4.02-.22,5.71-1.3,3.95-2.51,6.36-7.26,6.06-11.93-.11-1.6-.55-3.25-1.68-4.39-1.13-1.13-3.07-1.57-4.37-.63-1.53,1.09-1.52,3.31-1.45,5.19s-.28,3.83-1.98,4.62c-1.24.19-2.48.49-3.55,1.14-1.07.65-1.94,1.72-2.11,2.96Z"/>
        <path class="cls-11" d="m873.18,497.55c-15.78-4.2-37.49-4.06-45.74,12.5-3.78,8.01-2.35,17.9-6.87,25.51-2.82,4.76-7.63,8.01-10.84,12.52-3.21,4.51-4.2,11.67.26,14.94,3.34,3.44,18.24,7.95,25.82,14.53,12.86,10.51,12.07,31.77-5.39,35.96-5.97,1.51-20.48,2.18-22.81-4.92-.71-3.29,2.38-6.29,2.47-9.65.1-3.38-3-6.2-6.31-6.83-21.3-1.31-41.51,30.53-17.92,42.32,15.3,5.29,29.66-14.48,44.95-8.84,7.47,2.85,11.78,11.56,19.53,13.53,19.4,2.5,35.11-25.95,35.89-42.81-1.12-43.97-37.34-28.17-44.71-49.83-1.17-4.9.87-9.93,2.85-14.56,6.56-18.48,18.91-20.71,35.31-11.45-5.9,20.97,27.78,17.39,20.14-5.46-4.15-10.77-16.13-15.23-26.63-17.46Z"/>
      </g>
      <g>
        <g>
          <path class="cls-11" d="m1127.57,552.28c.41-3.23.81-6.59-.19-9.71-1.91-5.91-9.38-9.38-15.23-7.2l-.14-.34c-3.15,1.07-6.76-.51-9.83-2.03-3.31-1.63-7.34-3.2-10.53-1.38-3.03,1.72-3.76,5.96-2.47,9.18,1.3,3.22,4.11,5.6,6.94,7.65s5.87,3.98,7.98,6.75c3.13,4.1,3.81,9.63,2.8,14.63-2.05,10.08-11.75,18.55-22.2,17.86-6.38-.41-12.45-4.16-15.63-9.64l.08-.08c-3.86-3.92-9.3-6.3-14.83-6.47-3.42-.1-6.94.59-10.21-.4-3.35-1.02-5.98-3.72-7.6-6.79-1.62-3.07-2.35-6.49-2.95-9.89-1.36-7.65-2.2-15.4-2.5-23.15l.43-.02c-.07-9.12-.13-18.32,1.74-27.24,1.87-8.92,5.86-17.66,12.74-23.73,11.17-9.85,27.7-11.02,42.7-9.67,3.82.34,8.08,1.06,10.37,4.1,4.42,5.85-2.06,14.38.41,21.24,1.61,4.45,6.96,6.95,11.68,6.19,4.73-.75,8.67-4.21,10.92-8.36,2.25-4.15,3-8.93,3.25-13.63.38-7.1-.45-14.67-4.75-20.42-2.3-3.07-5.53-5.56-6.94-9.11-.63-1.59-.85-3.22-.8-4.87.47-14.83-14.06-25.67-27.81-20.07-9.73,3.96-18.34,10.53-24.29,19.08-3.11,4.47-6.21,9.89-11.64,10.89-4.24.78-8.41-1.51-12.67-2.2-7.89-1.28-15.8,3.14-20.78,9.25-4.98,6.11-12.7,25.96-14.2,27.87-1.5,1.91-4.11,3.2-6.46,2.45-2.46-.78-4.2-3.56-6.78-3.46-2.72.12-4.06,3.36-4.12,6.03-.21,8.69,5.69,16.3,8.17,24.66,1.68,5.68,1.76,11.67,2.48,17.54,2.14,17.42,10.24,34.12,22.69,46.76,2.43,2.47,5.36,4.92,8.68,5.51l-.03.16c4.5,3.84,11.32,2.75,17.04,1.21,5.72-1.54,12.23-3.2,17.28-.1,3.47,2.14,5.38,6.08,8.63,8.53,3.54,2.67,8.21,3.26,12.64,3.73,6.26.66,12.6,1.25,18.82.38,6.23-.86,12.41-3.31,16.6-7.9,5.51-6.03,6.78-14.63,7.8-22.69.9-7.04,1.79-14.08,2.69-21.12Z"/>
          <path class="cls-11" d="m1037.31,443.43c-.05,1.01.63,2.02,1.6,2.37.97.35,2.15.02,2.77-.79l.12.09c1.21-1.64,3.16-2.62,5.09-3.33,1.98-.73,4.06-1.26,5.88-2.31,1.82-1.05,3.39-2.79,3.57-4.86.19-2.22-1.21-4.23-1.92-6.36-.75-2.27-.68-4.78.18-7,.94-2.42,2.82-4.7,2.43-7.28-.18-1.18-.84-2.24-1.48-3.26-.63-1.01-1.26-2.01-1.89-3.02-.5-.8-1.04-1.63-1.86-2.11-1.41-.81-3.32-.31-4.43.85-1.11,1.16-1.53,2.82-1.59,4.41s.22,3.19.3,4.79c.22,4.1-.8,8.25-2.9,11.79-.95,1.6-2.14,3.12-2.58,4.92-.58,2.37.17,5.05-1.01,7.18-.74,1.34-2.2,2.38-2.28,3.9Z"/>
        </g>
        <path class="cls-11" d="m1203.67,479.2c.63-2.9-.58-6.41-3.41-7.42-3.57-1.26-7.04,1.79-9.95,4.19-5.72,4.72-12.89,7.72-20.31,8.49-1.76.18-3.83.12-4.89-1.27-1.31-1.71-.21-4.13.98-5.93,12.7-19.2,33.53-32.6,44.26-52.93,1.17-2.22,2.24-4.68,1.8-7.14s-3.04-4.67-5.44-3.84c-1.64.56-2.56,2.22-3.6,3.59-1.05,1.36-2.82,2.62-4.41,1.93-1.81-.79-1.77-3.26-2.28-5.15-.68-2.46-2.76-4.37-5.15-5.37-2.38-1-5.03-1.2-7.63-1.12-11.02.31-21.81,5.5-28.83,13.85-7.02,8.36-10.17,19.74-8.39,30.42,1.22,7.32,4.61,14.39,4.07,21.78-.32,4.38-2.02,8.57-2.6,12.92-.54,4,.13,8.55,3.03,11.27,3.04,5.3,9.26,8.51,15.49,8.83,6.61.35,13.12-2.18,18.54-5.93,5.42-3.74,9.88-8.65,14.16-13.61,1.95-2.27,3.94-4.67,4.58-7.57Zm-42.26-24.69c-2.05-6.83-.6-14.55,3.7-20.28,4.27-5.69,11.29-9.32,18.49-9.48,1.05-.02,2.09.35,2.81,1.11,1.6,1.71.42,3.85-.74,5.49-4.22,5.98-5.52,7.7-10.29,13.08-.75.85-4.99,3.08-5.91,3.74-1.03.74-2.29,3.83-2.78,5.07-.72,1.82-.86,4.07-3.09,3.46-1.06-.29-1.87-1.15-2.19-2.19Z"/>
        <path class="cls-11" d="m1270.22,510.25c.66-11.34,13.29-19.97,12.56-31.37-.55-8.62-9.17-15.96-18.65-18.37-18.74-3.78-46.83,3.49-51.71,20.89-2.15,11.06,8.14,21.9,7.83,33.19-.67,15.58-18.11,23.85-27.29,35.26-15.02,23.36,17.92,50.05,63.12,20.48,14.12-9.36,22.63-25.76,18.72-41.48-1.55-6.23-4.93-12.31-4.56-18.6Zm-15.34-22.26c-2.49,2.81-5.71,5.05-8.1,7.93-4.12,4.94-5.39,11.2-5.39,17.57,0,2.6.21,5.22.53,7.78,1.09,8.82,3.22,17.83,1.17,26.4-1.77,7.39-8.37,17.44-20.56,16.07-5.22-.59-8.48-5.63-6.23-9.71.01-.03.03-.05.04-.08,1.42-2.52,3.72-4.53,5.79-6.65,9.07-9.28,14.22-21.5,14.54-34.01.06-2.55-.07-5.12-.42-7.68-.78-5.8-2.59-11.56-2.57-17.38.01-5.81,2.26-11.97,7.77-14.94,5.51-2.97,14.5-.97,16.44,4.66,1.22,3.53-.53,7.25-3.02,10.06Z"/>
        <path class="cls-11" d="m1364.78,411c-3.16-2.05-7.42-1.43-10.92,0-9.84,4.03-16.76,14.23-16.62,24.71,0,.8-.13,1.6-.42,2.35v.03c-.53,1.33-2.56.94-2.49-.48.18-3.57-.07-7.2-2.19-10-3.22-4.26-9.74-4.86-14.81-2.97-5.07,1.89-9.11,5.69-13.26,9.12-.16.14-.32.27-.48.4-5.26,4.3-12.14,5.95-18.87,4.91-1.43-.22-2.85-.06-4.21.81-2.46,1.55-3.11,5.08-1.86,7.66,1.25,2.58,4.01,4.23,6.86,4.8,2.85.57,5.82.2,8.68-.36,2.38-.47,4.77-1.07,7.19-1.06,2.43,0,4.97.72,6.59,2.49,1.63,1.78,2.14,4.29,2.37,6.67,1.01,10.41.63,32.54-.48,39.74-4.61,1.13-10.36,2.79-12.08,7.14-1.26,3.18.02,7.03,2.71,9.17,2.7,2.13,6.55,2.6,9.86,1.56,3.31-1.04,6.07-3.45,7.91-6.34,1.24-1.96,2.24-4.29,4.34-5.33,2.07-1.02,4.54-.45,6.83-.16,11.51,1.43,23.61-6.16,26.91-17.18.29-.99.33-2.05.02-3.03-1.03-3.27-4.49-2.92-6.38-1.24-1.35,1.21-2.08,2.94-2.75,4.61-.67,1.67-1.37,3.41-2.68,4.66-2.56,2.44-6.95,2.26-9.8.18-2.84-2.08-4.28-5.62-4.57-9.1-.29-3.48.42-6.96,1.12-10.39.81-3.89,1.61-7.78,2.41-11.67.73-3.52,1.46-7.08,2.94-10.36,1.48-3.29,3.78-6.34,6.97-8.09,4.22-2.32,9.22-2.06,14.05-1.11,2.8.55,5.66-.6,7.23-2.95,4.34-6.48,6.21-14.42,4.3-21.96-.71-2.79-1.97-5.63-4.41-7.21Z"/>
        <g>
          <path class="cls-11" d="m1423.15,436.98c1.26.13,2.46-.54,3.42-1.35.96-.8,1.8-1.77,2.87-2.42,1.89-1.15,4.29-1.17,6.5-.86,2.21.31,4.39.93,6.62.94,5.98.02,11.5-5.01,11.94-10.86.14-1.9-.23-3.91-1.42-5.42-1.19-1.51-3.3-2.39-5.15-1.81-3.05.97-3.82,4.98-6.4,6.85-1.94,1.39-4.57,1.36-6.94.97-2.37-.39-4.76-1.07-7.14-.75-2.67.35-5.12,2.03-6.37,4.37-1.25,2.34-1.82,5.58-.61,7.95.24.86,1.41,2.27,2.67,2.4Z"/>
          <path class="cls-11" d="m1458.3,507.81c-1.31-2.3-4.51-2.97-7.09-2.28-2.59.69-4.72,2.42-6.88,3.97-10.96,7.91-24.39,12.44-38,12.84-4.55.13-9.27-.23-13.29-2.35-1.52-.8-3.22-1.87-4.73-3.12-2.84-2.36-2.9-6.4-.73-8.9.66-.77,1.54-1.38,2.61-1.77,5.73-2.07,12.71-2.53,18.28-2.19,7.78.49,15.7,1.83,23.28.1,7.58-1.74,14.9-7.72,14.92-15.37.02-5.28-1.58-9.42-2.12-14.68-.46-4.43-.65-9.47-.75-13.92-.19-8.53-7.39-16.4-16-17.49-6.23-.79-12.44,1.6-17.83,4.74-5.4,3.13-10.32,7.05-15.94,9.78-6.65,3.24-14.3,4.84-19.87,9.65-6.49,5.61-8.89,15.33-5.75,23.27,2.97,7.52,10.71,12.95,18.88,13.4v.18c-.19.04-.38.07-.56.11-3.11.58-6.29.77-9.42,1.26-3.31.52-6.65,1.41-9.39,3.31-2.74,1.9-4.8,4.96-4.79,8.26.01,3.48,2.24,6.57,4.7,9.07,3.71,3.76,8.2,6.76,13.1,8.81-7.43-.63-15.08,2.49-19.86,8.1-4.84,5.69-6.59,13.79-4.52,20.94,1.43,4.95,4.92,7.82,6.14,8.89,11.65,10.15,37.16,9,57.22-.15,4.06-1.85,38.77-18.27,40.48-48.1.38-6.65-.98-12.26-2.31-16.16l.23-.19Zm-67.25-31.85c.86-2.18,2.59-3.91,4.33-5.51,2.6-2.39,5.34-4.65,8.18-6.76,1.73-1.28,3.7-2.57,5.87-2.4,2.17.16,3.93,1.74,5.92,2.62,2.99,1.34,6.67,1.04,9.38-.77,1.07-.71,2.01-1.65,3.23-2.08,1.22-.43,2.86-.1,3.31,1.09.8,2.09-2.7,4.1-1.8,6.16.64,1.47,2.95,1.41,3.91,2.71.57.76.52,1.83.11,2.69-.41.85-1.11,1.52-1.81,2.16-6.56,6-12.27,10.57-20.63,13.76-2.67,1.18-6.33,1.55-9.25,1.89-2.91.34-6.1-.31-8.15-2.37-1.45-1.45-2.19-3.43-2.68-5.4-.64-2.57-.88-5.34.09-7.8Zm37.92,66.21c-5.74,6.61-14.69,11.91-22.97,14.97-2.48.92-5.09,1.65-7.73,1.45-2.64-.2-5.32-1.5-6.55-3.81-1.27-2.38-1.12-5.76.87-7.59,10.78-9.9,24.16-8.58,30.47-13.28,7.5-5.6,9-.22,8.96,2.11-.04,2.33-1.51,4.38-3.05,6.15Z"/>
        </g>
        <path class="cls-11" d="m1535.23,447.1c-.08-2.33-1.54-4.41-3.63-5.52-3.82-2.03-8.13-.88-11.47,1.42-.39.27-.78.56-1.15.86-2.87,2.37-4.99,5.46-7.33,8.34-2.33,2.88-5.02,5.66-8.5,7.01-2.68,1.04-6.39.86-7.48-2.07-.39-1.05-.29-2.22.15-3.25.96-2.22,3.02-3.51,5.07-4.64,4.92-2.72,10.18-4.93,14.75-8.16.65-.46,1.29-.94,1.91-1.45,4.96-4.05,8.72-10.27,7.61-16.54-1.39-7.83-10.19-12.87-18.25-12.44-8.07.42-15.28,5.03-21.24,10.36-10.52,9.39-18.5,21.51-22.92,34.81-1.8,5.4-3.02,11.11-2.41,16.77.26,2.36,1.02,4.41,2.17,6.23,3.11,4.93,8.8,7.63,14.68,7.43,15.5-.53,27.93-13.46,36.03-24.79,4.45-6.23,10.27-2.82,16.67-7.1,2.61-1.75,5.44-3.77,5.33-7.28Zm-49.06,3.15c-.72.35-1.75.28-2.15-.41-.3-.52-.15-1.17.03-1.74,1.85-6.06,4.7-11.81,8.38-16.98,1.03-1.44,2.14-2.85,3.57-3.89,1.43-1.04,3.25-1.69,5.02-1.42,1.77.26,3.43,1.58,3.75,3.32.2,1.09-.14,2.23-.7,3.18-.56.96-1.35,1.76-2.12,2.57-4.25,4.38-9.69,9.48-13.94,13.86-.59.53-1.11,1.17-1.83,1.52Z"/>
      </g>
      <g>
        <path class="cls-11" d="m940.17,881.8c-3.01,33.01-21.72,63.63-46.51,85.64-77.14,68.49-355.38,109.08-450.79,27.9-.11-.09-.23-.2-.35-.29-17.67-15.16-28.99-34.54-31.5-58.74-1.61-15.53,1.13-30.85,4.31-46.17,1.41-6.82,2.9-13.65,4.13-20.49,4.79-26.69,16.55-50.51,35.33-70.7,43.44-46.71,124.49-73.96,243.75-72.18,36.94.54,73.96,5.53,109.43,15.85,23.55,6.85,77.6,27.34,108.94,65.98.03.02.04.05.06.07,3.11,3.83,6,7.85,8.61,12.05h0c10.69,17.2,16.73,37.46,14.58,61.09Z"/>
        <path class="cls-11" d="m1510.41,934.93c-2.44,23.65-13.31,42.69-30.28,57.69-.8.71-1.61,1.41-2.44,2.1-.8.67-1.61,1.33-2.44,1.97-98.38,77.53-371.2,37.1-447.47-30.62-24.79-22-43.5-52.63-46.51-85.64-2-22,3.1-41.07,12.44-57.47,2.23-3.93,4.71-7.71,7.4-11.34,1.02-1.37,2.06-2.73,3.15-4.06,31.29-38.84,85.58-59.44,109.2-66.31,35.48-10.32,72.49-15.31,109.43-15.85,119.14-1.77,200.14,25.42,243.62,72.04,18.86,20.22,30.67,44.09,35.46,70.84,1.28,7.12,2.85,14.23,4.31,21.34,3.09,15.03,5.7,30.07,4.13,45.31Z"/>
      </g>
      <path class="cls-13" d="m1495.2,1013.06l-9.02,4.11c-68.99,32.27-134.95,43.41-211.82,42.52-39.69-.46-187.86-3.48-281.44-94.56-10.6-10.32-17.64-21.76-33.59-21.78-19.28-.03-22.76,10.11-34.71,21.71-102.14,99.28-280.38,99.09-332.86,97.46-58.05-1.79-119.41-11.46-167.08-44.43-14.42-15.05-19.04-30.4-25.22-47.35-6.17-16.95-10.08-34.87-10.12-48.75v-.15c-.01-9.19,1.68-16.59,5.57-20.73,4.85-5.17,9.9-10.99,16.99-11.28l2.62.55c-3.17,15.32-5.91,30.64-4.31,46.17,2.5,24.2,14.99,43.65,32.66,58.8,95.4,81.18,373.64,40.59,450.79-27.9,24.78-22.01,43.5-52.64,46.5-85.64,2.16-23.63-3.9-43.89-14.58-61.08.75.46,1.54.91,2.36,1.39,1.12.64,2.3,1.23,3.54,1.85,1.25.56,2.54,1.19,3.92,1.72.69.27,1.38.55,2.1.81.72.24,1.45.49,2.18.74,2.97.94,6.15,1.81,9.5,2.38,3.36.59,6.88.98,10.5,1.09,3.62.09,7.16-.09,10.54-.49,3.39-.39,6.6-1.07,9.62-1.85.74-.21,1.49-.41,2.22-.62.72-.22,1.43-.46,2.13-.69,1.41-.44,2.73-1,4.02-1.49,1.27-.54,2.49-1.08,3.63-1.64.64-.33,1.27-.64,1.87-.96-9.33,16.39-14.44,35.47-12.43,57.47,3.01,33.01,21.71,63.63,46.5,85.64,76.27,67.72,349.1,108.16,447.47,30.62,18.37-15.31,32.6-36.99,35.16-61.76,1.58-15.24-1.04-30.28-4.13-45.31,6.92.46,13.06,5.26,16.58,11.26,3.41,5.79,4.73,12.57,5.33,19.27l.1,1.1c2.66,33.43-9.8,67.73-33.09,91.82Z"/>
      <g>
        <path class="cls-6" d="m916.77,851.48c0,23.19-15.56,44.44-40.94,62.19,21.21-15.55,34.17-33.65,34.17-53.32,0-55.97-99.23-101.35-221.65-101.35s-221.64,45.38-221.64,101.35c0,26.11,21.6,49.92,57.07,67.89-39.98-19.85-64.59-46.92-64.59-76.76,0-60.87,102.44-110.22,228.79-110.22s228.79,49.35,228.79,110.22Z"/>
        <path class="cls-6" d="m1004.68,850.11c0,23.19,14.86,44.7,40.24,62.45-21.21-15.55-33.47-33.91-33.47-53.58,0-55.97,99.23-101.35,221.65-101.35,122.41,0,221.64,45.38,221.64,101.35,0,26.11-23.01,49.57-58.48,67.54,39.98-19.85,66-46.57,66-76.41,0-60.87-102.44-110.22-228.79-110.22-126.36,0-228.79,49.35-228.79,110.22Z"/>
      </g>
      <g>
        <path class="cls-8" d="m909.99,857.61c0,19.15-12.26,37.02-33.47,52.15,0,0-.01,0-.02.01-40.09,27.28-106.42,45.43-181.91,46.44-1.22.01-2.44.02-3.66.03-.99,0-1.97,0-2.96,0-.83,0-1.66,0-2.49,0-.95,0-1.91-.01-2.86-.02-7.48-.08-14.87-.33-22.16-.74-1.04-.06-2.08-.12-3.12-.19l-2.76-.18c-1.62-.11-3.23-.23-4.83-.35-.51-.04-1.01-.08-1.51-.12-1.2-.1-2.4-.2-3.59-.31-46.98-4.22-88.87-15.18-120.89-30.65-35.47-17.49-57.07-40.66-57.07-66.07,0-54.48,99.23-98.64,221.64-98.64s221.65,44.17,221.65,98.64Z"/>
        <path class="cls-8" d="m1011.45,856.27c0,19.15,12.26,37.02,33.47,52.15,0,0,.01,0,.02.01,40.09,27.28,106.42,45.43,181.91,46.44,1.22.01,2.44.02,3.66.03.99,0,1.97,0,2.96,0,.83,0,1.66,0,2.49,0,.95,0,1.91-.01,2.86-.02,7.48-.08,14.87-.33,22.16-.74,1.04-.06,2.08-.12,3.12-.19l2.76-.18c1.62-.11,3.23-.23,4.83-.35.51-.04,1.01-.08,1.51-.12,1.2-.1,2.4-.2,3.59-.31,46.98-4.22,88.87-15.18,120.89-30.65,35.47-17.49,57.07-40.66,57.07-66.07,0-54.48-99.23-98.64-221.64-98.64-122.41,0-221.65,44.17-221.65,98.64Z"/>
      </g>
      <path class="cls-3" d="m1238.82,954.88c7.48-.08,14.87-.32,22.16-.74-7.28.4-14.67.65-22.16.74Z"/>
      <path class="cls-12" d="m1546.13,963.73c.3-.12,2.31,4.33,5.51,11.54,3.19,7.21,7.57,17.19,12.29,28.26,4.72,11.07,8.87,21.16,11.68,28.54,2.82,7.38,4.3,12.05,4.01,12.16-.3.12-2.31-4.33-5.51-11.54-3.19-7.21-7.57-17.19-12.29-28.26-4.72-11.07-8.87-21.16-11.68-28.54-2.82-7.38-4.3-12.05-4.01-12.16Z"/>
      <g>
        <path class="cls-5" d="m1027.9,996.18c-1.88-1.79-3.85-3.45-5.9-4.99"/>
        <path class="cls-12" d="m1021.99,991.19c.27-.36,1.9.38,3.56,1.78,1.66,1.4,2.66,2.89,2.35,3.21-.32.33-1.8-.6-3.41-1.96-1.6-1.36-2.77-2.67-2.5-3.03Z"/>
      </g>
      <g>
        <path class="cls-5" d="m892.73,997.54c-2.92,1.31-5.82,2.64-8.72,3.97"/>
        <path class="cls-12" d="m884.01,1001.5c-.19-.41,1.61-1.64,4.02-2.73s4.51-1.65,4.7-1.24-1.61,1.64-4.02,2.73c-2.41,1.09-4.51,1.65-4.7,1.24Z"/>
      </g>
      <path class="cls-12" d="m508.01,831.1c-.07-.13-.1-.25-.06-.28.04-.02.14.05.23.17.09.12.11.24.06.28-.05.03-.15-.04-.23-.17Z"/>
      <path class="cls-12" d="m507.81,831.04c.08-.27.19-.47.26-.45.07.02.04.25-.06.51-.1.26-.22.46-.26.45-.04-.01-.02-.24.06-.51Z"/>
      <path class="cls-12" d="m530.27,870.58c-.28,0-.5,0-.5,0,0,0,.23,0,.51,0s.5,0,.5,0c0,0-.23,0-.51,0Z"/>
      <path class="cls-12" d="m518.62,898.74c.05-.27.13-.49.17-.48.04,0,.03.24-.02.51-.05.27-.13.49-.17.48-.04,0-.03-.24.02-.51Z"/>
      <ellipse class="cls-12" cx="562.51" cy="895.97" rx=".51" ry="0"/>
      <path class="cls-12" d="m556.84,919.4c-.25-.12-.43-.28-.39-.35.03-.07.27-.03.52.09s.43.28.39.35c-.03.07-.27.03-.52-.09Z"/>
      <path class="cls-12" d="m562.51,895.98c0-.28.01-.5.01-.5,0,0,.01.23.01.51s-.01.5-.01.5c0,0-.01-.23-.01-.51Z"/>
      <path class="cls-12" d="m759.74,918c-.01-.1.07-.2.19-.22.12-.02.23.06.24.16s-.07.2-.19.22c-.12.02-.23-.06-.24-.16Z"/>
      <path class="cls-12" d="m1195.44,815.57c-.27-.12-.44-.31-.39-.42s.31-.09.57.04c.26.13.44.32.39.42-.05.1-.3.08-.57-.04Z"/>
      <g>
        <g>
          <path class="cls-7" d="m600.77,801.52c-2.24-6.29-5.85-12.1-10.49-16.9-3.67-3.79-8.28-7.08-13.54-7.51-4.32-.36-8.42,1.6-12.56,2.87-30.01,9.22-38.74,13.52-56.09,24.13-5,3.06-22.75,15.33-14.53,30.95,2.7,5.13,9.62,8.24,14.45,5.09.95.36,1.62,1.29,1.89,2.28.3,1.05.22,2.17.12,3.26-1.01,10.9-4.3,21.58-9.59,31.17h-.82c-3.42-2.07-8.11-1.83-11.3.58-3.2,2.41-4.7,6.85-3.64,10.71,1.04,3.77,4.01,6.95,6.81,9.68,7.46,7.23,16.99,13.81,21.85,16.66,1.86,1.09,10.75,5.65,12.91,5.66,1.99.02,3.92-.97,5.24-2.45,1.32-1.48,2.06-3.43,2.28-5.41.45-4.1-1.32-8.27-4.23-11.19-2.88-2.88-6.77-4.61-10.77-5.37l.07-.34c5.04-8.71,8.9-18.1,11.44-27.84l.15.04c19.06,5.52,40.98,1.35,55.75-11.89,14.77-13.24,21.26-35.48,14.6-54.17Zm-32.59,27.08c-.56,2.95-1.51,5.86-3.14,8.38-3.16,4.91-8.65,7.95-14.32,9.37-5.67,1.42-11.58,1.39-17.42,1.36,3.48-9.78,4.03-21.17,1.36-31.2,4.7-3.42,9.79-6.61,15.51-7.62,5.73-1.02,12.23.57,15.71,5.23,3.01,4.03,3.24,9.54,2.3,14.49Z"/>
          <path class="cls-7" d="m612.7,898.46c-10.14,2.58-9.39-8.65-15.18-10-10.76-2.52-13.9,9.14-15.45,14.62-1.18,4.19-2.5,13.73,3.92,14.29,15.72,2.05,14.22,19.6-13.19,16.27-9.01-1.1-15.37-3.7-20.43-5.12-24.27-6.81-3.45-28.73,4.17-13.29l.21.12c4.43-6.26,7.26-13.39,8.23-20.76-6.87-2.11-15.06-5.44-18.33-11.41-1.75-9.67,25.12-9.01,32.61-10.27,5.08-.6,3.88,3.5,7.22,5.27,8.7,4.61,18.44-12.14,22.56-18.96,3.8-6.28,9.89-9.32,16.95-6.05,3.28,1.52,5.77,4.07,7.29,7,7.35,14.23-4.95,33.32-20.58,38.3Z"/>
          <path class="cls-7" d="m686.81,824.76c-1.33-12.51-9.69-23.86-20.91-29.57-8.42-4.28-18.59-5.49-27.48-2.27-12.04,4.37-20.4,16.87-20.6,29.68-.14,9.24,4.17,17.62,9.75,24.69,2.33,2.95,5.14,5.52,8.28,7.59,3.51,2.32,7.43,4.01,11.55,4.91,9.58,2.08,22.64-.04,29.52-7.58,6.91-7.57,11-17.06,9.89-27.45Zm-22.27,6.2c.1,3.58-.47,6.94-2.54,8.75-2.87,2.51-8.07,1.81-12.59-1.95-3.33-2.78-6.06-6.94-7.61-11.06-2.06-5.48-2.04-11.01.31-14.05,1.96-2.53,5.24-2.87,8.94-1.74,3.68,1.13,8.01,5.74,10.37,9.86,1.02,1.77,1.81,3.62,2.33,5.45.47,1.63.74,3.24.78,4.73Z"/>
          <path class="cls-7" d="m732.67,807.36c-21.87,40.26-44.15,74.89-70.38,112.45-6.75,9.66-13.81,21.14-24.88,25.16-14.51,5.27-32.5-3.1-37.81-17.59-2.39-6.52-1.29-15.58,5.22-17.99,5.74-2.13,11.55,1.96,14.89,6.31,1.1,1.43,2.14,2.93,3.37,4.25.2.22.41.43.63.64,1.52,1.46,3.44,2.62,5.54,2.78,1.89.14,3.77-.54,5.36-1.57,3.95-2.57,7.34-6.48,10.13-10.2,32.12-42.82,53.24-83.29,57.59-91.5,5.19-9.8-14.53-15.55-16.6-16.47-2.12-.95-4.09-2.37-5.3-4.36s-1.54-4.58-.5-6.65c.88-1.77,2.64-2.97,4.5-3.61,2.84-.98,6.02-1.06,8.97-.63,4,.59,7.76,2.09,11.74,2.76,5.91,1,12.17,1.45,18-.24,4.04-1.17,9.14.46,11.37,4.03,2.34,3.74.26,8.57-1.84,12.44Z"/>
          <path class="cls-7" d="m727.74,781.38c-2.32,2.86-6.28,4.38-10.12,5.25-2.47.55-5.1.91-7.47.3-3.29-.84-5.63-3.56-5.96-6.55-.33-2.99,1.23-6.14,3.82-8.32.33-.27.67-.53,1.02-.78,1.58-1.08,3.41-1.83,5.31-2.32,1.06-.27,2.16-.51,3.28-.67,2.37-.33,4.79-.28,6.87.61,1.39.6,2.6,1.5,3.49,2.59,2.26,2.79,2.15,6.93-.25,9.89Z"/>
          <path class="cls-7" d="m798.14,848.17s-2.68,6.41-5.51,8.48c-3,2.2-8.1.41-9.57-3-1.07-2.47-.24-5.34.93-7.77,1.17-2.43,2.69-4.77,3.05-7.44.77-5.71-4.22-10.86-9.74-12.53-9.55-2.89-20.15,3.29-23.96,12.52-5.75,13.91,2.6,20.93,12.03,24.21,3.1-2.01,7.09-1.5,10.02.76,2.93,2.26,3.36,6.23,2.2,9.74-1.6,4.85-6.97,7.42-12.01,8.22-14.04,2.21-28.85-6.14-34.94-18.97-6.09-12.84-3.49-29.09,5.69-39.93,9.19-10.84,24.28-16.07,38.35-14.07,6.39.91,12.65,3.24,17.71,7.23,5.06,4,10.65,10.94,11.75,17.3.28,1.65-3.59,10.04-6,15.27Z"/>
          <path class="cls-7" d="m844.57,857.66c-1.92,1.86-4.89,1.88-7.41,1.17-5.46-1.54-11.72-7.71-13.51-13.36-9.22,16.34-14.85,23.08-28.67,58.67-.79,2.03-1.56,4.15-1.49,6.34.11,3.48,2.73,6.42,6.3,5.06,1.08-.41,2.1-1.01,3.24-1.19,2.14-.35,4.37.93,5.4,2.86s.92,4.35-.03,6.31c-3.13,6.46-13.44,8.63-19.67,10.43-6.64,1.93-13.47,3.19-20.36,3.76-3.02.25-5.17.41-7.21-2.19-1.69-2.16-2.04-5.24-1.54-7.87.61-3.23,2.4-6.08,4.01-8.89,20.88-36.31,36.98-68.27,47-91.13-5.02-4.08-8.26-7.95-10.87-14.04-.94-2.19-1.7-4.5-1.75-6.9-.05-2.4.68-4.9,2.36-6.54,2.9-2.83,7.74-2.18,10.88.31,3.14,2.49,6.63,9.37,8.38,13.09,1.41-4.5,4.86-9.44,8.99-10.53,4.13-1.08,8.95-.06,11.65,3.39,2.82,3.59,2.74,8.97.98,13.27-1.76,4.29-4.92,7.75-8.03,11.11,6.5,3.69,10.86,10.28,12.73,17.82.77,3.11.86,6.87-1.39,9.06Z"/>
          <path class="cls-7" d="m848.04,839.06c.9-3.15,2.75-5.95,5.17-8.16,4.39-4.01,9.39-6.49,15.19-7.54,6.74-1.22,14,.35,19.45,4.49,1.48,1.12,2.82,2.41,4,3.85,8.12,9.2,11.25,13.33,11.48,16.1.15,1.81-.37,3.68-1.42,5.17-1.18,1.67-3.08,2.7-5.02,3.33-1.92.63-4.01.93-5.99.46-1.97-.46-3.81-1.78-4.55-3.67-.74-1.89-.17-4.3,1.55-5.39l.44-.89c-1.21-2.42-2.43-4.87-4.2-6.92-1.76-2.05-4.15-3.7-6.84-4.01-2.69-.31-5.64.95-6.81,3.39-1.65,3.45.63,7.42,2.94,10.47,5.4,7.11,11.7,14.16,13.26,22.95,1.39,7.82-1.73,16.03-7.62,21.33-6.95,6.24-16.44,9.65-25.77,9.14-10.09-.55-14.49-1.75-28.31-15.97-2.77-2.83-4.23-4.34-4.29-7.94-.08-4.84,2.84-9.6,7.19-11.7,2.18-1.06,4.71-1.47,7.06-.92s4.5,2.13,5.53,4.33c1.02,2.19.79,4.98-.76,6.84l-.76.03c2.87,3.37,6.17,6.58,10.31,8.17,4.13,1.59,9.28,1.21,12.42-1.91,3.47-3.46,3.53-9.24,1.6-13.74-1.94-4.5-5.47-8.08-8.69-11.76-3.23-3.68-6.33-7.81-7.08-12.65-.35-2.26-.14-4.63.49-6.86Z"/>
          <path class="cls-7" d="m752.22,899.14c-.3-3.45-1.97-6.67-4.1-9.39-7.06-9.03-22.28-12.13-33.66-10.79-11.39,1.34-20.6,5.71-28.39,14.12-6.91,7.47-10.38,18.29-9.09,28.39.88,6.82,4.73,13.09,10.02,17.48,5.29,4.39,11.95,6.96,18.75,7.96,12.67,1.86,26.06-1.81,36.01-9.87,2.55-2.06,4.93-4.47,6.21-7.48,1.28-3.02,1.27-6.74-.69-9.36-2.32-3.1-6.77-3.92-10.55-3.07-3.78.85-7.1,3.03-10.42,5.02-3.32,1.98-6.91,3.86-10.78,3.96-5.84.15-13.69-3.23-13.99-9.39,0,0,39.26-2.11,46.95-8.34,2.69-2.18,4.03-5.78,3.74-9.23Zm-20.13,2.35s-.01,0-.02.01c-.82.42-1.75.52-2.67.63-7.5.84-13.46,1.74-20.96,2.57-.79.09-1.63.19-2.45.2-1.88.03-3.13-1.92-2.32-3.62,2.59-5.5,6.86-9.57,12.95-10.12,6.46-.58,13.05,2.62,16.22,7.01.8,1.1.46,2.68-.74,3.31Z"/>
        </g>
        <path class="cls-7" d="m1221.73,911.73c-28.61-8.66-53.53-28.92-67.86-55.15,4.67-6.8,8.89-13.98,11.58-21.78,2.85-8.24,3.92-17.26,1.9-25.74-3.1-13.01-13.48-23.68-25.92-28.6-12.43-4.91-26.62-4.43-39.3-.17-12.68,4.26-23.94,12.08-33.6,21.33-9.66,9.25-17.82,19.93-25.66,30.76-2.37,3.27-4.76,6.64-5.97,10.49-1.22,3.85-1.09,8.35,1.28,11.62,2.85,3.91,8.3,5.18,13.07,4.34,4.77-.84,9.18-3.37,13.31-5.88,12.6,17.86,23.02,36.85,31.46,57.01-3.07,1.02-5.62,3.5-6.72,6.54-1.1,3.04-.72,6.58.99,9.32,2.48,3.98,7.2,5.87,11.67,7.3,11.45,3.67,23.29,5.94,35.1,8.21,4.55.87,9.1,1.75,13.65,2.62,4.65-6.08,5.14-15.04,1.18-21.59-3.96-6.55-12.35-11.06-19.18-8.1-7.25-11.81-14.51-23.63-21.76-35.44,7.1.4,14.98-1.98,21.09-5.62,14.04,21.12,30.5,40.63,48.95,58.02,5.1,4.8,10.45,9.52,16.8,12.46,6.35,2.95,13.93,3.95,20.37,1.2,6.33-2.7,10.95-9.06,11.56-15.92.61-6.86-2.26-13.45-8.02-17.24Zm-97.12-62.49c-5.69,6.76-14.41,10.68-23.23,11.19-7.27-11.02-14.94-23.34-22.22-34.37,4.36-4.57,8.76-9.17,14.02-12.64,5.27-3.47,11.55-5.75,17.83-5.14,8.79.86,16.52,7.69,19.09,16.14,2.57,8.45.2,18.07-5.5,24.82Z"/>
        <path class="cls-7" d="m1230.6,803.2c-18.05.8-35.13,12.3-43.02,28.55-7.89,16.25-6.47,36.56,3.28,51.77,9.75,15.21,27.37,24.95,45.44,25.51,4.74.15,9.6-.32,13.95-2.23,4.35-1.91,8.15-5.41,9.63-9.93,1.48-4.51.26-9.99-3.51-12.89-5.46-4.19-13.2-1.79-20.08-1.59-12.83.37-25.31-8.78-28.88-21.09l1.12-.65c12.52,3.06,25.04,6.11,37.56,9.17,4.89,1.19,10.05,2.39,14.9,1.02,5.94-1.67,10.25-6.95,12.68-12.62,5.47-12.77,2.69-28.42-6.13-39.17-8.82-10.74-23.06-16.49-36.94-15.87Zm19.67,47.28c-12.22-3.53-23.15-6.41-35.73-8.34.23-7.36,5.22-14.34,12.1-16.94,6.89-2.6,15.25-.64,20.27,4.73,5.02,5.38,6.41,13.85,3.35,20.55Z"/>
        <path class="cls-7" d="m1280.3,854.34c-11.17,13.79-13.85,33.84-7.04,50.24,6.8,16.39,22.66,28.58,40.2,31.33,17.54,2.75,36.18-3.87,48.36-16.78,3.2-3.39,6.02-7.26,7.45-11.71,1.43-4.44,1.33-9.52-1.02-13.55-2.35-4.03-7.18-6.7-11.76-5.82-6.64,1.28-9.92,8.54-14.26,13.72-8.09,9.67-22.95,12.89-34.32,7.49l.26-1.25c10.41-7.21,20.81-14.42,31.22-21.64,4.07-2.82,8.31-5.83,10.46-10.29,2.64-5.45,1.57-12.07-1.02-17.55-5.82-12.35-19.15-20.5-32.79-21.02-13.64-.52-27.15,6.21-35.74,16.82Zm47.58,16.34c-10.56,6.68-19.8,12.84-29.41,20.83-5.26-4.96-7.14-13.18-4.56-19.94,2.58-6.75,9.46-11.63,16.69-11.82,7.23-.19,14.36,4.32,17.29,10.93Z"/>
        <path class="cls-7" d="m1441.52,884.25c3.04-14.16-6.53-31.54-23.2-20.53-20.79-51.02-55.43-76.73-107.95-95.94-3.23-1.17-7.6-1.55-9.96,1.43-3.63,4.58-5.67,10.08-7.81,15.44-1.8,4.49-3.29,9.16-3.96,13.96-.94,6.72,0,14.2,6.02,18.32,16.83,9.1,32.22-4.94,25.57-18.63,31.42,11.79,60.41,31.33,67,84.37-24.83,22.77,10.44,44.21,33.93,21.96-1,2,17.29-6.03,20.37-20.37Z"/>
      </g>
      <g>
        <path class="cls-4" d="m1011.45,856.27c0,19.15,12.26,37.02,33.47,52.15,0,0,.01,0,.02.01,40.09,27.28,106.42,45.43,181.91,46.44,1.22.01,2.44.02,3.66.03.99,0,1.97,0,2.96,0,.83,0,1.66,0,2.49,0,.95,0,1.91-.01,2.86-.02,7.48-.08,14.87-.33,22.16-.74,1.04-.06,2.08-.12,3.12-.19l2.76-.18c1.62-.11,3.23-.23,4.83-.35.51-.04,1.01-.08,1.51-.12,1.2-.1,2.4-.2,3.59-.31,46.98-4.22,88.87-15.18,120.89-30.65,35.47-17.49,57.07-40.66,57.07-66.07,0-54.48-99.23-98.64-221.64-98.64-122.41,0-221.65,44.17-221.65,98.64Z"/>
        <path class="cls-4" d="m909.99,857.61c0,19.15-12.26,37.02-33.47,52.15,0,0-.01,0-.02.01-40.09,27.28-106.42,45.43-181.91,46.44-1.22.01-2.44.02-3.66.03-.99,0-1.97,0-2.96,0-.83,0-1.66,0-2.49,0-.95,0-1.91-.01-2.86-.02-7.48-.08-14.87-.33-22.16-.74-1.04-.06-2.08-.12-3.12-.19l-2.76-.18c-1.62-.11-3.23-.23-4.83-.35-.51-.04-1.01-.08-1.51-.12-1.2-.1-2.4-.2-3.59-.31-46.98-4.22-88.87-15.18-120.89-30.65-35.47-17.49-57.07-40.66-57.07-66.07,0-54.48,99.23-98.64,221.64-98.64s221.65,44.17,221.65,98.64Z"/>
      </g>
      <path class="cls-12" d="m1022.78,990.12l-.78,1.07c-18.2-13.61-44.42-22.64-67.21-19.63-22.2,2.93-43.71,12.05-64.17,21.29h0c12.01-8.26,23.42-17.49,34.01-27.79,11.94-11.61,15.42-21.75,34.71-21.72,15.95.03,22.99,11.47,33.59,21.79,9.45,9.2,19.45,17.5,29.85,24.99Z"/>
      <g>
        <path class="cls-11" d="m444.3,1030.27c-11.14-4.25-20.81-11.23-31.48-16.66,7.86-5.47-.02-18.51-8.75-13.44-2.64,2.32-.94-4.1-3.78-5.4-3.62-2.23.04-9.17-5.56-11.51-4.48-1.6-.68-10.82-8.53-11.47,7.79-8.82-5.99-20.14-12.7-10.2-3.91,6.78-6.04,14.61-8.45,21.9-5.27,16.04-71.5,119.04-39.81,115.86,15.25-16.81,61.27-52.89,85.52-62.22,12.48-3.47,22.02,4.53,33.54,5.98,8.22-.39,8.27-13.23,0-12.84Z"/>
        <path class="cls-11" d="m1438.88,1036.77c-.12-.82,1.84-1.91,5.56-3.06,3.72-1.14,9.21-2.25,16.1-2.92,3.45-.35,7.24-.52,11.33-.57,4.08.02,8.46.12,13.04.56,9.18.8,19.22,2.67,29.43,5.85,5.09,1.61,9.98,3.48,14.59,5.52,4.62,2.03,8.92,4.33,12.92,6.65,4,2.33,7.63,4.84,10.94,7.26,3.27,2.49,6.22,4.92,8.77,7.3,5.11,4.75,8.75,9.05,10.94,12.28,2.19,3.23,3,5.33,2.4,5.88-.63.58-2.61-.42-5.74-2.53-3.12-2.11-7.47-5.26-12.92-8.88-2.72-1.82-5.77-3.7-9.04-5.67-3.32-1.9-6.86-3.92-10.71-5.81-3.84-1.89-7.9-3.81-12.23-5.53-4.31-1.74-8.84-3.38-13.55-4.87-18.87-5.92-36.88-8.01-50.02-8.84-6.58-.43-11.97-.66-15.74-.97-3.77-.32-5.94-.81-6.06-1.65Z"/>
        <path class="cls-11" d="m1595.7,1065.11c-5.85-18.6-53.89-140.94-62.06-100.68,3.56,14.92-12.13,39.42-22.17,50.15,2.98-21.13-20.64.63-28,5.18-6.97.2-11.13,7.31-18.53,6.3-8.22.39-8.27,13.23,0,12.84,9.64-1.02,21.39,2.5,26.88-6.07,6.21,12.35,31.56,3.02,42.47,15.05,13.42,8.14,47.09,45.07,60.13,51.72,11.22,22.79,4.15-23.29,1.29-34.49Z"/>
        <path class="cls-11" d="m423.24,1017.79c.25-.35,3.79,1.59,10.34,5.41,6.71,3.56,16.55,8.88,29.96,14.04,13.38,5.18,30.29,10.13,50.34,13.85,10.05,1.76,20.84,3.36,32.37,4.46,11.53,1.11,23.76,1.88,36.64,2.31,25.76.86,54.03.45,84.21-1.97,30.16-2.45,62.27-6.89,95.24-14.87,16.48-4,33.15-8.92,49.76-15.02,16.6-6.1,33.15-13.4,49.19-22.22,16.04-8.82,31.58-19.17,45.97-31.29,3.7-2.92,7.06-6.23,10.56-9.41l2.61-2.41c.8-.82,1.61-1.59,2.4-2.44,1.59-1.67,3.16-3.43,4.79-5.26,1.67-1.84,3.35-3.76,5.36-5.68,2.01-1.91,4.29-3.79,6.9-5.36,2.65-1.53,5.52-2.69,8.42-3.44.72-.19,1.44-.3,2.16-.45.72-.14,1.45-.3,2.15-.36,1.42-.15,2.86-.35,4.23-.36l2.09-.07c.69-.03,1.46.04,2.19.07l1.1.06c.37.01.74.04,1.11.1l2.23.32c.37.04.74.12,1.11.22l1.1.27c.73.18,1.47.34,2.18.62l2.14.75,2.05.93c2.67,1.32,5.17,2.91,7.32,4.67,2.16,1.74,4.16,3.58,5.95,5.41,3.64,3.67,6.76,7.24,10.08,10.41,1.73,1.61,3.47,3.22,5.2,4.83l2.59,2.41c.85.82,1.79,1.54,2.67,2.31,14.24,12.3,29.59,22.92,45.5,31.96,15.96,8.96,32.42,16.4,48.97,22.6,2.05.82,4.15,1.5,6.22,2.24,2.08.73,4.15,1.45,6.21,2.17,2.08.67,4.16,1.34,6.23,2,2.07.67,4.14,1.34,6.22,1.93,2.08.61,4.15,1.22,6.22,1.83,2.06.63,4.15,1.13,6.21,1.7,2.07.55,4.13,1.13,6.19,1.64,2.07.5,4.13,1.01,6.19,1.51,32.96,7.87,65.12,11.88,95.3,13.64,7.55.43,14.97.72,22.28.9,3.66.1,7.28.13,10.86.16,1.79.02,3.58.04,5.35.05,1.78.02,3.54.04,5.3,0,3.51-.04,6.99-.08,10.43-.12,1.72,0,3.43-.08,5.13-.13,1.7-.06,3.39-.12,5.07-.17,1.68-.06,3.36-.11,5.02-.17,1.66-.06,3.31-.19,4.96-.27,3.29-.19,6.53-.38,9.74-.57,25.64-1.93,48.7-5.38,68.65-9.81,2.49-.58,4.93-1.16,7.33-1.72,2.4-.57,4.77-1.07,7.06-1.72,2.3-.61,4.55-1.21,6.75-1.8,2.21-.59,4.38-1.13,6.47-1.79,4.19-1.27,8.23-2.43,12.04-3.63,3.8-1.26,7.41-2.45,10.84-3.59,1.72-.54,3.35-1.18,4.96-1.75,1.6-.58,3.15-1.14,4.66-1.69,1.51-.54,2.96-1.07,4.37-1.57,1.41-.5,2.74-1.06,4.04-1.56,2.6-1,4.99-1.93,7.18-2.78,1.1-.42,2.15-.82,3.14-1.2.99-.4,1.92-.79,2.8-1.15,7.06-2.87,10.87-4.2,11.06-3.82.18.38-3.27,2.45-10.04,6.05-.85.45-1.75.92-2.69,1.42-.96.47-1.98.96-3.04,1.47-2.14,1.02-4.47,2.13-7,3.33-1.27.59-2.58,1.24-3.96,1.83-1.39.6-2.82,1.21-4.31,1.85-1.49.63-3.02,1.29-4.6,1.96-1.59.66-3.2,1.4-4.91,2.03-3.4,1.31-7,2.69-10.78,4.14-3.81,1.38-7.84,2.72-12.04,4.18-2.09.75-4.27,1.38-6.49,2.06-2.22.68-4.48,1.37-6.78,2.07-2.3.74-4.68,1.32-7.1,1.99-2.42.65-4.88,1.31-7.39,1.98-20.12,5.14-43.49,9.26-69.51,11.77-3.26.26-6.55.52-9.89.78-1.67.12-3.34.28-5.03.38-1.69.09-3.39.18-5.09.27-1.71.09-3.42.18-5.15.27-1.73.09-3.46.2-5.21.23-3.49.1-7.02.21-10.58.31-1.78.07-3.57.08-5.37.09-1.8.01-3.61.03-5.42.04-3.64.03-7.3.06-10.99.01-7.4-.06-14.95-.24-22.63-.57-30.7-1.35-63.52-5.04-97.34-12.8-2.11-.49-4.23-.99-6.35-1.49-2.12-.51-4.24-1.08-6.36-1.63-2.12-.57-4.27-1.07-6.39-1.69-2.13-.61-4.26-1.21-6.4-1.82-2.14-.59-4.27-1.26-6.41-1.93-2.14-.67-4.28-1.34-6.42-2.01-2.13-.73-4.27-1.46-6.41-2.19-2.14-.75-4.3-1.44-6.42-2.27-17.1-6.28-34.17-13.88-50.79-23.11-16.57-9.31-32.64-20.34-47.58-33.19-.93-.81-1.91-1.56-2.8-2.41l-2.72-2.52c-1.81-1.68-3.63-3.37-5.45-5.05-3.7-3.53-7-7.3-10.25-10.55-3.25-3.28-6.49-6.05-9.95-7.7l-1.3-.6-1.34-.46c-.44-.18-.91-.27-1.37-.38l-.69-.17c-.23-.07-.46-.12-.7-.14l-1.44-.2c-.24-.05-.48-.07-.73-.07l-.75-.03c-.51-.01-.97-.08-1.52-.05l-1.62.05c-1.1,0-2.11.16-3.15.26-.53.03-1,.16-1.5.25-.48.1-.99.17-1.46.3-1.88.5-3.59,1.2-5.22,2.11-1.6.97-3.14,2.21-4.69,3.67-1.54,1.46-3.1,3.22-4.71,4.99-1.62,1.81-3.29,3.69-5.06,5.55-.87.93-1.82,1.84-2.72,2.76l-2.74,2.53c-3.68,3.34-7.23,6.8-11.1,9.86-15.11,12.67-31.36,23.41-48.05,32.49-16.69,9.08-33.82,16.52-50.94,22.68-17.13,6.16-34.25,11.06-51.13,15-33.77,7.85-66.47,11.98-97.1,14.03-30.65,2.02-59.28,1.93-85.32.51-13.03-.71-25.43-1.79-37.12-3.21-11.7-1.42-22.66-3.37-32.84-5.48-20.34-4.44-37.44-10.17-50.82-16.15-13.41-5.95-23.07-12.05-29.44-16.33-6.21-4.55-9.28-7.16-9.04-7.49Z"/>
        <path class="cls-11" d="m1005.79,813.1c-.17.34-.42.73-.73,1.14-.31.42-.69.88-1.15,1.35-1.81,1.92-4.78,4.27-8.84,6.6-.44.27-.89.52-1.37.77-.6.32-1.23.63-1.87.96-1.14.57-2.37,1.09-3.63,1.64-1.29.5-2.61,1.05-4.01,1.49-.7.23-1.41.47-2.13.69-.73.2-1.47.41-2.22.62-3.02.78-6.23,1.47-9.62,1.85-3.38.4-6.92.59-10.54.5-3.63-.12-7.14-.5-10.5-1.09-3.36-.57-6.53-1.44-9.5-2.39-.73-.25-1.47-.5-2.18-.75-.71-.26-1.41-.54-2.1-.81-1.38-.52-2.66-1.15-3.92-1.72-1.23-.62-2.42-1.21-3.54-1.85-.82-.48-1.61-.92-2.36-1.39h0c-.26-.17-.53-.33-.78-.51-3.92-2.55-6.75-5.07-8.45-7.09-.44-.49-.79-.96-1.07-1.41-.28-.44-.51-.83-.66-1.18-.31-.7-.34-1.23-.09-1.57.24-.33.77-.47,1.52-.42.28.02.58.06.92.12.12.03.25.05.38.08.48.12,1.02.27,1.63.44,2.39.73,5.65,1.95,9.62,3.31.98.37,2.05.66,3.13,1.03,1.08.35,2.22.67,3.38,1.02,1.18.3,2.38.68,3.65.97.62.15,1.26.31,1.9.47.65.14,1.3.28,1.97.43,2.66.54,5.45,1.08,8.36,1.42,2.91.35,5.94.6,9.03.71,3.1.07,6.13,0,9.05-.2,2.93-.17,5.74-.55,8.43-.95.67-.11,1.33-.21,1.99-.32.65-.12,1.29-.24,1.93-.36,1.27-.21,2.49-.53,3.69-.76,1.18-.3,2.33-.55,3.44-.84,1.09-.3,2.17-.54,3.17-.85,3.83-1.07,7-2.04,9.39-2.66.14-.04.27-.07.41-.1.61-.14,1.16-.26,1.65-.34.49-.09.93-.14,1.31-.14.75,0,1.26.15,1.49.51.23.35.17.87-.17,1.56Z"/>
        <path class="cls-11" d="m1022.78,990.12c-.48.66-4.49-1.14-11.12-5.43-3.31-2.15-7.26-4.94-11.68-8.4-2.21-1.73-4.53-3.63-6.95-5.71-1.21-1.05-2.43-2.1-3.7-3.27-1.28-1.16-2.53-2.36-3.8-3.59-2.53-2.46-5.05-5.03-7.72-7.37-2.67-2.32-5.47-4.46-8.55-5.76-3.08-1.33-6.39-2.02-10.09-1.89-3.95.08-7.74.7-10.99,2.15l-.62.26-.59.33c-.39.22-.79.42-1.18.66-.38.26-.76.52-1.14.78-.39.24-.75.59-1.12.87-1.5,1.21-2.97,2.67-4.5,4.36-.75.81-1.54,1.73-2.32,2.61-.81.92-1.63,1.85-2.44,2.79-1.65,1.89-3.47,3.81-5.34,5.71-7.31,7.23-15.33,14.21-23.98,20.79-3.6,2.74-7.23,5.35-10.87,7.84l-5.93-10.51c8.28-3.71,16.48-7.23,24.62-10.29,4.06-1.54,8.12-2.93,12.14-4.21,4.02-1.27,8.03-2.37,11.98-3.34,3.97-.91,7.87-1.74,11.74-2.31.96-.17,1.92-.29,2.88-.41.96-.12,1.9-.25,2.86-.35.98-.07,1.95-.15,2.92-.22.48-.04.96-.07,1.44-.1.48,0,.95-.01,1.43-.02,7.6-.15,14.62.82,20.9,2.29,6.29,1.48,11.87,3.48,16.72,5.6,2.44,1.03,4.66,2.19,6.75,3.25,2.05,1.15,3.97,2.19,5.66,3.3,6.86,4.31,10.83,8.17,12.3,10.06l-1.11.17c.74-.57,1.21-.77,1.42-.61.22.16.17.67-.15,1.54l-.17.47-.94-.31c-2.28-.75-6.88-3.39-13.94-6.43-1.74-.8-3.69-1.52-5.73-2.35-2.08-.74-4.27-1.58-6.65-2.3-4.72-1.49-10.03-2.87-15.86-3.78-5.81-.91-12.15-1.35-18.72-.86-.41.03-.82.05-1.24.08-.41.05-.82.11-1.23.16-.82.1-1.65.21-2.49.31-.85.13-1.73.3-2.6.44-.87.15-1.75.3-2.63.49-3.53.68-7.13,1.6-10.8,2.58-3.66,1.05-7.39,2.19-11.16,3.51-3.77,1.32-7.61,2.74-11.48,4.3-7.75,3.1-15.7,6.65-23.88,10.37l-5.93-10.51c3.47-2.41,6.94-4.93,10.38-7.54,8.26-6.29,15.98-12.89,23.03-19.64,1.68-1.64,3.31-3.3,4.93-5.08.82-.9,1.64-1.79,2.45-2.68.86-.92,1.67-1.83,2.58-2.76.87-.92,1.83-1.85,2.78-2.76.48-.46,1.02-.9,1.53-1.35.26-.22.51-.45.78-.66l.84-.64c.57-.41,1.09-.86,1.7-1.23.6-.38,1.2-.76,1.8-1.13.61-.36,1.26-.66,1.89-.99.32-.16.63-.32.95-.47l.98-.39c.66-.25,1.31-.52,1.96-.74.66-.19,1.32-.37,1.98-.56.33-.09.66-.19.99-.26l.98-.18c.65-.12,1.3-.23,1.95-.35,1.28-.17,2.54-.25,3.8-.37,1.23-.02,2.45-.04,3.66-.05,5.03.03,10.18,1.29,14.48,3.5.27.14.55.26.81.41l.77.45c.51.3,1.01.61,1.52.91.94.66,1.91,1.3,2.77,1.99.85.7,1.73,1.38,2.49,2.1.39.36.78.71,1.17,1.07.36.36.73.72,1.09,1.08,2.87,2.87,5.26,5.7,7.54,8.29,4.44,5.11,8.85,9.53,12.71,13.4,3.88,3.85,7.31,7.1,10.11,9.79,5.62,5.35,8.69,8.44,8.19,9.14Z"/>
        <path class="cls-11" d="m473.84,1045.22c-.8,1.66-8.43-.9-20.98-1.28-3.13-.13-6.57-.07-10.24.07-.92.04-1.86.13-2.8.19-.95.08-1.91.1-2.89.23-1.95.22-3.96.39-6.01.72-4.1.54-8.38,1.38-12.76,2.4-4.39,1-8.85,2.34-13.31,3.9-8.97,3.17-17.3,7.22-24.78,11.15-7.47,3.98-14.15,7.86-19.82,11.1-5.67,3.25-36.92,27.2-37.41,26.52-.49-.68,18.33-20.22,20.88-22.97,2.56-2.75,6.5-6.4,11.64-10.63,5.15-4.22,11.54-8.99,19.1-13.73,7.59-4.69,16.36-9.38,26.31-12.9,5-1.76,9.96-3.14,14.83-4.08,4.86-.96,9.6-1.63,14.15-1.91,2.27-.2,4.49-.21,6.65-.26,1.08-.04,2.15.03,3.19.05,1.05.04,2.08.05,3.09.12,4.05.29,7.81.75,11.2,1.47,1.69.37,3.3.68,4.8,1.16.75.22,1.47.44,2.18.65.35.11.7.21,1.03.32.33.13.66.25.99.38,1.29.5,2.48.97,3.55,1.44,1.06.53,2.02,1.04,2.86,1.51.42.24.82.46,1.18.69.36.25.69.49.99.72.6.46,1.1.87,1.47,1.25.75.74,1.05,1.31.87,1.69Z"/>
      </g>
      <g>
        <path class="cls-7" d="m426.8,1016.66c-.26,3.63-2.39,7.09-5.52,8.96-3.23,1.94-7.45,2.13-10.84.5-15.68-13.54-26.64-36.33-33.98-55.7-3.23-8.52-5.55-17.66-4.38-26.7,1.16-8.96,6.31-19.16,17.25-21.88v.15c.04,13.88,3.96,31.79,10.13,48.74,6.17,16.95,23.37,41.29,27.33,45.93Z"/>
        <path class="cls-7" d="m1488.06,1015.77c.15,3.64,2.16,7.16,5.23,9.13,3.17,2.04,7.38,2.36,10.81.84,16.1-13.04,27.76-35.48,35.71-54.61,3.49-8.41,6.1-17.48,5.22-26.55-.88-9-5.7-19.35-16.56-22.41v.15c-.49,13.87-4.96,31.65-11.66,48.4-6.7,16.75-24.66,40.53-28.76,45.04Z"/>
      </g>
      <line class="cls-1" x1="902.86" y1="255.55" x2="899.24" y2="235.9"/>
      <line class="cls-1" x1="1011.45" y1="844.19" x2="959.77" y2="564.01"/>
      <line class="cls-1" x1="1017.41" y1="234.55" x2="1013.74" y2="255.55"/>
      <polygon class="cls-10" points="1027.49 -77.41 960.05 479.57 890.74 -77.41 1027.49 -77.41"/>
      <line class="cls-1" x1="960.05" y1="479.57" x2="916.93" y2="886.87"/>
    </g>
  </g>
</svg>