<?xml version="1.0" encoding="UTF-8"?>
<svg xmlns="http://www.w3.org/2000/svg" viewBox="0 0 2003.85 1335.9">
  <defs>
    <style>
      .cls-1, .cls-2, .cls-3, .cls-4 {
        fill: none;
      }

      .cls-2 {
        isolation: isolate;
      }

      .cls-5 {
        fill: #fff;
      }

      .cls-6 {
        fill: #c1c3be;
      }

      .cls-7 {
        fill: #d9821e;
      }

      .cls-8 {
        fill: #ddd4c7;
      }

      .cls-9, .cls-10 {
        fill: #e09d1b;
      }

      .cls-11 {
        fill: #161513;
      }

      .cls-12 {
        fill: #1a1818;
      }

      .cls-13 {
        fill: #959c94;
      }

      .cls-10 {
        mix-blend-mode: overlay;
      }

      .cls-3 {
        stroke: #2d2a26;
        stroke-width: 7px;
      }

      .cls-3, .cls-4 {
        stroke-miterlimit: 10;
      }

      .cls-4 {
        stroke: #fff;
        stroke-width: .5px;
      }
    </style>
  </defs>
  <g class="cls-2">
    <g id="Layer_1" data-name="Layer 1">
      <path class="cls-12" d="m1034.55,854.64c.25.38-3.24,3.44-10.02,6.5-6.7,3.11-16.86,5.96-28.29,5.76-5.7-.08-11.1-.86-15.88-2.11-4.78-1.22-8.89-2.88-12.23-4.45-6.66-3.19-10.31-5.92-10.07-6.37.28-.52,4.4,1.33,11.14,3.77,3.38,1.19,7.42,2.52,12,3.48,4.57.99,9.69,1.62,15.08,1.7,10.81.19,20.49-2.06,27.2-4.4,6.77-2.27,10.73-4.43,11.05-3.88Z"/>
      <path class="cls-12" d="m1064.31,695.15c.05-.24.44-.37.88-.34.44.03.81.2.83.44.02.24-.38.47-.89.44-.51-.03-.87-.31-.83-.55Z"/>
      <path class="cls-12" d="m1100.71,684.67c.18-.17.4-.23.49-.13.1.1.03.32-.16.48-.18.17-.4.22-.49.13s-.02-.31.16-.48Z"/>
      <path class="cls-12" d="m1181.34,585.92c-.24.03-.67-2.29-.96-5.19-.29-2.9-.32-5.26-.08-5.28.24-.01.68,2.31.96,5.19.29,2.88.32,5.24.08,5.28Z"/>
      <path class="cls-12" d="m1249.62,582.14c-.11-.22-.08-.46.06-.54.14-.08.36.03.5.23s.1.45-.06.54c-.17.09-.39-.01-.5-.23Z"/>
      <path class="cls-12" d="m1249.36,582.65c-.12-.21-.12-.44,0-.5.12-.06.31.06.41.28.11.22.11.45,0,.5-.11.06-.29-.07-.41-.28Z"/>
      <path class="cls-12" d="m1174.41,509.08c-.22-.11-.38-.23-.36-.27s.21.04.41.17c.21.13.37.25.36.27s-.2-.06-.41-.17Z"/>
      <path class="cls-12" d="m1268.96,521.23c-.09.09-.23.09-.41.01-.09-.04-.18-.09-.28-.17-.11-.1-.17-.11-.33-.34-.21-.59-.15-1,.08-1.09.23-.09.58.29.71.67-.02-.02.11.14.15.21.05.09.09.19.12.27.05.18.04.33-.04.42Z"/>
      <path class="cls-12" d="m1472.19,438.07c.01-.24.09-.44.16-.44s.12.21.1.45c-.01.25-.09.44-.16.44s-.12-.21-.1-.45Z"/>
      <path class="cls-12" d="m1536.67,413.4c.18-.17.33-.29.34-.28,0,.01-.13.16-.31.32s-.33.29-.34.28c0-.01.13-.16.31-.32Z"/>
      <path class="cls-12" d="m1589.9,941.39c.03-.69.17-1.24.31-1.23.14,0,.2.57.14,1.26-.07.68-.21,1.24-.31,1.23s-.17-.57-.14-1.26Z"/>
      <path class="cls-9" d="m1766.75-45.51l-230.69,956.45c-45.85-82.19-131.26-130.12-256.9-127.01-38.96.96-77.99,9.75-115.4,27.94-24.9,12.11-82.16,48.42-115.15,116.9l-47.02-429.64-45.08,431.48c-33.04-68.12-90.04-104.24-114.87-116.31-37.41-18.2-76.45-26.98-115.4-27.94-125.77-3.12-211.23,44.91-257.04,127.26L236.2-45.51h1530.55Z"/>
      <path class="cls-9" d="m956.51,848.06l-7.31,41.85h-467.45l-12.56-52.02c45.81-49.26,131.27-77.99,257.04-76.12,38.95.57,77.99,5.83,115.4,16.71,24.83,7.22,81.83,28.83,114.87,69.57Z"/>
      <path class="cls-9" d="m1536.06,836.3l-12.42,52.16h-467.45l-7.59-41.49c33-40.96,90.25-62.68,115.15-69.92,37.41-10.88,76.44-16.14,115.4-16.71,125.64-1.86,211.05,26.81,256.9,75.97Z"/>
      <g>
        <path class="cls-11" d="m554.31,528.6c.75-10.53-12.64-11.78-18.73-5.23-6.33,5.8-8.56,14.96-14.95,20.72-9.26,7.29-32.22,15.75-35.04-1.76,2.61-35.84,6.7-115.94,50.42-128.77,2.43-1.26,4.59-3.47,4.85-6.2.4-6.49-7.58-9.13-12.78-6.83-2.71.96-7.8,4.65-7.8,4.65.82-2.95-1.24-6.19-4.09-7.34-6.14-2.35-11.94,2.5-15.9,6.77-6.1,7.8-15.89,10.04-25.38,7.73-16.7-5.06-35.48-6.11-45.55,10.93-6.6,8.65-3.57,21.97,9.26,17.65,6.62-2.47,11.56-9.46,19-9.68,13.05.45,15.68,16.51,13.15,26.92-1.17,23.03-26.99,65.1-14.81,83.85,1.8,1.79,2.81,4.52,2.33,7.01-1.57,6.92-11.67,6.2-15.05,11.61-1.91,3.03-1.12,7.26,1.26,9.94,5.11,5.58,13.53,4.54,20.26,3.12,22.81-4.37,43.25-8.69,66.45-7.96,7.71.94,11.4-3.96,8.37-11.09-9.19-17.1,10.94-14.63,14.71-26.05Z"/>
        <path class="cls-11" d="m464.51,391.38c1.7,1.07,3.98,1.12,5.76.19,1.43-.74,2.48-2.02,3.54-3.23,1.06-1.21,2.22-2.43,3.74-2.98,1.51-.55,3.47-.22,4.3,1.15.6.98.5,2.26.04,3.31-.29.65-.7,1.23-1.16,1.78l.24.2c-1.18,1.46-.66,3.86.87,4.93,1.54,1.07,3.74.88,5.27-.21,1.53-1.09,2.41-2.92,2.66-4.77.26-1.86-.07-3.75-.56-5.55-.91-3.28-2.45-6.46-4.94-8.79-2.48-2.33-5.99-3.71-9.34-3.13-3.76.65-6.69,3.51-9.36,6.22-1.62,1.64-3.32,3.47-3.58,5.75-.22,2,.82,4.07,2.52,5.14Z"/>
        <path class="cls-11" d="m583.22,535.5c-2.1,4.49-9.1,10.04-13.56,12.21-15.77,4.96-10.47,13.65-16.59,25.02-4.68,6.96-15.38,8.28-19.2,15.74-6.29,16.93,15.25,30.59,30.08,31.2,38.74-2.13,63.96-1.13,75.64-63.21,6.25-35.15-26.76-72.23-56.38-20.97Zm40.75,9.42c-1.19,8.04-8.59,13.81-10.94,21.58-.9,2.98-1.01,6.12-1.46,9.2-.45,3.08-1.3,6.24-3.37,8.56-1.34,1.5-3.1,2.55-4.83,3.57-2.1,1.24-4.21,2.49-6.31,3.73-3.38,2-3,4.18-12.75,2.28-1.81-.35-5.13,1.37-6.96,1.57-2.39.27-5.14-.2-6.12-2.86-.36-.97-.37-2.04-.09-3.03.73-2.6,2.89-4.27,5.12-5.55,1.83-1.05,3.78-1.92,5.44-3.23,1.66-1.3,3.04-3.16,3.15-5.27.07-1.4-.41-2.83-.1-4.2.37-1.63,1.82-2.84,3.37-3.46,1.56-.62,3.26-.77,4.9-1.08,1.65-.3,3.34-.81,4.55-1.97.3-.29.65-.74,1.01-1.26,1.34-1.96,2.15-4.23,2.42-6.59.25-2.21.71-5.25,1.47-7.57,1.49-4.55,3.13-9.31,6.68-12.52,2.95-2.66,7.57-3.89,10.98-1.84,3.22,1.94,4.39,6.2,3.84,9.92Z"/>
        <path class="cls-11" d="m744.05,559.04c3.74-5.11,5.17-12.78,3.61-18.86-1.41-6.23-10.41-9.89-13.95-5.21-3.62-28.38-2.23-57.39,4.1-85.29,1.15-5.05,2.21-11.08-1.39-14.81-3.05-3.15-8.03-3.09-12.4-2.82-9.95,1.33-21.47-.68-30.28,4.72-9.79,8.78-2.7,18.33,9.32,15.8,10.48-1.91,16.29,2.73,14.69,13.53-2.71,20.61-6.39,43.24-18.96,60.27-10.09,10.67-24.05,2.23-23.54-11.51.12-6.99,3.15-13.53,5.43-20.14,6.57-15.94,1.22-33.93-17.92-34.38-7.1.05-28.85,1.93-29.08,11.06-.12,8.18,11.18,8.57,16.07,5.6.13-.06.28-.12.42-.17,4.77-1.74,11.42,1.16,11.34,6.24-.23,13.58-16.25,27.09-17.57,40.53-2.61,46.46,56.68,50.38,73.64,14.56h0l-4.15,11.67c-1.04,2.91-2.07,6.29,1.5,8.65,2.3,1.99,15.23,2.08,18.14,2.71,3.84.38,8.25.57,10.98-2.16Z"/>
        <path class="cls-11" d="m820.26,582.75c.76-4.43-3.64-8.39-8.11-8.89-4.47-.5-8.81,1.43-12.89,3.31,10.22-25.73,14.75-99.73,6.23-115.68-2.62-4.91-8.43-7.29-13.8-8.8-5.72-1.61-11.97-2.09-17.52,0-5.56,2.1-10.22,7.21-10.56,13.14-.24,4.21,2.12,8.75,6.15,10,3.06.95,6.41-.08,9.56.53,3.6.69,6.53,3.51,8.2,6.78,1.67,3.27,2.68,6.95,2.67,10.62-.12,71.6-12.21,79.95-24.7,94.25l-.04.04c-2.49-2.17-5.6-3.64-8.87-4.16-2.99-.47-6.15-.14-8.84,1.27-2.78,1.45-4.96,4.09-5.62,7.16-.65,3.07.34,6.49,2.7,8.54,3.51,3.05,8.78,2.56,13.37,1.81,17.56-2.87,34.93-6.89,51.96-12.04,4.32-1.31,9.33-3.45,10.09-7.9Z"/>
        <path class="cls-11" d="m774.72,434.7c3.7,1.58,8.55-.92,9.41-4.86.07-2.08-2.1-9.56,3.19-12.14,2.12-1.03,4.65-.16,6.66,1.09,2,1.24,3.96,2.82,6.31,3.01,3.71.29,6.9-3.36,7.07-7.08.17-3.72-2.02-7.21-4.81-9.67-7.04-6.22-18.46-6.75-26.05-1.22-7.59,5.54-10.58,16.57-6.81,25.17,1.04,2.38,2.66,4.66,5.04,5.69Z"/>
        <path class="cls-11" d="m806.9,425.25c-.28,2.1,1.49,4.09,3.55,4.57,2.06.49,4.24-.24,6.02-1.37,4.17-2.64,6.71-7.65,6.39-12.58-.11-1.68-.58-3.43-1.77-4.63-1.19-1.2-3.23-1.65-4.6-.66-1.61,1.15-1.61,3.49-1.53,5.48s-.29,4.04-2.09,4.87c-1.31.2-2.62.51-3.75,1.2-1.12.69-2.05,1.81-2.23,3.12Z"/>
        <path class="cls-11" d="m910.38,520.06c-16.64-4.43-39.54-4.28-48.23,13.18-3.99,8.44-2.48,18.87-7.25,26.9-2.98,5.02-8.05,8.45-11.43,13.2-3.39,4.76-4.43,12.31.28,15.76,3.52,3.63,19.23,8.38,27.23,15.32,13.56,11.09,12.73,33.51-5.68,37.92-6.29,1.59-21.6,2.3-24.05-5.18-.75-3.47,2.51-6.63,2.61-10.18.1-3.56-3.16-6.54-6.66-7.2-22.46-1.38-43.78,32.2-18.9,44.63,16.14,5.58,31.27-15.27,47.4-9.33,7.87,3.01,12.42,12.19,20.59,14.27,20.46,2.64,37.03-27.36,37.84-45.15-1.18-46.37-39.37-29.7-47.15-52.55-1.23-5.17.91-10.47,3.01-15.35,6.92-19.49,19.94-21.84,37.24-12.08-6.22,22.11,29.3,18.33,21.23-5.75-4.38-11.36-17.01-16.06-28.08-18.42Z"/>
      </g>
      <g>
        <g>
          <path class="cls-11" d="m1178.64,577.77c.43-3.41.86-6.95-.2-10.24-2.01-6.24-9.89-9.89-16.06-7.59l-.14-.36c-3.32,1.13-7.12-.54-10.37-2.14-3.49-1.72-7.74-3.37-11.1-1.46-3.2,1.82-3.97,6.28-2.6,9.68,1.37,3.39,4.33,5.9,7.32,8.07s6.19,4.19,8.42,7.11c3.3,4.32,4.02,10.15,2.95,15.42-2.16,10.63-12.39,19.56-23.41,18.84-6.72-.44-13.13-4.39-16.48-10.16l.08-.08c-4.07-4.13-9.81-6.65-15.64-6.82-3.6-.11-7.31.63-10.77-.42-3.54-1.08-6.31-3.92-8.01-7.16-1.71-3.24-2.47-6.85-3.11-10.43-1.43-8.07-2.32-16.23-2.64-24.41l.46-.02c-.07-9.62-.13-19.32,1.84-28.73,1.98-9.4,6.18-18.62,13.44-25.02,11.78-10.39,29.21-11.62,45.03-10.19,4.03.36,8.52,1.12,10.94,4.32,4.66,6.17-2.17,15.16.44,22.4,1.69,4.69,7.34,7.32,12.32,6.53,4.98-.79,9.14-4.44,11.51-8.81,2.37-4.38,3.16-9.41,3.43-14.38.4-7.49-.48-15.47-5.01-21.53-2.42-3.24-5.83-5.86-7.32-9.6-.67-1.67-.9-3.39-.84-5.14.49-15.64-14.83-27.07-29.32-21.17-10.26,4.18-19.34,11.11-25.62,20.12-3.28,4.72-6.55,10.43-12.27,11.48-4.47.82-8.86-1.59-13.36-2.32-8.32-1.35-16.66,3.31-21.91,9.75-5.25,6.45-13.39,27.37-14.97,29.39-1.58,2.01-4.33,3.37-6.81,2.59-2.59-.83-4.43-3.76-7.15-3.64-2.87.13-4.28,3.54-4.35,6.36-.23,9.16,6,17.19,8.61,26,1.77,5.99,1.85,12.31,2.61,18.5,2.26,18.37,10.8,35.98,23.92,49.31,2.56,2.6,5.65,5.18,9.16,5.82l-.03.17c4.74,4.05,11.93,2.9,17.97,1.27,6.03-1.62,12.89-3.38,18.23-.11,3.66,2.25,5.68,6.41,9.1,9,3.73,2.82,8.65,3.44,13.33,3.93,6.6.69,13.28,1.31,19.85.41,6.57-.9,13.09-3.49,17.51-8.33,5.81-6.36,7.15-15.43,8.23-23.93.95-7.43,1.89-14.85,2.84-22.27Z"/>
          <path class="cls-11" d="m1083.47,462.99c-.06,1.07.66,2.13,1.68,2.5,1.02.37,2.27.02,2.92-.83l.12.09c1.28-1.72,3.33-2.76,5.37-3.51,2.09-.76,4.28-1.32,6.2-2.44,1.92-1.11,3.58-2.94,3.77-5.13.2-2.34-1.28-4.47-2.02-6.7-.79-2.39-.72-5.04.19-7.38.99-2.55,2.98-4.96,2.57-7.68-.19-1.25-.88-2.36-1.56-3.44-.67-1.06-1.33-2.12-2-3.18-.53-.84-1.09-1.72-1.97-2.23-1.48-.86-3.5-.32-4.67.9-1.17,1.22-1.62,2.97-1.68,4.66s.23,3.36.32,5.05c.24,4.32-.84,8.7-3.06,12.43-1.01,1.69-2.26,3.29-2.73,5.19-.61,2.49.18,5.32-1.07,7.58-.78,1.41-2.32,2.51-2.4,4.12Z"/>
        </g>
        <path class="cls-11" d="m1258.89,500.71c.67-3.06-.61-6.76-3.6-7.82-3.76-1.33-7.43,1.89-10.49,4.42-6.03,4.98-13.59,8.14-21.42,8.96-1.85.19-4.04.12-5.16-1.34-1.39-1.8-.22-4.36,1.03-6.25,13.39-20.25,35.35-34.38,46.68-55.81,1.23-2.34,2.36-4.94,1.89-7.53s-3.21-4.92-5.74-4.05c-1.73.59-2.7,2.35-3.8,3.78-1.11,1.44-2.98,2.76-4.65,2.03-1.91-.83-1.86-3.44-2.41-5.43-.71-2.59-2.91-4.61-5.43-5.67-2.51-1.05-5.31-1.26-8.04-1.18-11.62.33-23,5.8-30.41,14.61-7.41,8.81-10.72,20.82-8.85,32.08,1.29,7.72,4.86,15.17,4.29,22.97-.34,4.62-2.13,9.03-2.74,13.62-.57,4.22.13,9.01,3.2,11.88,3.2,5.59,9.77,8.97,16.34,9.31,6.97.36,13.83-2.3,19.55-6.25,5.71-3.95,10.41-9.12,14.93-14.36,2.06-2.39,4.16-4.93,4.83-7.98Zm-44.57-26.04c-2.16-7.21-.63-15.34,3.9-21.38,4.51-6,11.9-9.83,19.5-9.99,1.11-.02,2.21.37,2.96,1.17,1.69,1.81.44,4.06-.78,5.78-4.45,6.31-5.82,8.12-10.85,13.8-.79.89-5.26,3.25-6.24,3.95-1.09.78-2.41,4.04-2.93,5.35-.76,1.92-.91,4.3-3.26,3.64-1.12-.31-1.98-1.21-2.31-2.31Z"/>
        <path class="cls-11" d="m1329.07,533.45c.7-11.96,14.01-21.06,13.24-33.08-.58-9.09-9.67-16.83-19.67-19.38-19.76-3.99-49.38,3.68-54.53,22.03-2.26,11.66,8.59,23.09,8.26,35-.71,16.43-19.09,25.15-28.78,37.19-15.84,24.63,18.89,52.77,66.56,21.59,14.89-9.87,23.87-27.17,19.74-43.74-1.64-6.57-5.2-12.98-4.81-19.61Zm-16.18-23.48c-2.62,2.96-6.02,5.33-8.55,8.36-4.35,5.21-5.69,11.81-5.69,18.52,0,2.74.23,5.5.56,8.2,1.15,9.31,3.39,18.8,1.24,27.83-1.86,7.79-8.83,18.39-21.69,16.95-5.51-.62-8.95-5.94-6.57-10.24.01-.03.03-.06.05-.08,1.5-2.66,3.92-4.77,6.1-7.01,9.57-9.79,14.99-22.67,15.34-35.87.07-2.69-.08-5.4-.44-8.1-.82-6.12-2.73-12.19-2.71-18.33.01-6.13,2.39-12.63,8.19-15.76,5.81-3.13,15.29-1.03,17.34,4.91,1.29,3.72-.56,7.64-3.18,10.6Z"/>
        <path class="cls-11" d="m1428.78,428.79c-3.33-2.16-7.82-1.51-11.52,0-10.38,4.25-17.68,15-17.53,26.06.01.84-.14,1.68-.45,2.48v.03c-.56,1.41-2.7.99-2.62-.51.19-3.76-.07-7.6-2.31-10.55-3.39-4.49-10.27-5.12-15.61-3.13-5.35,1.99-9.61,6-13.98,9.62-.17.14-.33.28-.51.42-5.55,4.53-12.8,6.28-19.9,5.18-1.51-.23-3-.06-4.44.85-2.59,1.63-3.28,5.35-1.96,8.07,1.32,2.72,4.22,4.46,7.24,5.06,3.01.6,6.14.21,9.15-.38,2.51-.5,5.02-1.13,7.58-1.12,2.56,0,5.24.76,6.95,2.63,1.72,1.88,2.26,4.52,2.5,7.04,1.06,10.98.67,34.32-.51,41.9-4.86,1.19-10.92,2.95-12.74,7.53-1.33,3.35.02,7.42,2.86,9.67,2.84,2.25,6.91,2.74,10.39,1.65,3.49-1.09,6.41-3.63,8.34-6.69,1.31-2.07,2.36-4.53,4.57-5.62,2.19-1.08,4.78-.47,7.2-.17,12.14,1.5,24.9-6.49,28.38-18.12.31-1.04.34-2.16.02-3.2-1.09-3.45-4.74-3.08-6.72-1.31-1.43,1.27-2.19,3.1-2.9,4.86-.71,1.76-1.44,3.59-2.83,4.91-2.7,2.57-7.33,2.38-10.34.19-3-2.19-4.51-5.93-4.82-9.59-.3-3.67.44-7.34,1.19-10.96.85-4.1,1.69-8.2,2.54-12.3.77-3.72,1.54-7.46,3.1-10.93,1.56-3.47,3.98-6.68,7.35-8.53,4.45-2.44,9.72-2.17,14.82-1.17,2.95.58,5.97-.64,7.63-3.11,4.58-6.84,6.55-15.21,4.54-23.16-.75-2.94-2.08-5.94-4.65-7.6Z"/>
        <g>
          <path class="cls-11" d="m1490.34,456.18c1.33.14,2.59-.57,3.61-1.42,1.01-.85,1.89-1.86,3.03-2.55,2-1.21,4.52-1.24,6.85-.9,2.33.33,4.63.98,6.98.99,6.3.02,12.13-5.28,12.59-11.45.15-2-.24-4.13-1.5-5.72-1.25-1.59-3.48-2.52-5.43-1.91-3.22,1.02-4.02,5.25-6.75,7.22-2.04,1.47-4.82,1.43-7.32,1.02-2.5-.41-5.02-1.13-7.52-.8-2.82.37-5.4,2.14-6.72,4.61-1.32,2.47-1.92,5.89-.64,8.39.25.91,1.49,2.39,2.82,2.53Z"/>
          <path class="cls-11" d="m1527.4,530.88c-1.38-2.43-4.76-3.13-7.48-2.4-2.73.73-4.98,2.55-7.25,4.19-11.55,8.34-25.72,13.12-40.07,13.54-4.8.14-9.78-.25-14.01-2.48-1.6-.85-3.4-1.97-4.99-3.29-3-2.49-3.06-6.75-.77-9.39.7-.81,1.62-1.46,2.75-1.87,6.04-2.18,13.4-2.67,19.27-2.31,8.2.51,16.55,1.93,24.55.1,8-1.83,15.71-8.14,15.73-16.21.02-5.57-1.66-9.94-2.24-15.48-.48-4.67-.69-9.99-.79-14.68-.2-8.99-7.79-17.29-16.87-18.45-6.57-.84-13.11,1.69-18.8,5-5.69,3.3-10.88,7.43-16.81,10.31-7.02,3.42-15.08,5.1-20.96,10.18-6.84,5.91-9.38,16.17-6.07,24.54,3.13,7.93,11.3,13.65,19.9,14.13v.19c-.2.04-.4.07-.59.11-3.28.61-6.63.81-9.93,1.33-3.49.55-7.01,1.49-9.9,3.49-2.89,2.01-5.06,5.23-5.05,8.71.01,3.67,2.36,6.93,4.96,9.57,3.91,3.97,8.65,7.13,13.82,9.3-7.84-.66-15.91,2.62-20.94,8.54-5.11,6-6.95,14.54-4.76,22.08,1.51,5.22,5.18,8.25,6.48,9.37,12.28,10.7,39.18,9.49,60.34-.16,4.28-1.95,40.89-19.27,42.69-50.72.4-7.01-1.03-12.93-2.44-17.05l.24-.2Zm-70.92-33.59c.91-2.3,2.74-4.12,4.57-5.81,2.75-2.52,5.63-4.9,8.63-7.12,1.82-1.35,3.9-2.71,6.19-2.53,2.29.17,4.14,1.83,6.24,2.77,3.15,1.41,7.03,1.09,9.89-.81,1.12-.75,2.12-1.74,3.4-2.19,1.28-.45,3.02-.11,3.49,1.15.84,2.21-2.85,4.33-1.9,6.5.68,1.55,3.11,1.49,4.12,2.86.6.8.54,1.93.12,2.83-.43.9-1.17,1.6-1.91,2.28-6.92,6.32-12.94,11.14-21.76,14.51-2.82,1.25-6.68,1.64-9.75,2-3.07.36-6.43-.33-8.6-2.5-1.53-1.53-2.31-3.62-2.83-5.7-.67-2.71-.92-5.63.1-8.23Zm39.99,69.82c-6.05,6.97-15.49,12.56-24.22,15.79-2.61.97-5.37,1.74-8.15,1.53-2.78-.21-5.61-1.59-6.91-4.02-1.34-2.51-1.18-6.08.92-8,11.36-10.44,25.48-9.04,32.13-14.01,7.91-5.9,9.49-.24,9.45,2.23-.04,2.46-1.6,4.62-3.22,6.48Z"/>
        </g>
        <path class="cls-11" d="m1608.53,466.86c-.08-2.46-1.62-4.65-3.83-5.83-4.03-2.14-8.57-.93-12.09,1.5-.42.29-.82.59-1.21.91-3.03,2.49-5.27,5.76-7.73,8.8-2.46,3.03-5.29,5.96-8.97,7.39-2.83,1.1-6.74.9-7.89-2.18-.41-1.11-.31-2.34.16-3.43,1.01-2.34,3.19-3.7,5.35-4.9,5.18-2.87,10.74-5.2,15.55-8.6.68-.49,1.36-.99,2.01-1.53,5.23-4.27,9.2-10.83,8.03-17.44-1.46-8.26-10.74-13.57-19.24-13.12-8.51.45-16.11,5.31-22.4,10.92-11.09,9.91-19.51,22.68-24.17,36.7-1.9,5.7-3.19,11.71-2.54,17.69.27,2.49,1.08,4.65,2.29,6.57,3.28,5.2,9.28,8.05,15.48,7.84,16.35-.56,29.46-14.19,38-26.14,4.69-6.57,10.83-2.97,17.58-7.49,2.76-1.84,5.74-3.98,5.62-7.67Zm-51.73,3.32c-.76.37-1.84.3-2.27-.43-.32-.55-.15-1.24.03-1.84,1.96-6.39,4.96-12.45,8.84-17.91,1.08-1.52,2.25-3,3.77-4.1,1.51-1.1,3.43-1.78,5.29-1.5,1.87.28,3.62,1.67,3.95,3.5.21,1.15-.15,2.35-.74,3.35-.6,1.01-1.42,1.86-2.24,2.71-4.48,4.62-10.22,10-14.7,14.62-.62.56-1.17,1.24-1.93,1.6Z"/>
      </g>
      <g>
        <path class="cls-11" d="m981.03,925.26c-3.18,34.81-22.9,67.1-49.05,90.31-81.35,72.23-374.76,115.03-475.37,29.43-.12-.1-.24-.21-.36-.31-18.63-15.99-30.57-36.43-33.21-61.95-1.69-16.38,1.2-32.53,4.54-48.69,1.48-7.2,3.06-14.39,4.35-21.61,5.05-28.15,17.45-53.27,37.26-74.55,45.81-49.26,131.27-77.99,257.04-76.12,38.95.57,77.99,5.83,115.4,16.71,24.83,7.22,81.83,28.83,114.87,69.57.03.02.04.05.06.07,3.28,4.04,6.33,8.28,9.08,12.7h0c11.27,18.14,17.65,39.51,15.38,64.42Z"/>
        <path class="cls-11" d="m1582.36,981.28c-2.58,24.94-14.03,45.01-31.93,60.83-.85.75-1.7,1.49-2.58,2.21-.84.71-1.7,1.4-2.57,2.08-103.74,81.76-391.44,39.12-471.87-32.29-26.14-23.2-45.87-55.5-49.05-90.31-2.11-23.2,3.27-43.31,13.12-60.61,2.35-4.14,4.97-8.13,7.8-11.96,1.07-1.45,2.18-2.88,3.32-4.28,33-40.96,90.25-62.68,115.15-69.92,37.41-10.88,76.44-16.14,115.4-16.71,125.64-1.86,211.05,26.81,256.9,75.97,19.89,21.32,32.34,46.49,37.4,74.7,1.35,7.51,3,15.01,4.54,22.5,3.25,15.85,6.01,31.71,4.35,47.79Z"/>
      </g>
      <path class="cls-13" d="m1566.32,1063.67l-9.51,4.33c-72.75,34.03-142.31,45.78-223.37,44.84-41.86-.49-198.1-3.67-296.78-99.71-11.18-10.88-18.6-22.95-35.42-22.97-20.33-.04-24,10.66-36.6,22.9-107.71,104.69-295.66,104.49-351.01,102.77-61.22-1.89-125.92-12.08-176.19-46.85-15.2-15.87-20.08-32.06-26.59-49.93-6.5-17.88-10.63-36.77-10.67-51.4v-.16c-.01-9.69,1.77-17.5,5.87-21.86,5.12-5.45,10.44-11.59,17.92-11.9l2.76.58c-3.34,16.15-6.24,32.31-4.54,48.69,2.64,25.52,15.8,46.03,34.44,62.01,100.6,85.6,394.01,42.8,475.37-29.42,26.14-23.21,45.87-55.51,49.04-90.31,2.27-24.92-4.11-46.29-15.37-64.41.79.49,1.62.96,2.48,1.46,1.18.67,2.43,1.29,3.73,1.95,1.32.6,2.68,1.26,4.13,1.81.73.28,1.46.58,2.21.85.76.25,1.53.52,2.3.78,3.14.99,6.48,1.91,10.02,2.51,3.54.62,7.25,1.03,11.07,1.15,3.82.1,7.55-.1,11.12-.52,3.58-.41,6.96-1.13,10.15-1.95.78-.22,1.57-.43,2.34-.65.76-.23,1.51-.48,2.25-.73,1.48-.47,2.88-1.05,4.23-1.57,1.34-.57,2.62-1.13,3.83-1.73.68-.34,1.34-.68,1.97-1.01-9.84,17.29-15.23,37.4-13.11,60.6,3.17,34.81,22.9,67.1,49.04,90.31,80.43,71.41,368.13,114.06,471.87,32.29,19.37-16.15,34.38-39.01,37.08-65.12,1.67-16.07-1.1-31.93-4.35-47.79,7.3.48,13.77,5.55,17.48,11.87,3.6,6.1,4.98,13.25,5.62,20.32l.1,1.16c2.8,35.25-10.33,71.42-34.89,96.82Z"/>
      <g>
        <path class="cls-6" d="m956.35,893.29c0,24.45-16.4,46.86-43.17,65.58,22.37-16.39,36.03-35.48,36.03-56.23,0-59.03-104.64-106.88-233.73-106.88s-233.72,47.85-233.72,106.88c0,27.54,22.77,52.64,60.18,71.59-42.16-20.93-68.11-49.48-68.11-80.95,0-64.19,108.02-116.23,241.27-116.23s241.26,52.04,241.26,116.23Z"/>
        <path class="cls-6" d="m1049.05,891.84c0,24.45,15.67,47.14,42.44,65.86-22.37-16.39-35.29-35.76-35.29-56.5,0-59.03,104.64-106.88,233.73-106.88,129.08,0,233.72,47.85,233.72,106.88,0,27.54-24.26,52.27-61.67,71.22,42.16-20.93,69.6-49.11,69.6-80.58,0-64.19-108.02-116.23-241.27-116.23-133.25,0-241.26,52.04-241.26,116.23Z"/>
      </g>
      <g>
        <path class="cls-8" d="m949.2,899.75c0,20.19-12.93,39.04-35.29,54.99,0,0-.02,0-.02.01-42.28,28.77-112.22,47.9-191.82,48.97-1.29.01-2.57.02-3.86.03-1.04,0-2.08,0-3.12,0-.88,0-1.75,0-2.63,0-1,0-2.01-.01-3.01-.02-7.89-.09-15.68-.35-23.37-.78-1.1-.06-2.19-.13-3.29-.2l-2.91-.19c-1.71-.11-3.41-.24-5.09-.37-.53-.04-1.07-.09-1.59-.13-1.27-.11-2.53-.22-3.78-.33-49.55-4.45-93.71-16.01-127.48-32.32-37.41-18.44-60.18-42.88-60.18-69.68,0-57.45,104.64-104.02,233.72-104.02s233.73,46.57,233.73,104.02Z"/>
        <path class="cls-8" d="m1056.19,898.33c0,20.19,12.93,39.04,35.29,54.99,0,0,.02,0,.02.01,42.28,28.77,112.22,47.9,191.82,48.97,1.29.01,2.57.02,3.86.03,1.04,0,2.08,0,3.12,0,.88,0,1.75,0,2.63,0,1,0,2.01-.01,3.01-.02,7.89-.09,15.68-.35,23.37-.78,1.1-.06,2.19-.13,3.29-.2l2.91-.19c1.71-.11,3.41-.24,5.09-.37.53-.04,1.07-.09,1.59-.13,1.27-.11,2.53-.22,3.78-.33,49.55-4.45,93.71-16.01,127.48-32.32,37.41-18.44,60.18-42.88,60.18-69.68,0-57.45-104.64-104.02-233.72-104.02-129.09,0-233.73,46.57-233.73,104.02Z"/>
      </g>
      <path class="cls-4" d="m1295.96,1002.32c7.89-.08,15.68-.34,23.37-.78-7.68.43-15.47.69-23.37.78Z"/>
      <path class="cls-12" d="m1620.02,1011.65c.32-.12,2.44,4.57,5.81,12.17,3.36,7.6,7.98,18.12,12.96,29.8,4.98,11.68,9.35,22.31,12.32,30.1,2.98,7.78,4.54,12.7,4.23,12.82-.32.12-2.44-4.57-5.81-12.17-3.36-7.6-7.98-18.12-12.96-29.8-4.98-11.68-9.35-22.31-12.32-30.1-2.98-7.78-4.54-12.7-4.23-12.82Z"/>
      <g>
        <path class="cls-5" d="m1073.53,1045.88c-1.98-1.89-4.06-3.64-6.23-5.26"/>
        <path class="cls-12" d="m1067.31,1040.61c.28-.38,2.01.4,3.75,1.88,1.75,1.48,2.81,3.04,2.48,3.38-.34.35-1.9-.63-3.59-2.06-1.69-1.43-2.92-2.81-2.63-3.2Z"/>
      </g>
      <g>
        <path class="cls-5" d="m931,1047.31c-3.08,1.38-6.14,2.79-9.2,4.18"/>
        <path class="cls-12" d="m921.81,1051.49c-.2-.43,1.7-1.72,4.24-2.88,2.54-1.16,4.76-1.74,4.95-1.3s-1.7,1.73-4.24,2.88-4.76,1.74-4.95,1.3Z"/>
      </g>
      <path class="cls-12" d="m525.3,871.8c-.08-.13-.1-.27-.06-.29.04-.03.15.05.24.18s.12.26.06.29c-.06.04-.16-.04-.24-.18Z"/>
      <path class="cls-12" d="m525.09,871.73c.08-.28.2-.49.27-.47.07.02.04.26-.06.54-.11.28-.23.49-.27.47-.05-.01-.02-.26.06-.54Z"/>
      <path class="cls-12" d="m548.77,913.43c-.29,0-.53,0-.53,0,0,0,.24,0,.54,0s.53,0,.53,0c0,0-.24,0-.54,0Z"/>
      <path class="cls-12" d="m536.49,943.12c.05-.29.13-.52.18-.51.04,0,.04.25-.02.54-.05.29-.13.52-.18.51-.04,0-.04-.25.02-.54Z"/>
      <path class="cls-12" d="m582.78,940.19c.29,0,.53,0,.53,0,0,0-.24,0-.53,0s-.53,0-.53,0c0,0,.24,0,.53,0Z"/>
      <path class="cls-12" d="m576.79,964.91c-.27-.13-.45-.29-.41-.37.04-.08.28-.03.55.09s.45.29.41.37-.28.03-.55-.09Z"/>
      <path class="cls-12" d="m582.78,940.21c0-.29.01-.53.01-.53,0,0,.01.24.01.54s-.01.53-.01.53c0,0-.01-.24-.01-.54Z"/>
      <path class="cls-12" d="m790.76,963.43c-.02-.11.07-.21.2-.23.12-.02.24.06.25.17s-.07.21-.2.23c-.12.02-.24-.06-.25-.17Z"/>
      <path class="cls-12" d="m1250.22,855.42c-.28-.13-.47-.33-.41-.44.05-.11.32-.09.6.05s.46.33.41.44c-.05.11-.32.09-.6-.05Z"/>
      <g>
        <g>
          <path class="cls-7" d="m623.12,840.6c-2.36-6.64-6.17-12.76-11.07-17.82-3.87-4-8.73-7.46-14.28-7.92-4.56-.38-8.88,1.68-13.25,3.03-31.64,9.73-40.85,14.26-59.15,25.44-5.28,3.22-23.99,16.16-15.32,32.63,2.85,5.41,10.15,8.69,15.24,5.37,1,.38,1.71,1.36,1.99,2.4.31,1.11.23,2.29.13,3.44-1.07,11.49-4.54,22.76-10.11,32.87h-.87c-3.61-2.18-8.55-1.93-11.92.61-3.37,2.55-4.96,7.22-3.84,11.3,1.1,3.98,4.23,7.33,7.19,10.21,7.86,7.63,17.92,14.56,23.05,17.57,1.96,1.15,11.34,5.96,13.61,5.97,2.09.02,4.13-1.02,5.52-2.59,1.39-1.56,2.17-3.62,2.4-5.7.48-4.32-1.39-8.72-4.46-11.8-3.03-3.04-7.14-4.87-11.36-5.66l.07-.36c5.31-9.19,9.39-19.09,12.07-29.36l.16.05c20.09,5.82,43.21,1.43,58.79-12.54,15.58-13.96,22.42-37.42,15.4-57.12Zm-34.37,28.55c-.59,3.11-1.6,6.18-3.31,8.83-3.34,5.18-9.12,8.39-15.1,9.88-5.97,1.49-12.21,1.47-18.37,1.43,3.67-10.31,4.25-22.32,1.44-32.9,4.96-3.61,10.32-6.97,16.35-8.04,6.04-1.07,12.9.6,16.57,5.51,3.18,4.25,3.42,10.06,2.42,15.28Z"/>
          <path class="cls-7" d="m635.7,942.82c-10.69,2.72-9.9-9.12-16.01-10.55-11.35-2.65-14.66,9.64-16.29,15.42-1.25,4.41-2.64,14.48,4.13,15.07,16.58,2.16,14.99,20.67-13.91,17.15-9.5-1.16-16.21-3.9-21.55-5.4-25.59-7.18-3.63-30.29,4.4-14.01l.23.12c4.67-6.6,7.65-14.12,8.68-21.89-7.25-2.23-15.88-5.74-19.33-12.03-1.84-10.2,26.49-9.5,34.39-10.83,5.35-.64,4.09,3.69,7.62,5.56,9.17,4.86,19.44-12.8,23.79-20,4-6.63,10.43-9.82,17.87-6.38,3.46,1.6,6.09,4.29,7.69,7.38,7.76,15-5.22,35.13-21.7,40.39Z"/>
          <path class="cls-7" d="m713.86,865.11c-1.41-13.2-10.22-25.16-22.05-31.18-8.88-4.52-19.6-5.79-28.97-2.39-12.69,4.6-21.51,17.79-21.72,31.3-.15,9.74,4.39,18.58,10.28,26.04,2.46,3.11,5.42,5.82,8.73,8.01,3.7,2.44,7.84,4.23,12.18,5.17,10.1,2.2,23.88-.05,31.13-7.99,7.29-7.99,11.6-17.99,10.43-28.95Zm-23.49,6.54c.1,3.78-.5,7.32-2.68,9.23-3.02,2.65-8.51,1.91-13.27-2.05-3.51-2.93-6.39-7.32-8.03-11.66-2.17-5.78-2.15-11.61.33-14.82,2.06-2.67,5.53-3.03,9.43-1.83,3.89,1.19,8.44,6.05,10.94,10.4,1.07,1.86,1.9,3.82,2.46,5.74.5,1.72.78,3.41.82,4.99Z"/>
          <path class="cls-7" d="m762.22,846.77c-23.06,42.46-46.55,78.97-74.22,118.58-7.12,10.19-14.57,22.29-26.24,26.53-15.3,5.55-34.27-3.27-39.87-18.55-2.52-6.88-1.36-16.43,5.5-18.97,6.06-2.25,12.18,2.07,15.7,6.66,1.16,1.51,2.25,3.09,3.55,4.48.21.23.44.46.67.68,1.61,1.54,3.63,2.76,5.85,2.93,1.99.15,3.98-.57,5.65-1.66,4.17-2.71,7.74-6.83,10.68-10.75,33.87-45.15,56.14-87.83,60.73-96.49,5.48-10.33-15.32-16.39-17.5-17.37-2.24-1-4.31-2.5-5.58-4.6s-1.62-4.83-.53-7.02c.93-1.86,2.78-3.13,4.75-3.81,3-1.03,6.34-1.12,9.46-.67,4.22.62,8.18,2.21,12.38,2.92,6.24,1.05,12.83,1.53,18.98-.26,4.26-1.24,9.64.49,11.99,4.25,2.47,3.94.28,9.04-1.94,13.12Z"/>
          <path class="cls-7" d="m757.02,819.36c-2.45,3.01-6.62,4.62-10.67,5.53-2.61.59-5.38.96-7.87.31-3.47-.89-5.93-3.75-6.28-6.91-.35-3.15,1.3-6.48,4.03-8.78.34-.29.7-.56,1.08-.82,1.66-1.14,3.6-1.93,5.6-2.44,1.12-.29,2.28-.54,3.46-.7,2.5-.35,5.05-.3,7.25.65,1.47.63,2.74,1.58,3.68,2.73,2.38,2.94,2.27,7.3-.27,10.42Z"/>
          <path class="cls-7" d="m831.25,889.79s-2.83,6.76-5.81,8.94c-3.16,2.32-8.54.43-10.1-3.16-1.13-2.61-.25-5.64.98-8.19,1.23-2.56,2.84-5.03,3.21-7.84.81-6.02-4.45-11.46-10.27-13.21-10.07-3.05-21.25,3.47-25.27,13.2-6.07,14.67,2.74,22.08,12.69,25.53,3.27-2.12,7.48-1.59,10.57.8,3.09,2.38,3.55,6.57,2.32,10.27-1.69,5.11-7.35,7.82-12.66,8.66-14.8,2.33-30.42-6.47-36.85-20.01-6.42-13.54-3.68-30.68,6.01-42.1,9.69-11.43,25.6-16.94,40.44-14.83,6.73.96,13.34,3.42,18.68,7.63,5.34,4.21,11.24,11.54,12.39,18.24.3,1.74-3.78,10.58-6.32,16.1Z"/>
          <path class="cls-7" d="m880.21,899.81c-2.02,1.97-5.16,1.98-7.81,1.24-5.76-1.62-12.36-8.13-14.25-14.09-9.72,17.23-15.66,24.34-30.23,61.87-.83,2.14-1.64,4.38-1.57,6.69.12,3.67,2.88,6.77,6.64,5.34,1.14-.43,2.22-1.06,3.42-1.26,2.26-.37,4.61.98,5.69,3.01s.97,4.58-.04,6.65c-3.3,6.81-14.17,9.1-20.74,11-7,2.03-14.2,3.36-21.47,3.96-3.18.26-5.46.43-7.6-2.31-1.79-2.28-2.15-5.52-1.62-8.3.64-3.41,2.53-6.41,4.23-9.38,22.02-38.29,39-71.99,49.56-96.1-5.3-4.31-8.71-8.38-11.46-14.81-.99-2.31-1.79-4.75-1.85-7.28-.06-2.53.72-5.17,2.49-6.9,3.05-2.98,8.16-2.3,11.47.33,3.31,2.62,7,9.89,8.84,13.8,1.49-4.75,5.12-9.96,9.48-11.1,4.36-1.14,9.44-.06,12.29,3.58,2.97,3.79,2.89,9.46,1.04,13.99-1.85,4.53-5.19,8.18-8.46,11.71,6.85,3.9,11.46,10.84,13.42,18.79.81,3.28.91,7.25-1.47,9.55Z"/>
          <path class="cls-7" d="m883.87,880.18c.95-3.33,2.9-6.27,5.46-8.61,4.63-4.23,9.9-6.84,16.02-7.95,7.11-1.29,14.76.37,20.52,4.73,1.56,1.18,2.98,2.54,4.22,4.05,8.56,9.71,11.87,14.06,12.1,16.98.15,1.91-.39,3.89-1.49,5.45-1.24,1.76-3.25,2.85-5.3,3.52-2.03.67-4.23.98-6.31.49-2.08-.49-4.02-1.88-4.8-3.87-.78-1.99-.18-4.54,1.63-5.68l.47-.94c-1.27-2.55-2.56-5.14-4.42-7.3-1.86-2.16-4.38-3.9-7.21-4.23-2.83-.33-5.95,1-7.18,3.58-1.74,3.64.66,7.83,3.1,11.04,5.69,7.5,12.34,14.93,13.98,24.2,1.46,8.24-1.82,16.9-8.03,22.5-7.33,6.58-17.33,10.17-27.17,9.64-10.64-.58-15.28-1.85-29.85-16.84-2.92-2.99-4.46-4.58-4.53-8.38-.09-5.1,2.99-10.12,7.58-12.34,2.3-1.12,4.96-1.55,7.45-.97s4.75,2.25,5.83,4.56c1.07,2.31.83,5.25-.8,7.21l-.8.03c3.03,3.55,6.51,6.94,10.87,8.61,4.36,1.68,9.78,1.28,13.09-2.02,3.66-3.65,3.72-9.75,1.68-14.49-2.04-4.74-5.76-8.52-9.17-12.4-3.41-3.89-6.68-8.23-7.46-13.34-.37-2.38-.15-4.88.52-7.24Z"/>
          <path class="cls-7" d="m782.82,943.55c-.32-3.64-2.08-7.03-4.33-9.91-7.45-9.53-23.49-12.8-35.5-11.38-12.01,1.41-21.72,6.02-29.93,14.89-7.29,7.87-10.95,19.29-9.58,29.93.92,7.19,4.99,13.8,10.57,18.43,5.58,4.63,12.6,7.34,19.77,8.4,13.36,1.96,27.48-1.91,37.97-10.4,2.69-2.17,5.2-4.72,6.55-7.89,1.35-3.18,1.34-7.1-.73-9.87-2.45-3.27-7.14-4.13-11.13-3.24-3.99.89-7.49,3.2-10.99,5.29-3.51,2.09-7.29,4.07-11.37,4.17-6.16.16-14.44-3.4-14.75-9.9,0,0,41.4-2.22,49.51-8.8,2.84-2.3,4.25-6.09,3.94-9.74Zm-21.23,2.47s-.01,0-.03.01c-.86.44-1.85.55-2.81.66-7.91.88-14.19,1.83-22.11,2.71-.83.09-1.72.2-2.58.21-1.98.03-3.3-2.03-2.45-3.82,2.73-5.8,7.23-10.09,13.65-10.67,6.81-.62,13.76,2.77,17.11,7.4.84,1.16.49,2.83-.78,3.49Z"/>
        </g>
        <path class="cls-7" d="m1277.94,956.82c-30.17-9.14-56.45-30.5-71.56-58.16,4.93-7.17,9.38-14.74,12.21-22.97,3-8.69,4.13-18.2,2-27.14-3.27-13.72-14.21-24.97-27.33-30.16-13.11-5.18-28.07-4.67-41.44-.18-13.37,4.49-25.24,12.74-35.43,22.49-10.18,9.75-18.79,21.02-27.06,32.44-2.5,3.45-5.02,7-6.3,11.06-1.28,4.06-1.15,8.8,1.35,12.25,3,4.13,8.76,5.46,13.78,4.58,5.03-.88,9.68-3.55,14.04-6.2,13.28,18.83,24.28,38.86,33.18,60.11-3.24,1.07-5.92,3.69-7.08,6.9-1.16,3.21-.76,6.94,1.05,9.83,2.62,4.19,7.6,6.19,12.3,7.7,12.07,3.87,24.56,6.27,37.02,8.66,4.8.92,9.6,1.84,14.4,2.76,4.9-6.42,5.42-15.86,1.24-22.77-4.18-6.91-13.03-11.66-20.23-8.54-7.65-12.46-15.3-24.91-22.95-37.37,7.49.43,15.79-2.08,22.24-5.92,14.81,22.27,32.16,42.84,51.62,61.18,5.38,5.07,11.02,10.04,17.72,13.14,6.7,3.11,14.68,4.17,21.48,1.27,6.68-2.85,11.55-9.55,12.19-16.79.65-7.23-2.39-14.18-8.45-18.18Zm-102.41-65.89c-6,7.13-15.19,11.26-24.49,11.8-7.67-11.63-15.76-24.61-23.43-36.24,4.59-4.81,9.23-9.67,14.79-13.33,5.55-3.66,12.18-6.07,18.8-5.42,9.27.91,17.42,8.11,20.13,17.02,2.71,8.91.21,19.05-5.8,26.18Z"/>
        <path class="cls-7" d="m1287.29,842.37c-19.03.84-37.04,12.97-45.37,30.11-8.33,17.14-6.82,38.55,3.46,54.59,10.28,16.04,28.87,26.31,47.91,26.9,5,.16,10.12-.34,14.71-2.35,4.58-2.02,8.59-5.71,10.15-10.47,1.56-4.75.27-10.54-3.7-13.59-5.76-4.42-13.92-1.89-21.17-1.68-13.52.39-26.69-9.26-30.45-22.24l1.18-.68c13.2,3.22,26.41,6.45,39.61,9.67,5.16,1.26,10.6,2.52,15.71,1.07,6.26-1.77,10.81-7.33,13.37-13.31,5.77-13.47,2.83-29.97-6.46-41.3-9.3-11.33-24.32-17.38-38.95-16.73Zm20.75,49.86c-12.88-3.72-24.42-6.76-37.67-8.8.24-7.76,5.5-15.12,12.76-17.86,7.26-2.74,16.08-.68,21.38,4.99,5.3,5.67,6.75,14.61,3.53,21.67Z"/>
        <path class="cls-7" d="m1339.7,896.3c-11.78,14.54-14.6,35.69-7.43,52.98,7.17,17.29,23.9,30.14,42.39,33.03,18.49,2.9,38.15-4.08,51-17.7,3.37-3.58,6.35-7.66,7.86-12.34,1.51-4.68,1.4-10.04-1.08-14.28-2.48-4.25-7.57-7.07-12.4-6.14-7,1.35-10.46,9-15.03,14.47-8.53,10.2-24.2,13.59-36.2,7.9l.27-1.32c10.97-7.6,21.95-15.21,32.92-22.82,4.29-2.97,8.76-6.15,11.03-10.85,2.78-5.75,1.66-12.73-1.07-18.5-6.14-13.02-20.19-21.62-34.57-22.16-14.39-.55-28.63,6.55-37.69,17.73Zm50.17,17.24c-11.13,7.05-20.88,13.54-31.02,21.96-5.55-5.23-7.53-13.9-4.81-21.02,2.72-7.12,9.98-12.26,17.6-12.46,7.62-.2,15.14,4.55,18.23,11.52Z"/>
        <path class="cls-7" d="m1509.71,927.84c3.2-14.93-6.89-33.26-24.46-21.65-21.92-53.8-58.45-80.91-113.84-101.18-3.4-1.24-8.01-1.63-10.5,1.5-3.83,4.83-5.97,10.63-8.24,16.28-1.89,4.73-3.47,9.66-4.18,14.72-.99,7.08,0,14.97,6.35,19.32,17.75,9.59,33.98-5.21,26.96-19.65,33.13,12.44,63.7,33.04,70.65,88.97-26.18,24.01,11.01,46.62,35.78,23.15-1.05,2.11,18.24-6.36,21.48-21.48Z"/>
      </g>
      <g>
        <path class="cls-3" d="m1056.19,898.33c0,20.19,12.93,39.04,35.29,54.99,0,0,.02,0,.02.01,42.28,28.77,112.22,47.9,191.82,48.97,1.29.01,2.57.02,3.86.03,1.04,0,2.08,0,3.12,0,.88,0,1.75,0,2.63,0,1,0,2.01-.01,3.01-.02,7.89-.09,15.68-.35,23.37-.78,1.1-.06,2.19-.13,3.29-.2l2.91-.19c1.71-.11,3.41-.24,5.09-.37.53-.04,1.07-.09,1.59-.13,1.27-.11,2.53-.22,3.78-.33,49.55-4.45,93.71-16.01,127.48-32.32,37.41-18.44,60.18-42.88,60.18-69.68,0-57.45-104.64-104.02-233.72-104.02-129.09,0-233.73,46.57-233.73,104.02Z"/>
        <path class="cls-3" d="m949.2,899.75c0,20.19-12.93,39.04-35.29,54.99,0,0-.02,0-.02.01-42.28,28.77-112.22,47.9-191.82,48.97-1.29.01-2.57.02-3.86.03-1.04,0-2.08,0-3.12,0-.88,0-1.75,0-2.63,0-1,0-2.01-.01-3.01-.02-7.89-.09-15.68-.35-23.37-.78-1.1-.06-2.19-.13-3.29-.2l-2.91-.19c-1.71-.11-3.41-.24-5.09-.37-.53-.04-1.07-.09-1.59-.13-1.27-.11-2.53-.22-3.78-.33-49.55-4.45-93.71-16.01-127.48-32.32-37.41-18.44-60.18-42.88-60.18-69.68,0-57.45,104.64-104.02,233.72-104.02s233.73,46.57,233.73,104.02Z"/>
      </g>
      <path class="cls-12" d="m1068.13,1039.48l-.83,1.13c-19.19-14.36-46.84-23.87-70.87-20.7-23.41,3.09-46.09,12.7-67.67,22.45h0c12.66-8.71,24.7-18.44,35.87-29.3,12.59-12.24,16.26-22.93,36.6-22.9,16.82.03,24.24,12.09,35.42,22.97,9.96,9.7,20.51,18.45,31.48,26.35Z"/>
      <g>
        <path class="cls-11" d="m458.12,1081.83c-11.75-4.48-21.94-11.84-33.2-17.56,8.29-5.77-.02-19.51-9.23-14.17-2.78,2.45-.99-4.33-3.99-5.7-3.81-2.36.04-9.67-5.87-12.14-4.73-1.69-.72-11.41-8.99-12.09,8.21-9.3-6.32-21.24-13.39-10.75-4.13,7.15-6.37,15.41-8.91,23.09-5.56,16.92-75.4,125.53-41.98,122.18,16.09-17.73,64.61-55.77,90.18-65.61,13.16-3.66,23.22,4.78,35.37,6.31,8.67-.41,8.72-13.95,0-13.54Z"/>
        <path class="cls-11" d="m1506.92,1088.68c-.12-.86,1.94-2.02,5.86-3.22,3.92-1.2,9.71-2.37,16.98-3.08,3.63-.37,7.64-.55,11.94-.61,4.3.02,8.92.12,13.75.6,9.68.85,20.27,2.82,31.03,6.17,5.37,1.7,10.52,3.67,15.38,5.82,4.87,2.14,9.4,4.56,13.62,7.02,4.22,2.45,8.04,5.1,11.54,7.65,3.45,2.63,6.56,5.19,9.25,7.7,5.38,5.01,9.23,9.54,11.54,12.95,2.31,3.41,3.17,5.62,2.53,6.2-.66.61-2.76-.44-6.05-2.67-3.29-2.23-7.87-5.55-13.63-9.36-2.87-1.92-6.08-3.9-9.53-5.98-3.5-2-7.24-4.13-11.29-6.12-4.05-1.99-8.34-4.01-12.89-5.83-4.55-1.84-9.33-3.57-14.29-5.14-19.9-6.24-38.89-8.45-52.75-9.33-6.94-.46-12.62-.69-16.6-1.03-3.98-.33-6.26-.85-6.39-1.74Z"/>
        <path class="cls-11" d="m1672.29,1118.57c-6.17-19.62-56.83-148.62-65.44-106.17,3.76,15.73-12.79,41.57-23.38,52.89,3.15-22.28-21.76.66-29.53,5.47-7.35.21-11.74,7.71-19.54,6.64-8.67.41-8.72,13.95,0,13.54,10.17-1.07,22.56,2.63,28.35-6.4,6.55,13.03,33.28,3.18,44.78,15.87,14.15,8.58,49.66,47.52,63.4,54.54,11.84,24.03,4.37-24.56,1.36-36.37Z"/>
        <path class="cls-11" d="m435.91,1068.67c.27-.37,4,1.67,10.9,5.71,7.08,3.75,17.46,9.37,31.59,14.81,14.11,5.47,31.94,10.69,53.08,14.61,10.59,1.85,21.97,3.55,34.14,4.7,12.16,1.17,25.06,1.98,38.64,2.44,27.16.91,56.97.48,88.8-2.08,31.8-2.58,65.66-7.27,100.44-15.68,17.37-4.22,34.96-9.4,52.47-15.83,17.51-6.44,34.95-14.13,51.87-23.43,16.91-9.3,33.3-20.22,48.48-33,3.9-3.08,7.45-6.57,11.14-9.93l2.75-2.54c.84-.86,1.7-1.68,2.53-2.57,1.67-1.76,3.33-3.61,5.05-5.55,1.76-1.94,3.53-3.96,5.65-5.99,2.12-2.01,4.52-3.99,7.28-5.65,2.79-1.61,5.82-2.83,8.88-3.62.76-.2,1.52-.32,2.28-.48.76-.14,1.53-.32,2.27-.38,1.49-.16,3.01-.37,4.46-.38l2.2-.07c.72-.03,1.54.05,2.3.07l1.16.06c.39.01.78.04,1.17.11l2.35.34c.39.05.78.13,1.17.23l1.16.28c.77.19,1.55.36,2.3.65l2.26.79,2.16.98c2.81,1.39,5.45,3.07,7.72,4.93,2.28,1.84,4.39,3.78,6.27,5.71,3.84,3.87,7.13,7.63,10.63,10.98,1.83,1.7,3.66,3.4,5.48,5.09l2.73,2.54c.89.86,1.88,1.62,2.82,2.44,15.02,12.98,31.21,24.17,47.98,33.7,16.83,9.45,34.19,17.29,51.64,23.83,2.16.87,4.38,1.58,6.56,2.36,2.19.77,4.37,1.53,6.55,2.29,2.2.71,4.39,1.41,6.57,2.11,2.18.71,4.36,1.41,6.56,2.03,2.19.64,4.38,1.29,6.55,1.93,2.17.66,4.38,1.19,6.55,1.79,2.18.58,4.35,1.19,6.53,1.73,2.18.53,4.36,1.06,6.53,1.59,34.76,8.3,68.67,12.52,100.49,14.38,7.96.46,15.79.76,23.5.94,3.86.11,7.68.14,11.46.17,1.89.02,3.77.04,5.64.06,1.87.02,3.73.04,5.59,0,3.7-.04,7.37-.08,11-.12,1.82,0,3.62-.08,5.41-.14,1.79-.06,3.58-.12,5.35-.18,1.77-.06,3.54-.12,5.29-.18,1.75-.06,3.49-.2,5.23-.29,3.47-.2,6.89-.4,10.28-.6,27.04-2.03,51.35-5.67,72.39-10.35,2.62-.61,5.2-1.22,7.73-1.81,2.53-.61,5.03-1.13,7.44-1.81,2.42-.65,4.8-1.28,7.12-1.9,2.33-.63,4.62-1.19,6.82-1.89,4.42-1.34,8.68-2.56,12.7-3.83,4.01-1.33,7.82-2.59,11.43-3.78,1.82-.57,3.54-1.25,5.23-1.85,1.69-.61,3.33-1.2,4.91-1.78,1.59-.57,3.13-1.12,4.61-1.66,1.49-.52,2.89-1.12,4.26-1.64,2.74-1.06,5.26-2.04,7.57-2.93,1.16-.44,2.26-.86,3.31-1.26,1.04-.43,2.02-.83,2.95-1.21,7.45-3.02,11.47-4.42,11.66-4.03.19.4-3.45,2.58-10.59,6.38-.89.47-1.84.97-2.84,1.5-1.02.49-2.09,1.01-3.21,1.55-2.25,1.07-4.72,2.24-7.39,3.51-1.34.62-2.72,1.31-4.18,1.93-1.46.63-2.98,1.28-4.54,1.95-1.57.67-3.18,1.36-4.85,2.07-1.67.7-3.38,1.47-5.18,2.14-3.59,1.38-7.38,2.83-11.37,4.37-4.01,1.46-8.26,2.87-12.69,4.41-2.21.79-4.51,1.46-6.84,2.18-2.34.71-4.72,1.44-7.15,2.18-2.42.78-4.94,1.4-7.49,2.1-2.55.68-5.15,1.38-7.79,2.09-21.22,5.42-45.86,9.76-73.3,12.41-3.43.27-6.91.55-10.43.83-1.76.13-3.53.3-5.31.4-1.78.1-3.57.19-5.37.29-1.8.1-3.61.19-5.43.29-1.82.09-3.65.21-5.49.25-3.68.11-7.4.22-11.16.33-1.88.07-3.77.08-5.66.09-1.9.01-3.8.03-5.72.04-3.83.03-7.7.06-11.59.01-7.8-.07-15.77-.25-23.87-.6-32.37-1.43-66.98-5.32-102.65-13.5-2.23-.52-4.46-1.04-6.7-1.57-2.24-.53-4.47-1.14-6.71-1.71-2.24-.6-4.5-1.13-6.74-1.78-2.24-.64-4.49-1.28-6.75-1.92-2.26-.62-4.51-1.33-6.76-2.04-2.25-.71-4.51-1.41-6.77-2.12-2.25-.77-4.5-1.54-6.76-2.31-2.25-.79-4.54-1.51-6.77-2.39-18.03-6.62-36.03-14.63-53.56-24.37-17.47-9.82-34.41-21.44-50.17-35-.98-.85-2.01-1.64-2.96-2.55l-2.87-2.66c-1.91-1.77-3.83-3.55-5.75-5.33-3.9-3.72-7.38-7.69-10.81-11.13-3.43-3.46-6.84-6.38-10.49-8.12l-1.37-.63-1.42-.49c-.46-.19-.96-.28-1.44-.4l-.73-.18c-.24-.07-.49-.12-.74-.15l-1.52-.22c-.25-.05-.51-.07-.77-.07l-.79-.03c-.54-.01-1.02-.08-1.6-.05l-1.71.06c-1.16,0-2.22.17-3.32.27-.56.03-1.06.17-1.58.26-.51.11-1.04.18-1.54.31-1.98.52-3.79,1.26-5.5,2.23-1.69,1.02-3.31,2.33-4.94,3.87-1.62,1.54-3.27,3.39-4.96,5.27-1.7,1.91-3.47,3.89-5.34,5.85-.92.98-1.92,1.94-2.87,2.91l-2.89,2.67c-3.88,3.52-7.62,7.17-11.71,10.39-15.94,13.36-33.07,24.69-50.67,34.26-17.6,9.58-35.66,17.42-53.72,23.92-18.06,6.5-36.12,11.67-53.92,15.82-35.61,8.28-70.09,12.63-102.39,14.79-32.32,2.13-62.51,2.04-89.97.54-13.74-.75-26.81-1.89-39.14-3.39-12.33-1.5-23.89-3.55-34.63-5.78-21.45-4.68-39.48-10.73-53.59-17.03-14.15-6.28-24.33-12.71-31.05-17.23-6.55-4.8-9.78-7.55-9.54-7.9Z"/>
        <path class="cls-11" d="m1050.23,852.81c-.18.36-.44.77-.77,1.21-.33.45-.73.93-1.21,1.42-1.91,2.03-5.04,4.5-9.32,6.96-.46.28-.94.55-1.44.81-.64.33-1.3.66-1.97,1.01-1.21.6-2.5,1.15-3.83,1.73-1.36.52-2.75,1.11-4.23,1.57-.74.24-1.49.5-2.25.73-.77.21-1.55.43-2.34.65-3.18.82-6.57,1.55-10.14,1.95-3.57.42-7.3.62-11.11.52-3.82-.12-7.53-.53-11.07-1.15-3.54-.6-6.88-1.52-10.02-2.52-.77-.26-1.55-.53-2.3-.79-.75-.27-1.49-.57-2.21-.85-1.45-.55-2.81-1.21-4.13-1.81-1.3-.65-2.56-1.27-3.73-1.95-.86-.5-1.7-.97-2.49-1.46h0c-.28-.18-.56-.35-.82-.54-4.13-2.69-7.12-5.34-8.91-7.48-.46-.52-.83-1.02-1.13-1.49-.3-.46-.54-.87-.69-1.25-.33-.74-.36-1.3-.1-1.65.26-.35.81-.5,1.6-.44.29.02.62.07.97.13.13.03.26.05.4.09.51.12,1.08.28,1.72.46,2.52.77,5.95,2.06,10.14,3.49,1.04.39,2.16.7,3.3,1.09,1.14.37,2.34.71,3.57,1.08,1.25.32,2.51.72,3.84,1.02.66.16,1.33.33,2.01.5.68.15,1.37.3,2.08.45,2.8.57,5.74,1.14,8.82,1.5,3.07.37,6.26.64,9.52.75,3.27.07,6.46,0,9.55-.21,3.09-.18,6.06-.58,8.89-1,.71-.12,1.4-.22,2.1-.34.69-.13,1.36-.25,2.03-.38,1.34-.22,2.62-.56,3.89-.8,1.24-.31,2.46-.58,3.63-.88,1.15-.32,2.28-.57,3.34-.9,4.04-1.13,7.38-2.16,9.9-2.81.14-.04.28-.07.43-.11.64-.14,1.22-.27,1.74-.36.52-.09.98-.14,1.38-.14.79,0,1.33.16,1.57.54.24.37.18.92-.18,1.64Z"/>
        <path class="cls-11" d="m1068.13,1039.48c-.5.7-4.74-1.2-11.73-5.72-3.49-2.27-7.65-5.21-12.31-8.86-2.33-1.83-4.78-3.83-7.33-6.02-1.28-1.1-2.57-2.22-3.9-3.45-1.35-1.22-2.67-2.49-4.01-3.79-2.67-2.59-5.33-5.3-8.14-7.77-2.82-2.45-5.77-4.7-9.02-6.08-3.24-1.41-6.74-2.13-10.64-1.99-4.16.08-8.16.74-11.59,2.27l-.65.27-.62.34c-.41.24-.83.44-1.24.69-.4.27-.8.54-1.2.82-.41.25-.79.62-1.19.92-1.58,1.27-3.13,2.82-4.74,4.6-.8.85-1.62,1.82-2.45,2.75-.86.97-1.71,1.95-2.58,2.94-1.74,1.99-3.65,4.02-5.64,6.02-7.71,7.62-16.17,14.98-25.29,21.92-3.8,2.89-7.63,5.64-11.47,8.27l-6.25-11.09c8.73-3.91,17.38-7.63,25.96-10.85,4.28-1.62,8.57-3.09,12.8-4.44,4.24-1.34,8.47-2.5,12.63-3.53,4.19-.96,8.3-1.84,12.38-2.44,1.01-.18,2.03-.3,3.04-.43,1.01-.12,2-.26,3.01-.37,1.03-.08,2.06-.16,3.08-.23.51-.04,1.02-.07,1.52-.11.5,0,1.01-.01,1.51-.02,8.01-.16,15.41.86,22.04,2.41,6.64,1.56,12.52,3.67,17.64,5.9,2.58,1.08,4.92,2.31,7.12,3.42,2.16,1.21,4.18,2.31,5.97,3.48,7.23,4.55,11.42,8.61,12.97,10.61l-1.17.18c.78-.6,1.27-.81,1.5-.64.23.17.18.7-.16,1.62l-.18.5-.99-.32c-2.41-.79-7.25-3.57-14.7-6.78-1.84-.84-3.89-1.61-6.05-2.48-2.2-.78-4.51-1.67-7.01-2.42-4.98-1.57-10.58-3.02-16.72-3.98-6.13-.95-12.81-1.42-19.75-.9-.43.03-.87.06-1.3.08-.43.06-.86.11-1.3.17-.87.11-1.74.22-2.62.33-.9.14-1.82.31-2.74.47-.92.16-1.85.32-2.78.52-3.73.72-7.52,1.68-11.39,2.72-3.86,1.11-7.79,2.31-11.77,3.7-3.98,1.4-8.02,2.89-12.1,4.54-8.18,3.27-16.56,7.01-25.18,10.94l-6.25-11.09c3.66-2.54,7.32-5.19,10.94-7.95,8.71-6.63,16.85-13.59,24.29-20.71,1.77-1.73,3.49-3.48,5.2-5.35.87-.95,1.73-1.89,2.59-2.83.91-.97,1.76-1.93,2.72-2.91.91-.97,1.93-1.95,2.93-2.91.51-.48,1.08-.95,1.61-1.42.27-.23.54-.47.82-.7l.88-.67c.6-.43,1.15-.91,1.8-1.3.63-.4,1.27-.8,1.9-1.2.65-.38,1.33-.7,2-1.04.33-.17.67-.34,1-.5l1.04-.41c.69-.26,1.38-.55,2.07-.78.7-.2,1.39-.39,2.09-.59.35-.09.69-.2,1.04-.28l1.03-.19c.69-.12,1.37-.24,2.06-.37,1.35-.18,2.68-.27,4.01-.39,1.3-.02,2.58-.04,3.86-.06,5.31.03,10.73,1.36,15.27,3.69.29.14.58.28.85.43l.81.48c.54.32,1.07.64,1.6.96.99.7,2.01,1.37,2.92,2.1.9.74,1.82,1.45,2.63,2.22.41.38.82.75,1.23,1.12.38.38.77.76,1.15,1.14,3.03,3.03,5.55,6.01,7.95,8.74,4.69,5.39,9.33,10.05,13.41,14.13,4.09,4.06,7.71,7.49,10.67,10.32,5.92,5.64,9.17,8.9,8.64,9.64Z"/>
        <path class="cls-11" d="m489.27,1097.58c-.84,1.75-8.89-.95-22.12-1.35-3.3-.14-6.92-.08-10.8.08-.97.04-1.96.14-2.96.2-1,.09-2.01.11-3.05.24-2.06.23-4.18.41-6.34.76-4.33.57-8.84,1.45-13.45,2.53-4.63,1.06-9.33,2.46-14.04,4.12-9.46,3.34-18.24,7.62-26.13,11.76-7.88,4.2-14.92,8.28-20.9,11.71-5.98,3.43-38.93,28.68-39.45,27.97-.52-.72,19.33-21.33,22.02-24.22,2.7-2.9,6.85-6.75,12.28-11.21,5.43-4.45,12.17-9.48,20.14-14.48,8.01-4.95,17.25-9.89,27.75-13.6,5.27-1.85,10.51-3.31,15.64-4.3,5.13-1.02,10.13-1.72,14.92-2.01,2.39-.21,4.74-.22,7.01-.27,1.13-.04,2.26.04,3.37.05,1.11.04,2.19.05,3.26.13,4.27.31,8.24.79,11.82,1.56,1.79.39,3.48.72,5.06,1.23.79.24,1.55.46,2.3.69.37.12.73.22,1.09.34.35.13.7.27,1.04.4,1.36.53,2.61,1.02,3.74,1.52,1.12.56,2.13,1.09,3.02,1.59.45.25.86.49,1.25.72.38.26.72.52,1.04.76.64.48,1.16.92,1.55,1.31.8.78,1.11,1.38.92,1.78Z"/>
      </g>
      <g>
        <path class="cls-7" d="m439.67,1067.47c-.28,3.83-2.52,7.48-5.82,9.45-3.41,2.04-7.85,2.24-11.43.52-16.53-14.27-28.09-38.31-35.83-58.74-3.4-8.98-5.85-18.63-4.62-28.15,1.23-9.45,6.65-20.21,18.19-23.08v.16c.05,14.63,4.18,33.53,10.68,51.4,6.51,17.87,24.65,43.54,28.82,48.43Z"/>
        <path class="cls-7" d="m1558.79,1066.53c.16,3.84,2.28,7.55,5.52,9.63,3.34,2.15,7.78,2.49,11.4.88,16.97-13.75,29.28-37.41,37.66-57.58,3.68-8.87,6.43-18.43,5.5-28-.93-9.49-6.01-20.41-17.46-23.64v.16c-.51,14.62-5.23,33.38-12.3,51.04-7.07,17.66-26,42.74-30.33,47.5Z"/>
      </g>
      <line class="cls-1" x1="941.68" y1="264.87" x2="937.86" y2="244.15"/>
      <line class="cls-1" x1="1056.19" y1="885.6" x2="1001.69" y2="590.15"/>
      <line class="cls-1" x1="1062.48" y1="242.72" x2="1058.6" y2="264.87"/>
      <polygon class="cls-10" points="1073.1 -86.25 1001.98 501.1 928.9 -86.25 1073.1 -86.25"/>
      <line class="cls-1" x1="1001.98" y1="501.1" x2="956.51" y2="930.61"/>
    </g>
  </g>
</svg>