<?xml version="1.0" encoding="UTF-8"?>
<svg id="Layer_2" data-name="Layer 2" xmlns="http://www.w3.org/2000/svg" viewBox="0 0 659.55 997.12">
  <defs>
    <style>
      .cls-1 {
        fill: none;
      }

      .cls-2 {
        fill: #f29442;
      }

      .cls-3 {
        fill: #e7ac22;
      }

      .cls-4 {
        fill: #a6aca5;
      }

      .cls-5 {
        fill: #231f20;
      }

      .cls-6 {
        fill: #084b73;
      }

      .cls-7 {
        fill: #595a5a;
      }

      .cls-8 {
        fill: #3b3732;
      }
    </style>
  </defs>
  <g id="Right_Side_Grey_Panel" data-name="Right Side Grey Panel">
    <path class="cls-4" d="m419.25,847.8c.02-.07.35-4.52.41-4.57.86-16.09-1.82-33.57,1.83-49.05,19.73-17.96,38.45-37.77,59.23-54.11.92-7.02.96-14.53,1.33-21.59.07-.71,18.65-10.76,18.72-13.54-.6-27.51,3.51-16.25,15.57-33.3.93-18.16-2.17-12.57,13.39-25.19,1.24-8.09-3.22-20.87,5.25-25.93,40.92-33.44,82.32-66.17,124.58-97.97-1.93,87.53-.65,168.18-1.55,255.63-.11,2.61,1.18,5.96-2.35,7.79-40.12,32.36-196.28,156.02-236.59,188.71h-.01c.66-26.44.38-104.84.21-126.88Z"/>
  </g>
  <g id="Black_Side_Panel" data-name="Black Side Panel">
    <path class="cls-8" d="m331.94,870.24c.02-.07.35-4.52.41-4.57.86-16.09-1.82-33.57,1.83-49.05,19.73-17.96,38.45-37.77,59.23-54.11.92-7.02.96-14.53,1.33-21.59.07-.71,18.65-10.76,18.72-13.54-.6-27.51,3.51-16.25,15.57-33.3.93-18.16-2.17-12.57,13.39-25.19,1.24-8.09-3.22-20.87,5.25-25.93,40.92-33.44,82.32-66.17,124.58-97.97-1.93,87.53-.65,168.18-1.55,255.63-.11,2.61,1.18,5.96-2.35,7.79-40.12,32.36-196.28,156.02-236.59,188.71h-.01c.66-26.44.38-104.84.21-126.88Z"/>
  </g>
  <g id="Layer_1-2" data-name="Layer 1">
    <path class="cls-4" d="m588.11,498.44c-18.78,17.51-20.72-4.69-47.86,36.99-.27-25.96,0-54.5-14.65-76.73-27.92-19.52-48.22,21.7-51.91,44.88-.69-33.87-1.37-67.6-2.05-101.33.23-.12.47-.26.69-.39,38.5,32.12,77,64.23,115.79,96.58Z"/>
    <path class="cls-4" d="m577.25,507.57c-10.47,8.48-20.94,16.96-31.41,25.46-.18-.22-.37-.43-.54-.64,7.08-12.67,15.89-23.21,31.95-24.81Z"/>
    <path class="cls-8" d="m561.22,209.17c-.72,5.5,1.78,11.23-1.56,15.1-17.39,12.42-37.19,20.43-55.2,31.7.55-4.5-1.23-9.55.9-13.13,19.51-10.38,38.77-19.39,55.86-33.67Z"/>
    <path class="cls-4" d="m557.86,182.17c.36.1.7.2,1.05.3-.7,3.4.85,8.09-1.46,10.75-18.5,13.39-37.79,22.77-58.36,33.28.72-4.99-2.26-11.26,2.7-14.02,18.6-10.33,38.15-18.74,56.07-30.31Z"/>
    <path class="cls-4" d="m553.91,198.08c-.64,5.6,2.14,12.08-2.67,15.91-15.47,12.64-33.49,19.27-51.07,28.95.87-5.92-2.67-14.36,4.13-16.98,16.9-8.77,33.77-17.19,49.61-27.88Z"/>
    <path class="cls-4" d="m551.91,171.87c.14-.07.33-.01.98-.01-1.09,4.01.55,9.83-2.54,12.68-16.15,10.68-35.22,15.61-50.43,27.64.36-5.18-2.34-11.22.18-14.9,16.83-9.36,34.32-17.41,51.82-25.41Z"/>
    <path class="cls-4" d="m549.59,166.54c-.08.16-.16.31-.22.47-11.88-3.58-18.2,2.42-16.59-13.24,5.87,4.46,11.33,8.61,16.81,12.78Z"/>
    <path class="cls-8" d="m546.66,167.51c1.68.23,3.32.77,5.58,1.31-11.89,8.24-25.41,11.38-37.69,18.89,1.16-9.47-2.81-29.11,2.71-35.61,4.9-2.4,8.58-3.7,13.61-6.9,1.62,20.93-7.24,20.3,15.79,22.31Z"/>
    <path class="cls-4" d="m534.25,536.49c1.08,1,2.38,1.77,3.74,2.75-7.05,5.55-14.19,11.16-21.63,17-13.72-12.67-27.61-25.48-41.74-38.51,4.84-2.38,19.3-18.66,22.99-15.12,11.84,11.66,24.68,22.31,36.63,33.88Z"/>
    <path class="cls-4" d="m529.48,137.42c.14,2.58,1.64,5.17-.71,6.73-4.26,2.11-8.59,4.09-13.19,6.24-2.41-9.41,6.62-11.37,13.9-12.97Z"/>
    <path class="cls-4" d="m526.7,623.36c1.84,5.72.28,12.85.33,19.7-14.46-12.36-28.65-23.77-42.63-36.48-4.59-4.89-.78-11.53-.92-18.05,14.81,11.81,29.31,22.23,43.22,34.82Z"/>
    <path class="cls-4" d="m524.42,643.68c.65.57,1.28,1.15,2.35,2.13-4,1.99-10.7,12.21-14.44,8.39-14.55-12.61-29.21-24.95-43.57-37.78,3.83-2.04,9.67-11.89,13.72-8.64,13.97,11.98,27.95,23.94,41.94,35.89Z"/>
    <path class="cls-4" d="m521.07,131.38c1.32.46,3.64.84,3.52,3.94-5.03,1.97-9.7,6.75-15.1,2.93.11-.28.23-.56.34-.82,3.56-1.92,7.12-3.83,11.23-6.05Z"/>
    <path class="cls-4" d="m512.77,657.18c2.04,4.33.04,9.76.26,15.06-15.41-12.49-30.34-24.76-44.98-38.03-3.1-4.57.15-10.61.01-16.16,15.16,13.16,29.98,25.66,44.72,39.13Z"/>
    <path class="cls-4" d="m508.98,143.31c6.82-2.49,4.08,3.02,4.62,7.9-2.73-2.29-4.91-4.12-7.2-6.05,1.11-.8,1.87-1.34,2.59-1.85Z"/>
    <path class="cls-4" d="m512.72,152.55c1.28,11.6-1.15,23.09.03,35.08-2.68-2.45-4.76-4.36-6.78-6.22v-33.2c.29-.09.57-.19.85-.29,2,1.51,4.2,2.83,5.89,4.63Z"/>
    <path class="cls-4" d="m499.02,459.16c3.93-2.35,8.35-4,13.29-3.55-13.05,10-14.89,28.36-18.25,43.37-4.44,7.08-13.48,10.66-20.39,16.12,2.79-20.27,8.91-42.61,25.36-55.94Z"/>
    <path class="cls-4" d="m511.49,141.31c-.92.72-1.69,1.33-2.45,1.95-.67.13-1.33.28-2.15.46v-5.27c1.61,1.01,2.99,1.85,4.61,2.86Z"/>
    <path class="cls-4" d="m513.63,556.95c-2.65,2.9-5.3,5.81-8.03,8.79-10.47-9.56-20.3-18.72-30.46-28.44-3.25-4.68-1.04-11.38-1.63-16.77,2.03.18,37.82,32.47,40.12,36.42Z"/>
    <path class="cls-4" d="m506.02,183.83c1.98,1.57,3.84,3.27,5.89,5.05-4.11,2.03-8.2,4.06-12.73,6.31-.12-5.22-1.35-10.06,4.26-12.47.45-.29,1.83.53,2.58,1.11Z"/>
    <path class="cls-4" d="m511.27,674.4c-3.93,3.47-9.58,8.02-13.5,11.47-14.89-14.04-30.14-27.04-45.78-40.45,5.29-2.88,11.58-13.79,16.53-8.43,14.28,12.69,28.71,24.3,42.75,37.41Z"/>
    <path class="cls-4" d="m504.15,178.59c.12,2.11-1.38,2.5-2.69,3.03-1.4.56-2.81,2.15-4.45.29-3.5-3.93-7.37-7.13-11.31-10.73,6.06-5.55,2.81-4.79-1.59-9.18-6.12-7.79-14.29,2.97-19.84,6.44-1.81,2.09-1.56,6.12-1.22,8.88l-.8.63c-4.02-4.76-8.03-9.52-12.16-14.42,4.53-3.89,10-8.6,15.53-13.25,12.46-1.68,25.83-.35,38.42-1.51.09,10.57-.17,19.69.1,29.83Z"/>
    <path class="cls-4" d="m502.4,245.23v12.49c-10.85-5.16-19.19-12.73-28.89-19.52-1.73-2.31-.44-5.59-.81-8.56,8.94,5.71,18.66,10.15,26.78,17.54.67-.44,1.57-1.04,2.92-1.95Z"/>
    <path class="cls-4" d="m497.77,685.87c1.93,6.14.84,14.09-1.81,20.08-14.52-12.89-28.22-25.16-42.06-37.26-7.85-5.35-3.14-13.99-3.37-22,15.6,13.7,32.21,25.99,47.25,39.18Z"/>
    <path class="cls-4" d="m498.42,232.65c.06,3.47.03,6.96.03,10.95-8.55-5.83-16.42-11.11-25.16-16.34-1.97-3.52-.34-8.08-.84-12.6,7.98,6.92,19.63,9.95,25.97,18Z"/>
    <path class="cls-4" d="m498.19,212.16c-.29.14-.59.29-.88.44-5.27-4.84-26.84-16.99-25.43-23.67.88-7.68-9.16-4.87-6.81-15.45,9.99,9.05,20.5,16.73,31.01,25.01,2.59,3.73,1.23,9.27,2.12,13.67Z"/>
    <path class="cls-4" d="m497.48,224.33c.04,1.07.23,2.12.44,3.9-9.19-4.64-15.62-12.12-24.41-17.17-2.79-3.77-.54-9.47-1.22-14.42,7.92,6.57,15.93,12.47,24.1,18.61,1.89,2.4.56,6.18,1.09,9.09Z"/>
    <path class="cls-4" d="m497.38,187.27c.03,2.85-.19,5.71-.36,9.35-11.56-8.75-22.36-16.87-32.46-26.18,4.94-3.39,9.51-6.53,14.37-9.86,2.51,2.11,5.1,4.29,7.87,6.63-13.56,5.95,10.24,12.51,10.58,20.06Z"/>
    <path class="cls-4" d="m503.72,567.09c-3.36,2.73-6.43,5.23-9.59,7.8-5.68-7.04-19.53-14.41-21.16-22.91.15-4.28.05-8.57.05-12.87.29-.04.57-.1.85-.16,9.89,9.31,19.77,18.63,29.85,28.13Z"/>
    <path class="cls-4" d="m492.35,576.1c-2.9,2.36-5.2,4.26-6.99,5.74-10.17-9.78-13.08-8.19-11.86-23.65,6.45,6.12,12.57,11.93,18.85,17.91Z"/>
    <path class="cls-4" d="m482.86,583.3c-3.01,3.72-.72,7.93-2.53,11.43-2.04-2.29-5.76-3.89-6.73-6.95.23-4.78-1.2-9.86.16-14.38,3.2,3.47,6.25,6.78,9.1,9.89Z"/>
    <path class="cls-4" d="m494.02,706.78c-5.12,3.73-9.99,7.28-14.78,10.77-17.21-11.56-31.45-26.18-46.84-40.14,4.42-2.47,11.64-12.22,16.09-10.89,15.58,13.38,30.17,26.28,45.53,40.27Z"/>
    <path class="cls-4" d="m479.7,596.76c1.06,4.77-1.52,9.43-5.92,12.27v-18.14c2.16,2.02,5.14,3.57,5.92,5.87Z"/>
    <path class="cls-4" d="m477.4,719.52c.74.6,1.59,1.75,1.52,2.58-1.03,5.51.01,12.32-2.56,17.07-12.47-10.22-22.91-22.39-35.2-32.82-13.08-11.22-11.42-10.01-9.59-26.71,15.62,13.28,29.25,27.91,45.84,39.88Z"/>
    <path class="cls-4" d="m471.56,521.07c-.53,9.43,1.54,14.78-1.56,16.37-9.26,7.42-33.92,27.2-45.84,36.78-16.38,13.29-33.33,26.05-49.48,39.55-5.88,6.2-18.36.88-26.99,1.73,12.38-9.9,121.02-92.43,123.87-94.44Z"/>
    <path class="cls-4" d="m471.43,539.41v16.15c-26.58,20.05-55.13,39.24-79.65,61.22.42.01.9.12,1.31.12l-.04.75c-6.22-.36-12.5-.79-18.92-1.41,32.65-25.85,64.32-50.85,97.3-76.84Z"/>
    <path class="cls-4" d="m471.34,559.04c-.46,4.26,1.07,8.83-.83,12.39-14.88,11.64-29.74,23.3-44.45,35.15-17.13,13.13-10.52,12.84-33.02,11.09l.04-.75c26.18-18.82,51.16-40.18,78.25-57.87Z"/>
    <path class="cls-4" d="m471.3,592.86c-.54,4.12,1.29,9.3-1.05,12.83-12.57,9.34-14.38,17.79-31.81,13.38,10.69-8.83,21.38-17.66,32.07-26.5.27.1.52.19.79.29Z"/>
    <path class="cls-4" d="m471.29,514.15c-.21.11-.41.22-.61.32-5.39-5.47-14.7-9.47-17.95-16.21,2.03-17.02-3.44-35.12-12.75-49.3,18.38,5.63,28.3,47.62,31.32,65.19Z"/>
    <path class="cls-4" d="m471.25,573.82c-.84,5.88,2.1,12.7-1.9,16.99-10.6,8.74-21.36,17.3-31.77,26.24-6.36,4.77-14.24,1.38-21.68,1.33,18.06-15.2,36.06-30.42,55.35-44.56Z"/>
    <path class="cls-4" d="m470.61,608.56c1.75,3.43-2.02,4.87-4.68,6.27l-1.18-1.42c1.99-1.64,3.93-3.25,5.86-4.85Z"/>
    <path class="cls-4" d="m464.74,613.41l1.18,1.42c-2.52,2.76-.33,11.79-1.02,15.45-3.35-2.86-6.72-5.74-10.09-8.64,3.5-2.91,6.77-5.62,9.94-8.24Z"/>
    <path class="cls-4" d="m459.08,210.18c.74,19.38,1.45,37.98,2.18,56.79-3.3-3.23-9.25-4.91-10.66-9.21-.48-10.69-.92-21.38-1.36-32.07-1.31-10.73.35-10.9,9.85-15.51Z"/>
    <path class="cls-4" d="m463.66,633.24c-2.43,2.02-4.72,3.91-6.84,5.65-2.95-2.84-5.73-5.56-8.56-8.21-2.58-2.35,2.66-4.2,3.65-6.27,3.06-3.09,8.51,6.83,11.75,8.84Z"/>
    <path class="cls-4" d="m454.94,504.07c4.96,4.64,9.97,9.24,15.58,14.42-18.96,14.34-37.74,28.54-56.85,42.98-1.77-36.78-4.6-27.54,22.77-49.5,5.56-2.65,12.6-14.3,18.51-7.9Z"/>
    <path class="cls-4" d="m454.82,640.86c-2.17,1.74-2.54,2.07-4.07,3.49-.02-.02-.04-.03-.07-.06,0,.04-.01.09-.01.13l-2.49,2.26c-5.76-6.47-12.74-11.43-18.79-18.24,2.39-1.4,4.64-6.16,7.69-4.69,5.87,5.58,11.69,11.24,17.74,17.1Z"/>
    <path class="cls-4" d="m450.74,644.35c.42.36.83.71,1.24,1.07-.54.46-1.03.89-1.47,1.28.03-.74.08-1.5.14-2.26l.08-.08Z"/>
    <path class="cls-4" d="m450.68,261.73c2.78,2.06,5.92,4.4,9.68,7.19-15.13,9.05-33.34,22.02-48.37,31.02-.17-5,.18-12.43-.09-16.56,12.58-7.71,25.52-14.67,38.78-21.65Z"/>
    <path class="cls-4" d="m450.74,644.35l-.08.08s.01-.09.01-.13c.02.02.04.03.07.06Z"/>
    <path class="cls-4" d="m463.44,149.46c-5.62,4.66-10.61,8.81-16.04,13.32-23.13-23.1-46.79-45.84-69.9-68.99-2.01-2.02-1.78-2.32.68-3.91,3.97-4.13,7.85-7.27,12.8-10.89,24.03,23.38,48.05,46.71,72.47,70.47Z"/>
    <path class="cls-4" d="m447.55,216.77c.83,14.65.88,29.27,1.7,43.74-11.9,5.5-37.74,19.74-37.74,19.74-.2-18.12-1.28-40.21-1.28-42.62,4.68-2.6,27.2-15.11,37.32-20.86Z"/>
    <path class="cls-4" d="m447.65,652.93c.82,19.33-10.78,3.12-17.2-2.55-7.76-6.38-14.22-13.52-21.68-20.24,3.3-2.86,6.28-5.46,9.41-8.19,9.37,9.18,19.85,18.81,29.25,28.08q.12,1.49.21,2.91Z"/>
    <path class="cls-4" d="m451.73,622.45c-2.25,1.77-4.36,3.42-6.69,5.24-1.93-1.84-3.79-3.6-6.21-5.89,4.67.23,8.63.43,12.9.65Z"/>
    <path class="cls-4" d="m442.49,665.22c.04.27.09.54.14.81-13.83,9.85-12.34,9.66-14.63,25.79,0-.9-.93-.93-1.33.27-9.24-8.26-18.41-16.47-27.59-24.68.08-.29.14-.59.22-.88,14.4-.43,28.79-.88,43.18-1.31Z"/>
    <path class="cls-4" d="m439.32,662.16l-.5.83c-8.36.68-16.29,2.23-22.06-5.4-9.81-9.92-21.41-19.12-31.29-28.84,2.95-2.64,5.67-5.06,8.81-7.86,14.99,13.72,30.01,27.5,45.04,41.26Z"/>
    <path class="cls-4" d="m421.84,621.45h12.57c-2.33,1.94-4.42,3.66-6.94,5.76-1.75-1.81-3.62-3.71-5.63-5.76Z"/>
    <path class="cls-4" d="m428.36,696.34c15.59,15.03,30.83,29.72,46.26,44.59-19.08,17.78-38.29,35.69-57.95,54.01-15.93-14.48-31.33-29.25-46.94-44.7,19.53-17.95,38.89-35.75,58.63-53.9Z"/>
    <path class="cls-4" d="m469.47,178.36c-15.23,9.4-31.03,19.14-47.34,29.21-.29-15.02-.57-29.63-.84-44.25-1.11-7.43,2.11-16.53-2.78-22.79-21.05-19.6-40.48-40.89-61.67-60.22-16.27-16.18-32.2-32.64-48.41-48.87-2.93-2.93-2.98-2.91-6.57-.34-13.68,9.79-27.36,19.57-41.04,29.36-21.57,16.11-44.48,30.76-65.66,47.2-1.76,2.47-3.31,1.34-4.82.01-9.12-8.01-17.34-15.98-26.33-24.48C205.47,55.44,246.83,27.78,288.35,0c61.11,58.67,120.51,119.18,181.12,178.36Z"/>
    <path class="cls-4" d="m419.64,843.26l-.39,4.51c-.01-1.6.39-4.51.39-4.51Z"/>
    <path class="cls-4" d="m419.05,974.68c.09.01.1.1.08.14-.09.06-.08-.01-.09-.13h.01Z"/>
    <path class="cls-4" d="m419.13,974.82s-.04.04-.06.02c.01,0,.03-.01.06-.02Z"/>
    <path class="cls-4" d="m419.05,974.68h-.01s0,0,0,0h.01Z"/>
    <path class="cls-4" d="m419.04,974.69c0,.09.01.14.03.16-.17.06-.07-.03-.14-.07.03-.03.07-.06.11-.09Z"/>
    <path class="cls-4" d="m419.04,974.68h0s-.08.07-.11.1h-.01c-2.6-1.96-13.34-12.84-27.18-27.15-2.76-51.63,9.63-134.63-15.92-174.67-8.82-12.22-22.1-27.7-38.83-24.88-2,.45-4.83-.6-6.65.21-37.03,23.31-25.99,72.59-26.01,109.66-.26.1-.5.2-.75.31-4.96-7.91-16.86-11.17-19.17-20.3-.56-56.1-1.79-112.16-2.55-168.25.28-.04.57-.1.84-.14,17.21,16.41,34.41,32.83,51.59,49.2-.2.87-.39,1.65-.39,1.67,28.93,22.41,53.15,51.6,81.02,75.79,2.07,1.91,2.42,3.6,2.34,5.87-1.39,36.56.17,135.29,1.72,172.58h.07Z"/>
    <path class="cls-4" d="m418.94,662.87c-.18.42-.36.84-.53,1.28-7.84-.92-16.8,2.02-24.09-.98-9.58-8.69-25.32-23.57-34.16-30.71,5.16-3.74,9.97-7.22,15.18-10.98,14.71,13.97,29.16,27.68,43.61,41.39Z"/>
    <path class="cls-4" d="m390.71,945.06c-.02-.19-.03-.37-.03-.56-.83-9.54-.83-23.99-.71-40.42v-.29c.17-21.27.52-45.82-.44-67.29-.61-13.96-1.78-26.61-3.93-36.26-.95-4.35-2.11-8.07-3.5-11.03-12.45,11.22-24.68,22.62-36.82,34.13-4.37,4.15-8.71,8.31-13.06,12.47v.02c-4.7,4.5-9.41,9.03-14.09,13.57-3.01,2.91-6.01,5.82-9.02,8.73v.02c-.24.73.37,2.1,1.66,4.03.34.46.69.96,1.08,1.49.41.54.85,1.12,1.32,1.71.25.29.49.59.74.9v.02c.27.3.52.63.8.95.27.32.56.66.85,1,.59.68,1.22,1.39,1.86,2.11.66.73,1.34,1.49,2.05,2.28.73.78,1.47,1.59,2.23,2.42,1.17,1.24,2.39,2.54,3.65,3.87.02.02,0,.02,0,.02,1.08,1.13,2.2,2.28,3.32,3.47.46.46.91.91,1.37,1.39.63.66,1.29,1.34,1.98,2.03,0,0-.02,0,0,.02,1.96,2.03,4.03,4.13,6.14,6.28t.02.02c1.54,1.56,3.11,3.16,4.72,4.79.54.54,1.1,1.1,1.64,1.66,2.17,2.18,4.38,4.42,6.62,6.68,0,0,.02,0,.02.02,3.37,3.38,6.78,6.85,10.2,10.35t.02.02c1.15,1.15,2.28,2.32,3.42,3.49,0,0,.02,0,.02.02,2.86,2.91,5.7,5.84,8.49,8.76t.02.02c1.69,1.74,3.35,3.49,4.99,5.23,1.64,1.73,3.27,3.45,4.86,5.16,1.07,1.13,2.11,2.28,3.16,3.42.52.56,1.03,1.13,1.54,1.69,1.02,1.1,2.01,2.22,2.99,3.3-.05-.54-.12-1.1-.17-1.67Z"/>
    <path class="cls-4" d="m416.91,152.92c.52,21.66,1.02,42.71,1.53,64.03-15.29,9.35-30.51,18.66-46.18,28.25-1.1-19.94-.57-39.47-1.71-59.34-.01-1.25.7-3.02,1.67-3.7,14.99-10.04,29.06-19.99,44.69-29.25Z"/>
    <path class="cls-4" d="m416.02,150.87c-14.43,10.33-29.35,18.83-44.07,28.6-4.63,3.05-10.72-9.24-14.65-11.81,14.23-9.46,29.47-19.74,44.45-28.38,5.05.2,9.69,8.37,14.28,11.59Z"/>
    <path class="cls-4" d="m408.98,556.77c.52,2.09.67,4.27,1.05,7.03l-15.72-17.54c-2.25-15.39-6.46-48.8-20.95-56.58,20.14-3.85,30.24,52.24,35.61,67.1Z"/>
    <path class="cls-4" d="m416.33,620.82c-3.02,2.69-5.84,5.21-9.05,8.07-3.17-2.7-6.42-5.45-9.66-8.2l.23-.7c6.07.28,12.13.54,18.47.83Z"/>
    <path class="cls-4" d="m394.32,546.26l15.72,17.54c-20.81,16.09-42,32.46-63.18,48.82-.26-.14-.5-.29-.74-.44-.25-10.72.09-21.39.85-32.08l.69.04c15.73-10.38,29.6-23.3,46.66-33.88Z"/>
    <path class="cls-4" d="m394.68,665.12c10.38,9.35,20.6,18.57,31.32,28.23-19.67,17.87-39.02,35.46-58.8,53.43-10.22-9.95-20.39-19.84-30.75-29.92,19.38-17.23,38.59-34.29,58.24-51.74Z"/>
    <path class="cls-4" d="m397.53,289.35c-.27-19.05-1.12-37.14-.9-56.39-26.17,14.85-50.94,31.91-76.69,47.51-1.89,1.18-2.44,2.52-2.45,4.48-.24,29.74-.76,59.32-.76,89.1,26.7-15.87,52.79-32.77,79.11-49.23,4.18-6.23.78-26.71,1.69-35.46Zm-67.19,62.52c-2.32-2.08-1.27-5.02-1.29-7.61.63-15.62.86-31.28.91-46.93.58-3.52-1.74-8.26.88-11.01,5.36-3.59,10.81-7.07,16.21-10.63,12.5-8.31,24.16-16.11,36.82-24.62.22,1.57,1.02,63.97,1.1,65.09-3.74,2.55-42.53,26.83-54.63,35.72Z"/>
    <path class="cls-4" d="m376.63,619.75h15.87c-8.84,7.84-7.68,9.32-15.87,0Z"/>
    <path class="cls-4" d="m389.18,822.31c.82,6.66.39,117.13,1.7,124.42-32.07-35.74-83.63-82.8-81.76-88.6,24.04-23.33,48.09-46.49,72.98-68.92,4.18,11.22,6.27,21.44,7.08,33.09Z"/>
    <path class="cls-4" d="m387.99,77.81c.13.3.28.6.41.9-4.88,3.73-9.77,7.45-14.99,11.43-3.91-4.14-7.66-8.1-11.65-12.33h26.22Z"/>
    <path class="cls-4" d="m380.55,256.21c.41,17.93,2.69,35.21.31,52.74-2.85-2.83-5.71-5.63-8.48-8.49-1.55-7.14-.77-15.02-1.4-22.39.12-13.02-3.72-15.02,9.57-21.86Z"/>
    <path class="cls-4" d="m379.76,310.2c2.06,2.14,1.95,3.55-.46,5.18-8.98,6.06-18.04,12.02-27,18.14-7.16,4.69-13.52,10.03-20.88,14.45.32-23.36-4.18-19.27,16.04-32.08,6.98-4.64,14-9.21,20.96-13.87,4.33-2.14,7.9,6.05,11.33,8.17Z"/>
    <path class="cls-4" d="m374.29,619.13c.18.27.34.54.52.82-5.26,3.55-10.51,7.1-16.11,10.89-4.42-4.07-8.98-8.27-13.55-12.47.08-.24.16-.48.23-.72,9.64.49,19.27.98,28.91,1.48Z"/>
    <path class="cls-4" d="m373.49,774.21c2.34,4.33,4.39,8.83,6.66,13.47-24.4,22.98-48.72,45.88-73.53,69.26-1.89-27.11-5.82-64.04,6.94-88.42,4.44-7.05,9.07-14.45,17.09-17.22,16.19-4.09,33.42,4.07,42.85,22.91Z"/>
    <path class="cls-4" d="m369.94,242.18c.01.36-.04.71-.13,2-13.39-13.27-25.46-26.9-37.89-39.75-1.13-29.35.88-19.28,23.02-35.39,4.87,6.57,14.45,11.34,13.94,20.27.46,17.62.75,35.26,1.05,52.88Z"/>
    <path class="cls-4" d="m369.58,292.5c.37,5.11-1.21,8.09-5.76,10.73-11.16,6.08-20.63,14.61-32.33,19.77.81-12.23-1.87-24.98,1.94-36.23,11.81-7.48,22.84-15.69,35.1-22.48.33,9.72.39,18.99,1.04,28.21Z"/>
    <path class="cls-4" d="m369.62,246.99c-16.85,10.8-34.41,20.28-50.99,31.51-3.24,5.4-27.97-27.69-33.18-31.45-.95-1.03-1.74-2.3-2.86-3.1-5.28-5.46,9.73-13.46,13.39-16.52,11.51-8.41,26.68-17.1,33.9-22.87,13.3,14.2,26.38,28.16,39.74,42.43Z"/>
    <path class="cls-4" d="m368.56,146.76c-27.57,19.07-15.61,13.85-41.35-7.88-28.39-27.21-21.17-15.91-21.24-55.73,20.99,21.34,41.75,42.44,62.59,63.61Z"/>
    <path class="cls-4" d="m341.83,582.93c-.87,9.21,3.14,28.31-1.53,35.21-19.6,15.8-39.17,31.63-59.78,46.09-45.37,36.03-91.55,70.18-136.52,106.82-.27-58.43,1.05-116.02,2.27-174.45,1.67-9.07-2.64-29.88,4.34-34.99,14.94-11.35,30.06-22.45,45.57-33.95,1.97,12.01.82,24.31,1.14,36.49.87,12.33-3.91,25.82.09,37.54,47.33-35.1,94.01-72.95,141.34-107.78,1.35,29.64,2.05,59.35,3.09,89.01Z"/>
    <path class="cls-4" d="m333.65,148.2c4.29,4.32,8.57,8.63,13.16,13.23-4.74,3.19-9.18,6.17-13.88,9.33v-22.28c.24-.09.48-.19.72-.28Z"/>
    <path class="cls-4" d="m331.52,491.83c1.65-.09,3.32-.02,5.53-.02-46.16,35.45-91.93,70.58-137.74,105.76,0-22.51.01-44.48-.09-66.89-.01-3.14.63-5.64,3.51-7.67,12.05-8.26,23.34-17.46,35.59-25.43.4,16.06.79,31.91,1.19,48.04,18.55-14.09,37.4-27.48,56.35-41,14.27-12.05,17.23-12.42,35.67-12.79Z"/>
    <path class="cls-4" d="m330.28,148.43c-.1,6.75.21,13.17-.13,19.58,1.04,3.75-1.15,5.66-3.94,7.48-14.86,9.75-29.72,19.49-44.41,29.5-.28-.11-.54-.22-.82-.33,1.07-7.73-.44-16.62,2.19-23.8,15.72-10.77,30.81-22.61,47.12-32.43Z"/>
    <path class="cls-4" d="m329.59,185.19c-.85,6.25,1.98,13.71-1.54,18.65-15.58,10.37-30.91,20.62-46.6,30.87,1.01-6.55-2.6-16.52,2.46-20.73,15.28-9.53,30.27-19.49,45.68-28.8Z"/>
    <path class="cls-4" d="m336.6,489.34c-20.66,1.22-40.47,2.49-61.05,3.29-11.15-.98-29.5,5.19-38.3-1.46-3.75-3.71-7.75-7.15-11.63-10.7.09-.36.19-.71.29-1.05,23.19-.24,46.41.79,69.55-1.08,5.08-1.05,1.33-16.52,2.86-21.11,12.54,10.52,25.09,21.06,38.28,32.13Z"/>
    <path class="cls-4" d="m326.13,141.54c1.15,1.15,2.61,2.02,4.6,3.54-16.39,11.1-32.22,21.84-48.41,32.8-.94-17.41.42-34.29-.59-51.63-.44-5.07-7.09-6.8-10.09-10.8,4.14-2.05,14.03-14.1,17.32-11.22,12.51,12.32,24.8,24.86,37.18,37.31Z"/>
    <path class="cls-4" d="m312.84,278.99c1.7,1.73,2.35,3.52,2.33,5.89-.13,23.15-.03,46.2-.06,69.37-4.52-5.95-14.37-9.97-14.04-17.89-.99-11.09,4.94-24.9-5.08-32.86-34.86-39.1-30.69-20.59-30.08-74.03,2.64,3.1,10.9,11.83,13.69,14,9.94,12.72,22.19,23.73,33.25,35.52Z"/>
    <path class="cls-4" d="m315.03,372.76c.06,1.92-.32,2.85-2.75,2.4-17.83-3.37-35.68-6.65-53.55-9.8-32.26-6.52-26.8,2.48-48.52-24.28.11-.21.22-.41.33-.62,34.64,5.82,69.27,11.63,104.29,17.52-.04,5.21,0,9.74.21,14.79Z"/>
    <path class="cls-4" d="m312.41,355.02l-.33.4c-16.91-2.84-33.81-5.68-50.72-8.53l.54-3.24c12,2,24.14,3.32,36.08,5.65,3.93,1.15,2.86-2.31,3.15-4.83,3.82,3.57,7.55,7.06,11.28,10.55Z"/>
    <path class="cls-4" d="m303.88,100.85c.03,4.85.01,9.7.01,15.11-18.02-15.22-10.18-19.83-28.27-6.06.55-7.8-2.04-18.73,1.46-25.39,4.43-2.34,14.32-12.95,18.5-11.5,12.14,8.75,7.37,14.7,8.3,27.84Z"/>
    <path class="cls-4" d="m299.08,313.42c.16,4.94.08,9.88.08,14.66-24.27-3.49-46.66-8.06-70.67-11.4-4.08-1.94-.27-12.69-.8-17.12,15.5,2.59,30.67,5.18,46.09,7.83,6,1.95,22.05,1.82,25.3,6.03Z"/>
    <path class="cls-4" d="m298.45,332.59c.18,4.58.1,9.17.1,14.43-24.78-4-48.6-7.84-72.31-11.67v-16.33c20.35,2.44,40.33,6.68,60.46,10.49,3.59,1.23,9.43-.23,11.76,3.08Z"/>
    <path class="cls-4" d="m297.8,308.71c-.09.27-.19.53-.28.79-22.7-3.93-45.4-7.86-68.33-11.82,12.24-8.13,24.19-16.06,36.29-24.09,10.92,11.88,21.63,23.5,32.32,35.12Z"/>
    <path class="cls-4" d="m297.98,375.6c-.89,31.05-2.02,62.24-2.62,93.33-.18,5.82-.18,6.68-6.99,7.03-21.58.79-43.23.98-64.81.38-.08-26.67.54-53.28,1.27-79.93.04-1.6-.41-3.76,2.54-3.7,2.85-9.12.66-20.27,2.12-29.93,22.91,4.48,46.2,5.61,68.49,12.82Z"/>
    <path class="cls-4" d="m295.02,493.72c-.33,3.77,1.14,7.6-2.8,10.39-16.81,12.41-33.22,24.09-50.43,36.13-.39-14.74-.77-28.92-1.14-43.42,18.22-1.04,36.1-2.06,54.37-3.11Z"/>
    <path class="cls-4" d="m273.21,107.36c.1,2.83.26,5.3-3.55,6.09-4.36-4.48-9.04-9.29-13.95-14.33,5.75-4,11.5-8,17.43-12.13,0,7.14-.16,13.77.08,20.37Z"/>
    <path class="cls-4" d="m271,154.6v77.26c-15.52-15.11-29.52-31.02-44.39-46.67-1.52-1.69-2.72-1.5-4.31-.37-18.9,12.5-35.46,26.94-55.28,38.14-8.41-8.96-16.94-18.02-25.71-27.33,20.5-15.23,41.43-30.76,62.57-46.46,9,9.18,19.05,17.28,27.22,27.11,2.3,3,3.11,3.28,6.23,1.16,10.98-8.33,21.73-15.06,33.68-22.85Z"/>
    <path class="cls-4" d="m269.81,148.75c2,2.38,1.92,2.82-.62,4.48-11.13,7.21-22.25,14.45-33.3,21.77-.28-.12-.56-.26-.84-.38-1.46-28.11,3.38-21.32,25.5-36.69,3.21,3.73,6.27,7.25,9.27,10.81Z"/>
    <path class="cls-4" d="m277.31,123.88c-14.1,9.52-27.88,18.23-42.06,27.42-4.71,5.16-.95,14.99-2.11,21.69-.28.1-.56.2-.83.31-7.33-6.17-14.29-12.73-21.2-19.37-6.51-4.79-3.03-13.4-3.55-20.43,4.94-6.69,14.61-10.01,21.17-15.51,8.8-5.77,16.6-12.31,25.72-17.67,7.53,7.76,15.04,15.49,22.87,23.56Z"/>
    <path class="cls-4" d="m261.9,343.65l-.54,3.24c-2.74-.47-5.5-.93-8.24-1.39l.54-3.22c2.74.47,5.5.92,8.24,1.37Z"/>
    <path class="cls-4" d="m253.66,342.28l-.54,3.22c-13.72-2.31-27.44-4.61-41.16-6.92-.03-.28-.06-.57-.08-.84,3.74-2.06,7.48-4.13,11.39-6.27.4,5.48.74,5.77,5.69,6.61,8.24,1.38,16.46,2.82,24.7,4.21Z"/>
    <path class="cls-4" d="m246.76,283.47c-6.85,4.56-13.17,10.07-20.53,13.54-.66.54-1.49,1.36-1.51,2.11-.22,9.25-.13,18.54-1.04,27.75-2.61,5.33-10.45,6.05-15.36,9.36-10.89-10.94-22.26-21.55-33.55-32.12-1.44-1.79-6.72-4.18-3.45-6.57,18.06-12.74,37.22-23.67,55.26-36.45,6.72,7.45,13.33,14.78,20.18,22.37Z"/>
    <path class="cls-4" d="m225.72,362.4c3.04,7.98-.02,17.6.52,26.12-.37.29-.73.58-1.09.87-20.97-21.27-16.65-16.29-16.87-45.3.36-.08.71-.17,1.07-.26,5.47,6.17,11.13,12.21,16.37,18.57Z"/>
    <path class="cls-4" d="m224.6,256.72c.06,1.83-.46,3.01-1.92,4-18.29,11.89-35.6,24.96-54.57,35.8-.94-19.66,1.72-38.29.13-57.47-.31-2.79,2.73-10.94.19-12.09,10.23-10.05,24.13-17.2,35.6-26.26,6.12-3.55,11.49-10.1,18.16-12.02,3.45,21.68.82,45.64,2.41,68.04Z"/>
    <path class="cls-4" d="m222.2,388.21c.36.37.6.83,1.04,1.47-26.46-.17-25.07,3.62-43.18-17.65,27.95.35,23.31-3.89,42.14,16.19Z"/>
    <path class="cls-4" d="m237.49,494.81c-12.62,9.43-24.74,18.09-37.33,27.28-4.5,2.91-15.93-14.13-20.04-17.33,5.14-4.34,10.78-8.2,15.86-12.59,3.89-10.41.58-22.92,1.62-34.53,13.22,12.32,26.41,24.61,39.89,37.17Z"/>
    <path class="cls-4" d="m219.05,438.67v35.66c-26.1-25.54-30.83-17.44,0-35.66Z"/>
    <path class="cls-4" d="m204.92,338.74c4.62,7.67.41,20.71,1.23,30.17-12.85-11.62-24.23-24.48-36.11-37.04-2.77-8.56-1.88-18.28-.49-27.33,12.36,11.5,23.51,22.46,35.37,34.2Z"/>
    <path class="cls-4" d="m200.39,366.53c1,1,1.92,2.09,3.19,3.47-9.16-.49-18.72,1.12-27.19-1.94-13-12.01-24.48-23.62-36.69-36.92,9.52,1.01,18.93-.47,27.38,1.96,11.13,11.11,22.22,22.27,33.31,33.43Z"/>
    <path class="cls-4" d="m195.42,483.37c1.9,10.23-11.1,13.77-17.03,19.75-.37-.07-.73-.12-1.09-.19.29-42.47.58-84.94.88-127.41.36-.18.72-.36,1.08-.53,4.28,6.89,14.03,9.99,15.63,18.21-.25,30.06.85,60.14.53,90.18Z"/>
    <path class="cls-4" d="m193.93,523c.59.61,1.4.99,2.43,1.7-16.63,11.51-32.38,23.29-48.29,35.6-3.14,2.41-3.7,2.65-6.16-.38-16.17-14.82-32.3-29.83-48.24-44.97-4.82-5.78-16.12-10.96-15.7-19.18.22-.92.7-2.09,1.44-2.55,9.56-6.06,19.13-12.12,28.84-17.95,4.54-2.73,4.67-2.5,8.87,1.78,4.9,3.18,9.48,14.89,16.09,9.98,4.46-2.17,11.37-10.09,16.01-8.85,15.23,14.61,30.12,29.58,44.71,44.83Z"/>
    <path class="cls-4" d="m190.49,121.95c.13,3.66.06,7.35.06,11.02-.31.09-.62.19-.93.28-8.64-7.74-17.37-15.41-25.92-23.23-3.29-4.67-1.04-10.78-1.64-16.6,9.52,9.83,21.14,17.42,28.44,28.53Z"/>
    <path class="cls-4" d="m189.38,136c-20.01,15.45-40,30.22-60.04,45.51-3.8,4.83-18.81-15.8-23.41-18.56-1.95-3.29-13.43-8.85-7.75-12.25,20.82-12.43,39.48-28.25,60.35-40.64.07.1.13.21.21.31-.51.56-1.01,1.11-1.51,1.67,3.72-.91,3.29-2.92,6.88.68,8.41,7.69,16.77,15.44,25.27,23.28Z"/>
    <path class="cls-4" d="m175.44,371c1.63,42.48,1.23,86.12-.78,129.21-7.35-7.41-15.08-14.44-22.4-21.87-4.04-6.05-.76-14.39-1.39-21.29.06-2.71-1.13-5.01-3.15-6.84-19.23-15.73-13.26-14.08-13.94-37.36.48-27.01,1.49-54.01,1.65-81.03.38-.09.75-.19,1.12-.28,13.16,12.96,26.25,25.99,38.89,39.45Z"/>
    <path class="cls-4" d="m173.99,939.44c-.03.75-.07,1.21-.09,1.3-.32-.07-1.51,2.16-1.83,2.1-.04-.41-.08-.93-.11-1.55.67-.6,1.34-1.22,2.03-1.84Z"/>
    <path class="cls-4" d="m166.02,266.21c-.1,10.09.25,19.57-.18,29.73-8.71-7.29-16.1-13.73-23.17-22.07-4.25-1.33-4.15-4.66-4.02-8.23,1.24-22.35.35-44.34,1.69-66.73,35.49,33.18,23.71,19.47,25.68,67.3Z"/>
    <path class="cls-4" d="m166.01,300.08v28.89c-4.97-1.06-31.03,2.73-30.17-2.94.33-7.96.5-15.93.82-23.89.85-5.25,9.01-1.67,12.8-2.74,5.52.3,11.32-1.53,16.55.69Z"/>
    <path class="cls-4" d="m148.14,453.49c.34,22.64,2.41,19.45-16.7,31.65-1.86,1.28-3.32.78-4.71-.58-4.03-4.86-10.91-8.48-12.95-14.51.31-22.07-2.25-17.27,16.02-29.23,5.71-3.78,12.3,11.38,18.33,12.67Z"/>
    <path class="cls-4" d="m144.01,966.81c0,.24-.01.46-.01.68-.5.29-.8.56-1.18.63,0-.08-.01-.15-.01-.23.36-.3.75-.67,1.2-1.08Z"/>
    <path class="cls-4" d="m143.99,967.49c-.01.08-.01.17-.01.24-.33,0-.7.31-1.03.37.27-.13.62-.33,1.04-.61Z"/>
    <path class="cls-4" d="m142.82,968.12s.06,0,.09-.01c-.22.12-.39.17-.49.14.12-.11.26-.23.39-.36,0,.08.01.14.01.22Z"/>
    <path class="cls-4" d="m130.52,296.38c7.63,7.3,2.77,20.87,3.17,30.58-17.73-16.48-34.39-33.49-51.66-50.1-4.48-6.61-1.57-16.36-2.93-24.13.3-.1.59-.2.88-.3,16.7,14.82,33.43,29.62,50.54,43.95Z"/>
    <path class="cls-4" d="m133.65,332.64c.08,9.71.06,19.44.06,29.16-.27.07-.53.13-.8.21-12.04-10.59-24.08-21.18-36.29-31.92,12.22-.16,23.7.31,35.76,1.33.49.06,1.28.78,1.28,1.21Z"/>
    <path class="cls-4" d="m132.03,417.71c-.56,6.91,1.16,13.97-.73,19.95-6.56,3.57-12.34,8.83-19.36,11.23-.93,7.15,2.15,17.25-1.7,22.98-10.79,6.44-21.23,13.61-32.3,19.48.95-9.16-1.18-37.36,3.87-42.74,16.28-11.18,33.42-20.53,50.21-30.91Z"/>
    <path class="cls-4" d="m124.02,183.28c1.74,1.67,2.11,3.46,2.08,5.66-.43,23.19,0,46.38-1.69,69.51-8.83-8.59-20.09-15.6-26.77-25.68-.84-25.2-1.62-50.47-.94-75.57,9.68,8.28,18.01,17.46,27.32,26.08Z"/>
    <path class="cls-4" d="m117.38,404.79c3.84,3.62,7.68,7.24,12.09,11.39-17.5,10.25-34.54,20.22-51.94,30.4-13-12.2-25.75-24.18-38.68-36.31,15.24-11.3,31.3-20.93,47.26-31.08,4.21-3.98,25.66,21.95,31.27,25.61Z"/>
    <path class="cls-4" d="m89.65,333.67c.41,12.22-.71,24.41-.97,36.63-.11,3.01-.74,5.63-3.99,7.03-16.51,8.21-30.31,18.55-45.58,29.34-.26-13.55.32-25.59.32-38.72-.3-5.41,3.71-7,7.1-9.1,14.32-8.34,28.41-17.8,43.11-25.18Z"/>
    <g>
      <line class="cls-1" x1="142.23" y1="967.83" y2="850.81"/>
      <line class="cls-1" y1="850.81" x2=".13" y2="321.91"/>
    </g>
    <path class="cls-3" d="m588.11,498.44c-18.78,17.51-20.72-4.69-47.86,36.99-.27-25.96,0-54.5-14.65-76.73-27.92-19.52-48.22,21.7-51.91,44.88-.69-33.87-1.37-67.6-2.05-101.33.23-.12.47-.26.69-.39,38.5,32.12,77,64.23,115.79,96.58Z"/>
    <path class="cls-8" d="m577.25,507.57c-10.47,8.48-20.94,16.96-31.41,25.46-.18-.22-.37-.43-.54-.64,7.08-12.67,15.89-23.21,31.95-24.81Z"/>
    <path class="cls-8" d="m557.86,182.17c.36.1.7.2,1.05.3-.7,3.4.85,8.09-1.46,10.75-18.5,13.39-37.79,22.77-58.36,33.28.72-4.99-2.26-11.26,2.7-14.02,18.6-10.33,38.15-18.74,56.07-30.31Z"/>
    <path class="cls-8" d="m553.91,198.08c-.64,5.6,2.14,12.08-2.67,15.91-15.47,12.64-33.49,19.27-51.07,28.95.87-5.92-2.67-14.36,4.13-16.98,16.9-8.77,33.77-17.19,49.61-27.88Z"/>
    <path class="cls-8" d="m551.91,171.87c.14-.07.33-.01.98-.01-1.09,4.01.55,9.83-2.54,12.68-16.15,10.68-35.22,15.61-50.43,27.64.36-5.18-2.34-11.22.18-14.9,16.83-9.36,34.32-17.41,51.82-25.41Z"/>
    <path class="cls-8" d="m529.48,137.42c.14,2.58,1.64,5.17-.71,6.73-4.26,2.11-8.59,4.09-13.19,6.24-2.41-9.41,6.62-11.37,13.9-12.97Z"/>
    <path class="cls-3" d="m526.7,623.36c1.84,5.72.28,12.85.33,19.7-14.46-12.36-28.65-23.77-42.63-36.48-4.59-4.89-.78-11.53-.92-18.05,14.81,11.81,29.31,22.23,43.22,34.82Z"/>
    <path class="cls-3" d="m512.77,657.18c2.04,4.33.04,9.76.26,15.06-15.41-12.49-30.34-24.76-44.98-38.03-3.1-4.57.15-10.61.01-16.16,15.16,13.16,29.98,25.66,44.72,39.13Z"/>
    <path class="cls-3" d="m508.98,143.31c6.82-2.49,4.08,3.02,4.62,7.9-2.73-2.29-4.91-4.12-7.2-6.05,1.11-.8,1.87-1.34,2.59-1.85Z"/>
    <path class="cls-3" d="m512.72,152.55c1.28,11.6-1.15,23.09.03,35.08-2.68-2.45-4.76-4.36-6.78-6.22v-33.2c.29-.09.57-.19.85-.29,2,1.51,4.2,2.83,5.89,4.63Z"/>
    <path class="cls-8" d="m499.02,459.16c3.93-2.35,8.35-4,13.29-3.55-13.05,10-14.89,28.36-18.25,43.37-4.44,7.08-13.48,10.66-20.39,16.12,2.79-20.27,8.91-42.61,25.36-55.94Z"/>
    <path class="cls-3" d="m511.49,141.31c-.92.72-1.69,1.33-2.45,1.95-.67.13-1.33.28-2.15.46v-5.27c1.61,1.01,2.99,1.85,4.61,2.86Z"/>
    <path class="cls-3" d="m513.63,556.95c-2.65,2.9-5.3,5.81-8.03,8.79-10.47-9.56-20.3-18.72-30.46-28.44-3.25-4.68-1.04-11.38-1.63-16.77,2.03.18,37.82,32.47,40.12,36.42Z"/>
    <path class="cls-3" d="m502.4,245.23v12.49c-10.85-5.16-19.19-12.73-28.89-19.52-1.73-2.31-.44-5.59-.81-8.56,8.94,5.71,18.66,10.15,26.78,17.54.67-.44,1.57-1.04,2.92-1.95Z"/>
    <path class="cls-3" d="m497.77,685.87c1.93,6.14.84,14.09-1.81,20.08-14.52-12.89-28.22-25.16-42.06-37.26-7.85-5.35-3.14-13.99-3.37-22,15.6,13.7,32.21,25.99,47.25,39.18Z"/>
    <path class="cls-3" d="m498.42,232.65c.06,3.47.03,6.96.03,10.95-8.55-5.83-16.42-11.11-25.16-16.34-1.97-3.52-.34-8.08-.84-12.6,7.98,6.92,19.63,9.95,25.97,18Z"/>
    <path class="cls-3" d="m498.19,212.16c-.29.14-.59.29-.88.44-5.27-4.84-26.84-16.99-25.43-23.67.88-7.68-9.16-4.87-6.81-15.45,9.99,9.05,20.5,16.73,31.01,25.01,2.59,3.73,1.23,9.27,2.12,13.67Z"/>
    <path class="cls-3" d="m497.48,224.33c.04,1.07.23,2.12.44,3.9-9.19-4.64-15.62-12.12-24.41-17.17-2.79-3.77-.54-9.47-1.22-14.42,7.92,6.57,15.93,12.47,24.1,18.61,1.89,2.4.56,6.18,1.09,9.09Z"/>
    <path class="cls-3" d="m503.72,567.09c-3.36,2.73-6.43,5.23-9.59,7.8-5.68-7.04-19.53-14.41-21.16-22.91.15-4.28.05-8.57.05-12.87.29-.04.57-.1.85-.16,9.89,9.31,19.77,18.63,29.85,28.13Z"/>
    <path class="cls-3" d="m492.35,576.1c-2.9,2.36-5.2,4.26-6.99,5.74-10.17-9.78-13.08-8.19-11.86-23.65,6.45,6.12,12.57,11.93,18.85,17.91Z"/>
    <path class="cls-3" d="m482.86,583.3c-3.01,3.72-.72,7.93-2.53,11.43-2.04-2.29-5.76-3.89-6.73-6.95.23-4.78-1.2-9.86.16-14.38,3.2,3.47,6.25,6.78,9.1,9.89Z"/>
    <path class="cls-3" d="m479.7,596.76c1.06,4.77-1.52,9.43-5.92,12.27v-18.14c2.16,2.02,5.14,3.57,5.92,5.87Z"/>
    <path class="cls-3" d="m477.4,719.52c.74.6,1.59,1.75,1.52,2.58-1.03,5.51.01,12.32-2.56,17.07-12.47-10.22-22.91-22.39-35.2-32.82-13.08-11.22-11.42-10.01-9.59-26.71,15.62,13.28,29.25,27.91,45.84,39.88Z"/>
    <path class="cls-8" d="m471.56,521.07c-.53,9.43,1.54,14.78-1.56,16.37-9.26,7.42-33.92,27.2-45.84,36.78-16.38,13.29-33.33,26.05-49.48,39.55-5.88,6.2-18.36.88-26.99,1.73,12.38-9.9,121.02-92.43,123.87-94.44Z"/>
    <path class="cls-8" d="m471.43,539.41v16.15c-26.58,20.05-55.13,39.24-79.65,61.22.42.01.9.12,1.31.12l-.04.75c-6.22-.36-12.5-.79-18.92-1.41,32.65-25.85,64.32-50.85,97.3-76.84Z"/>
    <path class="cls-8" d="m471.34,559.04c-.46,4.26,1.07,8.83-.83,12.39-14.88,11.64-29.74,23.3-44.45,35.15-17.13,13.13-10.52,12.84-33.02,11.09l.04-.75c26.18-18.82,51.16-40.18,78.25-57.87Z"/>
    <path class="cls-8" d="m471.3,592.86c-.54,4.12,1.29,9.3-1.05,12.83-12.57,9.34-14.38,17.79-31.81,13.38,10.69-8.83,21.38-17.66,32.07-26.5.27.1.52.19.79.29Z"/>
    <path class="cls-8" d="m471.25,573.82c-.84,5.88,2.1,12.7-1.9,16.99-10.6,8.74-21.36,17.3-31.77,26.24-6.36,4.77-14.24,1.38-21.68,1.33,18.06-15.2,36.06-30.42,55.35-44.56Z"/>
    <path class="cls-8" d="m469.73,188.29c-13.5,7.53-26.19,15.77-39.42,23.67-6.62,5.5-30.45,15.46-31.88,22.11,1.13,27.48.93,54.95,2.57,82.33.14,2.25,2.64,3.55,4.57,2.35,8.26-5.09,26.6-16.45,37.04-22.87,5.48-4.86,28.97-14.35,28.49-20.39-.3-29.19-1.08-57.96-1.37-87.2Zm-6.65,81.09c-9.95,5.84-50.69,33.91-53.04,35.16-.78-4.87-1.4-62.11-1.86-67.81,16.51-9.32,32.86-18.81,49.25-28.36,3.89-2.2,3.82-2.15,3.96,2.49.49,18.88.95,37.85,1.71,56.73,0-.1-.05-.56-.02,1.79Z"/>
    <path class="cls-6" d="m470.61,608.56c1.75,3.43-2.02,4.87-4.68,6.27l-1.18-1.42c1.99-1.64,3.93-3.25,5.86-4.85Z"/>
    <path class="cls-4" d="m449.25,260.52c-.83-14.47-.88-29.08-1.71-43.75-10.12,5.75-32.64,18.27-37.32,20.86l.1,3.38c.29,7.34,1.02,24.57,1.18,39.22v.02s25.84-14.25,37.75-19.73Zm1.42,1.22c-6.63,3.49-13.18,6.97-19.64,10.54-1.61.9-3.21,1.79-4.82,2.71-4.82,2.71-9.59,5.5-14.31,8.39.27,4.13-.07,11.57.1,16.56,15.02-8.98,33.23-21.96,48.35-31.01-3.76-2.79-6.9-5.13-9.68-7.19Zm-1.42-1.22c-.83-14.47-.88-29.08-1.71-43.75-10.12,5.75-32.64,18.27-37.32,20.86l.1,3.38c.29,7.34,1.02,24.57,1.18,39.22v.02s25.84-14.25,37.75-19.73Zm9.83-50.33s-.05.02-.07.03c-.93.46-1.78.86-2.55,1.24-.54.25-1.05.51-1.52.76-.59.29-1.13.58-1.62.85l-.02.02c-.59.34-1.12.66-1.57,1-.46.34-.86.68-1.2,1.05-.34.37-.63.76-.85,1.2-1.02,1.91-1.03,4.6-.44,9.36.44,10.69.88,21.39,1.37,32.08.32,1,.9,1.84,1.62,2.61.05.07.1.14.17.19.2.2.41.39.61.59.22.19.46.37.69.56.47.37,1,.73,1.51,1.07,2.08,1.37,4.4,2.59,6.04,4.21-.71-18.83-1.42-37.42-2.17-56.8Z"/>
    <path class="cls-3" d="m459.08,210.18c.74,19.38,1.45,37.98,2.18,56.79-3.3-3.23-9.25-4.91-10.66-9.21-.48-10.69-.92-21.38-1.36-32.07-1.31-10.73.35-10.9,9.85-15.51Z"/>
    <path class="cls-8" d="m410.23,237.63c4.68-2.6,27.2-15.11,37.32-20.86.83,14.65.88,29.27,1.7,43.74-11.9,5.5-37.74,19.74-37.74,19.74l-1.28-42.62Z"/>
    <path class="cls-2" d="m419.64,843.26l-.39,4.51c-.01-1.6.39-4.51.39-4.51Z"/>
    <path d="m419.05,974.68c.09.01.1.1.08.14-.09.06-.08-.01-.09-.13h.01Z"/>
    <path class="cls-5" d="m419.13,974.82s-.04.04-.06.02c.01,0,.03-.01.06-.02Z"/>
    <path class="cls-5" d="m419.05,974.68h-.01s0,0,0,0h.01Z"/>
    <path d="m419.04,974.69c0,.09.01.14.03.16-.17.06-.07-.03-.14-.07.03-.03.07-.06.11-.09Z"/>
    <path class="cls-3" d="m419.04,974.68h0s-.08.07-.11.1h-.01c-2.6-1.96-13.34-12.84-27.18-27.15-2.76-51.63,9.63-134.63-15.92-174.67-8.82-12.22-22.1-27.7-38.83-24.88-2,.45-4.83-.6-6.65.21-37.03,23.31-25.99,72.59-26.01,109.66-.26.1-.5.2-.75.31-4.96-7.91-16.86-11.17-19.17-20.3-.56-56.1-1.79-112.16-2.55-168.25.28-.04.57-.1.84-.14,17.21,16.41,104.35,102.46,132.22,126.65,2.07,1.91,2.42,3.6,2.34,5.87-1.39,36.56.17,135.29,1.72,172.58h.07Z"/>
    <path class="cls-4" d="m390.71,945.06c-.02-.19-.03-.37-.03-.56-.83-9.54-.83-23.99-.71-40.42v-.29c.17-21.27.52-45.82-.44-67.29-.61-13.96-1.78-26.61-3.93-36.26-.95-4.35-2.11-8.07-3.5-11.03-12.45,11.22-24.68,22.62-36.82,34.13-4.37,4.15-8.71,8.31-13.06,12.47v.02c-4.7,4.5-9.41,9.03-14.09,13.57-3.01,2.91-6.01,5.82-9.02,8.73v.02c-.24.73.37,2.1,1.66,4.03.34.46.69.96,1.08,1.49.41.54.85,1.12,1.32,1.71.25.29.49.59.74.9v.02c.27.3.52.63.8.95.27.32.56.66.85,1,.59.68,1.22,1.39,1.86,2.11.66.73,1.34,1.49,2.05,2.28.73.78,1.47,1.59,2.23,2.42,1.17,1.24,2.39,2.54,3.65,3.87.02.02,0,.02,0,.02,1.08,1.13,2.2,2.28,3.32,3.47.46.46.91.91,1.37,1.39.63.66,1.29,1.34,1.98,2.03,0,0-.02,0,0,.02,1.96,2.03,4.03,4.13,6.14,6.28t.02.02c1.54,1.56,3.11,3.16,4.72,4.79.54.54,1.1,1.1,1.64,1.66,2.17,2.18,4.38,4.42,6.62,6.68,0,0,.02,0,.02.02,3.37,3.38,6.78,6.85,10.2,10.35t.02.02c1.15,1.15,2.28,2.32,3.42,3.49,0,0,.02,0,.02.02,2.86,2.91,5.7,5.84,8.49,8.76t.02.02c1.69,1.74,3.35,3.49,4.99,5.23,1.64,1.73,3.27,3.45,4.86,5.16,1.07,1.13,2.11,2.28,3.16,3.42.52.56,1.03,1.13,1.54,1.69,1.02,1.1,2.01,2.22,2.99,3.3-.05-.54-.12-1.1-.17-1.67Z"/>
    <path class="cls-8" d="m416.91,152.92c.52,21.66,1.02,42.71,1.53,64.03-15.29,9.35-30.51,18.66-46.18,28.25-1.1-19.94-.57-39.47-1.71-59.34-.01-1.25.7-3.02,1.67-3.7,14.99-10.04,29.06-19.99,44.69-29.25Z"/>
    <path class="cls-8" d="m397.53,289.35c-.27-19.05-1.12-37.14-.9-56.39-26.17,14.85-50.94,31.91-76.69,47.51-1.89,1.18-2.44,2.52-2.45,4.48-.24,29.74-.76,59.32-.76,89.1,26.7-15.87,52.79-32.77,79.11-49.23,4.18-6.23.78-26.71,1.69-35.46Zm-67.19,62.52c-2.32-2.08-1.27-5.02-1.29-7.61.63-15.62.86-31.28.91-46.93.58-3.52-1.74-8.26.88-11.01,5.36-3.59,10.81-7.07,16.21-10.63,12.5-8.31,24.16-16.11,36.82-24.62.22,1.57,1.02,63.97,1.1,65.09-3.74,2.55-42.53,26.83-54.63,35.72Z"/>
    <path class="cls-8" d="m138.19,273.25c8.68,8.03,16.75,14.94,25.48,23.27-10.35-.89-20.79,1.95-30.51-.69-18.08-16.12-36.21-31.54-53.19-48.95,1.52-1.08,14.35-8.31,17.82-10.9,3.46,3.04,20.46,20.16,29.52,27.36l10.88,9.9Z"/>
    <path class="cls-8" d="m128.28,188.68c.01-.44.02-.89.03-1.33-.51-2.16.81-3.2,2.28-4.32,14.42-11.01,28.77-22.14,43.25-33.08,17.46-13.98,19.33-5.98,18.52-30.35,35.97-27.67,74.58-53.15,111.4-80.1,32.55,32.4,64.85,64.56,97.45,97-33.94,22.24-67.94,43.8-102.2,65.45-25.24,15.56-18.97,9.8-20.08,38.39-1.73-2.3-5.81-4.82-5.81-5.52.16-6.29.18-15.71.2-22,.1-20.13.22-40.24.26-60.37-1.33-6.38-7.51-10.38-11.21-15.92,5.48-3.51,10.8-6.92,16.72-10.71.12,27.42.12,54.31-.11,81.65-.16,5.69,14.21-8.24,17.02-9.09,24.6-17.2,49.88-33.36,74.7-50.26,1.99-1.31,1.91-2.35.29-3.92-14.18-13.6-28.22-27.33-41.91-41.42-10.96-10.81-22.31-21.24-32.42-32.88-1.3-1.45-1.99-1.48-3.62-.28-18.07,13.18-36.63,25.68-54.91,38.55-10.45,7.36-20.85,14.79-31.17,22.31-1.01.74-1.73,2.41-1.85,3.72-.78,4.11,1.32,9.53-1.92,12.8-18.79,14.18-37.71,28.21-56.53,42.35-2.95,2.97-9.13,4.31-8.75,9.22l-9.62-9.91Z"/>
    <path d="m380.55,256.2c-2.77,1.42-4.8,2.64-6.26,3.81-.17.12-.32.24-.46.36-.32.27-.61.52-.86.8-.12.1-.22.22-.32.32-.39.42-.71.86-.98,1.29-.12.22-.24.44-.36.66-.27.56-.44,1.13-.56,1.74-.27,1.42-.22,3.03-.08,5.02.05.85.12,1.76.19,2.77.08,1.49.15,3.16.14,5.09.63,7.38-.15,15.24,1.39,22.38,2.77,2.88,5.63,5.67,8.49,8.49,2.37-17.53.1-34.8-.32-52.74Z"/>
    <path class="cls-3" d="m380.55,256.21c.41,17.93,2.69,35.21.31,52.74-2.85-2.83-5.71-5.63-8.48-8.49-1.55-7.14-.77-15.02-1.4-22.39.12-13.02-3.72-15.02,9.57-21.86Z"/>
    <path class="cls-8" d="m373.49,774.21c2.34,4.33,4.39,8.83,6.66,13.47-24.4,22.98-48.72,45.88-73.53,69.26-1.89-27.11-5.82-64.04,6.94-88.42,4.44-7.05,9.07-14.45,17.09-17.22,16.19-4.09,33.42,4.07,42.85,22.91Z"/>
    <path class="cls-3" d="m369.94,242.18c.01.36-.04.71-.13,2-13.39-13.27-25.46-26.9-37.89-39.75-1.13-29.35.88-19.28,23.02-35.39,4.87,6.57,14.45,11.34,13.94,20.27.46,17.62.75,35.26,1.05,52.88Z"/>
    <path class="cls-8" d="m369.58,292.5c.37,5.11-1.21,8.09-5.76,10.73-11.16,6.08-20.63,14.61-32.33,19.77.81-12.23-1.87-24.98,1.94-36.23,11.81-7.48,22.84-15.69,35.1-22.48.33,9.72.39,18.99,1.04,28.21Z"/>
    <path class="cls-8" d="m341.83,582.93c-.87,9.21,3.14,28.31-1.53,35.21-19.6,15.8-39.17,31.63-59.78,46.09-45.37,36.03-91.55,70.18-136.52,106.82-.27-58.43,1.05-116.02,2.27-174.45,1.67-9.07-2.64-29.88,4.34-34.99,14.94-11.35,30.06-22.45,45.57-33.95,1.97,12.01.82,24.31,1.14,36.49.87,12.33-3.91,25.82.09,37.54,47.33-35.1,94.01-72.95,141.34-107.78,1.35,29.64,2.05,59.35,3.09,89.01Z"/>
    <path class="cls-3" d="m333.65,148.2c4.29,4.32,8.57,8.63,13.16,13.23-4.74,3.19-9.18,6.17-13.88,9.33v-22.28c.24-.09.48-.19.72-.28Z"/>
    <path class="cls-8" d="m331.52,491.83c1.65-.09,3.32-.02,5.53-.02-46.16,35.45-91.93,70.58-137.74,105.76,0-22.51.01-44.48-.09-66.89-.01-3.14.63-5.64,3.51-7.67,12.05-8.26,23.34-17.46,35.59-25.43.4,16.06.79,31.91,1.19,48.04,18.55-14.09,37.4-27.48,56.35-41,14.27-12.05,17.23-12.42,35.67-12.79Z"/>
    <path class="cls-8" d="m330.28,148.43c-.1,6.75.21,13.17-.13,19.58,1.04,3.75-1.15,5.66-3.94,7.48-14.86,9.75-29.72,19.49-44.41,29.5-.28-.11-.54-.22-.82-.33,1.07-7.73-.44-16.62,2.19-23.8,15.72-10.77,30.81-22.61,47.12-32.43Z"/>
    <path class="cls-8" d="m329.59,185.19c-.85,6.25,1.98,13.71-1.54,18.65-15.58,10.37-30.91,20.62-46.6,30.87,1.01-6.55-2.6-16.52,2.46-20.73,15.28-9.53,30.27-19.49,45.68-28.8Z"/>
    <path class="cls-3" d="m312.84,278.99c1.7,1.73,2.35,3.52,2.33,5.89-.13,23.15-.03,46.2-.06,69.37-4.52-5.95-14.37-9.97-14.04-17.89-.99-11.09,4.94-24.9-5.08-32.86-34.86-39.1-30.69-20.59-30.08-74.03,2.64,3.1,10.9,11.83,13.69,14,9.94,12.72,22.19,23.73,33.25,35.52Z"/>
    <path class="cls-8" d="m315.03,372.76c.06,1.92-.32,2.85-2.75,2.4-17.83-3.37-35.68-6.65-53.55-9.8-32.26-6.52-26.8,2.48-48.52-24.28.11-.21.22-.41.33-.62,34.64,5.82,69.27,11.63,104.29,17.52-.04,5.21,0,9.74.21,14.79Z"/>
    <path class="cls-8" d="m303.88,100.85c.03,4.85.01,9.7.01,15.11-18.02-15.22-10.18-19.83-28.27-6.06.55-7.8-2.04-18.73,1.46-25.39,4.43-2.34,14.32-12.95,18.5-11.5,12.14,8.75,7.37,14.7,8.3,27.84Z"/>
    <path class="cls-3" d="m299.08,313.42c.16,4.94.08,9.88.08,14.66-24.27-3.49-46.66-8.06-70.67-11.4-4.08-1.94-.27-12.69-.8-17.12,15.5,2.59,30.67,5.18,46.09,7.83,6,1.95,22.05,1.82,25.3,6.03Z"/>
    <path class="cls-3" d="m298.45,332.59c.18,4.58.1,9.17.1,14.43-24.78-4-48.6-7.84-72.31-11.67v-16.33c20.35,2.44,40.33,6.68,60.46,10.49,3.59,1.23,9.43-.23,11.76,3.08Z"/>
    <path class="cls-3" d="m297.98,375.6c-.89,31.05-2.02,62.24-2.62,93.33-.18,5.82-.18,6.68-6.99,7.03-21.58.79-43.23.98-64.81.38-.08-26.67.54-53.28,1.27-79.93.04-1.6-.41-3.76,2.54-3.7,2.85-9.12.66-20.27,2.12-29.93,22.91,4.48,46.2,5.61,68.49,12.82Z"/>
    <path class="cls-3" d="m295.02,493.72c-.33,3.77,1.14,7.6-2.8,10.39-16.81,12.41-33.22,24.09-50.43,36.13-.39-14.74-.77-28.92-1.14-43.42,18.22-1.04,36.1-2.06,54.37-3.11Z"/>
    <path class="cls-8" d="m283.49,836.62c1.06,3.47-15.85,15.83-18.62,18.66-3.25-31.69,1.81-65.97-9.89-95.89-10.62-27.39-41.55-22.93-61.02-7.63-6.16,4.84-10.67,11.46-12.93,18.97-12.84,42.74-9.67,159.04-9.08,170.56-12.7,11.61-23.08,21.08-27.95,25.51.87-45.28-1.27-143.81-.01-187.1.08-2.75.23-28.63,2.82-30.7,44.02-35.92,88.8-70.77,133.9-105.34,2.01,56.63.72,136.26,2.78,192.96Z"/>
    <path class="cls-3" d="m273.21,107.36c.1,2.83.26,5.3-3.55,6.09-4.36-4.48-9.04-9.29-13.95-14.33,5.75-4,11.5-8,17.43-12.13,0,7.14-.16,13.77.08,20.37Z"/>
    <path class="cls-3" d="m269.81,148.75c2,2.38,1.92,2.82-.62,4.48-11.13,7.21-22.25,14.45-33.3,21.77-.28-.12-.56-.26-.84-.38-1.46-28.11,3.38-21.32,25.5-36.69,3.21,3.73,6.27,7.25,9.27,10.81Z"/>
    <path class="cls-3" d="m277.31,123.88c-14.1,9.52-27.88,18.23-42.06,27.42-4.71,5.16-.95,14.99-2.11,21.69-.28.1-.56.2-.83.31-7.33-6.17-14.29-12.73-21.2-19.37-6.51-4.79-3.03-13.4-3.55-20.43,4.94-6.69,14.61-10.01,21.17-15.51,8.8-5.77,16.6-12.31,25.72-17.67,7.53,7.76,15.04,15.49,22.87,23.56Z"/>
    <path class="cls-3" d="m259.19,789.89c1.6,21.8,3.42,43.38,3.02,65.31-17.03-16.89-35.07-32.95-52.2-49.77-9.03-8.78-17.84-17.76-26.81-26.61-.1-.1-.19-.18-.3-.27l-2.62-2.27c4.36-21.86,35.47-39.73,54.07-34.2,0,0,0,0,0,0,18.22,8.17,24.99,28.81,24.83,47.81,0,0,0,0,0,0Z"/>
    <path class="cls-3" d="m225.72,362.4c3.04,7.98-.02,17.6.52,26.12-.37.29-.73.58-1.09.87-20.97-21.27-16.65-16.29-16.87-45.3.36-.08.71-.17,1.07-.26,5.47,6.17,11.13,12.21,16.37,18.57Z"/>
    <path class="cls-8" d="m224.6,256.72c.06,1.83-.46,3.01-1.92,4-18.29,11.89-35.6,24.96-54.57,35.8-.94-19.66,1.72-38.29.13-57.47-.31-2.79,2.73-10.94.19-12.09,10.23-10.05,24.13-17.2,35.6-26.26,6.12-3.55,11.49-10.1,18.16-12.02,3.45,21.68.82,45.64,2.41,68.04Z"/>
    <path class="cls-3" d="m204.92,338.74c4.62,7.67.41,20.71,1.23,30.17-12.85-11.62-24.23-24.48-36.11-37.04-2.77-8.56-1.88-18.28-.49-27.33,12.36,11.5,23.51,22.46,35.37,34.2Z"/>
    <path class="cls-8" d="m195.42,483.37c1.9,10.23-11.1,13.77-17.03,19.75-.37-.07-.73-.12-1.09-.19.29-42.47.58-84.94.88-127.41.36-.18.72-.36,1.08-.53,4.28,6.89,14.03,9.99,15.63,18.21-.25,30.06.85,60.14.53,90.18Z"/>
    <path class="cls-3" d="m190.49,121.95c.13,3.66.06,7.35.06,11.02-.31.09-.62.19-.93.28-8.64-7.74-17.37-15.41-25.92-23.23-3.29-4.67-1.04-10.78-1.64-16.6,9.52,9.83,21.14,17.42,28.44,28.53Z"/>
    <path class="cls-3" d="m175.44,371c1.63,42.48,1.23,86.12-.78,129.21-7.35-7.41-15.08-14.44-22.4-21.87-4.04-6.05-.76-14.39-1.39-21.29.06-2.71-1.13-5.01-3.15-6.84-19.23-15.73-13.26-14.08-13.94-37.36.48-27.01,1.49-54.01,1.65-81.03.38-.09.75-.19,1.12-.28,13.16,12.96,26.25,25.99,38.89,39.45Z"/>
    <path class="cls-3" d="m166.02,266.21c-.1,10.09.25,19.57-.18,29.73-8.71-7.29-16.1-13.73-23.17-22.07-4.25-1.33-4.15-4.66-4.02-8.23,1.24-22.35.35-44.34,1.69-66.73,35.49,33.18,23.71,19.47,25.68,67.3Z"/>
    <path class="cls-8" d="m166.01,300.08v28.89c-4.97-1.06-31.03,2.73-30.17-2.94.33-7.96.5-15.93.82-23.89.85-5.25,9.01-1.67,12.8-2.74,5.52.3,11.32-1.53,16.55.69Z"/>
    <path d="m144.01,966.81c0,.24-.01.46-.01.68-.5.29-.8.56-1.18.63,0-.08-.01-.15-.01-.23.36-.3.75-.67,1.2-1.08Z"/>
    <path class="cls-3" d="m130.52,296.38c7.63,7.3,2.77,20.87,3.17,30.58-17.73-16.48-34.39-33.49-51.66-50.1-4.48-6.61-1.57-16.36-2.93-24.13.3-.1.59-.2.88-.3,16.7,14.82,33.43,29.62,50.54,43.95Z"/>
    <path class="cls-8" d="m132.03,417.71c-.56,6.91,1.16,13.97-.73,19.95-6.56,3.57-12.34,8.83-19.36,11.23-.93,7.15,2.15,17.25-1.7,22.98-10.79,6.44-21.23,13.61-32.3,19.48.95-9.16-1.18-37.36,3.87-42.74,16.28-11.18,33.42-20.53,50.21-30.91Z"/>
    <path class="cls-3" d="m124.02,183.28c1.74,1.67,26.53,24.87,26.5,27.07-.43,23.19-2.45,44.56-4.15,67.69-8.83-8.59-42.05-35.19-48.73-45.27-.84-25.2-1.62-50.47-.94-75.57,9.68,8.28,18.01,17.46,27.32,26.08Z"/>
    <path class="cls-8" d="m89.65,333.67c.41,12.22-.71,24.41-.97,36.63-.11,3.01-.74,5.63-3.99,7.03-16.51,8.21-30.31,18.55-45.58,29.34-.26-13.55.32-25.59.32-38.72-.3-5.41,3.71-7,7.1-9.1,14.32-8.34,28.41-17.8,43.11-25.18Z"/>
    <path class="cls-3" d="m132.96,367.18v49.23c-.31.08-.62.16-.93.24-13.09-12.58-26.31-24.67-39.52-36.99-3.08-8.9.28-19.63-.33-29.12.39-6.23-.8-11.79,1.5-17.9,13.61,11.97,26.67,23.43,39.29,34.52Z"/>
  </g>
  <g id="Right_Spot" data-name="Right Spot">
    <path class="cls-7" d="m566.65,287.42c.34,22.64,2.41,19.45-16.7,31.65-1.86,1.28-3.32.78-4.71-.58-4.03-4.86-10.91-8.48-12.95-14.51.31-22.07-2.25-17.27,16.02-29.23,5.71-3.78,18.33,12.67,18.33,12.67Z"/>
  </g>
  <g id="Bottom_Spot" data-name="Bottom Spot">
    <path class="cls-7" d="m295.11,918.37c.34,22.64,2.41,19.45-16.7,31.65-1.86,1.28-3.32.78-4.71-.58-4.03-4.86-10.91-8.48-12.95-14.51.31-22.07-2.25-17.27,16.02-29.23l18.33,12.67Z"/>
  </g>
  <g id="Left_Spot" data-name="Left Spot">
    <path class="cls-8" d="m36.51,151.02c.34,22.64.92,19.09-18.19,31.29,0,0-14.13-8.7-16.16-14.72.31-22.07-2.25-17.27,16.02-29.23l18.33,12.67Z"/>
  </g>
  <g id="Path_Grey" data-name="Path Grey">
    <path class="cls-4" d="m633.26,506.57c2.81,2.29,5.54,4.67,8.45,7.12-43.18,33.88-86.17,67.61-129.1,101.3-15.49-11.12-30.41-23.07-45.58-36.16,36.36-28.03,71.29-58.24,108-85.95,1.28-.94,1.4-2.48-.1-3.33-33.75-25.03-65.03-53.5-97.71-79.99-33.17-26.59-15.87-22.52-56.69,3.76-26.91,19.89-54.72,38.54-81.14,59.06-21.05,15.53-13.8,8.97-35.36-6.33,44.48-30.69,88.56-61.05,133.51-90.91,4.96-2.07,16.77-14.53,21.04-11.16,10.98,9.07,22.07,18,33.08,27.01,47.09,38.66,94.44,76.99,141.6,115.58Z"/>
  </g>
  <g id="Arch_Grey" data-name="Arch Grey">
    <path class="cls-4" d="m469.26,400.51c.57,31.73,1.13,63.44,1.69,95.17-.09.04-.18.08-.27.12-5.81-14.78-18.41-63.24-41.07-45.59-7.38,7.55-12.52,16.25-14.18,26.78-4.66,25.47-4.12,50.57-5.52,76.63-6.94-20.64-21.65-96.17-50.85-53.59-13.99,24.29-11.66,52.58-15.25,79.36-.77-15.42-.93-30.86-1.48-46.29.97-8.34-4.13-38.85.68-42.48,41.43-30.62,82.85-61.39,125.4-90.43.28.11.57.21.84.32Z"/>
  </g>
  <g id="Arch_Black" data-name="Arch Black">
    <path class="cls-8" d="m469.26,400.51c.57,31.73,1.13,63.44,1.69,95.17-.09.04-.18.08-.27.12-5.81-14.78-18.41-63.24-41.07-45.59-7.38,7.55-12.52,16.25-14.18,26.78-4.66,25.47-4.12,50.57-5.52,76.63-6.94-20.64-21.65-96.17-50.85-53.59-13.99,24.29-11.66,52.58-15.25,79.36,0,0-1.49,44.13-3.52,38.74-2.91-7.71-42-84.43-42.32-93.52,0,0,40.23-30.37,45.04-34.01,41.43-30.62,82.85-61.39,125.4-90.43.28.11.57.21.84.32Z"/>
  </g>
  <g id="Arch._Yellow" data-name="Arch. Yellow">
    <g>
      <path class="cls-3" d="m471.29,514.15c-.21.11-.41.22-.61.32-5.39-5.47-14.7-9.47-17.95-16.21,2.03-17.02-3.44-35.12-12.75-49.3,18.38,5.63,28.3,47.62,31.32,65.19Z"/>
      <path class="cls-3" d="m408.98,556.77c.52,2.09.67,4.27,1.05,7.03l-15.72-17.54c-2.25-15.39-6.46-48.8-20.95-56.58,20.14-3.85,30.24,52.24,35.61,67.1Z"/>
    </g>
  </g>
  <g id="Grey_Floor" data-name="Grey Floor">
    <path class="cls-4" d="m239.46,842.09c9.76,9.31,19.32,17.71,28.54,27.79-8.57,7.76-55.57,50.77-88.54,80.88,4.05-57.4-6.51-107.15,5.94-161.53l.91.23c15.47,18.63,36.17,34.66,53.15,52.63Z"/>
  </g>
  <g id="Grey_Side_Panel" data-name="Grey Side Panel">
    <path class="cls-4" d="m145.53,566.77c-1.57,127.89-6.03,272.42-2.72,401.12-.13.12-.27.24-.39.36.25-.58-142.29-117.07-142.42-117.44L.13,321.91c49.84,49.39,35.82,22.92,36.5,89.01,12.68,11.32,25.39,23.21,37.69,34.91,8.17,4.43,1.43,39.17,2.64,49.63-.02,2.81.1,5.91,2.43,8.14,21.3,21.58,46.71,40.22,66.13,63.17Z"/>
  </g>
  <g id="Yellow_Side_Panel" data-name="Yellow Side Panel">
    <path class="cls-3" d="m146.03,523.4c-1.57,127.89-6.03,272.42-2.72,401.12-.13.12-.27.24-.39.36.25-.58-142.29-117.07-142.42-117.44l.13-528.9c49.84,49.39,35.82,22.92,36.5,89.01,12.68,11.32,25.39,23.21,37.69,34.91,8.17,4.43,1.43,39.17,2.64,49.63-.02,2.81.1,5.91,2.43,8.14,21.3,21.58,46.71,40.22,66.13,63.17Z"/>
  </g>
</svg>